<?xml version="1.0" encoding="utf-8"?>
<!-- Generator: Adobe Illustrator 25.2.1, SVG Export Plug-In . SVG Version: 6.00 Build 0)  -->
<svg version="1.1" id="Layer_1" xmlns="http://www.w3.org/2000/svg" xmlns:xlink="http://www.w3.org/1999/xlink" x="0px" y="0px"
	 viewBox="0 0 190 227" style="enable-background:new 0 0 190 227;" xml:space="preserve">
<style type="text/css">
	.st0{fill:none;stroke:url(#SVGID_1_);stroke-width:0.7;stroke-miterlimit:10;}
	.st1{opacity:0.6;}
	.st2{fill:url(#SVGID_2_);}
	.st3{fill:url(#SVGID_3_);}
	.st4{fill:none;stroke:url(#SVGID_4_);stroke-width:0.7;stroke-miterlimit:10;}
	.st5{fill:url(#SVGID_5_);}
	.st6{fill:url(#SVGID_6_);}
	.st7{fill:url(#SVGID_7_);}
	.st8{fill:url(#SVGID_8_);}
	.st9{fill:url(#SVGID_9_);}
	.st10{fill:none;stroke:url(#SVGID_10_);stroke-width:0.27;stroke-miterlimit:10;}
	.st11{fill:url(#SVGID_11_);}
	.st12{fill:url(#SVGID_12_);}
	.st13{fill:url(#SVGID_13_);}
	.st14{fill:url(#SVGID_14_);}
	.st15{fill:url(#SVGID_15_);}
	.st16{fill:none;stroke:url(#SVGID_16_);stroke-width:0.27;stroke-miterlimit:10;}
	.st17{fill:none;stroke:url(#SVGID_17_);stroke-width:0.42;stroke-miterlimit:10;}
	.st18{fill:url(#SVGID_18_);}
	.st19{fill:url(#SVGID_19_);}
	.st20{opacity:0.8;}
	.st21{fill:url(#SVGID_20_);stroke:url(#SVGID_21_);stroke-width:0.42;}
	.st22{fill:url(#SVGID_22_);stroke:url(#SVGID_23_);stroke-width:0.42;}
	.st23{fill:url(#SVGID_24_);stroke:url(#SVGID_25_);stroke-width:0.42;}
	.st24{fill:url(#SVGID_26_);stroke:url(#SVGID_27_);stroke-width:0.42;}
	.st25{fill:url(#SVGID_28_);stroke:url(#SVGID_29_);stroke-width:0.42;}
	.st26{fill:url(#SVGID_30_);stroke:url(#SVGID_31_);stroke-width:0.42;}
	.st27{fill:url(#SVGID_32_);stroke:url(#SVGID_33_);stroke-width:0.42;}
	.st28{fill:url(#SVGID_34_);stroke:url(#SVGID_35_);stroke-width:0.42;}
	.st29{fill:url(#SVGID_36_);stroke:url(#SVGID_37_);stroke-width:0.42;}
	.st30{fill:url(#SVGID_38_);stroke:url(#SVGID_39_);stroke-width:0.42;}
	.st31{fill:url(#SVGID_40_);stroke:url(#SVGID_41_);stroke-width:0.42;}
	.st32{fill:url(#SVGID_42_);stroke:url(#SVGID_43_);stroke-width:0.42;}
	.st33{opacity:0.4;}
	.st34{fill:url(#SVGID_44_);stroke:url(#SVGID_45_);stroke-width:0.42;}
	.st35{fill:url(#SVGID_46_);stroke:url(#SVGID_47_);stroke-width:0.42;}
	.st36{fill:url(#SVGID_48_);stroke:url(#SVGID_49_);stroke-width:0.42;}
	.st37{fill:url(#SVGID_50_);stroke:url(#SVGID_51_);stroke-width:0.42;}
	.st38{fill:url(#SVGID_52_);stroke:url(#SVGID_53_);stroke-width:0.42;}
	.st39{fill:url(#SVGID_54_);stroke:url(#SVGID_55_);stroke-width:0.42;}
	.st40{fill:url(#SVGID_56_);stroke:url(#SVGID_57_);stroke-width:0.42;}
	.st41{fill:url(#SVGID_58_);stroke:url(#SVGID_59_);stroke-width:0.42;}
	.st42{fill:url(#SVGID_60_);stroke:url(#SVGID_61_);stroke-width:0.42;}
	.st43{fill:url(#SVGID_62_);stroke:url(#SVGID_63_);stroke-width:0.42;}
	.st44{fill:url(#SVGID_64_);stroke:url(#SVGID_65_);stroke-width:0.42;}
	.st45{fill:url(#SVGID_66_);stroke:url(#SVGID_67_);stroke-width:0.42;}
	.st46{fill:url(#SVGID_68_);stroke:url(#SVGID_69_);stroke-width:0.84;stroke-miterlimit:10;}
	.st47{opacity:0.2;}
	.st48{fill-rule:evenodd;clip-rule:evenodd;fill:url(#SVGID_70_);}
	.st49{fill-rule:evenodd;clip-rule:evenodd;fill:url(#SVGID_71_);}
	.st50{fill:url(#SVGID_72_);}
	.st51{fill-rule:evenodd;clip-rule:evenodd;fill:url(#SVGID_73_);}
	.st52{fill:url(#SVGID_74_);}
	.st53{fill:url(#SVGID_75_);}
	.st54{fill:none;stroke:url(#SVGID_76_);stroke-width:0.84;}
	.st55{fill:url(#SVGID_77_);}
	.st56{fill:none;stroke:url(#SVGID_78_);stroke-width:0.84;}
</style>
<g id="platform">
	<g id="Capa_5">
		<g>
			
				<linearGradient id="SVGID_1_" gradientUnits="userSpaceOnUse" x1="97.5431" y1="1048.9406" x2="94.7131" y2="969.6106" gradientTransform="matrix(1 0 0 1 0 -820)">
				<stop  offset="0" style="stop-color:#FF8789"/>
				<stop  offset="0.53" style="stop-color:#84A2FC"/>
				<stop  offset="0.72" style="stop-color:#205FE3"/>
				<stop  offset="1" style="stop-color:#030F28;stop-opacity:0.46"/>
			</linearGradient>
			<path class="st0" d="M155.4,174.7c3.6,2.1,3.6,5.5,0.1,7.6l-53,31c-4.1,2.1-8.9,2.1-13,0l-53.3-31c-3.6-2.1-3.6-5.5-0.1-7.6
				l53-31c4.1-2.1,8.9-2.1,13,0L155.4,174.7z"/>
			<g class="st1">
				
					<linearGradient id="SVGID_2_" gradientUnits="userSpaceOnUse" x1="88.5352" y1="1091.2372" x2="96.4252" y2="968.0571" gradientTransform="matrix(1 0 0 1 0 -820)">
					<stop  offset="0" style="stop-color:#FF8789"/>
					<stop  offset="0.53" style="stop-color:#84A2FC"/>
					<stop  offset="0.72" style="stop-color:#205FE3"/>
					<stop  offset="1" style="stop-color:#030F28;stop-opacity:0"/>
				</linearGradient>
				<path class="st2" d="M158.4,139.7c-13.1,0-124.9,1.3-124.9,0l-0.1,33.8c0,1.3,0.9,2.7,2.7,3.8l53.5,30.4
					c0.2,0.1,0.4,0.2,0.7,0.4c0.1,0.1,0.2,0.1,0.2,0.1c0.1,0.1,0.3,0.1,0.4,0.2H91c0.3,0.1,0.7,0.2,1,0.3l0,0c0.1,0,0.2,0.1,0.2,0.1
					c0.2,0.1,0.4,0.1,0.6,0.1c0.1,0,0.1,0,0.1,0.1c0.1,0,0.2,0,0.2,0.1c0.2,0,0.3,0.1,0.5,0.1c0.1,0,0.1,0,0.2,0.1h0.2
					c0.1,0,0.3,0.1,0.4,0.1h2.2c0.2,0,0.4,0,0.6-0.1h0.3c0.4-0.1,0.7-0.1,1-0.1h0.1c0.1,0,0.2-0.1,0.3-0.1s0.4-0.1,0.5-0.1
					c0.1,0,0.3-0.1,0.4-0.1c0.2-0.1,0.3-0.1,0.5-0.1h0.1c0.1,0,0.1-0.1,0.2-0.1c0.2-0.1,0.5-0.2,0.7-0.2c0.1-0.1,0.2-0.1,0.2-0.1
					c0.3-0.1,0.6-0.3,0.9-0.4l53.1-30.4c0.1,0,0.1-0.1,0.1-0.1s0.2-0.1,0.2-0.2c0.1,0,0.2-0.1,0.3-0.2c0.1-0.1,0.2-0.1,0.2-0.2
					c0.1-0.1,0.2-0.1,0.3-0.2c0,0,0.1,0,0.1-0.1l0.3-0.3l0.1-0.1c0.1-0.1,0.1-0.1,0.2-0.2c0,0,0.1-0.1,0.1-0.1
					c0.1-0.1,0.1-0.2,0.2-0.3c0-0.1,0.1-0.1,0.1-0.1c0,0,0-0.1,0.1-0.1c0.1-0.1,0.1-0.2,0.1-0.3c0-0.1,0.1-0.1,0.1-0.2v-0.1
					c0.1-0.1,0.1-0.2,0.1-0.2c0-0.1,0.1-0.1,0.1-0.2v-0.1c0-0.1,0-0.2,0.1-0.3L158.4,139.7L158.4,139.7z"/>
			</g>
			<g>
				
					<linearGradient id="SVGID_3_" gradientUnits="userSpaceOnUse" x1="17.8092" y1="963.9241" x2="140.7192" y2="988.8341" gradientTransform="matrix(1 0 0 1 0 -820)">
					<stop  offset="0" style="stop-color:#FF8789"/>
					<stop  offset="0.44" style="stop-color:#84A2FC"/>
					<stop  offset="0.72" style="stop-color:#205FE3"/>
					<stop  offset="1" style="stop-color:#030F28"/>
				</linearGradient>
				<path class="st3" d="M155.3,155.9c3.6,2.1,3.6,5.5,0.1,7.6l-53,31c-4.1,2.1-8.9,2.1-13,0l-53.3-31c-3.6-2.1-3.6-5.5-0.1-7.6
					l53-31c4.1-2.1,8.9-2.1,13,0L155.3,155.9z"/>
				
					<linearGradient id="SVGID_4_" gradientUnits="userSpaceOnUse" x1="95.7083" y1="1030.2301" x2="95.6283" y2="970.5601" gradientTransform="matrix(1 0 0 1 0 -820)">
					<stop  offset="0" style="stop-color:#FF8789"/>
					<stop  offset="0.53" style="stop-color:#84A2FC"/>
					<stop  offset="0.72" style="stop-color:#205FE3"/>
					<stop  offset="1" style="stop-color:#030F28"/>
				</linearGradient>
				<path class="st4" d="M155.3,155.9c3.6,2.1,3.6,5.5,0.1,7.6l-53,31c-4.1,2.1-8.9,2.1-13,0l-53.3-31c-3.6-2.1-3.6-5.5-0.1-7.6
					l53-31c4.1-2.1,8.9-2.1,13,0L155.3,155.9z"/>
			</g>
			<g>
				
					<linearGradient id="SVGID_5_" gradientUnits="userSpaceOnUse" x1="82.41" y1="996.05" x2="84.8" y2="996.05" gradientTransform="matrix(1 0 0 1 0 -820)">
					<stop  offset="0.17" style="stop-color:#2E3192"/>
					<stop  offset="0.6" style="stop-color:#000547"/>
				</linearGradient>
				<path class="st5" d="M84.7,177.7L84.7,177.7L84.7,177.7L84.7,177.7L84.7,177.7L84.7,177.7L84.7,177.7L84.7,177.7v-5.2v0.1
					c0,0,0,0,0,0.1l0,0l0,0l0,0l0,0l-2.2,1.8v5.1L84.7,177.7C84.7,177.8,84.7,177.8,84.7,177.7z"/>
				
					<linearGradient id="SVGID_6_" gradientUnits="userSpaceOnUse" x1="59.08" y1="995.945" x2="61.48" y2="995.945" gradientTransform="matrix(1 0 0 1 0 -820)">
					<stop  offset="0.17" style="stop-color:#2E3192"/>
					<stop  offset="0.6" style="stop-color:#000547"/>
				</linearGradient>
				<path class="st6" d="M59.2,177.8l2.2,1.8v-5.1l-2.2-1.7c-0.1-0.1-0.1-0.1-0.1-0.2v5.1C59.1,177.6,59.1,177.7,59.2,177.8z"/>
				
					<linearGradient id="SVGID_7_" gradientUnits="userSpaceOnUse" x1="66.7329" y1="998.696" x2="77.1529" y2="998.696" gradientTransform="matrix(1 0 0 1 0 -820)">
					<stop  offset="0.17" style="stop-color:#2E3192"/>
					<stop  offset="0.6" style="stop-color:#000547"/>
				</linearGradient>
				<path class="st7" d="M66.7,182.5L66.7,182.5c0-0.1,0-0.1,0-0.2c0,0,0,0,0-0.1c0,0,0-0.1,0-0.1c0,0,0,0,0-0.1c0,0,0-0.1,0-0.1
					s0-0.1,0-0.1s0-0.1,0-0.1s0-0.1,0-0.1s0,0,0-0.1s0,0,0-0.1s0,0,0.1-0.1s0,0,0-0.1s0,0,0.1-0.1s0,0,0-0.1c0-0.1,0.1-0.1,0.1-0.1
					c0-0.1,0.1-0.1,0.2-0.1v-0.1l0.1-0.1c0,0,0,0,0.1-0.1c0,0,0.1,0,0.1-0.1l0.1-0.1c0,0,0.1,0,0.1-0.1l0.1-0.1h0.1l0.1-0.1
					c0.1-0.1,0.2-0.1,0.3-0.2h0.1l0.3-0.1h0.1l0.4-0.1l0.2-0.1l0.2-0.1l0.2-0.1l0.2-0.1c0,0,0,0,0.1,0l0.4-0.1h0.1h0.2
					c0.1,0,0.2,0,0.4,0h0.4c0.1,0,0.3,0,0.4,0c0.1,0,0.2,0,0.3,0h0.2H73h0.2h0.2c0.1,0,0.2,0,0.2,0c0.1,0,0.2,0,0.3,0.1l0.2,0.1h0.1
					l0.4,0.1l0.3,0.1l0.2,0.1c0.1,0.1,0.3,0.1,0.4,0.2c0.9,0.4,1.5,1.2,1.5,2.1v-5.1c-0.1-0.9-0.7-1.8-1.5-2.1
					c-0.1-0.1-0.3-0.1-0.4-0.2l-0.2-0.1l-0.3-0.1l0,0c-0.1-0.1-0.2-0.1-0.4-0.1h-0.1h-0.1c0,0-0.1,0-0.1,0l-0.3-0.1h-0.1h-0.1
					c-0.1,0-0.2,0-0.2,0h-0.1c0,0-0.1,0-0.1,0c-0.1,0-0.2,0-0.2,0h-0.1h-0.1h-0.3h-0.8H71c0,0-0.1,0-0.2,0l0,0c0,0-0.1,0-0.1,0
					l-0.4,0.1c0,0,0,0-0.1,0l0,0h-0.2l-0.2,0.1c-0.1,0-0.2,0-0.2,0l-0.2,0.1l0,0c-0.2,0-0.3,0-0.5,0.1h-0.1c-0.1,0-0.2,0.1-0.3,0.1
					h-0.1c-0.1,0.1-0.2,0.1-0.3,0.2h-0.1H68l-0.1,0.1l-0.1,0.1l-0.1,0.1l-0.1,0.1c0,0-0.1,0-0.1,0.1c0,0,0,0-0.1,0l-0.1,0.1l0,0l0,0
					c-0.1,0.1-0.1,0.1-0.2,0.1s-0.1,0.1-0.1,0.1l0,0l0,0v0.1v0.1c0,0,0,0,0,0.1l0,0l0,0c0,0,0,0,0,0.1s0.1,0.1,0.1,0.1s0,0.1,0,0.1
					s0,0,0,0l0,0c0,0,0,0.1,0,0.1s0,0.1,0,0.1s0,0.1,0,0.1v0.1c0,0,0,0.1,0,0.1v0.3v5.1v-0.2L66.7,182.5z"/>
				
					<linearGradient id="SVGID_8_" gradientUnits="userSpaceOnUse" x1="51.9341" y1="966.1271" x2="78.8541" y2="1012.6171" gradientTransform="matrix(1 0 0 1 0 -820)">
					<stop  offset="0" style="stop-color:#FF8789"/>
					<stop  offset="0.53" style="stop-color:#84A2FC"/>
					<stop  offset="0.59" style="stop-color:#205FE3"/>
					<stop  offset="1" style="stop-color:#030F28"/>
				</linearGradient>
				<path class="st8" d="M87.5,177.7v0.5c0,0.1,0,0.1,0,0.2l0,0c0,0.1,0,0.1,0,0.2l0,0c0,0,0,0.1,0,0.1l0,0c0,0.1,0,0.1,0,0.1
					c0,0,0,0,0,0.1c0,0,0,0,0,0.1l0,0h-0.1l0,0l-0.1,0.1h-0.2l0,0h-0.1H87c0,0-0.1,0-0.1,0l-1.7,0.1c-0.5,0-0.9,0.1-1.2,0.1
					l-0.5,0.1c0,0-0.1,0.1-0.1,0.2c-0.1,0.2-0.2,0.4-0.4,0.6c0,0-0.1,0.1-0.1,0.1c-0.1,0.1-0.1,0.2-0.2,0.3s0,0-0.1,0.1
					c-0.1,0.1-0.2,0.2-0.2,0.3v3.6l-1,0.6l-0.2,0.1l0,0c0,0-0.1,0-0.1,0h-0.1L81,185h-0.3h-0.1l0,0h-0.1l-3.1-1.3l-0.5,0.1
					c-0.1,0-0.1,0-0.2,0c-0.1,0-0.2,0.1-0.3,0.1c-0.1,0-0.1,0-0.2,0L76,184h-0.2l-0.3,0.1c0,0.1,0,0.1-0.1,0.2s0,0,0,0.1
					s0,0.1,0,0.2s0,0.1,0,0.1s0,0.1,0,0.2c0,0,0,0.1,0,0.1c0,0.1,0,0.1,0,0.2c0,0,0,0,0,0.1l0,0c0,0,0,0,0,0.1c0,0.1,0,0.1,0,0.2
					s0,0.1,0,0.1c0,0.1,0,0.1,0,0.2c0,0,0,0,0,0.1s0,0.2-0.1,0.3s0,0.1,0,0.1l0,0c0,0,0,0,0,0.1l0,0h-0.1c0,0,0,0-0.1,0l0,0
					l-0.1,0.1l0,0h-0.1c0,0,0,0-0.1,0H75h-0.2h-0.1c-0.1,0-0.1,0-0.2,0H70c-0.1,0-0.1,0-0.2,0l0,0c0,0-0.1,0-0.1,0h-0.1
					c0,0-0.1,0-0.1,0l0,0h-0.1l0,0h-0.1l0,0h-0.1h-0.1c-0.1-0.1-0.2-0.2-0.2-0.3l-0.4-2l-0.5-0.1c-0.2,0-0.4-0.1-0.6-0.1h-0.2
					l-0.4-0.1c-0.1,0-0.2,0-0.3-0.1c-1.4,0.7-2.5,1.1-3.1,1.3h-0.1h-0.1h-0.4h-0.1l0,0h-0.1l-0.1-0.1l-1-0.6v-3.6
					c-0.3-0.3-0.5-0.7-0.8-1.1l-3.5-0.2c0,0-0.1,0-0.1,0h-0.1l0,0H57l-0.1-0.1c-0.1-0.1-0.2-0.2-0.2-0.3c-0.1-0.6-0.1-1.2-0.1-1.6
					v5.1c0,0.5,0,1.1,0.1,1.6c0,0.1,0.1,0.2,0.2,0.3l0.1,0.1h0.1l0,0h0.1l0,0h0.1l2,0.1v3.2c0,0.1,0.1,0.2,0.2,0.3l3,1.9l0.1,0.1
					l0,0l0,0l0,0l0,0h0.1h0.4c0,0,0.1,0,0.1,0l0,0l0,0c0.6-0.2,1.6-0.6,3.1-1.3l0.2,0.1h0.1l0.4,0.1c0,0,0.1,0,0.2,0
					c0.2,0,0.4,0.1,0.6,0.1l0,0l0.4,0.1l0,0l0.4,2c0,0.1,0.1,0.2,0.2,0.3l0,0h0.1c0,0,0,0,0.1,0l0,0h0.2l0,0c0,0,0.1,0,0.1,0h0.1
					c0,0,0.1,0,0.1,0l0,0c0.1,0,0.1,0,0.2,0h4c0.1,0,0.1,0,0.2,0h0.1h0.2h0.2h0.1l0,0l0.1-0.1l0,0l0,0h0.1c0,0,0,0,0-0.1l0,0l0,0
					l0,0l0,0c0,0,0,0,0-0.1l0,0c0-0.1,0-0.2,0.1-0.3s0-0.1,0-0.1s0-0.1,0-0.2s0-0.1,0-0.1s0-0.1,0-0.2c0,0,0,0,0-0.1
					c0,0,0-0.1,0-0.1c0-0.1,0-0.1,0-0.2c0,0,0-0.1,0-0.1c0-0.1,0-0.1,0-0.2s0,0,0-0.1c0-0.1,0-0.1,0-0.2c0,0,0-0.1,0-0.1
					s0-0.1,0.1-0.2h0.1c0.1,0,0.1,0,0.2,0h0.2l0.3-0.1h0.2l0.3-0.1h0.2c0.2,0,0.3-0.1,0.5-0.1l3.1,1.3h0.1c0,0,0,0,0.1,0h0.3
					c0,0,0.1,0,0.1,0l0,0c0,0,0.1,0,0.1,0l0,0l0.2-0.1l3.2-1.8l0,0l0,0l0.1-0.1l0,0l0,0l0,0l0,0l0,0l0,0l0,0v-3.3H85l1.7-0.1l0,0
					c0,0,0.1,0,0.1,0l0,0c0,0,0.1,0,0.1,0l0,0l0.2-0.1l0,0c0,0,0,0,0.1,0l0,0l0,0l0,0l0,0l0,0l0,0v-0.1c0,0,0-0.1,0-0.1l0,0
					c0,0,0-0.1,0-0.1l0,0c0-0.1,0-0.1,0-0.2l0,0c0-0.1,0-0.1,0-0.2v-0.5L87.5,177.7z"/>
				
					<linearGradient id="SVGID_9_" gradientUnits="userSpaceOnUse" x1="66.8801" y1="1020.9435" x2="73.4201" y2="990.7935" gradientTransform="matrix(1 0 0 1 0 -820)">
					<stop  offset="0" style="stop-color:#FF8789"/>
					<stop  offset="0.53" style="stop-color:#84A2FC"/>
					<stop  offset="0.72" style="stop-color:#205FE3"/>
					<stop  offset="1" style="stop-color:#030F28"/>
				</linearGradient>
				<path class="st9" d="M84.8,182.8c0,0.1-0.1,0.2-0.2,0.3l-3.2,1.9c-0.1,0.1-0.3,0.1-0.4,0.1c-0.2,0-0.3,0-0.5-0.1l-3.1-1.3
					c-0.7,0.2-1.3,0.3-1.9,0.4c-0.2,0.7-0.3,1.3-0.4,2c0,0.1-0.1,0.2-0.2,0.3c-0.1,0.1-0.3,0.1-0.5,0.1c-0.6,0.1-1.6,0.1-3,0.1
					c-0.8,0.1-1.6,0-2.4-0.2c-0.1-0.1-0.2-0.2-0.2-0.3l-0.4-2c-0.6-0.1-1.2-0.3-1.8-0.4c-1,0.5-2,0.9-3.1,1.3
					c-0.3,0.1-0.6,0.1-0.9-0.1l-3.2-1.8c-0.1-0.1-0.2-0.2-0.2-0.3c0-0.1,0-0.2,0.2-0.3l2.2-1.8c-0.3-0.3-0.5-0.7-0.8-1.1l-3.6-0.3
					c-0.2,0-0.3,0-0.5-0.1c-0.1-0.1-0.2-0.2-0.2-0.3c-0.2-0.9-0.2-1.8,0-2.8c0-0.1,0.1-0.2,0.2-0.2c0.1-0.1,0.3-0.1,0.5-0.1l1.7-0.1
					c0.8,0,1.4-0.1,1.8-0.1c0.2-0.4,0.5-0.8,0.8-1.2l-2.2-1.7c-0.1-0.1-0.1-0.2-0.1-0.3c0-0.1,0.1-0.2,0.2-0.3l3.2-1.8
					c0.1-0.1,0.3-0.1,0.5-0.1c0.2,0,0.3,0,0.5,0.1l3.1,1.3c0.6-0.2,1.2-0.3,1.9-0.4c0.2-0.7,0.3-1.3,0.4-2c0-0.1,0.1-0.2,0.2-0.3
					c0.1-0.1,0.3-0.1,0.5-0.1c0.6-0.1,1.6-0.1,3-0.1c0.8-0.1,1.6,0,2.4,0.2c0.1,0.1,0.2,0.2,0.2,0.3l0.5,2c0.6,0.1,1.3,0.3,1.9,0.4
					c1.4-0.7,2.5-1.1,3.1-1.3c0.3-0.1,0.6-0.1,0.9,0.1l3.2,1.8c0.1,0,0.2,0.1,0.2,0.3c0,0.1,0,0.2-0.1,0.3l-2.2,1.8
					c0.3,0.3,0.5,0.7,0.8,1.1l3.6,0.3c0.2,0,0.3,0,0.5,0.1c0.1,0.1,0.2,0.2,0.2,0.3c0.1,0.9,0.1,1.9-0.1,2.8c0,0.1-0.1,0.2-0.2,0.2
					c-0.1,0.1-0.3,0.1-0.4,0.1c-0.4,0-0.9,0.1-1.7,0.1s-1.4,0.1-1.8,0.1c-0.2,0.4-0.5,0.8-0.8,1.1l2.2,1.8c0.1,0,0.2,0.1,0.2,0.1
					C84.9,182.7,84.8,182.7,84.8,182.8z M72,180.6c1.3,0,2.5-0.3,3.7-0.9c0.9-0.4,1.5-1.2,1.5-2.1c-0.1-0.9-0.7-1.8-1.6-2.1
					c-2.3-1.2-5-1.2-7.3,0c-0.9,0.4-1.5,1.2-1.5,2.1c0.1,0.9,0.7,1.8,1.5,2.1C69.5,180.3,70.7,180.6,72,180.6z"/>
				
					<linearGradient id="SVGID_10_" gradientUnits="userSpaceOnUse" x1="69.6934" y1="1016.6069" x2="73.2734" y2="986.4468" gradientTransform="matrix(1 0 0 1 0 -820)">
					<stop  offset="0" style="stop-color:#FF8789"/>
					<stop  offset="0.53" style="stop-color:#84A2FC"/>
					<stop  offset="0.72" style="stop-color:#205FE3"/>
					<stop  offset="1" style="stop-color:#030F28"/>
				</linearGradient>
				<path class="st10" d="M84.8,182.8c0,0.1-0.1,0.2-0.2,0.3l-3.2,1.9c-0.1,0.1-0.3,0.1-0.4,0.1c-0.2,0-0.3,0-0.5-0.1l-3.1-1.3
					c-0.7,0.2-1.3,0.3-1.9,0.4c-0.2,0.7-0.3,1.3-0.4,2c0,0.1-0.1,0.2-0.2,0.3c-0.1,0.1-0.3,0.1-0.5,0.1c-0.6,0.1-1.6,0.1-3,0.1
					c-0.8,0.1-1.6,0-2.4-0.2c-0.1-0.1-0.2-0.2-0.2-0.3l-0.4-2c-0.6-0.1-1.2-0.3-1.8-0.4c-1,0.5-2,0.9-3.1,1.3
					c-0.3,0.1-0.6,0.1-0.9-0.1l-3.2-1.8c-0.1-0.1-0.2-0.2-0.2-0.3c0-0.1,0-0.2,0.2-0.3l2.2-1.8c-0.3-0.3-0.5-0.7-0.8-1.1l-3.6-0.3
					c-0.2,0-0.3,0-0.5-0.1c-0.1-0.1-0.2-0.2-0.2-0.3c-0.2-0.9-0.2-1.8,0-2.8c0-0.1,0.1-0.2,0.2-0.2c0.1-0.1,0.3-0.1,0.5-0.1l1.7-0.1
					c0.8,0,1.4-0.1,1.8-0.1c0.2-0.4,0.5-0.8,0.8-1.2l-2.2-1.7c-0.1-0.1-0.1-0.2-0.1-0.3c0-0.1,0.1-0.2,0.2-0.3l3.2-1.8
					c0.1-0.1,0.3-0.1,0.5-0.1c0.2,0,0.3,0,0.5,0.1l3.1,1.3c0.6-0.2,1.2-0.3,1.9-0.4c0.2-0.7,0.3-1.3,0.4-2c0-0.1,0.1-0.2,0.2-0.3
					c0.1-0.1,0.3-0.1,0.5-0.1c0.6-0.1,1.6-0.1,3-0.1c0.8-0.1,1.6,0,2.4,0.2c0.1,0.1,0.2,0.2,0.2,0.3l0.5,2c0.6,0.1,1.3,0.3,1.9,0.4
					c1.4-0.7,2.5-1.1,3.1-1.3c0.3-0.1,0.6-0.1,0.9,0.1l3.2,1.8c0.1,0,0.2,0.1,0.2,0.3c0,0.1,0,0.2-0.1,0.3l-2.2,1.8
					c0.3,0.3,0.5,0.7,0.8,1.1l3.6,0.3c0.2,0,0.3,0,0.5,0.1c0.1,0.1,0.2,0.2,0.2,0.3c0.1,0.9,0.1,1.9-0.1,2.8c0,0.1-0.1,0.2-0.2,0.2
					c-0.1,0.1-0.3,0.1-0.4,0.1c-0.4,0-0.9,0.1-1.7,0.1s-1.4,0.1-1.8,0.1c-0.2,0.4-0.5,0.8-0.8,1.1l2.2,1.8c0.1,0,0.2,0.1,0.2,0.1
					C84.9,182.7,84.8,182.7,84.8,182.8z M72,180.6c1.3,0,2.5-0.3,3.7-0.9c0.9-0.4,1.5-1.2,1.5-2.1c-0.1-0.9-0.7-1.8-1.6-2.1
					c-2.3-1.2-5-1.2-7.3,0c-0.9,0.4-1.5,1.2-1.5,2.1c0.1,0.9,0.7,1.8,1.5,2.1C69.5,180.3,70.7,180.6,72,180.6z"/>
			</g>
			<g>
				
					<linearGradient id="SVGID_11_" gradientUnits="userSpaceOnUse" x1="134.96" y1="993.735" x2="137.95" y2="993.735" gradientTransform="matrix(1 0 0 1 0 -820)">
					<stop  offset="0.17" style="stop-color:#2E3192"/>
					<stop  offset="0.6" style="stop-color:#000547"/>
				</linearGradient>
				<path class="st11" d="M137.8,175.9L137.8,175.9L137.8,175.9L137.8,175.9L137.8,175.9C137.8,175.9,137.8,175.9,137.8,175.9v-0.1
					v-6.4v0.1c0,0,0,0.1,0,0.1l0,0v0.1l0,0l-0.1,0.1l-2.8,2.2v6.4L137.8,175.9C137.8,175.9,137.8,175.9,137.8,175.9z"/>
				
					<linearGradient id="SVGID_12_" gradientUnits="userSpaceOnUse" x1="105.75" y1="993.625" x2="108.75" y2="993.625" gradientTransform="matrix(1 0 0 1 0 -820)">
					<stop  offset="0.17" style="stop-color:#2E3192"/>
					<stop  offset="0.6" style="stop-color:#000547"/>
				</linearGradient>
				<path class="st12" d="M105.9,175.9l2.8,2.2v-6.4l-2.8-2.2c-0.1-0.1-0.2-0.2-0.2-0.3v6.4C105.8,175.7,105.8,175.8,105.9,175.9z"
					/>
				
					<linearGradient id="SVGID_13_" gradientUnits="userSpaceOnUse" x1="115.3297" y1="997.0463" x2="128.3797" y2="997.0463" gradientTransform="matrix(1 0 0 1 0 -820)">
					<stop  offset="0.17" style="stop-color:#2E3192"/>
					<stop  offset="0.6" style="stop-color:#000547"/>
				</linearGradient>
				<path class="st13" d="M115.3,181.9L115.3,181.9c0-0.1,0-0.2,0-0.2c0,0,0-0.1,0-0.1c0,0,0-0.1,0-0.1s0-0.1,0-0.1s0-0.1,0-0.1
					s0-0.1,0-0.1s0-0.1,0-0.1s0-0.1,0-0.1s0-0.1,0.1-0.1s0-0.1,0-0.1s0-0.1,0.1-0.1s0-0.1,0-0.1s0-0.1,0.1-0.1s0.1-0.1,0.1-0.1
					c0-0.1,0.1-0.1,0.2-0.2c0.1-0.1,0.1-0.1,0.2-0.2l0.1-0.1l0.1-0.1l0.1-0.1c0,0,0.1-0.1,0.1-0.1l0.1-0.1c0,0,0.1-0.1,0.1-0.1
					c0,0,0.1-0.1,0.1-0.1l0.1-0.1l0.2-0.1c0.1-0.1,0.3-0.2,0.4-0.2l0.1-0.1c0.1,0,0.2-0.1,0.3-0.2h0.1c0.2-0.1,0.3-0.1,0.5-0.2
					l0.2-0.1l0.3-0.1l0.3-0.1l0.3-0.1c0,0,0.1,0,0.1,0l0.5-0.1c0,0,0.1,0,0.1,0h0.3c0.2,0,0.3,0,0.5,0h0.5c0.2,0,0.3,0,0.5,0
					c0.1,0,0.2,0,0.3,0h0.3h0.3h0.3c0.1,0,0.2,0,0.3,0.1c0.1,0,0.2,0,0.3,0c0.1,0,0.2,0,0.3,0.1l0.3,0.1c0,0,0.1,0,0.1,0.1
					c0.2,0,0.3,0.1,0.5,0.2l0.3,0.1l0.2,0.1c0.2,0.1,0.3,0.2,0.5,0.3c1.2,0.4,2.1,1.4,2.3,2.7v-6.4c-0.1-1.2-0.8-2.2-1.9-2.7
					c-0.2-0.1-0.3-0.2-0.5-0.2l-0.2-0.1c-0.1-0.1-0.2-0.1-0.3-0.1l0,0c-0.2-0.1-0.3-0.1-0.5-0.2h-0.1c0,0-0.1,0-0.1,0h-0.2l-0.3-0.1
					H124h-0.2c-0.1,0-0.2,0-0.3-0.1h-0.1c-0.1,0-0.1,0-0.2,0c-0.1,0-0.2,0-0.3,0h-0.2h-0.2c-0.1,0-0.2,0-0.3,0h-1
					c-0.2,0-0.3,0-0.5,0c-0.1,0-0.1,0-0.2,0h-0.1c0,0-0.1,0-0.1,0l-0.5,0.1c0,0-0.1,0-0.1,0l0,0c-0.1,0-0.2,0-0.3,0l-0.3,0.1
					l-0.3,0.1l-0.3,0.1l0,0c-0.2,0-0.3,0.1-0.4,0.2c0,0-0.1,0-0.1,0.1c-0.1,0-0.2,0.1-0.3,0.2l-0.1,0.1c-0.2,0.1-0.3,0.1-0.4,0.2
					l-0.1,0.1h-0.1l-0.1,0.1l-0.1,0.1c0,0-0.1,0.1-0.1,0.1c0,0-0.1,0-0.1,0.1c0,0-0.1,0.1-0.1,0.1c0,0-0.1,0-0.1,0.1l-0.1,0.1
					c0,0,0,0,0,0.1l0,0l-0.2,0.2c0,0.1-0.1,0.1-0.2,0.2s0,0,0,0l0,0c0,0,0,0.1-0.1,0.1c0,0,0,0,0,0.1c0,0-0.1,0.1-0.1,0.1l0,0l0,0
					c0,0,0,0,0,0.1s0.1,0.1,0.1,0.2s0,0.1,0,0.1s0,0,0,0l0,0c0,0,0,0.1,0,0.1s0,0.1,0,0.1s0,0.1,0,0.1v0.1c0,0.1,0,0.1,0,0.1v0.4
					v6.4v-0.2L115.3,181.9z"/>
				
					<linearGradient id="SVGID_14_" gradientUnits="userSpaceOnUse" x1="96.803" y1="956.2961" x2="130.503" y2="1014.4962" gradientTransform="matrix(1 0 0 1 0 -820)">
					<stop  offset="0" style="stop-color:#FF8789"/>
					<stop  offset="0.53" style="stop-color:#84A2FC"/>
					<stop  offset="0.59" style="stop-color:#205FE3"/>
					<stop  offset="1" style="stop-color:#030F28"/>
				</linearGradient>
				<path class="st14" d="M141.4,175.8v0.6c0,0.1,0,0.1,0,0.2l0,0c0,0.1,0,0.1,0,0.2v0.1c0,0,0,0.1,0,0.1l0,0c0,0.1,0,0.1,0,0.2
					c0,0,0,0,0,0.1c0,0,0,0,0,0.1l0,0c0,0,0,0.1-0.1,0.1l0,0l-0.1,0.1l-0.2,0.1l0,0c-0.1,0-0.1,0-0.2,0.1h-0.1c0,0-0.1,0-0.1,0
					c-0.4,0-1.1,0.1-2.1,0.2c-0.6,0-1.1,0.1-1.6,0.1l-0.7,0.1c-0.1,0.1-0.1,0.1-0.1,0.2c-0.1,0.1-0.1,0.2-0.2,0.3
					c0,0.1-0.1,0.1-0.1,0.1s-0.2,0.2-0.2,0.3s-0.1,0.1-0.1,0.1s-0.2,0.2-0.3,0.4v4.4l-1.3,0.8l-0.2,0.1l0,0c0,0-0.1,0-0.1,0.1h-0.1
					h-0.1h-0.3h-0.1l0,0c0,0-0.1,0-0.1-0.1l-3.8-1.6c-0.2,0.1-0.4,0.1-0.6,0.2h-0.2c-0.1,0-0.3,0.1-0.4,0.1c-0.1,0-0.2,0-0.2,0
					l-0.3,0.1c-0.1,0-0.1,0-0.2,0.1l-0.3,0.1c0,0.1-0.1,0.2-0.1,0.2s0,0.1,0,0.1c0,0.1,0,0.1,0,0.2c0,0,0,0.1,0,0.1
					c0,0.1,0,0.1,0,0.2c0,0.1,0,0.1,0,0.1c0,0.1,0,0.2,0,0.2c0,0,0,0,0,0.1l0,0c0,0,0,0.1,0,0.1c0,0.1,0,0.2,0,0.2s0,0.1,0,0.1
					s0,0.2,0,0.2s0,0.1,0,0.1c0,0.1-0.1,0.2-0.1,0.4c0,0,0,0.1,0,0.1l0,0c0,0,0,0,0,0.1l0,0l-0.1,0.1h-0.1l0,0c-0.1,0-0.1,0-0.2,0.1
					l0,0h-0.1c0,0,0,0-0.1,0H125h-0.3h-0.1c-0.1,0-0.2,0-0.2,0h-5c-0.1,0-0.1,0-0.2,0l0,0c-0.1,0-0.1,0-0.2,0H119c0,0-0.1,0-0.1,0
					h-0.1h-0.2l0,0h-0.1l0,0h-0.1l0,0h-0.1c-0.1-0.1-0.3-0.2-0.3-0.4l-0.6-2.6c-0.2-0.1-0.4-0.1-0.6-0.1c-0.2,0-0.5-0.1-0.7-0.2H116
					l-0.5-0.1l-0.4-0.1c-1.8,0.8-3.1,1.4-3.9,1.6h-0.1c0,0-0.1,0-0.1,0c0,0,0,0-0.1,0h-0.3c0,0-0.1,0-0.1,0l0,0h-0.1l0,0h-0.1
					l-0.2-0.1l-1.3-0.8v-4.4c-0.4-0.4-0.7-0.8-1-1.3l-4.4-0.3c-0.1,0-0.1,0-0.2,0c0,0-0.1,0-0.1,0l0,0H103c0,0-0.1-0.1-0.2-0.1
					c-0.1-0.1-0.2-0.2-0.2-0.4c-0.1-0.8-0.1-1.5-0.1-2v6.4c0,0.7,0,1.3,0.1,2c0,0.2,0.1,0.3,0.2,0.4c0.1,0,0.1,0.1,0.2,0.1h0.1l0,0
					h0.1c0,0,0,0,0.1,0h0.2l2.5,0.2v4c0,0.2,0.1,0.3,0.3,0.4l4,2.3l0.2,0.1l0,0l0,0l0,0l0,0h0.1h0.5c0,0,0.1,0,0.1,0l0,0l0,0
					c0.8-0.2,2-0.8,3.9-1.6l0.2,0.1c0,0,0.1,0,0.1,0l0.5,0.1h0.2l0.7,0.2l0,0l0.5,0.1l0,0l0.6,2.6c0.1,0.2,0.2,0.3,0.3,0.4
					c0,0,0,0,0.1,0l0,0h0.1l0,0h0.1l0,0c0,0,0.1,0,0.2,0l0,0c0,0,0.1,0,0.1,0h0.4c0.1,0,0.1,0,0.2,0l0,0c0.1,0,0.1,0,0.2,0h5
					c0.1,0,0.2,0,0.2,0h0.1h0.3h0.3h0.1l0,0l0.2-0.1l0,0l0,0h0.1c0,0,0.1-0.1,0.1-0.1l0,0l0,0c0,0,0,0,0-0.1l0,0c0,0,0-0.1,0-0.1
					l0,0c0-0.1,0-0.2,0.1-0.4s0-0.1,0-0.1s0-0.2,0-0.2s0-0.1,0-0.1s0-0.2,0.1-0.2c0,0,0,0,0-0.1c0,0,0-0.1,0-0.1c0-0.1,0-0.2,0-0.3
					c0,0,0-0.1,0-0.1c0-0.1,0-0.1,0-0.2c0-0.1,0-0.1,0-0.1c0-0.1,0-0.1,0-0.2c0,0,0-0.1,0-0.1s0-0.2,0.1-0.3h0.1
					c0.1,0,0.2,0,0.2-0.1h0.2l0.3-0.1c0.1,0,0.2,0,0.2-0.1c0.1,0,0.3-0.1,0.4-0.1s0.1,0,0.2-0.1c0.2,0,0.4-0.1,0.6-0.2l3.8,1.6
					c0,0,0.1,0,0.1,0h0.1c0,0,0,0,0.1,0h0.4c0,0,0.1,0,0.1,0h0.1c0,0,0.1,0,0.1,0l0,0l0.2-0.1l4-2.3l0,0l0,0c0,0,0.1-0.1,0.1-0.1
					l0,0l0,0l0,0c0,0,0-0.1,0.1-0.1l0,0l0,0l0,0v-4.1c0.1,0,0.2,0,0.3,0c1-0.1,1.7-0.1,2.1-0.2l0,0c0,0,0.1,0,0.1,0h0.1
					c0.1,0,0.1,0,0.2-0.1h0.1c0.1,0,0.1,0,0.2-0.1l0,0c0,0,0.1,0,0.1,0l0,0l0,0l0,0l0,0l0,0l0,0v-0.1c0-0.1,0-0.1,0-0.2v-0.1
					c0,0,0-0.1,0-0.1l0,0c0-0.1,0-0.1,0-0.2l0,0c0-0.1,0-0.1,0-0.2v-0.6L141.4,175.8z"/>
				
					<linearGradient id="SVGID_15_" gradientUnits="userSpaceOnUse" x1="115.5366" y1="1024.9349" x2="123.7166" y2="987.1849" gradientTransform="matrix(1 0 0 1 0 -820)">
					<stop  offset="0" style="stop-color:#FF8789"/>
					<stop  offset="0.53" style="stop-color:#84A2FC"/>
					<stop  offset="0.72" style="stop-color:#205FE3"/>
					<stop  offset="1" style="stop-color:#030F28"/>
				</linearGradient>
				<path class="st15" d="M138,182.2c0,0.1-0.1,0.2-0.3,0.3l-4,2.3c-0.2,0.1-0.4,0.2-0.6,0.2c-0.2,0-0.4,0-0.6-0.1l-3.8-1.6
					c-0.9,0.2-1.7,0.4-2.3,0.5c-0.2,0.8-0.4,1.7-0.5,2.6c0,0.2-0.1,0.3-0.3,0.4c-0.2,0.1-0.4,0.1-0.6,0.1c-0.8,0.1-2,0.1-3.7,0.1
					c-1,0.1-2,0-3-0.2c-0.1-0.1-0.3-0.2-0.3-0.4l-0.6-2.6c-0.8-0.1-1.6-0.3-2.3-0.6c-1.8,0.8-3.1,1.4-3.9,1.6
					c-0.4,0.1-0.8,0.1-1.2-0.1l-4-2.3c-0.1-0.1-0.2-0.2-0.3-0.4c0-0.1,0.1-0.3,0.2-0.4l2.8-2.2c-0.4-0.4-0.7-0.8-1-1.3l-4.5-0.4
					c-0.2,0-0.4-0.1-0.6-0.2c-0.1-0.1-0.2-0.2-0.2-0.4c-0.2-1.1-0.2-2.3,0-3.5c0-0.1,0.1-0.2,0.3-0.3c0.2-0.1,0.4-0.2,0.6-0.2
					l2.1-0.2c1-0.1,1.7-0.1,2.2-0.2c0.3-0.5,0.6-1,1-1.5l-2.6-2.2c-0.1-0.1-0.2-0.2-0.2-0.4c0-0.1,0.1-0.3,0.3-0.3l4-2.3
					c0.2-0.1,0.4-0.2,0.6-0.2c0.2,0,0.4,0,0.6,0.1l3.9,1.6c0.8-0.2,1.6-0.4,2.3-0.6c0.2-0.8,0.4-1.7,0.5-2.6c0-0.2,0.1-0.3,0.2-0.4
					c0.2-0.1,0.4-0.1,0.6-0.1c0.7-0.1,2-0.1,3.7-0.1c1-0.1,2,0,3,0.2c0.1,0.1,0.3,0.2,0.3,0.4l0.6,2.6c0.8,0.1,1.6,0.3,2.3,0.6
					c1.8-0.8,3.1-1.4,3.9-1.6c0.4-0.1,0.8-0.1,1.2,0.1l4,2.3c0.1,0.1,0.2,0.2,0.3,0.4c0,0.1-0.1,0.3-0.2,0.4l-2.8,2.2
					c0.4,0.4,0.7,0.8,1,1.3l4.5,0.4c0.2,0,0.4,0.1,0.6,0.2c0.1,0.1,0.2,0.2,0.3,0.4c0.2,1.2,0.1,2.3-0.1,3.5c0,0.1-0.1,0.2-0.3,0.3
					c-0.2,0.1-0.4,0.2-0.6,0.2c-0.4,0.1-1.1,0.1-2.1,0.2s-1.7,0.1-2.2,0.2c-0.3,0.5-0.6,1-1,1.4l2.8,2.2
					C138,181.9,138,182.1,138,182.2z M121.9,179.4c1.6,0,3.2-0.3,4.6-1.1c1.3-0.8,1.9-1.6,1.9-2.7c-0.1-1.2-0.8-2.2-1.9-2.7
					c-2.9-1.5-6.3-1.5-9.2,0c-1.3,0.7-1.9,1.6-1.9,2.7c0.1,1.2,0.8,2.2,1.9,2.7C118.7,179.1,120.3,179.5,121.9,179.4L121.9,179.4z"
					/>
				
					<linearGradient id="SVGID_16_" gradientUnits="userSpaceOnUse" x1="119.0492" y1="1019.4976" x2="123.5292" y2="981.7476" gradientTransform="matrix(1 0 0 1 0 -820)">
					<stop  offset="0" style="stop-color:#FF8789"/>
					<stop  offset="0.53" style="stop-color:#84A2FC"/>
					<stop  offset="0.72" style="stop-color:#205FE3"/>
					<stop  offset="1" style="stop-color:#030F28"/>
				</linearGradient>
				<path class="st16" d="M138,182.2c0,0.1-0.1,0.2-0.3,0.3l-4,2.3c-0.2,0.1-0.4,0.2-0.6,0.2c-0.2,0-0.4,0-0.6-0.1l-3.8-1.6
					c-0.9,0.2-1.7,0.4-2.3,0.5c-0.2,0.8-0.4,1.7-0.5,2.6c0,0.2-0.1,0.3-0.3,0.4c-0.2,0.1-0.4,0.1-0.6,0.1c-0.8,0.1-2,0.1-3.7,0.1
					c-1,0.1-2,0-3-0.2c-0.1-0.1-0.3-0.2-0.3-0.4l-0.6-2.6c-0.8-0.1-1.6-0.3-2.3-0.6c-1.8,0.8-3.1,1.4-3.9,1.6
					c-0.4,0.1-0.8,0.1-1.2-0.1l-4-2.3c-0.1-0.1-0.2-0.2-0.3-0.4c0-0.1,0.1-0.3,0.2-0.4l2.8-2.2c-0.4-0.4-0.7-0.8-1-1.3l-4.5-0.4
					c-0.2,0-0.4-0.1-0.6-0.2c-0.1-0.1-0.2-0.2-0.2-0.4c-0.2-1.1-0.2-2.3,0-3.5c0-0.1,0.1-0.2,0.3-0.3c0.2-0.1,0.4-0.2,0.6-0.2
					l2.1-0.2c1-0.1,1.7-0.1,2.2-0.2c0.3-0.5,0.6-1,1-1.5l-2.6-2.2c-0.1-0.1-0.2-0.2-0.2-0.4c0-0.1,0.1-0.3,0.3-0.3l4-2.3
					c0.2-0.1,0.4-0.2,0.6-0.2c0.2,0,0.4,0,0.6,0.1l3.9,1.6c0.8-0.2,1.6-0.4,2.3-0.6c0.2-0.8,0.4-1.7,0.5-2.6c0-0.2,0.1-0.3,0.2-0.4
					c0.2-0.1,0.4-0.1,0.6-0.1c0.7-0.1,2-0.1,3.7-0.1c1-0.1,2,0,3,0.2c0.1,0.1,0.3,0.2,0.3,0.4l0.6,2.6c0.8,0.1,1.6,0.3,2.3,0.6
					c1.8-0.8,3.1-1.4,3.9-1.6c0.4-0.1,0.8-0.1,1.2,0.1l4,2.3c0.1,0.1,0.2,0.2,0.3,0.4c0,0.1-0.1,0.3-0.2,0.4l-2.8,2.2
					c0.4,0.4,0.7,0.8,1,1.3l4.5,0.4c0.2,0,0.4,0.1,0.6,0.2c0.1,0.1,0.2,0.2,0.3,0.4c0.2,1.2,0.1,2.3-0.1,3.5c0,0.1-0.1,0.2-0.3,0.3
					c-0.2,0.1-0.4,0.2-0.6,0.2c-0.4,0.1-1.1,0.1-2.1,0.2s-1.7,0.1-2.2,0.2c-0.3,0.5-0.6,1-1,1.4l2.8,2.2
					C138,181.9,138,182.1,138,182.2z M121.9,179.4c1.6,0,3.2-0.3,4.6-1.1c1.3-0.8,1.9-1.6,1.9-2.7c-0.1-1.2-0.8-2.2-1.9-2.7
					c-2.9-1.5-6.3-1.5-9.2,0c-1.3,0.7-1.9,1.6-1.9,2.7c0.1,1.2,0.8,2.2,1.9,2.7C118.7,179.1,120.3,179.5,121.9,179.4L121.9,179.4z"
					/>
			</g>
			
				<linearGradient id="SVGID_17_" gradientUnits="userSpaceOnUse" x1="79.4699" y1="1014.5546" x2="91.6399" y2="988.2046" gradientTransform="matrix(1 0 0 1 0 -820)">
				<stop  offset="0" style="stop-color:#FF8789"/>
				<stop  offset="0.53" style="stop-color:#84A2FC"/>
				<stop  offset="0.72" style="stop-color:#205FE3"/>
				<stop  offset="1" style="stop-color:#030F28;stop-opacity:0"/>
			</linearGradient>
			<path class="st17" d="M142.5,156.4c2.8,1.6,2.8,4.3,0,5.9l-41.6,24.2c-3.2,1.7-7,1.7-10.2,0L49,162.3c-2.8-1.6-2.9-4.3,0-5.9
				l41.5-24.2c3.2-1.7,7-1.7,10.2,0L142.5,156.4z"/>
			<g class="st1">
				
					<linearGradient id="SVGID_18_" gradientUnits="userSpaceOnUse" x1="59.3583" y1="1090.1129" x2="99.6783" y2="909.2629" gradientTransform="matrix(1 0 0 1 0 -820)">
					<stop  offset="0" style="stop-color:#FF8789"/>
					<stop  offset="0.53" style="stop-color:#84A2FC"/>
					<stop  offset="0.72" style="stop-color:#205FE3"/>
					<stop  offset="1" style="stop-color:#030F28;stop-opacity:0"/>
				</linearGradient>
				<path class="st18" d="M144.6,65.4c-29.7-4-97.7,5.8-97.7-10.6v104.5c0.1,1.3,0.9,2.5,2.1,3l41.8,24l0.5,0.3
					c0,0.1,0.2,0.1,0.2,0.1c0.1,0.1,0.2,0.1,0.3,0.1h0.1c0.3,0.1,0.5,0.2,0.8,0.2l0,0c0,0,0.1,0,0.2,0c0.1,0,0.3,0.1,0.4,0.1
					c0,0,0.1,0,0.1,0.1c0.1,0,0.1,0,0.2,0c0.1,0,0.2,0,0.4,0c0,0,0.1,0,0.2,0h0.2c0.1,0,0.2,0.1,0.3,0.1h1.8c0.2,0,0.3,0,0.5-0.1
					h0.2c0.3,0,0.5,0,0.8-0.1l0,0c0.1,0,0.2,0,0.2,0s0.3-0.1,0.4-0.1c0.1,0,0.2,0,0.3-0.1c0.1-0.1,0.2-0.1,0.4-0.1h0.1
					c0,0,0.1,0,0.2,0s0.4-0.1,0.6-0.2s0.2-0.1,0.2-0.1c0.2-0.1,0.5-0.2,0.7-0.3l41.5-24c0,0,0,0,0.1,0c0.1,0,0.1-0.1,0.2-0.1
					c0.1,0,0.2-0.1,0.2-0.2c0.1,0,0.1-0.1,0.2-0.1c0.1-0.1,0.2-0.1,0.2-0.2l0,0l0.2-0.2h0.1l0.1-0.1c0.1,0,0.2,0,0.2-0.1
					c0,0,0-0.1,0-0.1c0-0.1,0.1-0.2,0.2-0.2c0,0,0,0,0-0.1s0,0,0.1,0c0-0.1,0.1-0.2,0.1-0.2c0,0,0-0.1,0-0.1l0,0
					c0.1,0,0.1-0.1,0.1-0.2s0.1-0.1,0.1-0.1l0,0c0-0.1,0-0.2,0-0.2V65.4H144.6z"/>
			</g>
			<g class="st1">
				
					<linearGradient id="SVGID_19_" gradientUnits="userSpaceOnUse" x1="65.195" y1="1054.2189" x2="93.785" y2="925.7988" gradientTransform="matrix(1 0 0 1 0 -820)">
					<stop  offset="0" style="stop-color:#FF8789"/>
					<stop  offset="0.53" style="stop-color:#84A2FC"/>
					<stop  offset="0.72" style="stop-color:#205FE3"/>
					<stop  offset="1" style="stop-color:#030F28;stop-opacity:0"/>
				</linearGradient>
				<path class="st19" d="M130.4,38.3c0,0-69.4,0.7-69.4,0v118.3c0.1,0.9,0.7,1.7,1.5,2.1l29.7,17l0.4,0.2c0,0,0.1,0,0.1,0.1
					c0.1,0,0.2,0.1,0.2,0.1l0,0c0.2,0.1,0.4,0.1,0.6,0.2l0,0c0,0,0.1,0,0.1,0c0.1,0,0.2,0.1,0.3,0.1H94c0,0,0.1,0,0.1,0
					c0.1,0,0.2,0,0.3,0c0,0,0.1,0,0.1,0h0.1h0.2h1.3c0.1,0,0.2,0,0.3,0h0.2c0.2,0,0.4,0,0.6-0.1l0,0c0.1,0,0.1,0,0.2,0
					s0.2,0,0.3-0.1c0.1,0,0.1,0,0.2-0.1c0.1,0,0.2,0,0.3-0.1h0.1c0,0,0.1,0,0.1,0s0.3-0.1,0.4-0.1s0.1,0,0.1-0.1s0.3-0.2,0.5-0.2
					l29.5-17c0,0,0,0,0.1,0l0.1-0.1c0.1,0,0.1-0.1,0.2-0.1c0.1,0,0.1-0.1,0.1-0.1c0.1,0,0.1-0.1,0.2-0.1l0,0l0.2-0.2l0,0l0.1-0.1
					c0,0,0,0,0-0.1c0-0.1,0.1-0.1,0.1-0.2c0,0,0,0,0-0.1s0,0,0,0c0,0,0.1-0.1,0.1-0.2c0,0,0-0.1,0-0.1l0,0c0,0,0-0.1,0-0.1
					c0,0,0-0.1,0-0.1l0,0c0-0.1,0-0.1,0-0.2V38.3H130.4z"/>
			</g>
			<g class="st20">
				<g>
					
						<linearGradient id="SVGID_20_" gradientUnits="userSpaceOnUse" x1="72.7217" y1="972.5396" x2="85.1017" y2="957.4396" gradientTransform="matrix(1 0 0 1 0 -820)">
						<stop  offset="0" style="stop-color:#FF8789"/>
						<stop  offset="0.53" style="stop-color:#84A2FC"/>
						<stop  offset="0.72" style="stop-color:#205FE3"/>
						<stop  offset="1" style="stop-color:#030F28"/>
					</linearGradient>
					
						<linearGradient id="SVGID_21_" gradientUnits="userSpaceOnUse" x1="70.4411" y1="965.4745" x2="82.9511" y2="967.9946" gradientTransform="matrix(1 0 0 1 0 -820)">
						<stop  offset="0" style="stop-color:#FF8789"/>
						<stop  offset="0.53" style="stop-color:#84A2FC"/>
						<stop  offset="0.72" style="stop-color:#205FE3"/>
						<stop  offset="1" style="stop-color:#030F28"/>
					</linearGradient>
					<path class="st21" d="M72.1,137.7l10.6,6.1V156L72,149.9L72.1,137.7z"/>
					
						<linearGradient id="SVGID_22_" gradientUnits="userSpaceOnUse" x1="68.6795" y1="983.6177" x2="89.8495" y2="965.6277" gradientTransform="matrix(1 0 0 1 0 -820)">
						<stop  offset="0" style="stop-color:#FF8789"/>
						<stop  offset="0.53" style="stop-color:#84A2FC"/>
						<stop  offset="0.72" style="stop-color:#205FE3"/>
						<stop  offset="1" style="stop-color:#030F28"/>
					</linearGradient>
					
						<linearGradient id="SVGID_23_" gradientUnits="userSpaceOnUse" x1="81.4513" y1="965.2736" x2="94.3513" y2="967.9136" gradientTransform="matrix(1 0 0 1 0 -820)">
						<stop  offset="0" style="stop-color:#FF8789"/>
						<stop  offset="0.53" style="stop-color:#84A2FC"/>
						<stop  offset="0.72" style="stop-color:#205FE3"/>
						<stop  offset="1" style="stop-color:#030F28"/>
					</linearGradient>
					<path class="st22" d="M83.1,156v-12.2l11-6.4v12.2L83.1,156z"/>
					
						<linearGradient id="SVGID_24_" gradientUnits="userSpaceOnUse" x1="81.2999" y1="929.9006" x2="83.6699" y2="966.7006" gradientTransform="matrix(1 0 0 1 0 -820)">
						<stop  offset="0" style="stop-color:#FF8789"/>
						<stop  offset="0.53" style="stop-color:#84A2FC"/>
						<stop  offset="0.72" style="stop-color:#205FE3"/>
						<stop  offset="1" style="stop-color:#030F28"/>
					</linearGradient>
					
						<linearGradient id="SVGID_25_" gradientUnits="userSpaceOnUse" x1="72.3279" y1="950.8036" x2="91.7479" y2="962.4336" gradientTransform="matrix(1 0 0 1 0 -820)">
						<stop  offset="0" style="stop-color:#FF8789"/>
						<stop  offset="0.53" style="stop-color:#84A2FC"/>
						<stop  offset="0.72" style="stop-color:#205FE3"/>
						<stop  offset="1" style="stop-color:#030F28"/>
					</linearGradient>
					<path class="st23" d="M82.9,143.5l-10.6-6.1l11-6.4l10.6,6.1L82.9,143.5z"/>
				</g>
				<g>
					
						<linearGradient id="SVGID_26_" gradientUnits="userSpaceOnUse" x1="72.7192" y1="958.4976" x2="85.0992" y2="943.3976" gradientTransform="matrix(1 0 0 1 0 -820)">
						<stop  offset="0" style="stop-color:#FF8789"/>
						<stop  offset="0.53" style="stop-color:#84A2FC"/>
						<stop  offset="0.72" style="stop-color:#205FE3"/>
						<stop  offset="1" style="stop-color:#030F28"/>
					</linearGradient>
					
						<linearGradient id="SVGID_27_" gradientUnits="userSpaceOnUse" x1="70.4401" y1="951.4293" x2="82.9501" y2="953.9493" gradientTransform="matrix(1 0 0 1 0 -820)">
						<stop  offset="0" style="stop-color:#FF8789"/>
						<stop  offset="0.53" style="stop-color:#84A2FC"/>
						<stop  offset="0.72" style="stop-color:#205FE3"/>
						<stop  offset="1" style="stop-color:#030F28"/>
					</linearGradient>
					<path class="st24" d="M72.1,123.7l10.6,6.1V142L72,135.8L72.1,123.7z"/>
					
						<linearGradient id="SVGID_28_" gradientUnits="userSpaceOnUse" x1="68.7042" y1="969.5967" x2="89.8742" y2="951.6067" gradientTransform="matrix(1 0 0 1 0 -820)">
						<stop  offset="0" style="stop-color:#FF8789"/>
						<stop  offset="0.53" style="stop-color:#84A2FC"/>
						<stop  offset="0.72" style="stop-color:#205FE3"/>
						<stop  offset="1" style="stop-color:#030F28"/>
					</linearGradient>
					
						<linearGradient id="SVGID_29_" gradientUnits="userSpaceOnUse" x1="81.4436" y1="951.2614" x2="94.3436" y2="953.9113" gradientTransform="matrix(1 0 0 1 0 -820)">
						<stop  offset="0" style="stop-color:#FF8789"/>
						<stop  offset="0.53" style="stop-color:#84A2FC"/>
						<stop  offset="0.72" style="stop-color:#205FE3"/>
						<stop  offset="1" style="stop-color:#030F28"/>
					</linearGradient>
					<path class="st25" d="M83.1,142v-12.2l11-6.4v12.2L83.1,142z"/>
					
						<linearGradient id="SVGID_30_" gradientUnits="userSpaceOnUse" x1="81.2998" y1="915.8506" x2="83.6698" y2="952.6606" gradientTransform="matrix(1 0 0 1 0 -820)">
						<stop  offset="0" style="stop-color:#FF8789"/>
						<stop  offset="0.53" style="stop-color:#84A2FC"/>
						<stop  offset="0.72" style="stop-color:#205FE3"/>
						<stop  offset="1" style="stop-color:#030F28"/>
					</linearGradient>
					
						<linearGradient id="SVGID_31_" gradientUnits="userSpaceOnUse" x1="72.3249" y1="936.7585" x2="91.7349" y2="948.3885" gradientTransform="matrix(1 0 0 1 0 -820)">
						<stop  offset="0" style="stop-color:#FF8789"/>
						<stop  offset="0.53" style="stop-color:#84A2FC"/>
						<stop  offset="0.72" style="stop-color:#205FE3"/>
						<stop  offset="1" style="stop-color:#030F28"/>
					</linearGradient>
					<path class="st26" d="M82.9,129.4l-10.6-6.1l11-6.4l10.6,6.1L82.9,129.4z"/>
				</g>
				<g>
					
						<linearGradient id="SVGID_32_" gradientUnits="userSpaceOnUse" x1="87.0433" y1="980.9626" x2="99.4233" y2="965.8627" gradientTransform="matrix(1 0 0 1 0 -820)">
						<stop  offset="0" style="stop-color:#FF8789"/>
						<stop  offset="0.53" style="stop-color:#84A2FC"/>
						<stop  offset="0.72" style="stop-color:#205FE3"/>
						<stop  offset="1" style="stop-color:#030F28"/>
					</linearGradient>
					
						<linearGradient id="SVGID_33_" gradientUnits="userSpaceOnUse" x1="84.7601" y1="973.8995" x2="97.2701" y2="976.4194" gradientTransform="matrix(1 0 0 1 0 -820)">
						<stop  offset="0" style="stop-color:#FF8789"/>
						<stop  offset="0.53" style="stop-color:#84A2FC"/>
						<stop  offset="0.72" style="stop-color:#205FE3"/>
						<stop  offset="1" style="stop-color:#030F28"/>
					</linearGradient>
					<path class="st27" d="M86.4,146.1l10.6,6.1v12.2l-10.6-6.1L86.4,146.1z"/>
					
						<linearGradient id="SVGID_34_" gradientUnits="userSpaceOnUse" x1="83.0072" y1="992.0467" x2="104.1872" y2="974.0567" gradientTransform="matrix(1 0 0 1 0 -820)">
						<stop  offset="0" style="stop-color:#FF8789"/>
						<stop  offset="0.53" style="stop-color:#84A2FC"/>
						<stop  offset="0.72" style="stop-color:#205FE3"/>
						<stop  offset="1" style="stop-color:#030F28"/>
					</linearGradient>
					
						<linearGradient id="SVGID_35_" gradientUnits="userSpaceOnUse" x1="95.7699" y1="973.7007" x2="108.6699" y2="976.3507" gradientTransform="matrix(1 0 0 1 0 -820)">
						<stop  offset="0" style="stop-color:#FF8789"/>
						<stop  offset="0.53" style="stop-color:#84A2FC"/>
						<stop  offset="0.72" style="stop-color:#205FE3"/>
						<stop  offset="1" style="stop-color:#030F28"/>
					</linearGradient>
					<path class="st28" d="M97.4,164.4v-12.2l11-6.4v12.2L97.4,164.4z"/>
					
						<linearGradient id="SVGID_36_" gradientUnits="userSpaceOnUse" x1="95.6298" y1="938.3207" x2="97.9998" y2="975.1307" gradientTransform="matrix(1 0 0 1 0 -820)">
						<stop  offset="0" style="stop-color:#FF8789"/>
						<stop  offset="0.53" style="stop-color:#84A2FC"/>
						<stop  offset="0.72" style="stop-color:#205FE3"/>
						<stop  offset="1" style="stop-color:#030F28"/>
					</linearGradient>
					
						<linearGradient id="SVGID_37_" gradientUnits="userSpaceOnUse" x1="86.646" y1="959.2266" x2="106.066" y2="970.8566" gradientTransform="matrix(1 0 0 1 0 -820)">
						<stop  offset="0" style="stop-color:#FF8789"/>
						<stop  offset="0.53" style="stop-color:#84A2FC"/>
						<stop  offset="0.72" style="stop-color:#205FE3"/>
						<stop  offset="1" style="stop-color:#030F28"/>
					</linearGradient>
					<path class="st29" d="M97.2,151.9l-10.6-6.1l11-6.4l10.6,6.1L97.2,151.9z"/>
				</g>
				<g>
					
						<linearGradient id="SVGID_38_" gradientUnits="userSpaceOnUse" x1="87.0457" y1="966.9147" x2="99.4257" y2="951.8147" gradientTransform="matrix(1 0 0 1 0 -820)">
						<stop  offset="0" style="stop-color:#FF8789"/>
						<stop  offset="0.53" style="stop-color:#84A2FC"/>
						<stop  offset="0.72" style="stop-color:#205FE3"/>
						<stop  offset="1" style="stop-color:#030F28"/>
					</linearGradient>
					
						<linearGradient id="SVGID_39_" gradientUnits="userSpaceOnUse" x1="84.7611" y1="959.8547" x2="97.2711" y2="962.3746" gradientTransform="matrix(1 0 0 1 0 -820)">
						<stop  offset="0" style="stop-color:#FF8789"/>
						<stop  offset="0.53" style="stop-color:#84A2FC"/>
						<stop  offset="0.72" style="stop-color:#205FE3"/>
						<stop  offset="1" style="stop-color:#030F28"/>
					</linearGradient>
					<path class="st30" d="M86.4,132.1l10.6,6.1v12.2l-10.6-6.1L86.4,132.1z"/>
					
						<linearGradient id="SVGID_40_" gradientUnits="userSpaceOnUse" x1="83.0047" y1="978.0038" x2="104.1847" y2="960.0138" gradientTransform="matrix(1 0 0 1 0 -820)">
						<stop  offset="0" style="stop-color:#FF8789"/>
						<stop  offset="0.53" style="stop-color:#84A2FC"/>
						<stop  offset="0.72" style="stop-color:#205FE3"/>
						<stop  offset="1" style="stop-color:#030F28"/>
					</linearGradient>
					
						<linearGradient id="SVGID_41_" gradientUnits="userSpaceOnUse" x1="95.7698" y1="959.6608" x2="108.6698" y2="962.3109" gradientTransform="matrix(1 0 0 1 0 -820)">
						<stop  offset="0" style="stop-color:#FF8789"/>
						<stop  offset="0.53" style="stop-color:#84A2FC"/>
						<stop  offset="0.72" style="stop-color:#205FE3"/>
						<stop  offset="1" style="stop-color:#030F28"/>
					</linearGradient>
					<path class="st31" d="M97.4,150.4v-12.2l11-6.4V144L97.4,150.4z"/>
					
						<linearGradient id="SVGID_42_" gradientUnits="userSpaceOnUse" x1="95.6296" y1="924.2806" x2="97.9996" y2="961.0807" gradientTransform="matrix(1 0 0 1 0 -820)">
						<stop  offset="0" style="stop-color:#FF8789"/>
						<stop  offset="0.53" style="stop-color:#84A2FC"/>
						<stop  offset="0.72" style="stop-color:#205FE3"/>
						<stop  offset="1" style="stop-color:#030F28"/>
					</linearGradient>
					
						<linearGradient id="SVGID_43_" gradientUnits="userSpaceOnUse" x1="86.6483" y1="945.1829" x2="106.0683" y2="956.8129" gradientTransform="matrix(1 0 0 1 0 -820)">
						<stop  offset="0" style="stop-color:#FF8789"/>
						<stop  offset="0.53" style="stop-color:#84A2FC"/>
						<stop  offset="0.72" style="stop-color:#205FE3"/>
						<stop  offset="1" style="stop-color:#030F28"/>
					</linearGradient>
					<path class="st32" d="M97.2,137.8l-10.6-6.1l11-6.4l10.6,6.1L97.2,137.8z"/>
				</g>
				<g class="st33">
					
						<linearGradient id="SVGID_44_" gradientUnits="userSpaceOnUse" x1="100.5287" y1="972.5371" x2="112.9087" y2="957.4371" gradientTransform="matrix(1 0 0 1 0 -820)">
						<stop  offset="0" style="stop-color:#FF8789"/>
						<stop  offset="0.53" style="stop-color:#84A2FC"/>
						<stop  offset="0.72" style="stop-color:#205FE3"/>
						<stop  offset="1" style="stop-color:#030F28"/>
					</linearGradient>
					
						<linearGradient id="SVGID_45_" gradientUnits="userSpaceOnUse" x1="98.2413" y1="965.4738" x2="110.7513" y2="967.9937" gradientTransform="matrix(1 0 0 1 0 -820)">
						<stop  offset="0" style="stop-color:#FF8789"/>
						<stop  offset="0.53" style="stop-color:#84A2FC"/>
						<stop  offset="0.72" style="stop-color:#205FE3"/>
						<stop  offset="1" style="stop-color:#030F28"/>
					</linearGradient>
					<path class="st34" d="M99.9,137.7l10.6,6.1V156l-10.6-6.1V137.7z"/>
					
						<linearGradient id="SVGID_46_" gradientUnits="userSpaceOnUse" x1="96.4895" y1="983.6177" x2="117.6595" y2="965.6277" gradientTransform="matrix(1 0 0 1 0 -820)">
						<stop  offset="0" style="stop-color:#FF8789"/>
						<stop  offset="0.53" style="stop-color:#84A2FC"/>
						<stop  offset="0.72" style="stop-color:#205FE3"/>
						<stop  offset="1" style="stop-color:#030F28"/>
					</linearGradient>
					
						<linearGradient id="SVGID_47_" gradientUnits="userSpaceOnUse" x1="109.2517" y1="965.2716" x2="122.1517" y2="967.9116" gradientTransform="matrix(1 0 0 1 0 -820)">
						<stop  offset="0" style="stop-color:#FF8789"/>
						<stop  offset="0.53" style="stop-color:#84A2FC"/>
						<stop  offset="0.72" style="stop-color:#205FE3"/>
						<stop  offset="1" style="stop-color:#030F28"/>
					</linearGradient>
					<path class="st35" d="M110.9,156v-12.2l11-6.4v12.2L110.9,156z"/>
					
						<linearGradient id="SVGID_48_" gradientUnits="userSpaceOnUse" x1="109.1099" y1="929.9006" x2="111.4799" y2="966.7006" gradientTransform="matrix(1 0 0 1 0 -820)">
						<stop  offset="0" style="stop-color:#FF8789"/>
						<stop  offset="0.53" style="stop-color:#84A2FC"/>
						<stop  offset="0.72" style="stop-color:#205FE3"/>
						<stop  offset="1" style="stop-color:#030F28"/>
					</linearGradient>
					
						<linearGradient id="SVGID_49_" gradientUnits="userSpaceOnUse" x1="100.1305" y1="950.7992" x2="119.5505" y2="962.4292" gradientTransform="matrix(1 0 0 1 0 -820)">
						<stop  offset="0" style="stop-color:#FF8789"/>
						<stop  offset="0.53" style="stop-color:#84A2FC"/>
						<stop  offset="0.72" style="stop-color:#205FE3"/>
						<stop  offset="1" style="stop-color:#030F28"/>
					</linearGradient>
					<path class="st36" d="M110.7,143.5l-10.6-6.1l11-6.4l10.6,6.1L110.7,143.5z"/>
				</g>
				<g class="st33">
					
						<linearGradient id="SVGID_50_" gradientUnits="userSpaceOnUse" x1="100.5262" y1="958.4951" x2="112.9062" y2="943.3951" gradientTransform="matrix(1 0 0 1 0 -820)">
						<stop  offset="0" style="stop-color:#FF8789"/>
						<stop  offset="0.53" style="stop-color:#84A2FC"/>
						<stop  offset="0.72" style="stop-color:#205FE3"/>
						<stop  offset="1" style="stop-color:#030F28"/>
					</linearGradient>
					
						<linearGradient id="SVGID_51_" gradientUnits="userSpaceOnUse" x1="98.2403" y1="951.4285" x2="110.7503" y2="953.9485" gradientTransform="matrix(1 0 0 1 0 -820)">
						<stop  offset="0" style="stop-color:#FF8789"/>
						<stop  offset="0.53" style="stop-color:#84A2FC"/>
						<stop  offset="0.72" style="stop-color:#205FE3"/>
						<stop  offset="1" style="stop-color:#030F28"/>
					</linearGradient>
					<path class="st37" d="M99.9,123.7l10.6,6.1V142l-10.6-6.1V123.7z"/>
					
						<linearGradient id="SVGID_52_" gradientUnits="userSpaceOnUse" x1="96.5142" y1="969.5967" x2="117.6842" y2="951.6067" gradientTransform="matrix(1 0 0 1 0 -820)">
						<stop  offset="0" style="stop-color:#FF8789"/>
						<stop  offset="0.53" style="stop-color:#84A2FC"/>
						<stop  offset="0.72" style="stop-color:#205FE3"/>
						<stop  offset="1" style="stop-color:#030F28"/>
					</linearGradient>
					
						<linearGradient id="SVGID_53_" gradientUnits="userSpaceOnUse" x1="109.244" y1="951.2593" x2="122.144" y2="953.9094" gradientTransform="matrix(1 0 0 1 0 -820)">
						<stop  offset="0" style="stop-color:#FF8789"/>
						<stop  offset="0.53" style="stop-color:#84A2FC"/>
						<stop  offset="0.72" style="stop-color:#205FE3"/>
						<stop  offset="1" style="stop-color:#030F28"/>
					</linearGradient>
					<path class="st38" d="M110.9,142v-12.2l11-6.4v12.2L110.9,142z"/>
					
						<linearGradient id="SVGID_54_" gradientUnits="userSpaceOnUse" x1="109.1098" y1="915.8506" x2="111.4798" y2="952.6606" gradientTransform="matrix(1 0 0 1 0 -820)">
						<stop  offset="0" style="stop-color:#FF8789"/>
						<stop  offset="0.53" style="stop-color:#84A2FC"/>
						<stop  offset="0.72" style="stop-color:#205FE3"/>
						<stop  offset="1" style="stop-color:#030F28"/>
					</linearGradient>
					
						<linearGradient id="SVGID_55_" gradientUnits="userSpaceOnUse" x1="100.1261" y1="936.7565" x2="119.5461" y2="948.3865" gradientTransform="matrix(1 0 0 1 0 -820)">
						<stop  offset="0" style="stop-color:#FF8789"/>
						<stop  offset="0.53" style="stop-color:#84A2FC"/>
						<stop  offset="0.72" style="stop-color:#205FE3"/>
						<stop  offset="1" style="stop-color:#030F28"/>
					</linearGradient>
					<path class="st39" d="M110.7,129.4l-10.6-6.1l11-6.4l10.6,6.1L110.7,129.4z"/>
				</g>
				<g class="st33">
					
						<linearGradient id="SVGID_56_" gradientUnits="userSpaceOnUse" x1="86.752" y1="963.8317" x2="99.142" y2="948.7217" gradientTransform="matrix(1 0 0 1 0 -820)">
						<stop  offset="0" style="stop-color:#FF8789"/>
						<stop  offset="0.53" style="stop-color:#84A2FC"/>
						<stop  offset="0.72" style="stop-color:#205FE3"/>
						<stop  offset="1" style="stop-color:#030F28"/>
					</linearGradient>
					
						<linearGradient id="SVGID_57_" gradientUnits="userSpaceOnUse" x1="84.4841" y1="956.7495" x2="96.9941" y2="959.2695" gradientTransform="matrix(1 0 0 1 0 -820)">
						<stop  offset="0" style="stop-color:#FF8789"/>
						<stop  offset="0.53" style="stop-color:#84A2FC"/>
						<stop  offset="0.72" style="stop-color:#205FE3"/>
						<stop  offset="1" style="stop-color:#030F28"/>
					</linearGradient>
					<path class="st40" d="M86.1,129l10.6,6.1v12.2l-10.6-6.1V129z"/>
					
						<linearGradient id="SVGID_58_" gradientUnits="userSpaceOnUse" x1="82.7287" y1="974.9184" x2="103.8987" y2="956.9284" gradientTransform="matrix(1 0 0 1 0 -820)">
						<stop  offset="0" style="stop-color:#FF8789"/>
						<stop  offset="0.53" style="stop-color:#84A2FC"/>
						<stop  offset="0.72" style="stop-color:#205FE3"/>
						<stop  offset="1" style="stop-color:#030F28"/>
					</linearGradient>
					
						<linearGradient id="SVGID_59_" gradientUnits="userSpaceOnUse" x1="95.4898" y1="956.5709" x2="108.3898" y2="959.2208" gradientTransform="matrix(1 0 0 1 0 -820)">
						<stop  offset="0" style="stop-color:#FF8789"/>
						<stop  offset="0.53" style="stop-color:#84A2FC"/>
						<stop  offset="0.72" style="stop-color:#205FE3"/>
						<stop  offset="1" style="stop-color:#030F28"/>
					</linearGradient>
					<path class="st41" d="M97.1,147.3v-12.2l11-6.4v12.2L97.1,147.3z"/>
					
						<linearGradient id="SVGID_60_" gradientUnits="userSpaceOnUse" x1="95.3446" y1="921.191" x2="97.7146" y2="957.991" gradientTransform="matrix(1 0 0 1 0 -820)">
						<stop  offset="0" style="stop-color:#FF8789"/>
						<stop  offset="0.53" style="stop-color:#84A2FC"/>
						<stop  offset="0.72" style="stop-color:#205FE3"/>
						<stop  offset="1" style="stop-color:#030F28"/>
					</linearGradient>
					
						<linearGradient id="SVGID_61_" gradientUnits="userSpaceOnUse" x1="86.3669" y1="942.0951" x2="105.7869" y2="953.7251" gradientTransform="matrix(1 0 0 1 0 -820)">
						<stop  offset="0" style="stop-color:#FF8789"/>
						<stop  offset="0.53" style="stop-color:#84A2FC"/>
						<stop  offset="0.72" style="stop-color:#205FE3"/>
						<stop  offset="1" style="stop-color:#030F28"/>
					</linearGradient>
					<path class="st42" d="M96.9,134.8l-10.6-6.1l11-6.4l10.6,6.1L96.9,134.8z"/>
				</g>
				<g class="st33">
					
						<linearGradient id="SVGID_62_" gradientUnits="userSpaceOnUse" x1="86.7771" y1="949.8022" x2="99.1671" y2="934.7023" gradientTransform="matrix(1 0 0 1 0 -820)">
						<stop  offset="0" style="stop-color:#FF8789"/>
						<stop  offset="0.53" style="stop-color:#84A2FC"/>
						<stop  offset="0.72" style="stop-color:#205FE3"/>
						<stop  offset="1" style="stop-color:#030F28"/>
					</linearGradient>
					
						<linearGradient id="SVGID_63_" gradientUnits="userSpaceOnUse" x1="84.4755" y1="942.7526" x2="96.9855" y2="945.2726" gradientTransform="matrix(1 0 0 1 0 -820)">
						<stop  offset="0" style="stop-color:#FF8789"/>
						<stop  offset="0.53" style="stop-color:#84A2FC"/>
						<stop  offset="0.72" style="stop-color:#205FE3"/>
						<stop  offset="1" style="stop-color:#030F28"/>
					</linearGradient>
					<path class="st43" d="M86.1,115l10.6,6.1v12.2l-10.6-6.1V115z"/>
					
						<linearGradient id="SVGID_64_" gradientUnits="userSpaceOnUse" x1="82.7287" y1="960.8784" x2="103.8987" y2="942.8884" gradientTransform="matrix(1 0 0 1 0 -820)">
						<stop  offset="0" style="stop-color:#FF8789"/>
						<stop  offset="0.53" style="stop-color:#84A2FC"/>
						<stop  offset="0.72" style="stop-color:#205FE3"/>
						<stop  offset="1" style="stop-color:#030F28"/>
					</linearGradient>
					
						<linearGradient id="SVGID_65_" gradientUnits="userSpaceOnUse" x1="95.4887" y1="942.5361" x2="108.3887" y2="945.1761" gradientTransform="matrix(1 0 0 1 0 -820)">
						<stop  offset="0" style="stop-color:#FF8789"/>
						<stop  offset="0.53" style="stop-color:#84A2FC"/>
						<stop  offset="0.72" style="stop-color:#205FE3"/>
						<stop  offset="1" style="stop-color:#030F28"/>
					</linearGradient>
					<path class="st44" d="M97.1,133.3v-12.2l11-6.3v12.2L97.1,133.3z"/>
					
						<linearGradient id="SVGID_66_" gradientUnits="userSpaceOnUse" x1="95.345" y1="907.1509" x2="97.715" y2="943.951" gradientTransform="matrix(1 0 0 1 0 -820)">
						<stop  offset="0" style="stop-color:#FF8789"/>
						<stop  offset="0.53" style="stop-color:#84A2FC"/>
						<stop  offset="0.72" style="stop-color:#205FE3"/>
						<stop  offset="1" style="stop-color:#030F28"/>
					</linearGradient>
					
						<linearGradient id="SVGID_67_" gradientUnits="userSpaceOnUse" x1="86.3691" y1="928.0515" x2="105.7891" y2="939.6815" gradientTransform="matrix(1 0 0 1 0 -820)">
						<stop  offset="0" style="stop-color:#FF8789"/>
						<stop  offset="0.53" style="stop-color:#84A2FC"/>
						<stop  offset="0.72" style="stop-color:#205FE3"/>
						<stop  offset="1" style="stop-color:#030F28"/>
					</linearGradient>
					<path class="st45" d="M96.9,120.7l-10.6-6.1l11-6.4l10.6,6.1L96.9,120.7z"/>
				</g>
			</g>
		</g>
	</g>
</g>
<g id="up">
	<g id="Capa_4">
		<g>
			
				<linearGradient id="SVGID_68_" gradientUnits="userSpaceOnUse" x1="88.1938" y1="1035.8903" x2="96.7638" y2="878.2402" gradientTransform="matrix(1 0 0 1 0 -820)">
				<stop  offset="0" style="stop-color:#FF8789"/>
				<stop  offset="0.53" style="stop-color:#84A2FC"/>
				<stop  offset="0.72" style="stop-color:#205FE3"/>
				<stop  offset="1" style="stop-color:#030F28"/>
			</linearGradient>
			
				<linearGradient id="SVGID_69_" gradientUnits="userSpaceOnUse" x1="76.13" y1="940.61" x2="105.83" y2="875.57" gradientTransform="matrix(1 0 0 1 0 -820)">
				<stop  offset="0" style="stop-color:#FF8789"/>
				<stop  offset="0.53" style="stop-color:#84A2FC"/>
				<stop  offset="0.72" style="stop-color:#205FE3"/>
				<stop  offset="1" style="stop-color:#030F28"/>
			</linearGradient>
			<path class="st46" d="M152.5,74.2c3.4,2,3.4,5.2,0.1,7.2l-50.5,29.5c-3.9,2-8.5,2-12.3,0L38.9,81.3c-3.4-2-3.5-5.2-0.1-7.2
				l50.5-29.5c3.9-2,8.5-2,12.3,0L152.5,74.2z"/>
			<g class="st47">
				
					<linearGradient id="SVGID_70_" gradientUnits="userSpaceOnUse" x1="104.4429" y1="927.7485" x2="85.6329" y2="876.6285" gradientTransform="matrix(1 0 0 1 0 -820)">
					<stop  offset="0" style="stop-color:#FF8789"/>
					<stop  offset="0.53" style="stop-color:#84A2FC"/>
					<stop  offset="0.72" style="stop-color:#205FE3"/>
					<stop  offset="1" style="stop-color:#030F28;stop-opacity:0.24"/>
				</linearGradient>
				<path class="st48" d="M92.7,53.5c-0.2-0.1-0.3-0.3-0.3-0.5c0,0,0-0.1,0-0.2c0,0,0,0,0-0.1l-6.1-3.4l5.7-3.4l11.7,6.5l-4.9,3
					c0,0.1,0,0.1,0,0.2c0,0.2-0.1,0.4-0.3,0.5c-0.4,0.2-1,0.2-1.4,0c-0.3-0.1-0.4-0.4-0.3-0.7c0.1-0.2,0.2-0.3,0.3-0.3
					c0.4-0.2,1-0.2,1.4,0h0.1l4.3-2.7l-11-6L87,49.4l5.6,3.1c0.2-0.1,0.5-0.2,0.7-0.2c0.2,0,0.5,0,0.7,0.2c0.3,0.1,0.4,0.5,0.2,0.8
					c-0.1,0.1-0.1,0.2-0.2,0.2c-0.2,0.1-0.5,0.2-0.7,0.2C93.1,53.7,92.9,53.6,92.7,53.5z M92.8,52.8L92.8,53c0,0.1,0,0.2,0.1,0.2
					c0.3,0.1,0.7,0.1,1,0c0.1,0,0.2-0.1,0.1-0.2c0-0.1-0.1-0.1-0.1-0.1c-0.2-0.1-0.3-0.1-0.5-0.1C93.2,52.7,93,52.7,92.8,52.8
					L92.8,52.8z M97.3,55.8c0.3,0.1,0.7,0.1,1,0c0.1-0.1,0.1-0.1,0.1-0.2c0-0.1-0.1-0.1-0.1-0.2c-0.2-0.1-0.3-0.1-0.5-0.1
					c-0.2,0-0.3,0-0.5,0.1c-0.1,0-0.1,0.1-0.1,0.2C97.1,55.7,97.2,55.8,97.3,55.8L97.3,55.8z M64.8,81.4c0.2,0.1,0.5,0.2,0.7,0.2
					c0.2,0,0.5,0,0.7-0.2c0.2-0.1,0.3-0.3,0.3-0.5c0-0.1-0.1-0.3-0.2-0.4l4.7-3l6.7,3.9l6.6-3.7c0.2,0.1,0.3,0.1,0.5,0.1
					c0.2,0,0.5,0,0.7-0.2c0.2-0.1,0.3-0.3,0.3-0.5c0-0.2-0.1-0.4-0.3-0.5c-0.2-0.1-0.5-0.2-0.7-0.2c-0.2,0-0.5,0-0.7,0.2
					c-0.2,0.1-0.3,0.3-0.3,0.5c0,0.1,0.1,0.3,0.2,0.4L77.8,81L71,77l-5.1,3.3c-0.1-0.1-0.3-0.1-0.4-0.1c-0.2,0-0.5,0-0.7,0.2
					c-0.3,0.1-0.4,0.5-0.2,0.8C64.6,81.2,64.7,81.3,64.8,81.4L64.8,81.4z M84.3,76.9c0.2-0.1,0.3-0.1,0.5-0.1c0.2,0,0.3,0,0.5,0.1
					c0.1,0,0.1,0.1,0.1,0.2c0,0.1-0.1,0.1-0.1,0.2c-0.2,0.1-0.3,0.1-0.5,0.1c-0.2,0-0.3,0-0.5-0.1c-0.1,0-0.1-0.1-0.1-0.2
					C84.2,77,84.2,76.9,84.3,76.9z M65,80.7c0.1-0.1,0.3-0.1,0.5-0.1c0.2,0,0.4,0,0.5,0.1c0.1,0,0.1,0.1,0.1,0.2
					c0,0.1-0.1,0.1-0.1,0.2c-0.3,0.1-0.7,0.1-1,0c-0.1,0-0.1-0.1-0.1-0.2C64.9,80.8,64.9,80.7,65,80.7z M119.6,80.8
					c-0.4-0.2-1-0.2-1.4,0c-0.2,0.1-0.3,0.3-0.3,0.5c0,0.2,0.1,0.4,0.3,0.5c0.4,0.2,1,0.2,1.4,0c0.2-0.1,0.3-0.3,0.4-0.5
					c0-0.1,0-0.1,0-0.2l6.3-3.5l5.4,3l-8.7,5c-0.2-0.1-0.5-0.2-0.7-0.2c-0.2,0-0.5,0-0.7,0.2c-0.3,0.2-0.4,0.5-0.2,0.8
					c0.1,0.1,0.1,0.2,0.2,0.2c0.2,0.1,0.5,0.2,0.7,0.2c0.2,0,0.5,0,0.7-0.2c0.2-0.1,0.3-0.3,0.4-0.5c0,0,0-0.1,0-0.1l0,0
					c0,0,0-0.1,0-0.1l9.2-5.3l-6.4-3.5L119.6,80.8z M119.5,81.4c-0.3,0.1-0.7,0.1-1,0c-0.1,0-0.1-0.1-0.1-0.2c0-0.1,0.1-0.1,0.1-0.2
					c0.1-0.1,0.3-0.1,0.5-0.1c0.2,0,0.4,0,0.5,0.1c0.1,0,0.1,0.1,0.1,0.2C119.6,81.3,119.5,81.4,119.5,81.4L119.5,81.4z M122.8,86.2
					c-0.3,0.1-0.7,0.1-1,0c-0.1,0-0.1-0.1-0.1-0.2c0-0.1,0.1-0.1,0.1-0.2c0.1-0.1,0.3-0.1,0.5-0.1c0.2,0,0.4,0,0.5,0.1l0,0l0,0v0.1
					l0,0C122.9,86.1,122.9,86.1,122.8,86.2L122.8,86.2z M87.2,86.6l-4.7-2.7C82.4,84,82.2,84,82,84c-0.2,0-0.5-0.1-0.7-0.2
					c-0.2-0.1-0.3-0.3-0.3-0.5c0-0.2,0.1-0.4,0.3-0.5c0.2-0.1,0.5-0.2,0.7-0.2c0.2,0,0.5,0,0.7,0.2c0.2,0.1,0.3,0.3,0.3,0.5
					c0,0.1,0,0.3-0.1,0.3l4.3,2.5l2.2-1.3L84.3,82c-0.1,0-0.1-0.1-0.1-0.2c0-0.1,0-0.1,0.1-0.2l3.5-2c-0.1-0.1-0.1-0.2-0.1-0.3
					c0-0.2,0.1-0.4,0.3-0.5c0.2-0.1,0.5-0.2,0.7-0.2c0.2,0,0.5,0,0.7,0.2c0.3,0.2,0.4,0.5,0.2,0.8c-0.1,0.1-0.1,0.2-0.2,0.2
					c-0.2,0.1-0.5,0.2-0.7,0.2c-0.2,0-0.4,0-0.5-0.1l0,0l-3.3,1.9l5.1,2.9c0.1,0.1,0.1,0.2,0,0.3c0,0,0,0,0,0l-2.6,1.5
					C87.3,86.5,87.3,86.5,87.2,86.6C87.2,86.5,87.2,86.6,87.2,86.6L87.2,86.6z M88.8,79c-0.2,0-0.4,0-0.5,0.1c0,0,0,0-0.1,0.1
					c-0.1,0-0.1,0.1-0.1,0.1c0,0.1,0.1,0.1,0.1,0.2c0.1,0.1,0.3,0.1,0.5,0.1c0.2,0,0.4,0,0.5-0.1c0.1,0,0.1-0.1,0.1-0.2
					c0-0.1-0.1-0.1-0.1-0.2C89.1,79,88.9,79,88.8,79z M81.4,83.3c0,0.1,0.1,0.1,0.1,0.2c0.3,0.2,0.7,0.2,1,0c0.1,0,0.1-0.1,0.1-0.2
					c0-0.1-0.1-0.1-0.1-0.2C82.3,83,82.2,83,82,83c-0.2,0-0.3,0-0.5,0.1C81.4,83.2,81.4,83.2,81.4,83.3L81.4,83.3z M85.7,90.2
					l7.4,4.4c0.1,0.1,0.1,0.1,0.1,0.2c0,0.1,0,0.1-0.1,0.2l-6.8,3.7c0,0,0,0-0.1,0c0,0-0.1,0-0.1,0l-3-1.8c-0.2,0-0.3,0.1-0.5,0.1
					c-0.3,0-0.6-0.1-0.8-0.2c-0.3-0.1-0.5-0.5-0.4-0.8c0.1-0.2,0.2-0.3,0.4-0.4c0.5-0.3,1.1-0.3,1.6,0c0.2,0.1,0.4,0.3,0.4,0.6
					c0,0.2-0.1,0.4-0.3,0.5l2.6,1.6l6.3-3.4l-7.4-4.4c0,0-0.1-0.1-0.1-0.2c0-0.1,0-0.1,0.1-0.2l8.4-4.6l-5.5-3.2
					c0,0-0.1-0.1-0.1-0.2c0-0.1,0-0.1,0.1-0.2l1.7-1c-0.1-0.1-0.2-0.2-0.2-0.4c0-0.2,0.1-0.4,0.3-0.5c0.2-0.1,0.5-0.2,0.7-0.2
					c0.2,0,0.5,0,0.7,0.2c0.2,0.1,0.3,0.3,0.3,0.5c0,0.2-0.1,0.4-0.3,0.5c-0.2,0.1-0.5,0.2-0.7,0.2c-0.2,0-0.3,0-0.4-0.1l-1.6,1
					l5.5,3.2c0.1,0,0.1,0.1,0.1,0.2c0,0.1,0,0.1-0.1,0.2L85.7,90.2z M90.7,80.2c-0.2,0-0.4,0-0.5,0.1c-0.1,0-0.1,0.1-0.1,0.2
					c0,0.1,0.1,0.1,0.1,0.2c0.3,0.1,0.7,0.1,1,0c0.1,0,0.1-0.1,0.1-0.2c0-0.1-0.1-0.1-0.1-0.2C91,80.2,90.8,80.2,90.7,80.2
					L90.7,80.2z M81.8,96.1c0,0.1,0.1,0.2,0.2,0.3c0.4,0.2,0.8,0.2,1.2,0c0.1-0.1,0.2-0.2,0.2-0.3s-0.1-0.2-0.2-0.3
					c-0.2-0.1-0.4-0.1-0.6-0.1c-0.2,0-0.4,0-0.6,0.1C81.8,95.9,81.8,96,81.8,96.1z M110,86.1l-9.3-5.4c0.1-0.1,0.1-0.2,0.1-0.3
					c0-0.2-0.1-0.4-0.3-0.5c-0.2-0.1-0.5-0.2-0.7-0.2c-0.2,0-0.5,0-0.7,0.2c-0.2,0.1-0.3,0.3-0.3,0.5c0,0.2,0.1,0.4,0.3,0.5
					c0.2,0.1,0.5,0.2,0.7,0.2c0.2,0,0.5,0,0.7-0.1l9,5.2l-10.2,5.5c-0.1,0-0.1,0.1-0.1,0.2c0,0.1,0,0.1,0.1,0.2l3.6,2.3l-7.6,4.3
					c-0.1,0-0.1,0.1-0.1,0.2c0,0.1,0,0.1,0.1,0.2l3.5,1.9l0,0l0,0h0.1l7.7-4.4c0.2,0.1,0.4,0.1,0.6,0.1c0.3,0,0.6-0.1,0.8-0.2
					c0.2-0.1,0.4-0.3,0.4-0.6c0-0.2-0.2-0.5-0.4-0.6c-0.5-0.3-1.1-0.3-1.6,0c-0.2,0.1-0.4,0.3-0.4,0.6c0,0.2,0.1,0.4,0.2,0.5
					l-7.4,4.2l-3-1.7l7.6-4.3c0.1-0.1,0.1-0.2,0-0.3c0,0,0,0,0,0L99.7,92l10.3-5.6c0.1,0,0.1-0.1,0.1-0.2
					C110.1,86.2,110,86.1,110,86.1L110,86.1z M100.2,80.6c-0.3,0.1-0.7,0.1-1,0c-0.1,0-0.1-0.1-0.1-0.2c0-0.1,0.1-0.1,0.1-0.2
					c0.1-0.1,0.3-0.1,0.5-0.1c0.2,0,0.4,0,0.5,0.1c0.1,0,0.1,0.1,0.1,0.2C100.3,80.5,100.3,80.6,100.2,80.6L100.2,80.6z M106.5,95.6
					c0.2-0.1,0.4-0.1,0.6-0.1c0.2,0,0.4,0,0.6,0.1c0.1,0.1,0.2,0.2,0.2,0.3s-0.1,0.2-0.2,0.3c-0.4,0.2-0.8,0.2-1.2,0
					c-0.1-0.1-0.2-0.2-0.2-0.3C106.3,95.8,106.4,95.7,106.5,95.6L106.5,95.6z M101.7,78.6c0.2,0,0.5,0,0.7,0.2
					c0.2,0.1,0.4,0.3,0.3,0.4c0,0.1,0,0.2-0.1,0.3l3.2,1.9c0.2-0.1,0.4-0.1,0.7-0.1c0.2,0,0.5,0,0.7,0.2c0.3,0.2,0.4,0.5,0.2,0.8
					c-0.1,0.1-0.1,0.2-0.2,0.2c-0.2,0.1-0.5,0.2-0.7,0.2c-0.2,0-0.5,0-0.7-0.2c-0.2-0.1-0.3-0.3-0.3-0.5c0-0.1,0-0.2,0.1-0.3
					l-3.2-1.9l0,0c-0.2,0.1-0.4,0.2-0.7,0.2c-0.2,0-0.5,0-0.7-0.2c-0.3-0.2-0.4-0.5-0.2-0.8c0.1-0.1,0.1-0.2,0.2-0.2
					C101.1,78.7,101.4,78.6,101.7,78.6L101.7,78.6z M101.1,79.5c0.3,0.1,0.7,0.1,1,0c0.1,0,0.2-0.1,0.1-0.2c0-0.1-0.1-0.1-0.1-0.2
					c-0.2-0.1-0.3-0.1-0.5-0.1c-0.2,0-0.3,0-0.5,0.1c-0.1,0-0.1,0.1-0.1,0.2C101,79.4,101.1,79.5,101.1,79.5L101.1,79.5z
					 M106.4,81.8c-0.2,0-0.3,0-0.5,0.1c-0.1,0-0.1,0.1-0.1,0.2c0,0.1,0.1,0.1,0.1,0.2c0.3,0.1,0.7,0.1,1,0c0.1,0,0.1-0.1,0.1-0.2
					c0-0.1-0.1-0.1-0.1-0.2C106.8,81.8,106.6,81.8,106.4,81.8L106.4,81.8z M96,82.6l3.7,2.2c0,0,0.1,0,0.1,0.1v0.1
					c0,0.1,0,0.1-0.1,0.2l-9.4,5.3l6.5,3.7c0.2-0.1,0.4-0.1,0.6-0.1c0.2,0,0.5,0.1,0.7,0.2c0.2,0.1,0.3,0.3,0.3,0.5
					c0,0.2-0.1,0.4-0.3,0.5c-0.2,0.1-0.5,0.2-0.7,0.2c-0.2,0-0.5,0-0.7-0.2c-0.2-0.1-0.3-0.3-0.3-0.5c0-0.1,0.1-0.2,0.1-0.3
					l-6.6-3.8c-0.1,0-0.1-0.1-0.1-0.2c0-0.1,0-0.1,0.1-0.2l9.4-5.3l-3.5-2.1c-0.2,0.1-0.4,0.1-0.6,0.1c-0.2,0-0.5,0-0.7-0.2
					c-0.3-0.2-0.4-0.5-0.2-0.8c0.1-0.1,0.1-0.2,0.2-0.2c0.2-0.1,0.5-0.2,0.7-0.2c0.2,0,0.5,0,0.7,0.2c0.2,0.1,0.3,0.3,0.3,0.5
					C96.1,82.4,96.1,82.5,96,82.6z M94.5,82.4c0.3,0.1,0.7,0.1,1,0c0.1,0,0.2-0.1,0.1-0.2c0-0.1-0.1-0.1-0.1-0.2
					c-0.2-0.1-0.3-0.1-0.5-0.1c-0.2,0-0.3,0-0.5,0.1c-0.1,0-0.2,0.1-0.1,0.2C94.4,82.4,94.4,82.4,94.5,82.4L94.5,82.4z M97.4,94.3
					c-0.2,0-0.3,0-0.5,0.1l-0.1,0.1c0,0-0.1,0.1-0.1,0.1c0,0.1,0.1,0.1,0.1,0.2c0.3,0.1,0.7,0.1,1,0c0.1,0,0.1-0.1,0.1-0.2
					c0-0.1-0.1-0.1-0.1-0.2C97.7,94.4,97.6,94.3,97.4,94.3L97.4,94.3z M106.7,57.6c-0.2,0.1-0.3,0.3-0.4,0.5c0,0.2,0.2,0.4,0.4,0.5
					c0.4,0.2,0.9,0.2,1.3,0l3.1,1.8l5.6-3.4c0.2,0.1,0.5,0.2,0.7,0.2c0.2,0,0.5,0,0.7-0.2c0.2-0.1,0.3-0.3,0.3-0.5
					c0-0.2-0.1-0.4-0.3-0.5c-0.2-0.1-0.5-0.2-0.7-0.2c-0.2,0-0.5,0-0.7,0.2c-0.2,0.1-0.3,0.3-0.3,0.5c0,0.1,0,0.2,0.1,0.2L111,60
					l-2.7-1.6c0.1-0.1,0.1-0.2,0.1-0.3c0-0.2-0.1-0.4-0.3-0.5c-0.2-0.1-0.5-0.2-0.7-0.2C107.2,57.4,106.9,57.5,106.7,57.6
					L106.7,57.6z M116.9,56.5c0.1-0.1,0.3-0.1,0.5-0.1c0.2,0,0.4,0,0.5,0.1c0.1,0,0.1,0.1,0.1,0.2c0,0.1-0.1,0.1-0.1,0.2
					c-0.3,0.1-0.7,0.1-1,0c-0.1,0-0.1-0.1-0.1-0.2C116.8,56.6,116.8,56.5,116.9,56.5L116.9,56.5z M108.1,58.1
					C108.1,58.1,108.1,58.2,108.1,58.1C108,58.2,108,58.2,108.1,58.1c-0.4,0.2-0.8,0.2-1.1,0.1c-0.1,0-0.1-0.1-0.1-0.2
					c0-0.1,0.1-0.1,0.1-0.2c0.1-0.1,0.3-0.1,0.5-0.1c0.2,0,0.4,0,0.5,0.1L108,58C108.1,58.1,108.1,58.1,108.1,58.1L108.1,58.1z
					 M104.6,78.2c0,0.1,0,0.3-0.1,0.3l21,11.8l-2.1,1.3c0.1,0.1,0.2,0.2,0.2,0.4c0,0.2-0.1,0.4-0.3,0.5c-0.2,0.1-0.5,0.2-0.7,0.2
					c-0.2,0-0.5,0-0.7-0.2c-0.2-0.1-0.3-0.3-0.3-0.5c0-0.2,0.1-0.4,0.3-0.5c0.2-0.1,0.5-0.2,0.7-0.2c0.2,0,0.3,0,0.5,0.1l1.7-1
					l-20.5-11.6l0,0c-0.2,0.1-0.4,0.1-0.6,0.1c-0.2,0-0.5,0-0.7-0.2c-0.3-0.1-0.4-0.5-0.2-0.8c0.1-0.1,0.1-0.2,0.2-0.2
					c0.2-0.1,0.5-0.2,0.7-0.2c0.2,0,0.5,0,0.7,0.2C104.5,77.8,104.6,78,104.6,78.2L104.6,78.2z M103.1,78.4c0.3,0.1,0.7,0.1,1,0
					c0.1,0,0.1-0.1,0.1-0.2c0-0.1-0.1-0.1-0.1-0.2c-0.2-0.1-0.3-0.1-0.5-0.1c-0.2,0-0.3,0-0.5,0.1c-0.1,0-0.1,0.1-0.1,0.2
					C103,78.3,103,78.3,103.1,78.4L103.1,78.4z M122.1,92.3c0.3,0.1,0.7,0.1,1,0l0.2-0.2c0-0.1-0.1-0.1-0.1-0.2l0,0l0,0
					c-0.2-0.1-0.3-0.1-0.5-0.1c-0.2,0-0.3,0-0.5,0.1c-0.1,0-0.1,0.1-0.1,0.2C122.1,92.2,122.1,92.2,122.1,92.3L122.1,92.3z
					 M69.4,73.8l8.8,5.1l4.1-2.4c0.2,0.1,0.4,0.1,0.5,0.1c0.2,0,0.5,0,0.7-0.2c0.2-0.1,0.3-0.3,0.3-0.5c0-0.2-0.1-0.4-0.3-0.5
					c-0.2-0.1-0.5-0.2-0.7-0.2c-0.2,0-0.5,0-0.7,0.2c-0.2,0.1-0.3,0.3-0.3,0.5c0,0.1,0,0.3,0.1,0.3l-3.7,2.1l-8.6-5L69.4,73.8z
					 M82.4,75.8c0.2-0.1,0.3-0.1,0.5-0.1c0.2,0,0.3,0,0.5,0.1c0.1,0,0.1,0.1,0.1,0.2c0,0.1-0.1,0.1-0.1,0.2
					c-0.2,0.1-0.3,0.1-0.5,0.1c-0.2,0-0.3,0-0.5-0.1c-0.1,0-0.1-0.1-0.1-0.2C82.3,76,82.3,75.9,82.4,75.8L82.4,75.8z M70,82.2
					l-3.9,2.5L66,84.6l-8.5-4.9l0,0c-0.4,0.2-1,0.2-1.4,0c-0.3-0.1-0.4-0.5-0.2-0.8c0.1-0.1,0.1-0.2,0.2-0.2c0.4-0.2,1-0.2,1.4,0
					c0.2,0.1,0.3,0.3,0.3,0.5c0,0,0,0.1,0,0.1c0,0,0,0.1,0,0.1l8.3,4.8l3.6-2.3c0-0.1-0.1-0.2-0.1-0.3c0-0.2,0.2-0.4,0.4-0.5
					c0.4-0.2,1-0.2,1.4,0c0.2,0.1,0.3,0.3,0.3,0.5c0,0.2-0.1,0.4-0.3,0.5c-0.2,0.1-0.5,0.2-0.7,0.2C70.5,82.3,70.2,82.3,70,82.2z
					 M70.6,81.3c-0.2,0-0.3,0-0.5,0.1c-0.1,0-0.2,0.1-0.1,0.2c0,0.1,0.1,0.1,0.1,0.2c0.3,0.1,0.7,0.1,1,0c0.1,0,0.1-0.1,0.1-0.2
					c0-0.1-0.1-0.1-0.1-0.2C71,81.3,70.8,81.3,70.6,81.3L70.6,81.3z M56.3,79.4c0.3,0.1,0.7,0.1,1,0c0.1-0.1,0.1-0.1,0.1-0.2
					c0-0.1-0.1-0.1-0.1-0.2c-0.2-0.1-0.3-0.1-0.5-0.1c-0.2,0-0.3,0-0.5,0.1c-0.1,0-0.1,0.1-0.1,0.2C56.1,79.3,56.2,79.3,56.3,79.4z
					 M86.5,78.9L86.5,78.9h0.2c0.2,0,0.5,0,0.7-0.2c0.3-0.1,0.4-0.5,0.2-0.8c-0.1-0.1-0.1-0.2-0.2-0.2c-0.4-0.2-1-0.2-1.4,0
					c-0.2,0.1-0.3,0.3-0.3,0.5c0,0.2,0.1,0.3,0.2,0.4L67.2,89.3c-0.2-0.1-0.5-0.2-0.7-0.2c-0.2,0-0.5,0-0.7,0.2
					c-0.3,0.2-0.4,0.5-0.2,0.8c0.1,0.1,0.1,0.2,0.2,0.2c0.2,0.1,0.5,0.2,0.7,0.2c0.2,0,0.5,0,0.7-0.2c0.2-0.1,0.3-0.3,0.3-0.5
					c0-0.1,0-0.1,0-0.2l18.8-10.7L86.5,78.9z M86.3,78.1c0.2-0.1,0.3-0.1,0.5-0.1c0.2,0,0.3,0,0.5,0.1c0.1,0,0.2,0.1,0.1,0.2
					c0,0.1-0.1,0.1-0.1,0.1c-0.2,0.1-0.3,0.1-0.5,0.1c-0.2,0-0.3,0-0.5-0.1c-0.1,0-0.1-0.1-0.1-0.2C86.1,78.1,86.2,78.1,86.3,78.1z
					 M67,90c-0.3,0.1-0.7,0.1-1,0c-0.1,0-0.1-0.1-0.1-0.2c0-0.1,0.1-0.1,0.1-0.2c0.1-0.1,0.3-0.1,0.5-0.1c0.2,0,0.4,0,0.5,0.1
					c0.1,0,0.1,0.1,0.1,0.2C67.1,89.8,67.1,89.9,67,90L67,90C67,90,67,90,67,90z M108.4,76.3l5.9,3.5l9-5.3l0.2,0.3l-9.3,5.4
					l-6.3-3.8c-0.2,0.1-0.3,0.1-0.5,0.1c-0.2,0-0.5,0-0.7-0.2c-0.2-0.1-0.3-0.3-0.3-0.5c0-0.2,0.1-0.4,0.3-0.5
					c0.2-0.1,0.5-0.2,0.7-0.2c0.2,0,0.5,0.1,0.7,0.2c0.2,0.1,0.3,0.3,0.3,0.5C108.5,76.1,108.5,76.2,108.4,76.3z M107,76.1
					c0.3,0.1,0.7,0.1,1,0c0.1,0,0.1-0.1,0.1-0.2c0-0.1-0.1-0.1-0.1-0.2c-0.2-0.1-0.3-0.1-0.5-0.1c-0.2,0-0.3,0-0.5,0.1
					c-0.1,0-0.1,0.1-0.1,0.2C106.9,76,106.9,76.1,107,76.1z M119.3,85l4-2.5c0.2,0.1,0.4,0.1,0.6,0.1c0.2,0,0.5-0.1,0.7-0.2
					c0.2-0.1,0.3-0.3,0.3-0.5c0-0.2-0.1-0.4-0.3-0.5c-0.2-0.1-0.5-0.2-0.7-0.2c-0.2,0-0.5,0-0.7,0.2c-0.2,0.1-0.3,0.3-0.3,0.5
					c0,0.1,0,0.2,0.1,0.3l-3.7,2.3l-12.8-7.2c0.1-0.1,0.1-0.2,0.1-0.3c0-0.2-0.1-0.4-0.3-0.5c-0.2-0.1-0.5-0.2-0.7-0.2
					c-0.2,0-0.5,0-0.7,0.2c-0.2,0.1-0.3,0.3-0.4,0.5c0,0.2,0.2,0.4,0.4,0.5c0.2,0.1,0.5,0.2,0.7,0.2c0.2,0,0.4,0,0.6-0.1l0,0
					L119.3,85z M123.5,81.7c0.1-0.1,0.3-0.1,0.5-0.1c0.2,0,0.4,0,0.5,0.1c0.1,0,0.1,0.1,0.1,0.2c0,0.1-0.1,0.1-0.1,0.2
					c-0.1,0.1-0.3,0.1-0.5,0.1c-0.2,0-0.4,0-0.5-0.1c-0.1,0-0.1-0.1-0.1-0.2C123.3,81.9,123.4,81.8,123.5,81.7L123.5,81.7z
					 M106.1,77.2c-0.3,0.1-0.7,0.1-1,0c-0.1,0-0.1-0.1-0.1-0.2c0-0.1,0.1-0.1,0.1-0.2c0.1-0.1,0.3-0.1,0.5-0.1c0.2,0,0.4,0,0.5,0.1
					c0.1,0,0.1,0.1,0.1,0.2C106.2,77.1,106.2,77.2,106.1,77.2L106.1,77.2z M111.7,76l5.8-3.5l-6-3.4l5.7-3.4
					c-0.1-0.1-0.1-0.2-0.1-0.3c0-0.2,0.2-0.4,0.4-0.5c0.4-0.2,1-0.2,1.4,0c0.3,0.1,0.4,0.5,0.3,0.7c-0.1,0.1-0.2,0.2-0.3,0.3
					c-0.2,0.1-0.5,0.2-0.7,0.2c-0.2,0-0.4,0-0.6-0.1l-5.3,3.1l6,3.4l-6.6,3.9l-1.8-1h-0.2h-0.2c-0.2,0-0.5,0-0.7-0.2
					c-0.3-0.2-0.4-0.5-0.2-0.8c0.1-0.1,0.1-0.2,0.2-0.2c0.4-0.2,1-0.2,1.4,0c0.2,0.1,0.3,0.3,0.4,0.5c0,0.1-0.1,0.3-0.2,0.4
					L111.7,76z M108.9,75c0.3,0.1,0.7,0.1,1,0c0.1,0,0.2-0.1,0.1-0.2c0-0.1-0.1-0.1-0.1-0.2c-0.2-0.1-0.3-0.1-0.5-0.1
					c-0.2,0-0.3,0-0.5,0.1c-0.1,0-0.1,0.1-0.1,0.2C108.8,74.9,108.8,75,108.9,75z M118.1,65.1c-0.2,0-0.3,0-0.5,0.1
					c-0.1,0-0.1,0.1-0.1,0.2c0,0.1,0.1,0.1,0.1,0.2c0.3,0.1,0.7,0.1,1,0c0.1,0,0.1-0.1,0.1-0.2c0-0.1-0.1-0.1-0.1-0.1
					C118.5,65.2,118.3,65.1,118.1,65.1L118.1,65.1z M107.8,62l-5.9,3.4l0.2,0.3l6.6-3.8l-6-3.3l5.4-3.4l-0.2-0.3l-6.1,3.8L107.8,62z
					 M103.2,61.3l-6.6,3.8l-0.2-0.3l5.9-3.4l-10-5.4l5.8-3.6l-3.9-2.1c-0.2,0.1-0.5,0.2-0.7,0.2c-0.2,0-0.5,0-0.7-0.2
					c-0.2-0.1-0.3-0.3-0.3-0.5c0-0.2,0.1-0.4,0.3-0.5c0.2-0.1,0.5-0.2,0.7-0.2c0.2,0,0.5,0.1,0.7,0.2c0.2,0.1,0.3,0.3,0.3,0.5
					c0,0.1,0,0.1,0,0.2l4.5,2.4l-5.8,3.6L103.2,61.3z M93,49.9c0.3,0.1,0.7,0.1,1,0c0.1,0,0.1-0.1,0.1-0.1c0-0.1-0.1-0.1-0.1-0.2
					c-0.2-0.1-0.3-0.1-0.5-0.1c-0.2,0-0.3,0-0.5,0.1c-0.1,0-0.1,0.1-0.1,0.2C92.9,49.8,92.9,49.9,93,49.9z M78.3,58.7
					c0.2,0.1,0.5,0.2,0.7,0.2c0.2,0,0.4,0,0.6-0.1l4.3,2.5l-5,3l10.7,6.2l0.2-0.3l-10.1-5.8l5-3L80,58.5c0.1-0.1,0.1-0.2,0.1-0.3
					c0-0.2-0.1-0.4-0.3-0.5c-0.4-0.2-1-0.2-1.4,0c-0.2,0.1-0.3,0.3-0.3,0.5C78,58.4,78.1,58.6,78.3,58.7z M78.6,58
					c0.2-0.1,0.3-0.1,0.5-0.1c0.2,0,0.3,0,0.5,0.1c0.1,0,0.2,0.1,0.1,0.2c0,0.1-0.1,0.1-0.1,0.1c-0.2,0.1-0.3,0.1-0.5,0.1
					c-0.2,0-0.3,0-0.5-0.1c-0.1,0-0.2-0.1-0.1-0.2C78.4,58.1,78.5,58,78.6,58z M68.1,55.7c-0.2,0-0.5,0-0.7-0.2
					c-0.2-0.1-0.3-0.3-0.3-0.5c0-0.2,0.1-0.4,0.3-0.5c0.2-0.1,0.5-0.2,0.7-0.2c0.2,0,0.5,0,0.7,0.2c0.2,0.1,0.3,0.3,0.3,0.5
					c0,0.1,0,0.2-0.1,0.3l9.2,5.6c0,0,0,0,0,0c0.2-0.1,0.5-0.2,0.7-0.2c0.2,0,0.5,0,0.7,0.2c0.3,0.1,0.4,0.5,0.3,0.7
					c-0.1,0.1-0.2,0.2-0.3,0.3c-0.2,0.1-0.5,0.2-0.7,0.2c-0.2,0-0.5,0-0.7-0.2c-0.2-0.1-0.3-0.3-0.3-0.5c0,0,0-0.1,0-0.2l-9.2-5.6
					C68.6,55.7,68.3,55.7,68.1,55.7z M79.1,61.1c-0.2,0-0.4,0-0.5,0.1c-0.1,0-0.1,0.1-0.1,0.2c0,0.1,0.1,0.1,0.1,0.2
					c0.3,0.1,0.7,0.1,1,0c0.1,0,0.1-0.1,0.1-0.2c0-0.1-0.1-0.1-0.1-0.2C79.5,61.1,79.3,61.1,79.1,61.1L79.1,61.1z M68.2,54.7
					c-0.2,0-0.4,0-0.5,0.1c-0.1,0-0.1,0.1-0.1,0.2c0,0.1,0.1,0.1,0.1,0.2c0.1,0.1,0.3,0.1,0.5,0.1c0.2,0,0.4,0,0.5-0.1
					c0.1,0,0.1-0.1,0.1-0.2c0-0.1-0.1-0.1-0.1-0.2C68.5,54.8,68.3,54.7,68.2,54.7z M78.9,76.2l1.4-0.8c0.2,0.1,0.4,0.1,0.6,0.1
					c0.2,0,0.5,0,0.7-0.2c0.2-0.1,0.3-0.3,0.3-0.5c0-0.2-0.1-0.4-0.3-0.5c-0.2-0.1-0.5-0.2-0.7-0.2c-0.2,0-0.5,0-0.7,0.2
					c-0.2,0.1-0.3,0.3-0.3,0.5c0,0.1,0,0.2,0.1,0.3l-1.1,0.6l-5.6-3.3l5.6-3.3l-3.2-1.9c0.1-0.1,0.1-0.2,0.1-0.3
					c0-0.2-0.1-0.4-0.3-0.5c-0.2-0.1-0.5-0.2-0.7-0.2c-0.2,0-0.5,0-0.7,0.2c-0.3,0.1-0.4,0.5-0.2,0.8c0.1,0.1,0.1,0.2,0.2,0.2
					c0.2,0.1,0.5,0.2,0.7,0.2c0.2,0,0.4,0,0.6-0.1l2.8,1.6l-5.6,3.4L78.9,76.2z M80.4,74.7c0.2-0.1,0.3-0.1,0.5-0.1
					c0.2,0,0.3,0,0.5,0.1c0.1,0,0.1,0.1,0.1,0.2c0,0.1-0.1,0.1-0.1,0.2c-0.2,0.1-0.3,0.1-0.5,0.1c-0.2,0-0.3,0-0.5-0.1
					c-0.1,0-0.1-0.1-0.1-0.2C80.3,74.8,80.3,74.7,80.4,74.7z M75.2,67.1c-0.3,0.1-0.7,0.1-1,0c-0.1,0-0.1-0.1-0.1-0.2
					c0-0.1,0.1-0.1,0.1-0.2c0.2-0.1,0.3-0.1,0.5-0.1c0.2,0,0.3,0,0.5,0.1c0.1,0,0.1,0.1,0.1,0.2C75.3,67,75.3,67.1,75.2,67.1z
					 M95.1,90c0.2,0,0.5,0,0.7,0.1l7.8-4.3c0-0.1-0.1-0.2-0.1-0.3c0-0.2,0.1-0.4,0.3-0.5c0.2-0.1,0.5-0.2,0.7-0.2
					c0.2,0,0.5,0,0.7,0.2c0.3,0.2,0.4,0.5,0.2,0.8c-0.1,0.1-0.1,0.2-0.2,0.2c-0.2,0.1-0.5,0.2-0.7,0.2c-0.2,0-0.5-0.1-0.7-0.2
					l-7.7,4.3c0,0.1,0.1,0.2,0.1,0.3c0,0.2-0.2,0.4-0.4,0.5c-0.2,0.1-0.5,0.2-0.7,0.2c-0.2,0-0.5,0-0.7-0.2
					c-0.2-0.1-0.3-0.3-0.3-0.5c0-0.2,0.1-0.4,0.3-0.5C94.6,90,94.9,90,95.1,90z M94.6,90.8c0.3,0.1,0.7,0.1,1,0
					c0.1,0,0.1-0.1,0.1-0.2c0-0.1-0.1-0.1-0.1-0.2c-0.2-0.1-0.3-0.1-0.5-0.1c-0.2,0-0.3,0-0.5,0.1c-0.1,0-0.1,0.1-0.1,0.2
					C94.5,90.7,94.6,90.8,94.6,90.8L94.6,90.8z M104.5,85.2c-0.2,0-0.3,0-0.5,0.1l-0.1,0.1c0,0-0.1,0.1-0.1,0.1
					c0,0.1,0.1,0.1,0.1,0.2c0.3,0.1,0.7,0.1,1,0c0.1,0,0.1-0.1,0.1-0.2c0-0.1-0.1-0.1-0.1-0.2C104.9,85.3,104.7,85.2,104.5,85.2
					L104.5,85.2z M111.8,72.4c0,0.1,0,0.1,0,0.2c0,0.2,0.1,0.4,0.3,0.5c0.4,0.2,1,0.2,1.4,0c0.3-0.1,0.4-0.5,0.2-0.8
					c-0.1-0.1-0.1-0.2-0.2-0.2c-0.2-0.1-0.5-0.2-0.7-0.2c-0.2,0-0.5,0.1-0.7,0.2l-8-4.4l5.8-3.4c0.2,0.1,0.4,0.1,0.7,0.1
					c0.2,0,0.5,0,0.7-0.2c0.3-0.1,0.4-0.5,0.2-0.8c-0.1-0.1-0.1-0.2-0.2-0.2c-0.4-0.2-1-0.2-1.4,0c-0.2,0.1-0.3,0.3-0.4,0.5
					c0,0.1,0,0.2,0.1,0.3l-6.4,3.8L111.8,72.4z M112.1,72.7l0.1-0.1l0,0c0.1-0.1,0.3-0.1,0.5-0.1c0.2,0,0.4,0,0.5,0.1
					c0.1,0,0.1,0.1,0.1,0.2c0,0.1-0.1,0.1-0.1,0.2c-0.3,0.1-0.7,0.1-1,0C112.2,72.8,112.1,72.8,112.1,72.7L112.1,72.7z M110.1,63.7
					c0.1-0.1,0.3-0.1,0.5-0.1c0.2,0,0.4,0,0.5,0.1c0.1,0,0.1,0.1,0.1,0.2c0,0.1-0.1,0.1-0.1,0.2c-0.3,0.1-0.7,0.1-1,0
					c-0.1,0-0.1-0.1-0.1-0.2C109.9,63.7,109.9,63.7,110.1,63.7L110.1,63.7z M115.9,63l-2.2-1.3l7.7-4.6c0,0,0-0.1,0-0.2
					c0-0.2,0.2-0.4,0.4-0.5c0.4-0.2,1-0.2,1.4,0c0.3,0.2,0.4,0.5,0.2,0.8c-0.1,0.1-0.1,0.2-0.2,0.2c-0.4,0.2-1,0.2-1.4,0
					c0,0-0.1,0-0.1,0l-7.1,4.3l2.2,1.2l-9,5.3l-0.2-0.3L115.9,63z M122.3,56.7c-0.2,0-0.3,0-0.5,0.1c-0.1,0-0.1,0.1-0.1,0.2
					c0,0.1,0.1,0.1,0.1,0.2c0.3,0.1,0.7,0.1,1,0c0.1,0,0.1-0.1,0.2-0.2c0-0.1-0.1-0.1-0.1-0.2C122.7,56.7,122.5,56.7,122.3,56.7
					L122.3,56.7z M84.6,69.8l-8.8-4.9l1.9-1.1l-5.3-3.3c0-0.1,0-0.1,0-0.2c0-0.2-0.1-0.4-0.3-0.5c-0.4-0.2-1-0.2-1.4,0
					c-0.3,0.1-0.4,0.5-0.2,0.8c0.1,0.1,0.1,0.2,0.2,0.2c0.4,0.2,1,0.2,1.4,0l4.8,3L75,64.8l9.4,5.2L84.6,69.8z M71.9,60.4
					c-0.2,0.1-0.3,0.1-0.5,0.1c-0.2,0-0.3,0-0.5-0.1c-0.1,0-0.1-0.1-0.1-0.2c0-0.1,0.1-0.1,0.1-0.2c0.2-0.1,0.3-0.1,0.5-0.1
					c0.2,0,0.3,0,0.5,0.1c0.1,0,0.1,0.1,0.1,0.2C72.1,60.3,72,60.4,71.9,60.4z M80.8,55.2c-0.3,0-0.6-0.1-0.8-0.2
					c-0.2-0.1-0.4-0.4-0.3-0.6c0-0.3,0.2-0.5,0.4-0.6c0.5-0.3,1.1-0.3,1.6,0c0.2,0.1,0.4,0.3,0.4,0.6c0,0.1,0,0.2-0.1,0.3l5.3,2.9
					l2.2-1.4l4.5,2.5l-7.3,4.1l11.7,6.9L98.1,70l-12.3-7.2l7.3-4.1l-3.6-2l-2.2,1.4l-5.6-3.1C81.4,55.2,81.1,55.3,80.8,55.2z
					 M80.8,54.1c-0.2,0-0.4,0-0.6,0.1c-0.1,0.1-0.2,0.2-0.2,0.3s0.1,0.2,0.2,0.3c0.4,0.2,0.8,0.2,1.2,0c0.1-0.1,0.2-0.2,0.2-0.3
					s-0.1-0.2-0.2-0.3C81.3,54.1,81.1,54.1,80.8,54.1z"/>
			</g>
			<g>
				
					<linearGradient id="SVGID_71_" gradientUnits="userSpaceOnUse" x1="154.2475" y1="853.6765" x2="90.7875" y2="912.1165" gradientTransform="matrix(1 0 0 1 0 -820)">
					<stop  offset="0" style="stop-color:#FF8789"/>
					<stop  offset="0.53" style="stop-color:#84A2FC"/>
					<stop  offset="0.72" style="stop-color:#205FE3"/>
					<stop  offset="1" style="stop-color:#000000;stop-opacity:0"/>
				</linearGradient>
				<path class="st49" d="M94.2,67.8c-6.2,3.6-6.2,9.3,0,12.8s16.1,3.6,22.2,0l10.3-6c0.5,0.3,1.1,0.5,1.7,0.5l2.4,0.1
					c2.1,0.1,3.6-1.2,2.5-2.2l-1.3-1.2c-0.3-0.3-0.6-0.5-1-0.6c2.4-3.3,1.3-7.3-3.3-10c-6.1-3.5-16.1-3.5-22.2,0L94.2,67.8z"/>
				
					<linearGradient id="SVGID_72_" gradientUnits="userSpaceOnUse" x1="125.4232" y1="910.8477" x2="102.8131" y2="880.0077" gradientTransform="matrix(1 0 0 1 0 -820)">
					<stop  offset="0" style="stop-color:#FF8789"/>
					<stop  offset="0.53" style="stop-color:#84A2FC"/>
					<stop  offset="0.72" style="stop-color:#205FE3"/>
					<stop  offset="1" style="stop-color:#030F28"/>
				</linearGradient>
				<path class="st50" d="M94.2,67.8l0.2,0.1L94.2,67.8z M116.4,80.7l0.2,0.1L116.4,80.7z M126.7,74.7l0.2-0.1l-0.2-0.1l-0.2,0.1
					L126.7,74.7z M128.4,75.2v0.1V75.2z M130.8,75.3v-0.2V75.3z M133.3,73.1l-0.2,0.1L133.3,73.1z M132,71.9l-0.2,0.1L132,71.9z
					 M131,71.4l-0.2-0.1l-0.1,0.1l0.2,0.1L131,71.4z M105.4,61.4l-0.2-0.1L105.4,61.4z M94.4,80.6c-6-3.5-6-9.2,0-12.6L94,67.7
					c-6.2,3.6-6.2,9.4,0,13L94.4,80.6z M116.3,80.6c-6,3.5-15.8,3.5-21.9,0l-0.4,0.2c6.2,3.6,16.4,3.6,22.6,0L116.3,80.6z
					 M126.6,74.6l-10.3,6l0.4,0.2l10.3-6L126.6,74.6z M128.5,75c-0.5,0-1.1-0.2-1.5-0.5l-0.4,0.2c0.6,0.4,1.2,0.6,1.9,0.6L128.5,75z
					 M130.9,75.2l-2.4-0.1l-0.1,0.3l2.4,0.2L130.9,75.2z M133.1,73.2c1,0.9-0.3,2.1-2.2,2l-0.1,0.3c2.3,0.1,3.9-1.3,2.7-2.5
					L133.1,73.2z M131.8,72l1.3,1.2l0.4-0.2l-1.3-1.2L131.8,72z M130.8,71.5c0.3,0.1,0.7,0.3,0.9,0.5l0.4-0.2
					c-0.3-0.3-0.7-0.5-1.1-0.6L130.8,71.5z M127.4,61.5c4.6,2.7,5.7,6.6,3.3,9.8l0.5,0.1c2.5-3.4,1.4-7.4-3.4-10.2L127.4,61.5z
					 M105.5,61.5c6-3.5,15.8-3.5,21.9,0l0.4-0.2c-6.2-3.6-16.4-3.6-22.6,0L105.5,61.5z M94.3,67.9l11.2-6.5l-0.4-0.2L94,67.7
					L94.3,67.9z"/>
				
					<linearGradient id="SVGID_73_" gradientUnits="userSpaceOnUse" x1="65.8842" y1="947.7082" x2="91.7742" y2="864.5482" gradientTransform="matrix(1 0 0 1 0 -820)">
					<stop  offset="0" style="stop-color:#FF8789"/>
					<stop  offset="0.53" style="stop-color:#84A2FC"/>
					<stop  offset="0.72" style="stop-color:#205FE3"/>
					<stop  offset="1" style="stop-color:#000000;stop-opacity:0"/>
				</linearGradient>
				<path class="st51" d="M75.7,59.6c8.2-4.8,21.6-4.8,29.8,0s8.2,12.5,0,17.2l-13.3,7.7c0.3,0.2,0.5,0.5,0.6,0.8l0.7,3.6
					c0.2,1.2-2.1,2-3.9,1.4l-5.6-2c-0.2-0.1-0.4-0.1-0.5-0.2c-7.6,1.7-16.6,0.8-22.7-2.7c-8.2-4.8-8.2-12.5,0-17.2L75.7,59.6z"/>
				
					<linearGradient id="SVGID_74_" gradientUnits="userSpaceOnUse" x1="95.5256" y1="920.0175" x2="76.3656" y2="877.6675" gradientTransform="matrix(1 0 0 1 0 -820)">
					<stop  offset="0" style="stop-color:#FF8789"/>
					<stop  offset="0.53" style="stop-color:#84A2FC"/>
					<stop  offset="0.72" style="stop-color:#205FE3"/>
					<stop  offset="1" style="stop-color:#030F28"/>
				</linearGradient>
				<path class="st52" d="M75.7,59.6l-0.2-0.1L75.7,59.6z M105.5,76.8l-0.2-0.1L105.5,76.8z M92.1,84.5l-0.2,0.1l-0.2-0.1l0.2-0.1
					L92.1,84.5z M92.8,85.3h-0.3H92.8z M93.4,88.9h0.3H93.4z M89.5,90.4l0.1-0.1L89.5,90.4z M83.9,88.4l0.1-0.1l0,0L83.9,88.4z
					 M83.4,88.1L83.3,88h0.2l0.1,0.1L83.4,88.1z M60.7,68.2l0.2,0.1L60.7,68.2z M105.3,59.7C97.2,55,84,55,75.8,59.7l-0.4-0.2
					c8.3-4.8,21.8-4.8,30.2,0L105.3,59.7z M105.3,76.7c8.1-4.7,8.1-12.3,0-17l0.4-0.2c8.3,4.8,8.3,12.6,0,17.4L105.3,76.7z M92,84.4
					l13.3-7.7l0.4,0.2l-13.4,7.7L92,84.4z M92.5,85.3c-0.1-0.3-0.3-0.6-0.5-0.7l0.4-0.2c0.3,0.2,0.6,0.5,0.7,0.9L92.5,85.3z
					 M93.2,89l-0.7-3.6H93l0.7,3.6H93.2z M89.7,90.3c1.6,0.6,3.7-0.2,3.5-1.3h0.5c0.2,1.3-2.3,2.2-4.2,1.6L89.7,90.3z M84,88.3
					l5.6,2l-0.3,0.2l-5.6-2L84,88.3z M83.5,88.1c0.2,0.1,0.3,0.2,0.5,0.2l-0.3,0.3c-0.2-0.1-0.4-0.2-0.6-0.3L83.5,88.1z M60.8,85.3
					c6.1,3.5,14.9,4.4,22.4,2.7l0.2,0.3c-7.7,1.8-16.8,0.8-23-2.7L60.8,85.3z M60.8,68.3c-8.1,4.7-8.1,12.3,0,17l-0.4,0.2
					c-8.3-4.8-8.3-12.6,0-17.4L60.8,68.3z M75.8,59.7l-15,8.7l-0.4-0.2l15-8.7L75.8,59.7z"/>
			</g>
		</g>
	</g>
</g>
<g id="shapeleft">
	<g id="Capa_3">
		<g class="st20">
			
				<linearGradient id="SVGID_75_" gradientUnits="userSpaceOnUse" x1="150.1575" y1="297.0625" x2="260.6375" y2="335.5425" gradientTransform="matrix(0.87 0.5 0 1 -125 -294.69)">
				<stop  offset="0" style="stop-color:#FF8789"/>
				<stop  offset="0.53" style="stop-color:#84A2FC"/>
				<stop  offset="0.72" style="stop-color:#205FE3"/>
				<stop  offset="1" style="stop-color:#030F28"/>
			</linearGradient>
			<path class="st53" d="M36.3,87.4l52.1,30.1c1.5,1,2.4,2.6,2.5,4.4v54.9c0,1.6-1.1,2.3-2.5,1.5l-52.1-30.1c-1.5-1-2.4-2.6-2.5-4.4
				V88.8C33.8,87.2,34.9,86.6,36.3,87.4z"/>
			
				<linearGradient id="SVGID_76_" gradientUnits="userSpaceOnUse" x1="256.1339" y1="336.7296" x2="146.0039" y2="290.9196" gradientTransform="matrix(0.87 0.5 0 1 -125 -294.69)">
				<stop  offset="0" style="stop-color:#FF8789"/>
				<stop  offset="0.53" style="stop-color:#84A2FC"/>
				<stop  offset="0.72" style="stop-color:#205FE3"/>
				<stop  offset="1" style="stop-color:#030F28"/>
			</linearGradient>
			<path class="st54" d="M36.3,87.4l52.1,30.1c1.5,1,2.4,2.6,2.5,4.4v54.9c0,1.6-1.1,2.3-2.5,1.5l-52.1-30.1c-1.5-1-2.4-2.6-2.5-4.4
				V88.8C33.8,87.2,34.9,86.6,36.3,87.4z"/>
		</g>
	</g>
</g>
<g id="shaperight">
	<g id="Capa_2">
		<g class="st20">
			
				<linearGradient id="SVGID_77_" gradientUnits="userSpaceOnUse" x1="-2148.4006" y1="1445.6283" x2="-2037.9106" y2="1484.1083" gradientTransform="matrix(-0.87 0.5 0 1 -1683.34 -294.33)">
				<stop  offset="0" style="stop-color:#FF8789"/>
				<stop  offset="0.53" style="stop-color:#84A2FC"/>
				<stop  offset="0.72" style="stop-color:#205FE3"/>
				<stop  offset="1" style="stop-color:#030F28"/>
			</linearGradient>
			<path class="st55" d="M154.7,87.4l-52.1,30.1c-1.5,1-2.4,2.6-2.5,4.4v54.9c0,1.6,1.1,2.3,2.5,1.5l52.1-30.1
				c1.5-1,2.4-2.6,2.5-4.4V88.8C157.2,87.2,156.1,86.6,154.7,87.4z"/>
			
				<linearGradient id="SVGID_78_" gradientUnits="userSpaceOnUse" x1="-2042.3571" y1="1485.2931" x2="-2152.4871" y2="1439.4832" gradientTransform="matrix(-0.87 0.5 0 1 -1683.34 -294.33)">
				<stop  offset="0" style="stop-color:#FF8789"/>
				<stop  offset="0.53" style="stop-color:#84A2FC"/>
				<stop  offset="0.72" style="stop-color:#205FE3"/>
				<stop  offset="1" style="stop-color:#030F28"/>
			</linearGradient>
			<path class="st56" d="M154.7,87.4l-52.1,30.1c-1.5,1-2.4,2.6-2.5,4.4v54.9c0,1.6,1.1,2.3,2.5,1.5l52.1-30.1
				c1.5-1,2.4-2.6,2.5-4.4V88.8C157.2,87.2,156.1,86.6,154.7,87.4z"/>
		</g>
	</g>
</g>
</svg>
