<svg id="Layer_1" data-name="Layer 1" xmlns="http://www.w3.org/2000/svg" xmlns:xlink="http://www.w3.org/1999/xlink" viewBox="0 0 212 258">
  <defs>
    <style>
      .cls-1 {
        fill: #326be8;
      }

      .cls-2 {
        fill: #091e4c;
      }

      .cls-3 {
        fill: #00c5c5;
      }

      .cls-4 {
        fill: #a99ada;
      }

      .cls-5 {
        fill: url(#linear-gradient);
      }

      .cls-6 {
        fill: #86a2fb;
      }

      .cls-7 {
        fill: url(#linear-gradient-2);
      }

      .cls-8 {
        fill: #8da0f4;
      }

      .cls-9 {
        fill: url(#linear-gradient-3);
      }

      .cls-10, .cls-28, .cls-35 {
        fill-opacity: 0.8;
      }

      .cls-10 {
        fill: url(#linear-gradient-4);
      }

      .cls-11, .cls-15, .cls-19, .cls-20, .cls-21, .cls-22, .cls-23, .cls-24, .cls-25, .cls-26, .cls-27, .cls-31, .cls-32, .cls-33, .cls-34 {
        fill: none;
      }

      .cls-11, .cls-13, .cls-15, .cls-31, .cls-32, .cls-33, .cls-34 {
        stroke-miterlimit: 10;
      }

      .cls-11, .cls-19, .cls-20, .cls-21, .cls-22, .cls-23, .cls-24, .cls-25, .cls-26, .cls-27, .cls-28, .cls-35 {
        stroke-width: 0.4px;
      }

      .cls-11 {
        stroke: url(#linear-gradient-5);
      }

      .cls-12 {
        fill: url(#linear-gradient-6);
      }

      .cls-13 {
        stroke-width: 0.89px;
        fill: url(#linear-gradient-7);
        stroke: url(#linear-gradient-8);
      }

      .cls-14 {
        fill: url(#linear-gradient-9);
      }

      .cls-15 {
        stroke-width: 0.75px;
        stroke: url(#linear-gradient-10);
      }

      .cls-16 {
        fill-opacity: 0.3;
        fill: url(#linear-gradient-11);
      }

      .cls-17, .cls-21, .cls-22 {
        opacity: 0.6;
      }

      .cls-18 {
        fill: url(#linear-gradient-12);
      }

      .cls-19, .cls-20, .cls-21, .cls-22, .cls-23, .cls-24, .cls-25, .cls-26, .cls-27 {
        stroke-linecap: round;
        stroke-linejoin: round;
      }

      .cls-19 {
        stroke: url(#linear-gradient-13);
      }

      .cls-20 {
        stroke: url(#linear-gradient-14);
      }

      .cls-21, .cls-22, .cls-28, .cls-35 {
        isolation: isolate;
      }

      .cls-21 {
        stroke: url(#linear-gradient-15);
      }

      .cls-22 {
        stroke: url(#linear-gradient-16);
      }

      .cls-23 {
        stroke: url(#linear-gradient-17);
      }

      .cls-24 {
        stroke: url(#linear-gradient-18);
      }

      .cls-25 {
        stroke: url(#linear-gradient-19);
      }

      .cls-26 {
        stroke: url(#linear-gradient-20);
      }

      .cls-27 {
        stroke: url(#linear-gradient-21);
      }

      .cls-28, .cls-35 {
        opacity: 0.8;
      }

      .cls-28 {
        fill: url(#linear-gradient-22);
        stroke: url(#linear-gradient-23);
      }

      .cls-29 {
        fill: url(#linear-gradient-24);
      }

      .cls-30 {
        fill: url(#linear-gradient-25);
      }

      .cls-31, .cls-32, .cls-33, .cls-34 {
        stroke-width: 0.2px;
      }

      .cls-31 {
        stroke: url(#linear-gradient-26);
      }

      .cls-32 {
        stroke: url(#linear-gradient-27);
      }

      .cls-33 {
        stroke: url(#linear-gradient-28);
      }

      .cls-34 {
        stroke: url(#linear-gradient-29);
      }

      .cls-35 {
        fill: url(#linear-gradient-30);
        stroke: url(#linear-gradient-31);
      }

      .cls-36 {
        fill: url(#linear-gradient-32);
      }

      .cls-37 {
        fill: url(#linear-gradient-33);
      }

      .cls-38 {
        fill: url(#linear-gradient-34);
      }
    </style>
    <linearGradient id="linear-gradient" x1="74.74" y1="854.28" x2="139.3" y2="854.28" gradientTransform="translate(0 -762)" gradientUnits="userSpaceOnUse">
      <stop offset="0" stop-color="#0071bc"/>
      <stop offset="1" stop-color="#1b1464"/>
    </linearGradient>
    <linearGradient id="linear-gradient-2" x1="122.28" y1="882.17" x2="112.43" y2="858" gradientTransform="translate(0 -762)" gradientUnits="userSpaceOnUse">
      <stop offset="0" stop-color="#ef8dff"/>
      <stop offset="1" stop-color="#ff8789"/>
    </linearGradient>
    <linearGradient id="linear-gradient-3" x1="86.5" y1="866.9" x2="121.2" y2="890.06" gradientTransform="translate(0 -762)" gradientUnits="userSpaceOnUse">
      <stop offset="0" stop-color="#ff8789"/>
      <stop offset="0.53" stop-color="#84a2fc"/>
      <stop offset="0.72" stop-color="#205fe3"/>
      <stop offset="1" stop-color="#030f28"/>
    </linearGradient>
    <linearGradient id="linear-gradient-4" x1="76.08" y1="821.38" x2="124.64" y2="877.28" gradientTransform="translate(0 -762)" gradientUnits="userSpaceOnUse">
      <stop offset="0" stop-color="#ff8789"/>
      <stop offset="0.57" stop-color="#84a2fc"/>
      <stop offset="0.8" stop-color="#205fe3"/>
      <stop offset="1" stop-color="#030f28"/>
    </linearGradient>
    <linearGradient id="linear-gradient-5" x1="112.78" y1="880.23" x2="99.92" y2="828.39" xlink:href="#linear-gradient-2"/>
    <linearGradient id="linear-gradient-6" x1="79.38" y1="900.16" x2="128.31" y2="1003.13" xlink:href="#linear-gradient-3"/>
    <linearGradient id="linear-gradient-7" x1="125.46" y1="1055.06" x2="99.35" y2="912.75" xlink:href="#linear-gradient-3"/>
    <linearGradient id="linear-gradient-8" x1="102.17" y1="1048.89" x2="108.88" y2="912.99" xlink:href="#linear-gradient-3"/>
    <linearGradient id="linear-gradient-9" x1="19.2" y1="932.55" x2="157.95" y2="960.69" gradientTransform="translate(0 -762)" gradientUnits="userSpaceOnUse">
      <stop offset="0" stop-color="#ff8789"/>
      <stop offset="0.44" stop-color="#84a2fc"/>
      <stop offset="0.72" stop-color="#205fe3"/>
      <stop offset="1" stop-color="#030f28"/>
    </linearGradient>
    <linearGradient id="linear-gradient-10" x1="107.17" y1="1007.4" x2="107.08" y2="940.07" xlink:href="#linear-gradient-3"/>
    <linearGradient id="linear-gradient-11" x1="94.13" y1="1078.99" x2="108.31" y2="900.37" gradientTransform="translate(0 -762)" gradientUnits="userSpaceOnUse">
      <stop offset="0" stop-color="#ff8789"/>
      <stop offset="0.53" stop-color="#84a2fc"/>
      <stop offset="0.72" stop-color="#205fe3"/>
      <stop offset="1" stop-color="#030f28" stop-opacity="0"/>
    </linearGradient>
    <linearGradient id="linear-gradient-12" x1="118.78" y1="979.71" x2="101.2" y2="857.63" xlink:href="#linear-gradient-11"/>
    <linearGradient id="linear-gradient-13" x1="70.91" y1="877.7" x2="67.5" y2="877.37" gradientTransform="translate(0 -762)" gradientUnits="userSpaceOnUse">
      <stop offset="0" stop-color="#ef8dff"/>
      <stop offset="1" stop-color="#ff8789" stop-opacity="0"/>
    </linearGradient>
    <linearGradient id="linear-gradient-14" x1="142.79" y1="866.45" x2="139.44" y2="865.91" xlink:href="#linear-gradient-13"/>
    <linearGradient id="linear-gradient-15" x1="121.65" y1="890.49" x2="123.78" y2="877.43" gradientTransform="translate(0 -762)" gradientUnits="userSpaceOnUse">
      <stop offset="0" stop-color="aqua" stop-opacity="0.47"/>
      <stop offset="1" stop-color="aqua" stop-opacity="0"/>
    </linearGradient>
    <linearGradient id="linear-gradient-16" x1="77.3" y1="880.1" x2="79.43" y2="867.05" xlink:href="#linear-gradient-15"/>
    <linearGradient id="linear-gradient-17" x1="103.32" y1="897.42" x2="104.49" y2="887.64" xlink:href="#linear-gradient-15"/>
    <linearGradient id="linear-gradient-18" x1="146.42" y1="881.29" x2="143.01" y2="880.96" xlink:href="#linear-gradient-13"/>
    <linearGradient id="linear-gradient-19" x1="101.88" y1="902.26" x2="99.16" y2="901.81" xlink:href="#linear-gradient-13"/>
    <linearGradient id="linear-gradient-20" x1="69.9" y1="894.88" x2="70.77" y2="886.46" xlink:href="#linear-gradient-15"/>
    <linearGradient id="linear-gradient-21" x1="111.27" y1="909.6" x2="107.85" y2="909.35" xlink:href="#linear-gradient-13"/>
    <linearGradient id="linear-gradient-22" x1="-2097.6" y1="247.08" x2="-2004.67" y2="322.59" gradientTransform="matrix(-0.87, -0.5, 0, 1, -1694.32, -1151.48)" gradientUnits="userSpaceOnUse">
      <stop offset="0" stop-color="#ff8789"/>
      <stop offset="0.52" stop-color="#84a2fc"/>
      <stop offset="0.72" stop-color="#205fe3"/>
      <stop offset="1" stop-color="#030f28"/>
    </linearGradient>
    <linearGradient id="linear-gradient-23" x1="-2020.21" y1="338.25" x2="-2048.84" y2="257.44" gradientTransform="matrix(-0.87, -0.5, 0, 1, -1694.32, -1151.48)" xlink:href="#linear-gradient-2"/>
    <linearGradient id="linear-gradient-24" x1="80.82" y1="897.61" x2="54.47" y2="911.47" xlink:href="#linear-gradient-3"/>
    <linearGradient id="linear-gradient-25" x1="88.98" y1="920.91" x2="52.09" y2="930.56" xlink:href="#linear-gradient-3"/>
    <linearGradient id="linear-gradient-26" x1="68.93" y1="927.03" x2="60.1" y2="923.28" xlink:href="#linear-gradient-2"/>
    <linearGradient id="linear-gradient-27" x1="72.09" y1="932.62" x2="65.2" y2="927.68" xlink:href="#linear-gradient-2"/>
    <linearGradient id="linear-gradient-28" x1="63.37" y1="927.93" x2="56.52" y2="923.09" xlink:href="#linear-gradient-2"/>
    <linearGradient id="linear-gradient-29" x1="75.86" y1="936.17" x2="70.3" y2="930.97" xlink:href="#linear-gradient-2"/>
    <linearGradient id="linear-gradient-30" x1="156.56" y1="1374.26" x2="249.5" y2="1449.77" gradientTransform="matrix(0.87, -0.5, 0, 1, -47.32, -1151.3)" xlink:href="#linear-gradient-22"/>
    <linearGradient id="linear-gradient-31" x1="233.39" y1="1465.58" x2="204.75" y2="1384.77" gradientTransform="matrix(0.87, -0.5, 0, 1, -47.32, -1151.3)" xlink:href="#linear-gradient-2"/>
    <linearGradient id="linear-gradient-32" x1="130.33" y1="901.65" x2="156.67" y2="915.51" xlink:href="#linear-gradient-3"/>
    <linearGradient id="linear-gradient-33" x1="123.68" y1="924.28" x2="160.56" y2="933.93" xlink:href="#linear-gradient-3"/>
    <linearGradient id="linear-gradient-34" x1="157.48" y1="950.32" x2="133.42" y2="907.13" xlink:href="#linear-gradient-2"/>
  </defs>
  <g id="chart">
    <path class="cls-1" d="M130,108.3v6.75l-23-13.23V95Z"/>
    <path class="cls-2" d="M139.3,95.69a1.17,1.17,0,0,1-.07.49.83.83,0,0,1-.07.41c0,.14-.07.34-.07.48s-.07.28-.07.41a1.35,1.35,0,0,1-.14.49c-.07.14-.07.27-.13.41s-.07.34-.14.48-.07.28-.14.42-.14.34-.2.48l-.21.41a1.78,1.78,0,0,1-.28.48c-.06.14-.13.28-.2.42a6.31,6.31,0,0,1-.35.62,2,2,0,0,0-.2.34l-.48.69c-.07.07-.07.14-.14.21-.27.34-.55.68-.82,1-.07.07-.14.21-.28.27a5.54,5.54,0,0,1-.68.69l-.35.35a3.15,3.15,0,0,1-.48.41,1.3,1.3,0,0,1-.48.35c-.14.13-.34.27-.48.41a1.82,1.82,0,0,1-.48.34,2.44,2.44,0,0,1-.55.35,3.87,3.87,0,0,1-.55.34c-.21.14-.41.28-.55.35a3.75,3.75,0,0,0-.76.48V115l.42-.21c.13-.07.2-.14.34-.21a3.14,3.14,0,0,0,.55-.34c.21-.14.34-.21.55-.34a2.44,2.44,0,0,1,.55-.35,1.82,1.82,0,0,1,.48-.34c.14-.14.34-.28.48-.42a1.36,1.36,0,0,1,.48-.34,3.15,3.15,0,0,1,.48-.41c.07-.07.14-.07.21-.14l.14-.14a6.34,6.34,0,0,0,.68-.69l.28-.27c.27-.35.55-.62.82-1,.07-.07.07-.14.14-.2a5.33,5.33,0,0,0,.48-.69c.07-.14.14-.21.2-.35a2.91,2.91,0,0,0,.35-.62c0-.07.07-.07.07-.13s.07-.14.13-.28.21-.34.28-.48l.21-.42c.06-.13.13-.34.2-.48s.07-.14.07-.2.07-.14.07-.21a1.33,1.33,0,0,0,.14-.48c.06-.14.06-.28.13-.42s.07-.34.14-.48a.41.41,0,0,0,.07-.27v-.21c0-.14.07-.34.07-.48s.07-.28.07-.42a1.12,1.12,0,0,1,.07-.48V95.69Z"/>
    <path class="cls-3" d="M74.79,94.94v6.75c0,4.82,3.16,9.71,9.48,13.36V108.3C77.89,104.65,74.73,99.76,74.79,94.94Z"/>
    <path class="cls-4" d="M84.27,108.3v6.75c-6.32-3.65-9.48-8.54-9.48-13.36V94.94C74.73,99.76,77.89,104.65,84.27,108.3Z"/>
    <path class="cls-5" d="M129.82,81.71C142.39,89,142.46,101,130,108.3L107,95,84.27,108.3c-12.64-7.3-12.7-19.3-.2-26.59S117.25,74.48,129.82,81.71Z"/>
    <path class="cls-6" d="M107,95v6.81L84.2,115.05l.07-6.75Z"/>
    <path class="cls-7" d="M128.4,111.21A38.32,38.32,0,0,1,110.81,116l-2.54-16.39Z"/>
    <path class="cls-2" d="M124.21,120a2.67,2.67,0,0,0,.62-.28c.41-.21.89-.34,1.3-.55a1.91,1.91,0,0,0,.55-.28c.62-.27,1.17-.62,1.72-.89v-6.75c-.55.34-1.17.62-1.72.9-.21.06-.34.2-.55.27a9.93,9.93,0,0,1-1.3.55c-.21.07-.42.21-.62.28-.48.2-1,.34-1.44.55-.14.07-.35.14-.49.2l-.75.21c-.55.14-1.1.35-1.72.48l-.89.21c-.55.14-1,.21-1.58.34l-1.31.21c-.2,0-.41.07-.61.07-.69.14-1.45.21-2.13.28l-2.41.2v6.75c.83-.07,1.58-.07,2.41-.21a19.07,19.07,0,0,0,2.13-.27c.2,0,.41-.07.61-.07a4.22,4.22,0,0,0,.83-.14,1.32,1.32,0,0,1,.48-.07,12.36,12.36,0,0,0,1.58-.34l1-.21c.55-.14,1.17-.34,1.72-.48a1.92,1.92,0,0,1,.62-.14.21.21,0,0,0,.13-.07c.14-.07.35-.13.48-.2A12.37,12.37,0,0,1,124.21,120Z"/>
    <path class="cls-8" d="M110.81,116v6.75l-2.54-16.39V99.5Z"/>
    <path class="cls-9" d="M106.05,105.54l2.54,16.32c-8,.35-16.21-1.24-22.39-4.75Z"/>
    <path class="cls-2" d="M107.7,121.93h-2.89c-.82,0-1.65-.07-2.47-.13h-.28c-.82-.07-1.71-.14-2.54-.28h-.13c-.9-.14-1.79-.28-2.68-.48a10.55,10.55,0,0,1-1.45-.35,2.85,2.85,0,0,0-.48-.13,3.92,3.92,0,0,1-1-.28c-.14,0-.2-.07-.34-.07l-1.24-.41a4.1,4.1,0,0,1-.48-.21c-.34-.14-.69-.27-1.1-.41a3.48,3.48,0,0,0-.48-.21l-1.85-.82c-.14-.07-.21-.14-.35-.14a14.76,14.76,0,0,1-1.78-1v6.75c.55.35,1.16.62,1.78,1a.71.71,0,0,0,.35.13l1.85.83c.07,0,.07.07.14.07a1.15,1.15,0,0,1,.34.14c.35.14.69.27,1.1.41l.48.21,1.24.41c.07,0,.2.07.27.07h.07c.35.07.69.21,1,.28a2.8,2.8,0,0,1,.48.13c.49.14,1,.21,1.45.35.89.2,1.78.34,2.68.48h.06c.84.13,1.7.22,2.55.27h.27c.83.07,1.65.14,2.47.14h3.71v-6.75Z"/>
    <path class="cls-10" d="M129.82,81.71C142.39,89,142.46,101,130,108.3L107,95,84.27,108.3c-12.64-7.3-12.7-19.3-.2-26.59S117.25,74.48,129.82,81.71Z"/>
    <path class="cls-11" d="M129.82,81.71C142.39,89,142.46,101,130,108.3L107,95,84.27,108.3c-12.64-7.3-12.7-19.3-.2-26.59S117.25,74.48,129.82,81.71Z"/>
  </g>
  <g id="platform">
    <g id="Capa_5" data-name="Capa 5">
      <g>
        <path class="cls-12" d="M176.9,191.78v.28a.61.61,0,0,1-.07.35c0,.07-.07.21-.07.28s-.07.2-.07.27-.07.14-.14.28-.07.21-.13.35a.45.45,0,0,1-.14.21,1.3,1.3,0,0,1-.28.34,1.35,1.35,0,0,1-.28.35l-.07.07-.41.42a2.33,2.33,0,0,1-.35.27c-.07.07-.21.14-.28.21a.67.67,0,0,0-.34.28,1.34,1.34,0,0,0-.42.28l-59.71,34.7a4.18,4.18,0,0,1-1,.48c-.07.07-.21.07-.28.14a3.38,3.38,0,0,1-.83.28c-.07,0-.21.07-.28.07a3.1,3.1,0,0,0-.55.14,2.92,2.92,0,0,0-.42.14c-.14.07-.34.07-.55.14a1,1,0,0,1-.42.06,6.67,6.67,0,0,1-1.18.14h-.34c-.21,0-.49.07-.7.07h-2a1.12,1.12,0,0,1-.48-.07c-.14,0-.35-.07-.49-.07s-.28-.07-.48-.07-.35-.06-.56-.06-.28-.07-.42-.07a2.53,2.53,0,0,1-.62-.14.76.76,0,0,0-.35-.07c-.34-.14-.76-.21-1.11-.35-.2-.07-.34-.14-.55-.21s-.21-.07-.28-.14c-.28-.14-.48-.27-.76-.41L39.38,196c-2-1.18-3.05-2.71-3.05-4.31l.07,6.8c0,1.53,1,3.13,3.05,4.31l60.13,34.7c.28.14.48.28.76.42.07.06.21.06.28.13a4.1,4.1,0,0,0,.48.21h.07a7.15,7.15,0,0,0,1.11.35h.07c.07,0,.21.07.28.07a1.92,1.92,0,0,0,.62.14c.07,0,.14,0,.14.07a.55.55,0,0,1,.28.07c.21,0,.35.07.55.07a.26.26,0,0,1,.21.06h.28c.14,0,.35.07.49.07h2.49a2.35,2.35,0,0,0,.7-.07h.34c.42-.06.77-.06,1.18-.13H110c.14,0,.21-.07.35-.07a1.59,1.59,0,0,0,.55-.14.91.91,0,0,0,.42-.14c.21-.07.34-.07.55-.14H112c.07,0,.14-.07.21-.07.28-.07.55-.21.83-.28.07-.07.21-.07.28-.14a9.18,9.18,0,0,0,1-.48L174,202.82c.07,0,.07-.07.14-.07s.21-.14.27-.21a.69.69,0,0,0,.35-.28c.07-.07.21-.14.28-.21a1,1,0,0,0,.35-.27.06.06,0,0,0,.06-.06h0l.35-.35.07-.07.21-.21a.27.27,0,0,0,.07-.14,1.3,1.3,0,0,1,.28-.34c0-.07.06-.07.06-.14a.07.07,0,0,1,.07-.07h0c.07-.14.14-.21.14-.35s.07-.14.07-.21v-.07a.37.37,0,0,0,.07-.27c0-.07.07-.14.07-.21v-.07a.61.61,0,0,1,.07-.35v-.28Z"/>
        <path class="cls-13" d="M173.94,187.46c4,2.37,4,6.14.07,8.51l-59.63,34.78a15.82,15.82,0,0,1-14.57,0L39.83,196c-4-2.37-4.09-6.14-.07-8.51l59.63-34.78a15.84,15.84,0,0,1,14.58,0Z"/>
        <g>
          <path class="cls-14" d="M174.38,184.11c4,2.38,4,6.17.07,8.55l-59.82,35a15.86,15.86,0,0,1-14.62,0l-60.17-35c-4-2.38-4.11-6.17-.07-8.55l59.82-35a15.8,15.8,0,0,1,14.62,0Z"/>
          <path class="cls-15" d="M174.38,184.11c4,2.38,4,6.17.07,8.55l-59.82,35a15.86,15.86,0,0,1-14.62,0l-60.17-35c-4-2.38-4.11-6.17-.07-8.55l59.82-35a15.8,15.8,0,0,1,14.62,0Z"/>
        </g>
        <path class="cls-16" d="M177.2,118.14c-27.07-.07-90.95-.07-140.13-.07L37,187.8c0,1.49,1,3.06,3,4.21l60,34c.28.13.48.27.76.41.07.06.21.06.28.13a3.48,3.48,0,0,0,.48.21h.07a8.38,8.38,0,0,0,1.11.34h.07c.07,0,.2.06.27.06a1.92,1.92,0,0,0,.63.14c.06,0,.13,0,.13.07a.55.55,0,0,1,.28.07c.21,0,.35.06.55.06a.27.27,0,0,1,.21.07h.28c.14,0,.34.07.48.07h2.49a2.32,2.32,0,0,0,.69-.07h.35c.41-.07.76-.07,1.17-.13h.07c.14,0,.21-.07.35-.07a1.59,1.59,0,0,0,.55-.14,1.21,1.21,0,0,0,.42-.13c.21-.07.34-.07.55-.14h.14c.07,0,.14-.07.21-.07.27-.07.55-.2.83-.27.07-.07.2-.07.27-.14.35-.13.7-.34,1-.47l59.55-34c.07,0,.07-.07.14-.07s.21-.13.28-.2a.76.76,0,0,0,.34-.27c.07-.07.21-.14.28-.21a.89.89,0,0,0,.34-.27.07.07,0,0,0,.07-.07h0l.35-.34.07-.06.21-.21a.21.21,0,0,0,.07-.13.89.89,0,0,1,.27-.34c0-.07.07-.07.07-.14a.07.07,0,0,1,.07-.07h0c.07-.13.14-.2.14-.34s.07-.13.07-.2V189a.37.37,0,0,0,.07-.27c0-.07.07-.14.07-.21v-.06a.57.57,0,0,1,.07-.34v-70Z"/>
        <g class="cls-17">
          <path class="cls-18" d="M144.23,89.45c-11.63,0-75.48.81-75.48,0v85.86a2.83,2.83,0,0,0,1.63,2.29L102.65,196c.15.07.27.15.41.22s.12,0,.15.08l.26.11h0l.6.18h.14a1.28,1.28,0,0,0,.34.07h.52a.11.11,0,0,1,.11,0H107a1.21,1.21,0,0,0,.38,0h.18a2,2,0,0,0,.64-.07h.19a.43.43,0,0,0,.3-.08.44.44,0,0,0,.22-.07.48.48,0,0,0,.3-.07h.19s.29-.11.44-.15.11,0,.15-.07a2.26,2.26,0,0,1,.52-.26l32.08-18.43h.07c.07,0,.12-.07.15-.11a.36.36,0,0,0,.19-.15,1.27,1.27,0,0,0,.15-.11.65.65,0,0,0,.18-.15h0l.19-.19h0l.12-.12a.09.09,0,0,0,0-.07.65.65,0,0,1,.15-.18v-.08h0a.46.46,0,0,0,.07-.19V176h0v-.25h0a.28.28,0,0,1,0-.18v-86Z"/>
        </g>
      </g>
    </g>
  </g>
  <g id="lights">
    <g id="Capa_3" data-name="Capa 3">
      <g>
        <path class="cls-19" d="M68.72,105.1v20.77"/>
        <g>
          <path class="cls-20" d="M140.63,97.91v12.38"/>
          <path class="cls-21" d="M122.66,111.89v20.78"/>
          <path class="cls-22" d="M78.31,101.5v20.78"/>
          <path class="cls-23" d="M103.88,123.08v15.38"/>
          <path class="cls-24" d="M144.23,108.69v20.78"/>
        </g>
        <path class="cls-25" d="M100.68,133.47v13.18"/>
        <path class="cls-26" d="M70.31,122.28v13.18"/>
        <path class="cls-27" d="M109.07,133.87V161"/>
      </g>
    </g>
  </g>
  <g id="screens">
    <g>
      <path class="cls-28" d="M102.94,153.8,48,122.07c-2.58-1.49-4.67-.28-4.67,2.7v41.72A10.32,10.32,0,0,0,48,174.58l55,31.73c2.58,1.49,4.68.29,4.68-2.69V161.89A10.36,10.36,0,0,0,102.94,153.8Z"/>
      <path class="cls-29" d="M79.77,152.69a.81.81,0,0,0,.37-.12.9.9,0,0,0,.42-.85v-.61a2.57,2.57,0,0,0-1.21-2.06l-26-15a1,1,0,0,0-1-.06.91.91,0,0,0-.43.85v.6a2.56,2.56,0,0,0,1.22,2.06l26,15A1.19,1.19,0,0,0,79.77,152.69Zm-.6-3.33a2.35,2.35,0,0,1,1,1.81v.61a.63.63,0,0,1-.25.61.65.65,0,0,1-.66-.06l-26-15a2.19,2.19,0,0,1-1-1.81v-.61a.68.68,0,0,1,.24-.61c.18-.12.36-.06.67.06Z"/>
      <path class="cls-30" d="M84,186.43a1.58,1.58,0,0,0,.61-.12,1.5,1.5,0,0,0,.67-1.39l.06-22.17a4.6,4.6,0,0,0-2-3.51L54,142.33a1.35,1.35,0,0,0-2.18,1.28l-.06,22.17a4.6,4.6,0,0,0,2,3.51l29.29,16.9A2.36,2.36,0,0,0,84,186.43Zm-.91-27A4.19,4.19,0,0,1,85,162.75l-.06,22.17a1,1,0,0,1-1.7,1L54,169a4.17,4.17,0,0,1-1.88-3.27l.06-22.17a1.28,1.28,0,0,1,.49-1.15,1.22,1.22,0,0,1,1.21.12Z"/>
      <path class="cls-31" d="M66.05,157.76V170.3l-3-1.73V156Z"/>
      <path class="cls-32" d="M70.16,165.64v6.78l-3-1.73V164Z"/>
      <path class="cls-33" d="M61.46,161v6.73l-3-1.69V159.3Z"/>
      <path class="cls-34" d="M74.61,170.06v4.76l-3-1.68v-4.81Z"/>
    </g>
    <g>
      <path class="cls-35" d="M115.72,153.8l55-31.73c2.58-1.49,4.67-.28,4.67,2.7v41.72a10.32,10.32,0,0,1-4.67,8.09l-55,31.73c-2.58,1.49-4.67.29-4.67-2.69V161.89A10.32,10.32,0,0,1,115.72,153.8Z"/>
      <path class="cls-36" d="M131.37,156.72a.81.81,0,0,1-.37-.12.9.9,0,0,1-.42-.85v-.6a2.57,2.57,0,0,1,1.21-2.06l26-15a1,1,0,0,1,1-.06.91.91,0,0,1,.43.85v.61a2.56,2.56,0,0,1-1.22,2.06l-26,15A1.17,1.17,0,0,1,131.37,156.72Zm.6-3.33a2.34,2.34,0,0,0-1,1.82v.6c0,.31.06.49.25.61a.65.65,0,0,0,.66-.06l26-15a2.19,2.19,0,0,0,1-1.81v-.61a.63.63,0,0,0-.24-.6c-.18-.13-.36-.06-.67.06Z"/>
      <path class="cls-37" d="M128.64,189.8a1.59,1.59,0,0,1-.61-.13,1.51,1.51,0,0,1-.66-1.39l-.06-22.17a4.53,4.53,0,0,1,2-3.51l29.29-16.9a1.35,1.35,0,0,1,2.18,1.27l.06,22.17a4.6,4.6,0,0,1-2,3.51l-29.29,16.9A2.21,2.21,0,0,1,128.64,189.8Zm.91-27a4.17,4.17,0,0,0-1.88,3.27l.06,22.17a1,1,0,0,0,1.7,1l29.29-16.9a4.17,4.17,0,0,0,1.88-3.27L160.54,147a1,1,0,0,0-1.7-1Z"/>
      <path class="cls-38" d="M158.3,151.21c.36-.18.66-.06.66.36a1.4,1.4,0,0,1-.6,1.09.2.2,0,0,1-.18.06l-5.71,14.72-2.6-3.81-4.07,9.45-5.15-8.24L134,184l-3.7-6.36c-.06.06-.12.12-.19.12-.36.18-.66.06-.66-.36a1.4,1.4,0,0,1,.6-1.09c.37-.18.67-.06.67.36a1.7,1.7,0,0,1-.24.73l3.46,5.93,6.61-19.14,5.15,8.24,4.07-9.45,2.54,3.82,5.46-14.12a.43.43,0,0,1-.24-.42A3.48,3.48,0,0,1,158.3,151.21Zm0,1.21a.94.94,0,0,0,.36-.67c0-.24-.18-.36-.36-.24a.77.77,0,0,0-.37.67c0,.24.18.36.37.24Zm-28.21,25.14a.75.75,0,0,0,.37-.67c0-.24-.18-.36-.37-.24a.94.94,0,0,0-.36.67c0,.24.12.36.36.24Z"/>
    </g>
  </g>
</svg>
