<svg id="Layer_1" data-name="Layer 1" xmlns="http://www.w3.org/2000/svg" xmlns:xlink="http://www.w3.org/1999/xlink" viewBox="0 0 146.25 198.29">
  <defs>
    <style>
      .cls-1, .cls-10, .cls-11, .cls-12, .cls-13, .cls-14, .cls-17, .cls-18, .cls-19, .cls-20, .cls-21, .cls-22, .cls-23, .cls-24, .cls-25, .cls-26, .cls-27, .cls-28, .cls-29, .cls-3, .cls-30, .cls-31, .cls-32, .cls-33, .cls-34, .cls-36, .cls-37, .cls-38, .cls-39, .cls-40, .cls-41, .cls-42, .cls-43, .cls-44, .cls-45, .cls-46, .cls-47, .cls-48, .cls-49, .cls-5, .cls-50, .cls-51, .cls-52, .cls-53, .cls-6 {
        fill: none;
      }

      .cls-2 {
        fill: url(#linear-gradient);
      }

      .cls-13, .cls-14, .cls-17, .cls-18, .cls-19, .cls-20, .cls-21, .cls-22, .cls-23, .cls-24, .cls-25, .cls-26, .cls-27, .cls-28, .cls-29, .cls-3, .cls-30, .cls-31, .cls-32, .cls-33, .cls-34, .cls-36, .cls-37, .cls-38, .cls-39, .cls-40, .cls-41, .cls-42, .cls-43, .cls-44, .cls-45, .cls-46, .cls-47, .cls-48, .cls-49, .cls-5, .cls-50, .cls-51, .cls-52, .cls-53, .cls-6 {
        stroke-miterlimit: 10;
      }

      .cls-3, .cls-5 {
        stroke-width: 0.73px;
      }

      .cls-3 {
        stroke: url(#linear-gradient-2);
      }

      .cls-4 {
        fill: url(#linear-gradient-3);
      }

      .cls-5 {
        stroke: url(#linear-gradient-4);
      }

      .cls-10, .cls-11, .cls-12, .cls-13, .cls-14, .cls-6 {
        stroke-width: 0.43px;
      }

      .cls-6 {
        stroke: url(#linear-gradient-5);
      }

      .cls-7 {
        opacity: 0.6;
      }

      .cls-8 {
        fill: url(#linear-gradient-6);
      }

      .cls-9 {
        fill: url(#linear-gradient-7);
      }

      .cls-10, .cls-11, .cls-12 {
        stroke-linecap: round;
        stroke-linejoin: round;
      }

      .cls-10 {
        stroke: url(#linear-gradient-8);
      }

      .cls-11 {
        stroke: url(#linear-gradient-9);
      }

      .cls-12 {
        stroke: url(#linear-gradient-10);
      }

      .cls-13 {
        stroke: url(#linear-gradient-11);
      }

      .cls-14 {
        stroke: url(#linear-gradient-12);
      }

      .cls-15 {
        clip-path: url(#clip-path);
      }

      .cls-16 {
        opacity: 0.8;
      }

      .cls-17, .cls-18, .cls-19, .cls-20, .cls-21, .cls-22, .cls-23, .cls-24, .cls-25, .cls-26, .cls-27, .cls-28, .cls-29, .cls-30, .cls-31, .cls-32, .cls-33, .cls-34, .cls-36, .cls-37, .cls-38, .cls-39, .cls-40, .cls-41, .cls-42, .cls-43, .cls-44, .cls-45, .cls-46, .cls-47, .cls-48, .cls-49, .cls-50, .cls-51, .cls-52, .cls-53 {
        stroke-width: 0.44px;
      }

      .cls-17 {
        stroke: url(#linear-gradient-13);
      }

      .cls-18 {
        stroke: url(#linear-gradient-14);
      }

      .cls-19 {
        stroke: url(#linear-gradient-15);
      }

      .cls-20 {
        stroke: url(#linear-gradient-16);
      }

      .cls-21 {
        stroke: url(#linear-gradient-17);
      }

      .cls-22 {
        stroke: url(#linear-gradient-18);
      }

      .cls-23 {
        stroke: url(#linear-gradient-19);
      }

      .cls-24 {
        stroke: url(#linear-gradient-20);
      }

      .cls-25 {
        stroke: url(#linear-gradient-21);
      }

      .cls-26 {
        stroke: url(#linear-gradient-22);
      }

      .cls-27 {
        stroke: url(#linear-gradient-23);
      }

      .cls-28 {
        stroke: url(#linear-gradient-24);
      }

      .cls-29 {
        stroke: url(#linear-gradient-25);
      }

      .cls-30 {
        stroke: url(#linear-gradient-26);
      }

      .cls-31 {
        stroke: url(#linear-gradient-27);
      }

      .cls-32 {
        stroke: url(#linear-gradient-28);
      }

      .cls-33 {
        stroke: url(#linear-gradient-29);
      }

      .cls-34 {
        stroke: url(#linear-gradient-30);
      }

      .cls-35, .cls-36, .cls-37, .cls-38, .cls-39, .cls-40, .cls-41, .cls-42, .cls-43, .cls-44, .cls-45, .cls-46, .cls-47, .cls-48, .cls-49, .cls-50, .cls-51, .cls-52, .cls-53 {
        opacity: 0.3;
      }

      .cls-36, .cls-37, .cls-38, .cls-39, .cls-40, .cls-41, .cls-42, .cls-43, .cls-44, .cls-45, .cls-46, .cls-47, .cls-48, .cls-49, .cls-50, .cls-51, .cls-52, .cls-53, .cls-54, .cls-57 {
        isolation: isolate;
      }

      .cls-36 {
        stroke: url(#linear-gradient-31);
      }

      .cls-37 {
        stroke: url(#linear-gradient-32);
      }

      .cls-38 {
        stroke: url(#linear-gradient-33);
      }

      .cls-39 {
        stroke: url(#linear-gradient-34);
      }

      .cls-40 {
        stroke: url(#linear-gradient-35);
      }

      .cls-41 {
        stroke: url(#linear-gradient-36);
      }

      .cls-42 {
        stroke: url(#linear-gradient-37);
      }

      .cls-43 {
        stroke: url(#linear-gradient-38);
      }

      .cls-44 {
        stroke: url(#linear-gradient-39);
      }

      .cls-45 {
        stroke: url(#linear-gradient-40);
      }

      .cls-46 {
        stroke: url(#linear-gradient-41);
      }

      .cls-47 {
        stroke: url(#linear-gradient-42);
      }

      .cls-48 {
        stroke: url(#linear-gradient-43);
      }

      .cls-49 {
        stroke: url(#linear-gradient-44);
      }

      .cls-50 {
        stroke: url(#linear-gradient-45);
      }

      .cls-51 {
        stroke: url(#linear-gradient-46);
      }

      .cls-52 {
        stroke: url(#linear-gradient-47);
      }

      .cls-53 {
        stroke: url(#linear-gradient-48);
      }

      .cls-54 {
        opacity: 0.81;
        fill: url(#linear-gradient-49);
      }

      .cls-55 {
        fill: url(#linear-gradient-50);
      }

      .cls-56, .cls-57 {
        opacity: 0.39;
      }

      .cls-57 {
        fill: url(#linear-gradient-51);
      }
    </style>
    <linearGradient id="linear-gradient" x1="6.74" y1="73.76" x2="111.94" y2="52.49" gradientTransform="matrix(1, 0, 0, -1, 0, 212.59)" gradientUnits="userSpaceOnUse">
      <stop offset="0" stop-color="#ff8789"/>
      <stop offset="0.44" stop-color="#84a2fc"/>
      <stop offset="0.72" stop-color="#205fe3"/>
      <stop offset="1" stop-color="#030f28"/>
    </linearGradient>
    <linearGradient id="linear-gradient-2" x1="73.43" y1="16.94" x2="73.37" y2="68.13" gradientTransform="matrix(1, 0, 0, -1, 0, 212.59)" gradientUnits="userSpaceOnUse">
      <stop offset="0" stop-color="#ff8789"/>
      <stop offset="0.53" stop-color="#84a2fc"/>
      <stop offset="0.72" stop-color="#205fe3"/>
      <stop offset="1" stop-color="#030f28"/>
    </linearGradient>
    <linearGradient id="linear-gradient-3" x1="10.52" y1="76.88" x2="109.75" y2="56.85" xlink:href="#linear-gradient"/>
    <linearGradient id="linear-gradient-4" x1="73.43" y1="23.25" x2="73.37" y2="71.59" xlink:href="#linear-gradient-2"/>
    <linearGradient id="linear-gradient-5" x1="58.08" y1="22.68" x2="81.85" y2="77.32" gradientTransform="matrix(1, 0, 0, -1, 0, 212.59)" gradientUnits="userSpaceOnUse">
      <stop offset="0" stop-color="#ff8789"/>
      <stop offset="0.53" stop-color="#84a2fc"/>
      <stop offset="0.72" stop-color="#205fe3"/>
      <stop offset="1" stop-color="#030f28" stop-opacity="0.88"/>
    </linearGradient>
    <linearGradient id="linear-gradient-6" x1="88.09" y1="21.99" x2="71.9" y2="134.63" gradientTransform="matrix(1, 0, 0, -1, 0, 212.59)" gradientUnits="userSpaceOnUse">
      <stop offset="0" stop-color="#ff8789"/>
      <stop offset="0.53" stop-color="#84a2fc"/>
      <stop offset="0.72" stop-color="#205fe3"/>
      <stop offset="1" stop-color="#030f28" stop-opacity="0"/>
    </linearGradient>
    <linearGradient id="linear-gradient-7" x1="85.59" y1="31.93" x2="72.27" y2="124.07" xlink:href="#linear-gradient-6"/>
    <linearGradient id="linear-gradient-8" x1="77.75" y1="53.27" x2="74.31" y2="53.4" gradientTransform="matrix(1, 0, 0, -1, 0, 212.59)" gradientUnits="userSpaceOnUse">
      <stop offset="0" stop-color="#ef8dff"/>
      <stop offset="1" stop-color="#ff8789" stop-opacity="0"/>
    </linearGradient>
    <linearGradient id="linear-gradient-9" x1="15.77" y1="79.4" x2="12.35" y2="79.66" xlink:href="#linear-gradient-8"/>
    <linearGradient id="linear-gradient-10" x1="132.71" y1="72.96" x2="136.43" y2="90.04" gradientTransform="matrix(1, 0, 0, -1, 0, 212.59)" gradientUnits="userSpaceOnUse">
      <stop offset="0" stop-color="aqua" stop-opacity="0.47"/>
      <stop offset="1" stop-color="aqua" stop-opacity="0"/>
    </linearGradient>
    <linearGradient id="linear-gradient-11" x1="73.39" y1="63.05" x2="74.19" y2="110.72" xlink:href="#linear-gradient-5"/>
    <linearGradient id="linear-gradient-12" x1="60.58" y1="83.02" x2="73.55" y2="110.34" gradientTransform="matrix(1, 0, 0, -1, 0, 212.59)" gradientUnits="userSpaceOnUse">
      <stop offset="0" stop-color="#ff8789"/>
      <stop offset="0.39" stop-color="#84a2fc"/>
      <stop offset="0.61" stop-color="#205fe3"/>
      <stop offset="1" stop-color="#030f28" stop-opacity="0.88"/>
    </linearGradient>
    <clipPath id="clip-path">
      <rect class="cls-1" x="19.21" y="22.29" width="109.64" height="92.31"/>
    </clipPath>
    <linearGradient id="linear-gradient-13" x1="120.18" y1="157.44" x2="24.59" y2="120.58" xlink:href="#linear-gradient-2"/>
    <linearGradient id="linear-gradient-14" x1="121.08" y1="157.89" x2="25.49" y2="121.03" xlink:href="#linear-gradient-2"/>
    <linearGradient id="linear-gradient-15" x1="122.03" y1="158.39" x2="26.44" y2="121.52" xlink:href="#linear-gradient-2"/>
    <linearGradient id="linear-gradient-16" x1="122.98" y1="158.85" x2="27.39" y2="121.98" xlink:href="#linear-gradient-2"/>
    <linearGradient id="linear-gradient-17" x1="123.88" y1="159.31" x2="28.33" y2="122.46" xlink:href="#linear-gradient-2"/>
    <linearGradient id="linear-gradient-18" x1="124.79" y1="159.79" x2="29.2" y2="122.92" xlink:href="#linear-gradient-2"/>
    <linearGradient id="linear-gradient-19" x1="125.74" y1="160.28" x2="30.15" y2="123.42" xlink:href="#linear-gradient-2"/>
    <linearGradient id="linear-gradient-20" x1="126.65" y1="160.78" x2="31.06" y2="123.91" xlink:href="#linear-gradient-2"/>
    <linearGradient id="linear-gradient-21" x1="127.59" y1="161.21" x2="32.04" y2="124.36" xlink:href="#linear-gradient-2"/>
    <linearGradient id="linear-gradient-22" x1="128.5" y1="161.72" x2="32.91" y2="124.86" xlink:href="#linear-gradient-2"/>
    <linearGradient id="linear-gradient-23" x1="129.44" y1="162.16" x2="33.87" y2="125.29" xlink:href="#linear-gradient-2"/>
    <linearGradient id="linear-gradient-24" x1="130.35" y1="162.67" x2="34.77" y2="125.81" xlink:href="#linear-gradient-2"/>
    <linearGradient id="linear-gradient-25" x1="131.3" y1="163.1" x2="35.75" y2="126.26" xlink:href="#linear-gradient-2"/>
    <linearGradient id="linear-gradient-26" x1="132.21" y1="163.62" x2="36.62" y2="126.75" xlink:href="#linear-gradient-2"/>
    <linearGradient id="linear-gradient-27" x1="133.16" y1="164.07" x2="37.57" y2="127.21" xlink:href="#linear-gradient-2"/>
    <linearGradient id="linear-gradient-28" x1="134.1" y1="164.56" x2="38.51" y2="127.7" xlink:href="#linear-gradient-2"/>
    <linearGradient id="linear-gradient-29" x1="135" y1="165.01" x2="39.46" y2="128.16" xlink:href="#linear-gradient-2"/>
    <linearGradient id="linear-gradient-30" x1="135.96" y1="165.51" x2="40.37" y2="128.65" xlink:href="#linear-gradient-2"/>
    <linearGradient id="linear-gradient-31" x1="41.38" y1="79.54" x2="95.2" y2="199.54" gradientTransform="matrix(1, 0, 0, -1, 0, 212.59)" gradientUnits="userSpaceOnUse">
      <stop offset="0" stop-color="#ef8dff"/>
      <stop offset="1" stop-color="#ff8789"/>
    </linearGradient>
    <linearGradient id="linear-gradient-32" x1="42.28" y1="80" x2="96.11" y2="200" xlink:href="#linear-gradient-31"/>
    <linearGradient id="linear-gradient-33" x1="43.23" y1="80.49" x2="97.05" y2="200.49" xlink:href="#linear-gradient-31"/>
    <linearGradient id="linear-gradient-34" x1="44.18" y1="80.95" x2="98" y2="200.94" xlink:href="#linear-gradient-31"/>
    <linearGradient id="linear-gradient-35" x1="45.12" y1="81.45" x2="98.91" y2="201.39" xlink:href="#linear-gradient-31"/>
    <linearGradient id="linear-gradient-36" x1="45.99" y1="81.89" x2="99.81" y2="201.89" xlink:href="#linear-gradient-31"/>
    <linearGradient id="linear-gradient-37" x1="46.94" y1="82.38" x2="100.76" y2="202.38" xlink:href="#linear-gradient-31"/>
    <linearGradient id="linear-gradient-38" x1="47.85" y1="82.88" x2="101.67" y2="202.88" xlink:href="#linear-gradient-31"/>
    <linearGradient id="linear-gradient-39" x1="48.82" y1="83.34" x2="102.63" y2="203.29" xlink:href="#linear-gradient-31"/>
    <linearGradient id="linear-gradient-40" x1="49.7" y1="83.83" x2="103.52" y2="203.82" xlink:href="#linear-gradient-31"/>
    <linearGradient id="linear-gradient-41" x1="50.67" y1="84.28" x2="104.45" y2="204.24" xlink:href="#linear-gradient-31"/>
    <linearGradient id="linear-gradient-42" x1="51.55" y1="84.77" x2="105.38" y2="204.77" xlink:href="#linear-gradient-31"/>
    <linearGradient id="linear-gradient-43" x1="52.53" y1="85.23" x2="106.34" y2="205.19" xlink:href="#linear-gradient-31"/>
    <linearGradient id="linear-gradient-44" x1="53.41" y1="85.72" x2="107.23" y2="205.72" xlink:href="#linear-gradient-31"/>
    <linearGradient id="linear-gradient-45" x1="54.36" y1="86.17" x2="108.18" y2="206.17" xlink:href="#linear-gradient-31"/>
    <linearGradient id="linear-gradient-46" x1="55.3" y1="86.67" x2="109.13" y2="206.67" xlink:href="#linear-gradient-31"/>
    <linearGradient id="linear-gradient-47" x1="56.24" y1="87.13" x2="110.04" y2="207.08" xlink:href="#linear-gradient-31"/>
    <linearGradient id="linear-gradient-48" x1="57.16" y1="87.61" x2="110.98" y2="207.61" xlink:href="#linear-gradient-31"/>
    <linearGradient id="linear-gradient-49" x1="99.6" y1="196.67" x2="60.49" y2="124.85" xlink:href="#linear-gradient-2"/>
    <linearGradient id="linear-gradient-50" x1="41.2" y1="79.58" x2="95" y2="199.58" xlink:href="#linear-gradient-31"/>
    <linearGradient id="linear-gradient-51" x1="57.24" y1="87.86" x2="110.99" y2="207.82" xlink:href="#linear-gradient-31"/>
  </defs>
  <g id="platform">
    <g id="platform-2" data-name="platform">
      <g>
        <path class="cls-2" d="M124.38,149.05c3.06,1.81,3.06,4.69.05,6.5L79.09,182.14a12,12,0,0,1-11.09,0L22.4,155.55c-3.06-1.81-3.12-4.69,0-6.5l45.34-26.59a12,12,0,0,1,11.08,0Z"/>
        <path class="cls-3" d="M124.38,149.05c3.06,1.81,3.06,4.69.05,6.5L79.09,182.14a12,12,0,0,1-11.09,0L22.4,155.55c-3.06-1.81-3.12-4.69,0-6.5l45.34-26.59a12,12,0,0,1,11.08,0Z"/>
      </g>
      <g>
        <path class="cls-4" d="M121.48,145.33c2.88,1.71,2.88,4.43,0,6.14L78.76,176.59a11.28,11.28,0,0,1-10.45,0l-43-25.12c-2.89-1.71-2.94-4.43-.05-6.14L68,120.22a11.25,11.25,0,0,1,10.46,0Z"/>
        <path class="cls-5" d="M121.48,145.33c2.88,1.71,2.88,4.43,0,6.14L78.76,176.59a11.28,11.28,0,0,1-10.45,0l-43-25.12c-2.89-1.71-2.94-4.43-.05-6.14L68,120.22a11.25,11.25,0,0,1,10.46,0Z"/>
      </g>
      <path class="cls-6" d="M131.9,149.55c3.47,2,3.47,5.29.06,7.33l-51.44,30a13.67,13.67,0,0,1-12.57,0l-51.74-30c-3.47-2-3.53-5.28-.06-7.33l51.44-30a13.67,13.67,0,0,1,12.57,0Z"/>
      <g class="cls-7">
        <path class="cls-8" d="M108.91,33.6s-69.73.71-69.73,0l0,118.31A2.61,2.61,0,0,0,40.66,154L70.5,171c.14.06.24.13.38.2s.1,0,.14.07a1.45,1.45,0,0,0,.24.1h0a2.9,2.9,0,0,0,.55.17h0l.13,0a.92.92,0,0,0,.31.07s.07,0,.07,0a.29.29,0,0,1,.14,0c.1,0,.17,0,.28,0a.11.11,0,0,1,.1,0h.14l.24,0h1.24a1.31,1.31,0,0,0,.34,0H75c.21,0,.38,0,.59-.07h0c.07,0,.11,0,.18,0s.2,0,.27-.07a.58.58,0,0,0,.21-.07,2.68,2.68,0,0,0,.27-.07h.07s.07,0,.1,0l.42-.14s.1,0,.14-.07.34-.17.48-.23l29.63-17s0,0,.07,0a.71.71,0,0,0,.14-.1.33.33,0,0,0,.17-.13s.11-.07.14-.11a.48.48,0,0,0,.17-.13,0,0,0,0,0,0,0l.17-.17,0,0,.11-.1a.15.15,0,0,0,0-.07.7.7,0,0,1,.14-.17s0,0,0-.07,0,0,0,0,.07-.1.07-.17,0-.07,0-.1v0s0-.1,0-.14,0-.06,0-.1v0a.34.34,0,0,1,0-.17V33.6Z"/>
      </g>
      <g class="cls-7">
        <path class="cls-9" d="M102.41,52.22s-56.74.59-56.74,0l0,96.79a2.13,2.13,0,0,0,1.24,1.73l24.28,13.91a3.07,3.07,0,0,0,.31.17s.08,0,.11.06l.19.08h0a2.59,2.59,0,0,0,.45.14h0l.11,0a1.11,1.11,0,0,0,.25,0s.06,0,.06,0a.2.2,0,0,1,.11,0c.08,0,.14,0,.22,0a.15.15,0,0,1,.09,0h.11l.2,0h1a.86.86,0,0,0,.28,0h.14c.17,0,.31,0,.48-.05h0s.08,0,.14,0a2.18,2.18,0,0,0,.22-.06.37.37,0,0,0,.17,0l.22-.06h.06l.08,0c.12,0,.23-.09.34-.12s.09,0,.11,0,.28-.14.4-.2l24.11-13.91s0,0,.06,0a.44.44,0,0,1,.11-.08.38.38,0,0,0,.14-.11l.11-.09a.45.45,0,0,0,.14-.11,0,0,0,0,0,0,0l.14-.14,0,0,.08-.09s0,0,0-.05a.36.36,0,0,1,.11-.14s0,0,0-.06a0,0,0,0,1,0,0,.34.34,0,0,0,0-.14s0,0,0-.08v0s0-.08,0-.11,0,0,0-.08v0a.36.36,0,0,1,0-.14V52.22Z"/>
      </g>
    </g>
  </g>
  <g id="lights">
    <g id="lights-2" data-name="lights">
      <path class="cls-10" d="M75.55,133.67V184.8"/>
      <path class="cls-11" d="M13.58,119.8v26.43"/>
      <path class="cls-12" d="M134.48,117.63v27.74"/>
    </g>
  </g>
  <g id="line2">
    <path id="line2-2" data-name="line2" class="cls-13" d="M131.9,107.09c3.47,2,3.47,5.28.06,7.32l-51.44,30a13.67,13.67,0,0,1-12.57,0l-51.74-30c-3.47-2-3.53-5.28-.06-7.32l51.44-30a13.67,13.67,0,0,1,12.57,0Z"/>
  </g>
  <g id="line1">
    <path id="line1-2" data-name="line1" class="cls-14" d="M131.9,97.55c3.47,2,3.47,5.28.06,7.33l-51.44,30a13.67,13.67,0,0,1-12.57,0l-51.74-30c-3.47-2-3.53-5.29-.06-7.33l51.44-30a13.67,13.67,0,0,1,12.57,0Z"/>
  </g>
  <g id="cloud">
    <g id="cloud-2" data-name="cloud">
      <g class="cls-15">
        <g class="cls-16">
          <path class="cls-17" d="M27.7,68.49A30,30,0,0,0,34,73.18l69.55,40.1c5.15,3,9.35-.2,9.35-7.08s-4.2-14.9-9.35-17.91l-1.32-.74a1.65,1.65,0,0,1-.78-1.15c-1.73-12-10.1-25.24-20.23-31.05a21,21,0,0,0-7.46-2.71,1.52,1.52,0,0,1-1.15-.79c-4.33-7.57-10.39-14.16-17-18-11.17-6.42-20.52-3-23.16,7.29a.67.67,0,0,1-.37.45.83.83,0,0,1-.62,0c-6.71-3.21-12,.21-12,8.07C19.41,56.05,22.83,63.46,27.7,68.49Z"/>
          <path class="cls-18" d="M28.6,68a30.31,30.31,0,0,0,6.27,4.7l69.55,40.14c5.15,3,9.35-.21,9.35-7.08s-4.2-14.91-9.35-17.91l-1.32-.74a1.67,1.67,0,0,1-.79-1.16c-1.73-12-10.09-25.23-20.23-31a21,21,0,0,0-7.45-2.72,1.54,1.54,0,0,1-1.16-.78c-4.32-7.57-10.38-14.16-17-18-11.17-6.42-20.52-3-23.16,7.29a.7.7,0,0,1-.37.45.83.83,0,0,1-.62,0c-6.72-3.21-12,.2-12,8.07C20.32,55.6,23.78,63,28.6,68Z"/>
          <path class="cls-19" d="M29.55,67.54a29.86,29.86,0,0,0,6.26,4.69l69.55,40.1c5.15,3,9.36-.2,9.36-7.08s-4.21-14.9-9.36-17.91L104,86.6a1.63,1.63,0,0,1-.78-1.15c-1.73-12-10.09-25.24-20.23-31a20.82,20.82,0,0,0-7.46-2.72,1.54,1.54,0,0,1-1.15-.78c-4.33-7.58-10.38-14.17-17-18-11.16-6.42-20.52-3-23.15,7.29a.68.68,0,0,1-.37.45.75.75,0,0,1-.62,0c-6.72-3.21-12,.21-12,8.07C21.27,55.11,24.69,62.52,29.55,67.54Z"/>
          <path class="cls-20" d="M30.46,67.05a30,30,0,0,0,6.26,4.69l69.55,40.14c5.19,3,9.39-.25,9.39-7.08s-4.2-14.9-9.35-17.91L105,86.15a1.65,1.65,0,0,1-.78-1.15C102.48,73,94.11,59.76,84,54a21,21,0,0,0-7.46-2.71,1.54,1.54,0,0,1-1.15-.79c-4.33-7.57-10.39-14.16-17-18-11.17-6.42-20.52-3-23.15,7.29a.69.69,0,0,1-.38.45.81.81,0,0,1-.61,0c-6.72-3.21-12,.21-12,8.07C22.18,54.65,25.64,62,30.46,67.05Z"/>
          <path class="cls-21" d="M31.4,66.59a30.31,30.31,0,0,0,6.27,4.7l69.55,40.1c5.15,3,9.35-.21,9.35-7.08s-4.2-14.91-9.35-17.91l-1.32-.74a1.65,1.65,0,0,1-.78-1.16c-1.73-12-10.1-25.23-20.23-31a21.08,21.08,0,0,0-7.46-2.72A1.54,1.54,0,0,1,76.27,50c-4.28-7.49-10.34-14.12-17-18-11.17-6.42-20.52-3-23.12,7.29a.67.67,0,0,1-.37.45.83.83,0,0,1-.62,0c-6.71-3.21-12,.21-12,8.07C23.12,54.16,26.54,61.57,31.4,66.59Z"/>
          <path class="cls-22" d="M32.31,66.1a29.86,29.86,0,0,0,6.26,4.69l69.55,40.14c5.15,3,9.36-.2,9.36-7.08s-4.21-14.9-9.36-17.91l-1.32-.74a1.63,1.63,0,0,1-.78-1.15c-1.73-12-10.09-25.24-20.23-31a20.82,20.82,0,0,0-7.46-2.72,1.54,1.54,0,0,1-1.15-.78c-4.33-7.58-10.38-14.16-17-18C49,25.05,39.65,28.43,37,38.76a.72.72,0,0,1-.37.46.83.83,0,0,1-.62,0c-6.72-3.22-12,.2-12,8.06C24,53.67,27.49,61.08,32.31,66.1Z"/>
          <path class="cls-23" d="M33.26,65.61a30.57,30.57,0,0,0,6.26,4.69l69.55,40.14c5.15,3,9.35-.2,9.35-7.08s-4.2-14.9-9.35-17.91l-1.32-.74a1.65,1.65,0,0,1-.78-1.15c-1.73-12-10.09-25.24-20.23-31.05a21,21,0,0,0-7.46-2.71A1.55,1.55,0,0,1,78.13,49c-4.33-7.57-10.39-14.16-17-18C50,24.56,40.59,27.93,38,38.27a.72.72,0,0,1-.38.45.81.81,0,0,1-.61,0c-6.72-3.21-12,.21-12,8.07C25,53.21,28.4,60.62,33.26,65.61Z"/>
          <path class="cls-24" d="M34.16,65.15a30.31,30.31,0,0,0,6.27,4.7L110,110c5.15,3,9.35-.21,9.35-7.08S115.13,88,110,85l-1.32-.75a1.61,1.61,0,0,1-.78-1.15c-1.73-12-10.1-25.24-20.23-31a21,21,0,0,0-7.46-2.72A1.54,1.54,0,0,1,79,48.52c-4.32-7.58-10.38-14.16-17-18-11.17-6.43-20.52-3-23.16,7.28a.69.69,0,0,1-.37.46.83.83,0,0,1-.62,0c-6.71-3.21-12,.2-12,8.07C25.88,52.72,29.34,60.13,34.16,65.15Z"/>
          <path class="cls-25" d="M35.11,64.66a30.3,30.3,0,0,0,6.27,4.69l69.55,40.14c5.15,3,9.35-.2,9.35-7.08s-4.2-14.9-9.35-17.91l-1.32-.74a1.65,1.65,0,0,1-.79-1.15c-1.73-12-10.09-25.24-20.23-31a20.77,20.77,0,0,0-7.45-2.72A1.54,1.54,0,0,1,80,48.07C75.66,40.49,69.6,33.9,63,30c-11.17-6.38-20.52-3-23.12,7.33a.69.69,0,0,1-.37.46.83.83,0,0,1-.62,0c-6.71-3.22-12,.2-12,8.06C26.83,52.27,30.25,59.68,35.11,64.66Z"/>
          <path class="cls-26" d="M36,64.21a30.57,30.57,0,0,0,6.26,4.69L111.83,109c5.15,3,9.36-.21,9.36-7.08S117,87,111.83,84l-1.32-.74a1.65,1.65,0,0,1-.78-1.15C108,70.09,99.64,56.88,89.5,51.07A20.78,20.78,0,0,0,82,48.36a1.55,1.55,0,0,1-1.15-.79c-4.33-7.57-10.38-14.16-17-18-11.16-6.42-20.52-3.05-23.15,7.29a.7.7,0,0,1-.37.45.83.83,0,0,1-.62,0c-6.72-3.21-12,.21-12,8.07C27.74,51.77,31.2,59.18,36,64.21Z"/>
          <path class="cls-27" d="M37,63.71a30,30,0,0,0,6.26,4.7l69.55,40.14c5.15,3,9.35-.21,9.35-7.08s-4.2-14.91-9.35-17.91l-1.32-.74a1.65,1.65,0,0,1-.78-1.16c-1.73-12-10.1-25.24-20.23-31A21,21,0,0,0,83,47.9a1.53,1.53,0,0,1-1.15-.78c-4.29-7.53-10.35-14.12-17-18-11.17-6.42-20.52-3.05-23.16,7.29a.67.67,0,0,1-.37.45.83.83,0,0,1-.62,0c-6.71-3.21-12,.2-12,8.07C28.69,51.32,32.1,58.69,37,63.71Z"/>
          <path class="cls-28" d="M37.87,63.26A30,30,0,0,0,44.14,68l69.55,40.1c5.15,3,9.35-.2,9.35-7.08s-4.2-14.9-9.35-17.91l-1.32-.74a1.7,1.7,0,0,1-.79-1.15c-1.73-12-10.09-25.24-20.23-31a20.77,20.77,0,0,0-7.45-2.72,1.54,1.54,0,0,1-1.16-.78c-4.32-7.58-10.38-14.17-17-18-11.17-6.42-20.52-3-23.16,7.29a.68.68,0,0,1-.37.45.75.75,0,0,1-.62,0c-6.71-3.21-12,.21-12,8.07C29.59,50.83,33.05,58.24,37.87,63.26Z"/>
          <path class="cls-29" d="M38.82,62.76a30.22,30.22,0,0,0,6.26,4.7l69.55,40.14c5.15,3,9.36-.21,9.36-7.08s-4.21-14.91-9.36-17.91l-1.31-.74a1.67,1.67,0,0,1-.79-1.15c-1.73-12-10.09-25.24-20.23-31A20.78,20.78,0,0,0,84.84,47a1.55,1.55,0,0,1-1.15-.79c-4.33-7.57-10.38-14.16-17-18-11.16-6.38-20.51-3-23.11,7.33a.7.7,0,0,1-.37.45.83.83,0,0,1-.62,0c-6.72-3.21-12,.21-12,8.07C30.54,50.37,34,57.74,38.82,62.76Z"/>
          <path class="cls-30" d="M39.73,62.31A30.22,30.22,0,0,0,46,67l69.55,40.1c5.15,3,9.35-.21,9.35-7.09s-4.2-14.9-9.35-17.9l-1.32-.75a1.61,1.61,0,0,1-.78-1.15c-1.73-12-10.1-25.24-20.23-31a21,21,0,0,0-7.46-2.72,1.53,1.53,0,0,1-1.15-.78c-4.33-7.58-10.39-14.16-17-18-11.17-6.43-20.52-3-23.16,7.28a.69.69,0,0,1-.37.46.81.81,0,0,1-.61,0c-6.72-3.22-12,.2-12,8.07C31.49,49.88,34.91,57.29,39.73,62.31Z"/>
          <path class="cls-31" d="M40.67,61.82a30.3,30.3,0,0,0,6.27,4.69l69.55,40.14c5.15,3,9.35-.2,9.35-7.08s-4.2-14.9-9.35-17.91l-1.32-.74a1.65,1.65,0,0,1-.78-1.15c-1.73-12-10.1-25.24-20.23-31A20.82,20.82,0,0,0,86.7,46a1.54,1.54,0,0,1-1.16-.78c-4.32-7.58-10.38-14.17-17-18-11.17-6.42-20.52-3-23.16,7.29a.65.65,0,0,1-.37.45.75.75,0,0,1-.62,0c-6.71-3.21-12,.21-12,8.07C32.39,49.43,35.81,56.8,40.67,61.82Z"/>
          <path class="cls-32" d="M41.58,61.37a30.85,30.85,0,0,0,6.26,4.69l69.55,40.1c5.2,3,9.4-.21,9.4-7.08s-4.2-14.91-9.35-17.91l-1.32-.74a1.7,1.7,0,0,1-.79-1.16c-1.73-12-10.09-25.23-20.23-31a21,21,0,0,0-7.45-2.72,1.54,1.54,0,0,1-1.16-.78c-4.32-7.57-10.38-14.16-17-18C58.31,20.28,49,23.65,46.32,34a.7.7,0,0,1-.37.45.83.83,0,0,1-.62,0c-6.72-3.21-12,.21-12,8.07C33.34,48.93,36.76,56.34,41.58,61.37Z"/>
          <path class="cls-33" d="M42.53,60.87a29.86,29.86,0,0,0,6.26,4.69l69.55,40.15c5.15,3,9.35-.25,9.35-7.09s-4.2-14.9-9.35-17.9L117,80a1.61,1.61,0,0,1-.78-1.15c-1.73-12-10.09-25.24-20.23-31a21,21,0,0,0-7.46-2.72,1.54,1.54,0,0,1-1.15-.78c-4.29-7.54-10.34-14.16-17-18-11.16-6.43-20.52-3.09-23.11,7.28a.7.7,0,0,1-.37.46.83.83,0,0,1-.62,0c-6.72-3.21-12,.2-12,8.07C34.25,48.44,37.67,55.85,42.53,60.87Z"/>
          <path class="cls-34" d="M43.44,60.38a30,30,0,0,0,6.26,4.69l69.59,40.14c5.15,3,9.35-.2,9.35-7.08s-4.2-14.9-9.35-17.91L118,79.48a1.65,1.65,0,0,1-.78-1.15c-1.73-12-10.1-25.24-20.23-31a21,21,0,0,0-7.46-2.71,1.53,1.53,0,0,1-1.15-.78c-4.33-7.58-10.39-14.17-17-18-11.17-6.42-20.52-3-23.16,7.29a.65.65,0,0,1-.37.45.83.83,0,0,1-.62,0c-6.71-3.21-12,.21-12,8.07C35.2,48,38.61,55.4,43.44,60.38Z"/>
          <g class="cls-35">
            <path class="cls-36" d="M27.7,68.49A30,30,0,0,0,34,73.18l69.55,40.1c5.15,3,9.35-.2,9.35-7.08s-4.2-14.9-9.35-17.91l-1.32-.74a1.65,1.65,0,0,1-.78-1.15c-1.73-12-10.1-25.24-20.23-31.05a21,21,0,0,0-7.46-2.71,1.52,1.52,0,0,1-1.15-.79c-4.33-7.57-10.39-14.16-17-18-11.17-6.42-20.52-3-23.16,7.29a.67.67,0,0,1-.37.45.83.83,0,0,1-.62,0c-6.71-3.21-12,.21-12,8.07C19.41,56.05,22.83,63.46,27.7,68.49Z"/>
            <path class="cls-37" d="M28.6,68a30.31,30.31,0,0,0,6.27,4.7l69.55,40.14c5.15,3,9.35-.21,9.35-7.08s-4.2-14.91-9.35-17.91l-1.32-.74a1.67,1.67,0,0,1-.79-1.16c-1.73-12-10.09-25.23-20.23-31a21,21,0,0,0-7.45-2.72,1.54,1.54,0,0,1-1.16-.78c-4.32-7.57-10.38-14.16-17-18-11.17-6.42-20.52-3-23.16,7.29a.7.7,0,0,1-.37.45.83.83,0,0,1-.62,0c-6.72-3.21-12,.2-12,8.07C20.32,55.6,23.78,63,28.6,68Z"/>
            <path class="cls-38" d="M29.55,67.54a29.86,29.86,0,0,0,6.26,4.69l69.55,40.1c5.15,3,9.36-.2,9.36-7.08s-4.21-14.9-9.36-17.91L104,86.6a1.63,1.63,0,0,1-.78-1.15c-1.73-12-10.09-25.24-20.23-31a20.82,20.82,0,0,0-7.46-2.72,1.54,1.54,0,0,1-1.15-.78c-4.33-7.58-10.38-14.17-17-18-11.16-6.42-20.52-3-23.15,7.29a.68.68,0,0,1-.37.45.75.75,0,0,1-.62,0c-6.72-3.21-12,.21-12,8.07C21.27,55.11,24.69,62.52,29.55,67.54Z"/>
            <path class="cls-39" d="M30.46,67.05a30,30,0,0,0,6.26,4.69l69.55,40.14c5.19,3,9.39-.25,9.39-7.08s-4.2-14.9-9.35-17.91L105,86.15a1.65,1.65,0,0,1-.78-1.15C102.48,73,94.11,59.76,84,54a21,21,0,0,0-7.46-2.71,1.54,1.54,0,0,1-1.15-.79c-4.33-7.57-10.39-14.16-17-18-11.17-6.42-20.52-3-23.15,7.29a.69.69,0,0,1-.38.45.81.81,0,0,1-.61,0c-6.72-3.21-12,.21-12,8.07C22.18,54.65,25.64,62,30.46,67.05Z"/>
            <path class="cls-40" d="M31.4,66.59a30.31,30.31,0,0,0,6.27,4.7l69.55,40.1c5.15,3,9.35-.21,9.35-7.08s-4.2-14.91-9.35-17.91l-1.32-.74a1.65,1.65,0,0,1-.78-1.16c-1.73-12-10.1-25.23-20.23-31a21.08,21.08,0,0,0-7.46-2.72A1.54,1.54,0,0,1,76.27,50c-4.28-7.49-10.34-14.12-17-18-11.17-6.42-20.52-3-23.12,7.29a.67.67,0,0,1-.37.45.83.83,0,0,1-.62,0c-6.71-3.21-12,.21-12,8.07C23.12,54.16,26.54,61.57,31.4,66.59Z"/>
            <path class="cls-41" d="M32.31,66.1a29.86,29.86,0,0,0,6.26,4.69l69.55,40.14c5.15,3,9.36-.2,9.36-7.08s-4.21-14.9-9.36-17.91l-1.32-.74a1.63,1.63,0,0,1-.78-1.15c-1.73-12-10.09-25.24-20.23-31a20.82,20.82,0,0,0-7.46-2.72,1.54,1.54,0,0,1-1.15-.78c-4.33-7.58-10.38-14.16-17-18C49,25.05,39.65,28.43,37,38.76a.72.72,0,0,1-.37.46.83.83,0,0,1-.62,0c-6.72-3.22-12,.2-12,8.06C24,53.67,27.49,61.08,32.31,66.1Z"/>
            <path class="cls-42" d="M33.26,65.61a30.57,30.57,0,0,0,6.26,4.69l69.55,40.14c5.15,3,9.35-.2,9.35-7.08s-4.2-14.9-9.35-17.91l-1.32-.74a1.65,1.65,0,0,1-.78-1.15c-1.73-12-10.09-25.24-20.23-31.05a21,21,0,0,0-7.46-2.71A1.55,1.55,0,0,1,78.13,49c-4.33-7.57-10.39-14.16-17-18C50,24.56,40.59,27.93,38,38.27a.72.72,0,0,1-.38.45.81.81,0,0,1-.61,0c-6.72-3.21-12,.21-12,8.07C25,53.21,28.4,60.62,33.26,65.61Z"/>
            <path class="cls-43" d="M34.16,65.15a30.31,30.31,0,0,0,6.27,4.7L110,110c5.15,3,9.35-.21,9.35-7.08S115.13,88,110,85l-1.32-.75a1.61,1.61,0,0,1-.78-1.15c-1.73-12-10.1-25.24-20.23-31a21,21,0,0,0-7.46-2.72A1.54,1.54,0,0,1,79,48.52c-4.32-7.58-10.38-14.16-17-18-11.17-6.43-20.52-3-23.16,7.28a.69.69,0,0,1-.37.46.83.83,0,0,1-.62,0c-6.71-3.21-12,.2-12,8.07C25.88,52.72,29.34,60.13,34.16,65.15Z"/>
            <path class="cls-44" d="M35.11,64.66a30.3,30.3,0,0,0,6.27,4.69l69.55,40.14c5.15,3,9.35-.2,9.35-7.08s-4.2-14.9-9.35-17.91l-1.32-.74a1.65,1.65,0,0,1-.79-1.15c-1.73-12-10.09-25.24-20.23-31a20.77,20.77,0,0,0-7.45-2.72A1.54,1.54,0,0,1,80,48.07C75.66,40.49,69.6,33.9,63,30c-11.17-6.38-20.52-3-23.12,7.33a.69.69,0,0,1-.37.46.83.83,0,0,1-.62,0c-6.71-3.22-12,.2-12,8.06C26.83,52.27,30.25,59.68,35.11,64.66Z"/>
            <path class="cls-45" d="M36,64.21a30.57,30.57,0,0,0,6.26,4.69L111.83,109c5.15,3,9.36-.21,9.36-7.08S117,87,111.83,84l-1.32-.74a1.65,1.65,0,0,1-.78-1.15C108,70.09,99.64,56.88,89.5,51.07A20.78,20.78,0,0,0,82,48.36a1.55,1.55,0,0,1-1.15-.79c-4.33-7.57-10.38-14.16-17-18-11.16-6.42-20.52-3.05-23.15,7.29a.7.7,0,0,1-.37.45.83.83,0,0,1-.62,0c-6.72-3.21-12,.21-12,8.07C27.74,51.77,31.2,59.18,36,64.21Z"/>
            <path class="cls-46" d="M37,63.71a30,30,0,0,0,6.26,4.7l69.55,40.14c5.15,3,9.35-.21,9.35-7.08s-4.2-14.91-9.35-17.91l-1.32-.74a1.65,1.65,0,0,1-.78-1.16c-1.73-12-10.1-25.24-20.23-31A21,21,0,0,0,83,47.9a1.53,1.53,0,0,1-1.15-.78c-4.29-7.53-10.35-14.12-17-18-11.17-6.42-20.52-3.05-23.16,7.29a.67.67,0,0,1-.37.45.83.83,0,0,1-.62,0c-6.71-3.21-12,.2-12,8.07C28.69,51.32,32.1,58.69,37,63.71Z"/>
            <path class="cls-47" d="M37.87,63.26A30,30,0,0,0,44.14,68l69.55,40.1c5.15,3,9.35-.2,9.35-7.08s-4.2-14.9-9.35-17.91l-1.32-.74a1.7,1.7,0,0,1-.79-1.15c-1.73-12-10.09-25.24-20.23-31a20.77,20.77,0,0,0-7.45-2.72,1.54,1.54,0,0,1-1.16-.78c-4.32-7.58-10.38-14.17-17-18-11.17-6.42-20.52-3-23.16,7.29a.68.68,0,0,1-.37.45.75.75,0,0,1-.62,0c-6.71-3.21-12,.21-12,8.07C29.59,50.83,33.05,58.24,37.87,63.26Z"/>
            <path class="cls-48" d="M38.82,62.76a30.22,30.22,0,0,0,6.26,4.7l69.55,40.14c5.15,3,9.36-.21,9.36-7.08s-4.21-14.91-9.36-17.91l-1.31-.74a1.67,1.67,0,0,1-.79-1.15c-1.73-12-10.09-25.24-20.23-31A20.78,20.78,0,0,0,84.84,47a1.55,1.55,0,0,1-1.15-.79c-4.33-7.57-10.38-14.16-17-18-11.16-6.38-20.51-3-23.11,7.33a.7.7,0,0,1-.37.45.83.83,0,0,1-.62,0c-6.72-3.21-12,.21-12,8.07C30.54,50.37,34,57.74,38.82,62.76Z"/>
            <path class="cls-49" d="M39.73,62.31A30.22,30.22,0,0,0,46,67l69.55,40.1c5.15,3,9.35-.21,9.35-7.09s-4.2-14.9-9.35-17.9l-1.32-.75a1.61,1.61,0,0,1-.78-1.15c-1.73-12-10.1-25.24-20.23-31a21,21,0,0,0-7.46-2.72,1.53,1.53,0,0,1-1.15-.78c-4.33-7.58-10.39-14.16-17-18-11.17-6.43-20.52-3-23.16,7.28a.69.69,0,0,1-.37.46.81.81,0,0,1-.61,0c-6.72-3.22-12,.2-12,8.07C31.49,49.88,34.91,57.29,39.73,62.31Z"/>
            <path class="cls-50" d="M40.67,61.82a30.3,30.3,0,0,0,6.27,4.69l69.55,40.14c5.15,3,9.35-.2,9.35-7.08s-4.2-14.9-9.35-17.91l-1.32-.74a1.65,1.65,0,0,1-.78-1.15c-1.73-12-10.1-25.24-20.23-31A20.82,20.82,0,0,0,86.7,46a1.54,1.54,0,0,1-1.16-.78c-4.32-7.58-10.38-14.17-17-18-11.17-6.42-20.52-3-23.16,7.29a.65.65,0,0,1-.37.45.75.75,0,0,1-.62,0c-6.71-3.21-12,.21-12,8.07C32.39,49.43,35.81,56.8,40.67,61.82Z"/>
            <path class="cls-51" d="M41.58,61.37a30.85,30.85,0,0,0,6.26,4.69l69.55,40.1c5.2,3,9.4-.21,9.4-7.08s-4.2-14.91-9.35-17.91l-1.32-.74a1.7,1.7,0,0,1-.79-1.16c-1.73-12-10.09-25.23-20.23-31a21,21,0,0,0-7.45-2.72,1.54,1.54,0,0,1-1.16-.78c-4.32-7.57-10.38-14.16-17-18C58.31,20.28,49,23.65,46.32,34a.7.7,0,0,1-.37.45.83.83,0,0,1-.62,0c-6.72-3.21-12,.21-12,8.07C33.34,48.93,36.76,56.34,41.58,61.37Z"/>
            <path class="cls-52" d="M42.53,60.87a29.86,29.86,0,0,0,6.26,4.69l69.55,40.15c5.15,3,9.35-.25,9.35-7.09s-4.2-14.9-9.35-17.9L117,80a1.61,1.61,0,0,1-.78-1.15c-1.73-12-10.09-25.24-20.23-31a21,21,0,0,0-7.46-2.72,1.54,1.54,0,0,1-1.15-.78c-4.29-7.54-10.34-14.16-17-18-11.16-6.43-20.52-3.09-23.11,7.28a.7.7,0,0,1-.37.46.83.83,0,0,1-.62,0c-6.72-3.21-12,.2-12,8.07C34.25,48.44,37.67,55.85,42.53,60.87Z"/>
            <path class="cls-53" d="M43.44,60.38a30,30,0,0,0,6.26,4.69l69.59,40.14c5.15,3,9.35-.2,9.35-7.08s-4.2-14.9-9.35-17.91L118,79.48a1.65,1.65,0,0,1-.78-1.15c-1.73-12-10.1-25.24-20.23-31a21,21,0,0,0-7.46-2.71,1.53,1.53,0,0,1-1.15-.78c-4.33-7.58-10.39-14.17-17-18-11.17-6.42-20.52-3-23.16,7.29a.65.65,0,0,1-.37.45.83.83,0,0,1-.62,0c-6.71-3.21-12,.21-12,8.07C35.2,48,38.61,55.4,43.44,60.38Z"/>
          </g>
          <path class="cls-54" d="M27.45,68.36a30.22,30.22,0,0,0,6.26,4.7L103.3,113.2c5.15,3,9.36-.21,9.36-7.08s-4.21-14.91-9.36-17.91L102,87.47a1.65,1.65,0,0,1-.78-1.16c-1.73-12-10.09-25.23-20.23-31a21,21,0,0,0-7.46-2.72,1.52,1.52,0,0,1-1.15-.78C68,44.2,62,37.61,55.34,33.74,44.18,27.32,34.82,30.69,32.19,41a.7.7,0,0,1-.37.45.83.83,0,0,1-.62,0c-6.72-3.21-12,.21-12,8.07C19.21,56,22.63,63.38,27.45,68.36Z"/>
          <path class="cls-55" d="M44.63,32.17c-5.36,0-9.31,3.38-10.79,9.31A2.32,2.32,0,0,1,32.56,43a2.14,2.14,0,0,1-1,.21,2.18,2.18,0,0,1-1-.25,9.29,9.29,0,0,0-4-1c-3.5,0-5.56,2.84-5.56,7.62,0,5.68,3.13,12.76,7.79,17.62l0,0,0,0a28.14,28.14,0,0,0,5.81,4.33l69.55,40.14a6,6,0,0,0,2.84.9c2.43,0,4-2.55,4-6.5,0-6.26-3.92-13.79-8.53-16.43L101.12,89a3.15,3.15,0,0,1-1.57-2.35,43.43,43.43,0,0,0-6.71-17.16A39.21,39.21,0,0,0,80.15,56.8a19.4,19.4,0,0,0-6.84-2.52,3.25,3.25,0,0,1-2.39-1.6C66.55,45,60.7,38.84,54.48,35.26A20,20,0,0,0,44.63,32.17Zm0-1.64a21.79,21.79,0,0,1,10.71,3.29c6.68,3.83,12.69,10.46,17,18a1.67,1.67,0,0,0,1.15.79A20.23,20.23,0,0,1,81,55.35c10.14,5.77,18.54,19,20.27,31a1.67,1.67,0,0,0,.79,1.15l1.31.74c5.15,3,9.36,11,9.36,17.91,0,5.1-2.35,8.19-5.69,8.19a7.66,7.66,0,0,1-3.71-1.11L33.75,73.1a29.5,29.5,0,0,1-6.26-4.69c-4.86-5-8.28-12.44-8.28-18.78,0-5.89,2.92-9.3,7.25-9.3a11.22,11.22,0,0,1,4.78,1.19.79.79,0,0,0,.29.08.84.84,0,0,0,.29-.08.6.6,0,0,0,.37-.45C33.92,34.32,38.53,30.53,44.63,30.53Z"/>
          <g class="cls-56">
            <path class="cls-57" d="M60.7,22.71c-6,0-10.38,3.74-12,10.25a1.11,1.11,0,0,1-.62.74,1,1,0,0,1-.45.12,1.15,1.15,0,0,1-.5-.12,10.58,10.58,0,0,0-4.61-1.15c-4.2,0-6.84,3.41-6.84,8.89,0,6.09,3.21,13.34,8.16,18.48A31,31,0,0,0,50,64.54l69.55,40.1a7.13,7.13,0,0,0,3.5,1.07c3.21,0,5.27-3,5.27-7.78,0-6.76-4.12-14.62-9.19-17.54l-1.31-.74a1.88,1.88,0,0,1-1-1.45c-1.73-12.14-10.14-25.07-20-30.75a19.83,19.83,0,0,0-7.33-2.64,1.92,1.92,0,0,1-1.44-1C83.57,36,77.55,29.62,71.16,26A20.67,20.67,0,0,0,60.7,22.71Zm0-.42a21.71,21.71,0,0,1,10.71,3.3c6.68,3.83,12.69,10.45,17,18a1.65,1.65,0,0,0,1.15.78A20.26,20.26,0,0,1,97,47.12c10.09,5.85,18.5,19,20.23,31a1.65,1.65,0,0,0,.78,1.16l1.32.74c5.15,2.92,9.36,11,9.36,17.82,0,5.11-2.35,8.2-5.69,8.2a7.66,7.66,0,0,1-3.71-1.11L49.78,64.82a28.6,28.6,0,0,1-6.26-4.69c-4.86-5-8.28-12.43-8.28-18.77,0-5.89,2.92-9.31,7.25-9.31a11.1,11.1,0,0,1,4.78,1.2.55.55,0,0,0,.57,0,.63.63,0,0,0,.38-.46C50,26.08,54.6,22.29,60.7,22.29Z"/>
          </g>
        </g>
      </g>
    </g>
  </g>
</svg>
