<?xml version="1.0" encoding="utf-8"?>
<!-- Generator: Adobe Illustrator 25.0.1, SVG Export Plug-In . SVG Version: 6.00 Build 0)  -->
<svg version="1.1" id="Capa_1" xmlns="http://www.w3.org/2000/svg" xmlns:xlink="http://www.w3.org/1999/xlink" x="0px" y="0px"
	 viewBox="0 0 197.8 258.5" style="enable-background:new 0 0 197.8 258.5;" xml:space="preserve">
<style type="text/css">
	.st0{opacity:0.8;fill:url(#SVGID_1_);enable-background:new    ;}
	.st1{opacity:0.8;fill:url(#SVGID_2_);enable-background:new    ;}
	.st2{fill:url(#SVGID_3_);}
	.st3{fill:none;stroke:url(#SVGID_4_);stroke-width:0.631;stroke-miterlimit:10;}
	.st4{fill:none;stroke:url(#SVGID_5_);stroke-width:0.631;stroke-miterlimit:10;}
	.st5{fill:none;stroke:url(#SVGID_6_);stroke-width:0.631;stroke-miterlimit:10;}
	.st6{fill:url(#SVGID_7_);}
	.st7{fill:url(#SVGID_8_);stroke:url(#SVGID_9_);stroke-width:0.631;}
	.st8{fill:url(#SVGID_10_);}
	.st9{fill:none;stroke:url(#SVGID_11_);stroke-width:1.06;stroke-miterlimit:10;}
	.st10{fill:url(#SVGID_12_);}
	.st11{fill:url(#SVGID_13_);stroke:url(#SVGID_14_);stroke-width:0.8;}
	.st12{fill:url(#SVGID_15_);}
	.st13{fill:#25054D;}
	.st14{fill:url(#SVGID_16_);}
	.st15{fill:none;stroke:url(#SVGID_17_);stroke-width:0.63;stroke-linecap:round;stroke-linejoin:round;}
	
		.st16{opacity:0.6;fill:none;stroke:url(#SVGID_18_);stroke-width:0.63;stroke-linecap:round;stroke-linejoin:round;enable-background:new    ;}
	
		.st17{opacity:0.6;fill:none;stroke:url(#SVGID_19_);stroke-width:0.63;stroke-linecap:round;stroke-linejoin:round;enable-background:new    ;}
	.st18{fill:none;stroke:url(#SVGID_20_);stroke-width:0.63;stroke-linecap:round;stroke-linejoin:round;}
	.st19{fill:none;stroke:url(#SVGID_21_);stroke-width:0.63;stroke-linecap:round;stroke-linejoin:round;}
	.st20{fill:none;stroke:url(#SVGID_22_);stroke-width:0.63;stroke-miterlimit:10;}
	.st21{fill:none;stroke:url(#SVGID_23_);stroke-width:1.13;stroke-miterlimit:10;}
	.st22{fill:none;stroke:url(#SVGID_24_);stroke-width:0.42;stroke-miterlimit:10;}
	.st23{fill:none;stroke:url(#SVGID_25_);stroke-width:0.42;stroke-miterlimit:10;}
</style>
<g id="base_1_">
	<g>
		
			<linearGradient id="SVGID_1_" gradientUnits="userSpaceOnUse" x1="13.069" y1="126.3106" x2="170.5326" y2="32.2516" gradientTransform="matrix(1 0 0 -1 0 260)">
			<stop  offset="0" style="stop-color:#FF8789"/>
			<stop  offset="0.5276" style="stop-color:#84A2FC"/>
			<stop  offset="0.7178" style="stop-color:#205FE3"/>
			<stop  offset="1" style="stop-color:#030F28"/>
		</linearGradient>
		<path class="st0" d="M187.1,180.2c5.2,3.1,5.3,7.9,0.1,11l-77.3,44.9c-5.2,3.1-13.6,3.1-18.9,0l-77.8-44.9
			c-5.2-3.1-5.3-7.9-0.1-11l77.3-44.9c5.2-3.1,13.6-3.1,18.9,0L187.1,180.2z"/>
		
			<linearGradient id="SVGID_2_" gradientUnits="userSpaceOnUse" x1="134.4896" y1="-16.9399" x2="96.5298" y2="83.9012" gradientTransform="matrix(1 0 0 -1 0 260)">
			<stop  offset="0" style="stop-color:#FF8789"/>
			<stop  offset="1" style="stop-color:#FF8789;stop-opacity:0"/>
		</linearGradient>
		<path class="st1" d="M187.1,180.2c5.2,3.1,5.3,7.9,0.1,11l-77.3,44.9c-5.2,3.1-13.6,3.1-18.9,0l-77.8-44.9
			c-5.2-3.1-5.3-7.9-0.1-11l77.3-44.9c5.2-3.1,13.6-3.1,18.9,0L187.1,180.2z"/>
		
			<linearGradient id="SVGID_3_" gradientUnits="userSpaceOnUse" x1="22.8689" y1="21.581" x2="108.4725" y2="73.301" gradientTransform="matrix(1 0 0 -1 0 260)">
			<stop  offset="0" style="stop-color:#84A2FC"/>
			<stop  offset="1" style="stop-color:#000547"/>
		</linearGradient>
		<path class="st2" d="M191.1,185.8c0,0.1,0,0.3,0,0.4c0,0.2,0,0.3-0.1,0.4c0,0.1-0.1,0.3-0.1,0.4c0,0.1-0.1,0.3-0.1,0.4
			s-0.1,0.2-0.2,0.4c-0.1,0.2-0.1,0.3-0.2,0.4c-0.1,0.1-0.1,0.2-0.2,0.3c-0.1,0.2-0.2,0.3-0.4,0.4c-0.1,0.2-0.2,0.3-0.4,0.4
			l-0.1,0.1c-0.2,0.2-0.4,0.4-0.5,0.5c-0.1,0.1-0.3,0.3-0.4,0.4c-0.1,0.1-0.3,0.2-0.4,0.3c-0.2,0.1-0.4,0.2-0.4,0.4
			c-0.2,0.1-0.4,0.2-0.5,0.4l-77.3,44.9c-0.4,0.3-0.8,0.4-1.3,0.6c-0.1,0.1-0.3,0.1-0.4,0.2c-0.4,0.2-0.7,0.3-1.1,0.4
			c-0.1,0-0.3,0.1-0.4,0.1c-0.3,0.1-0.4,0.1-0.7,0.2c-0.2,0.1-0.4,0.1-0.5,0.2c-0.3,0.1-0.4,0.1-0.7,0.2c-0.2,0-0.4,0.1-0.5,0.1
			c-0.5,0.1-1,0.2-1.5,0.2c-0.2,0-0.4,0-0.4,0c-0.3,0-0.6,0.1-0.9,0.1c-0.2,0-0.4,0-0.5,0c-0.3,0-0.4,0-0.7,0c-0.2,0-0.4,0-0.6,0
			c-0.3,0-0.4,0-0.7,0c-0.2,0-0.4,0-0.6-0.1c-0.2,0-0.4-0.1-0.6-0.1c-0.2,0-0.4-0.1-0.6-0.1c-0.3,0-0.4-0.1-0.7-0.1
			c-0.2,0-0.4-0.1-0.5-0.1c-0.3-0.1-0.5-0.1-0.8-0.2c-0.2,0-0.3-0.1-0.4-0.1c-0.4-0.2-1-0.3-1.4-0.4c-0.3-0.1-0.4-0.2-0.7-0.3
			c-0.1-0.1-0.3-0.1-0.4-0.2c-0.4-0.2-0.6-0.4-1-0.5l-77.8-44.9c-2.6-1.5-3.9-3.5-3.9-5.6l0.1,8.8c0,2,1.3,4,3.9,5.6L91,245
			c0.4,0.2,0.6,0.4,1,0.5c0.1,0.1,0.3,0.1,0.4,0.2c0.2,0.1,0.4,0.2,0.6,0.3h0.1c0.4,0.2,1,0.4,1.4,0.4h0.1c0.1,0,0.3,0.1,0.4,0.1
			c0.3,0.1,0.5,0.2,0.8,0.2c0.1,0,0.2,0,0.2,0.1c0.1,0,0.2,0,0.4,0.1c0.3,0,0.4,0.1,0.7,0.1c0.1,0,0.2,0,0.3,0.1c0.1,0,0.2,0,0.4,0
			c0.2,0,0.4,0.1,0.6,0.1c0.1,0,0.2,0,0.4,0c0.1,0,0.2,0,0.3,0c0.3,0,0.4,0,0.7,0c0.1,0,0.3,0,0.4,0c0.1,0,0.2,0,0.3,0
			c0.3,0,0.4,0,0.7,0c0.1,0,0.3,0,0.4,0c0.1,0,0.2,0,0.2,0c0.3,0,0.6,0,0.9-0.1c0.1,0,0.3,0,0.4,0h0.1c0.5-0.1,1-0.1,1.5-0.2h0.1
			c0.2,0,0.3-0.1,0.4-0.1c0.3-0.1,0.5-0.1,0.7-0.2c0.2,0,0.4-0.1,0.5-0.2c0.3-0.1,0.4-0.1,0.7-0.2c0.1,0,0.1,0,0.2,0
			c0.1,0,0.2-0.1,0.3-0.1c0.4-0.1,0.7-0.3,1.1-0.4c0.1-0.1,0.3-0.1,0.4-0.2c0.4-0.2,0.9-0.4,1.3-0.6l77.3-44.9
			c0.1,0,0.1-0.1,0.2-0.1c0.1-0.1,0.3-0.2,0.4-0.3c0.2-0.1,0.4-0.2,0.4-0.4c0.1-0.1,0.3-0.2,0.4-0.3c0.2-0.1,0.3-0.2,0.4-0.4
			c0,0,0.1,0,0.1-0.1c0.2-0.2,0.4-0.4,0.4-0.4l0.1-0.1c0.1-0.1,0.2-0.2,0.3-0.3c0,0,0.1-0.1,0.1-0.2c0.1-0.2,0.2-0.3,0.4-0.4
			c0-0.1,0.1-0.1,0.1-0.2c0,0,0-0.1,0.1-0.1c0.1-0.2,0.2-0.3,0.2-0.4c0-0.1,0.1-0.2,0.1-0.3v-0.1c0.1-0.1,0.1-0.3,0.1-0.4
			s0.1-0.2,0.1-0.3v-0.1c0-0.2,0-0.3,0.1-0.4c0-0.1,0-0.2,0-0.3v-0.1L191.1,185.8z"/>
		
			<linearGradient id="SVGID_4_" gradientUnits="userSpaceOnUse" x1="124.1754" y1="-8.612" x2="75.8247" y2="158.12" gradientTransform="matrix(1 0 0 -1 0 260)">
			<stop  offset="0" style="stop-color:#5F2768"/>
			<stop  offset="1" style="stop-color:#FF8789"/>
		</linearGradient>
		<path class="st3" d="M186.8,180.2c5.2,3.1,5.2,7.9,0.1,11L109.8,236c-5.2,3.1-13.6,3.1-18.8,0l-77.5-44.8c-5.2-3.1-5.3-7.9-0.1-11
			l77.1-44.8c5.2-3.1,13.6-3.1,18.8,0L186.8,180.2z"/>
		
			<linearGradient id="SVGID_5_" gradientUnits="userSpaceOnUse" x1="124.1752" y1="-17.2531" x2="75.8245" y2="149.4786" gradientTransform="matrix(1 0 0 -1 0 260)">
			<stop  offset="0" style="stop-color:#EF8DFF"/>
			<stop  offset="1" style="stop-color:#FF8789"/>
		</linearGradient>
		<path class="st4" d="M186.8,188.9c5.2,3.1,5.2,7.9,0.1,11l-77.1,44.8c-5.2,3.1-13.6,3.1-18.8,0l-77.5-44.8
			c-5.2-3.1-5.3-7.9-0.1-11l77.1-44.8c5.2-3.1,13.6-3.1,18.8,0L186.8,188.9z"/>
		<g>
			
				<linearGradient id="SVGID_6_" gradientUnits="userSpaceOnUse" x1="123.5578" y1="-7.8175" x2="75.547" y2="157.7459" gradientTransform="matrix(1 0 0 -1 0 260)">
				<stop  offset="0" style="stop-color:#EF8DFF"/>
				<stop  offset="1" style="stop-color:#FF8789"/>
			</linearGradient>
			<path class="st5" d="M185.8,180.1c5.2,3,5.2,7.8,0.1,10.9l-76.5,44.5c-5.2,3-13.5,3-18.7,0l-77-44.5c-5.2-3-5.3-7.8-0.1-10.9
				l76.5-44.5c5.2-3,13.5-3,18.7,0L185.8,180.1z"/>
		</g>
		
			<radialGradient id="SVGID_7_" cx="-100.8421" cy="329.1382" r="1" gradientTransform="matrix(6.525 -89.067 -128.3829 -9.4053 43015.5352 -5638.1562)" gradientUnits="userSpaceOnUse">
			<stop  offset="0" style="stop-color:#FF8789"/>
			<stop  offset="0.6011" style="stop-color:#84A2FC"/>
			<stop  offset="0.7945" style="stop-color:#205FE3"/>
			<stop  offset="1" style="stop-color:#030F28"/>
		</radialGradient>
		<path class="st6" d="M164.1,161.9c0,0.1,0,0.1,0,0.2c0,0.1,0,0.1-0.1,0.2c0,0.1-0.1,0.1-0.1,0.2c0,0.1-0.1,0.1-0.1,0.2
			c0,0.1-0.1,0.1-0.1,0.2c0,0.1-0.1,0.1-0.1,0.1c-0.1,0.1-0.1,0.2-0.2,0.2c-0.1,0.1-0.1,0.1-0.1,0.1c-0.1,0.1-0.2,0.2-0.3,0.3
			c-0.1,0.1-0.1,0.1-0.1,0.1c-0.1,0.1-0.1,0.1-0.2,0.2c-0.1,0.1-0.1,0.1-0.2,0.1c-0.1,0.1-0.2,0.1-0.2,0.2c-0.1,0.1-0.2,0.1-0.2,0.2
			L143,175.5l0.1-13.8c0-0.9-0.6-1.9-1.9-2.6L104.6,138c-0.3-0.2-0.6-0.3-0.9-0.4h-0.1c0,0,0,0-0.1,0c-0.2-0.1-0.5-0.2-0.7-0.2h-0.1
			c-0.1,0-0.1,0-0.2-0.1c-0.1-0.1-0.3-0.1-0.4-0.1c-0.1,0-0.1,0-0.1,0c-0.1,0-0.1,0-0.2,0c-0.1,0-0.2-0.1-0.3-0.1
			c-0.1,0-0.1,0-0.1,0c-0.1,0-0.1,0-0.2,0c-0.1,0-0.2,0-0.3-0.1c-0.1,0-0.1,0-0.2,0c-0.1,0-0.1,0-0.1,0c-0.1,0-0.2,0-0.3,0
			c-0.1,0-0.1,0-0.2,0c-0.1,0-0.1,0-0.1,0c-0.1,0-0.2,0-0.3,0c-0.1,0-0.1,0-0.2,0c-0.1,0-0.1,0-0.1,0c-0.1,0-0.3,0-0.4,0
			c-0.1,0-0.1,0-0.2,0h-0.1c-0.2,0-0.5,0.1-0.7,0.1c0,0,0,0-0.1,0c-0.1,0-0.1,0.1-0.2,0.1c-0.1,0-0.2,0.1-0.3,0.1
			c-0.1,0-0.2,0.1-0.2,0.1c-0.1,0.1-0.2,0.1-0.3,0.1h-0.1c-0.1,0-0.1,0.1-0.1,0.1c-0.2,0.1-0.3,0.1-0.5,0.2c-0.1,0-0.1,0.1-0.2,0.1
			c-0.2,0.1-0.4,0.2-0.6,0.3l-36.1,21l-0.1,0.1c-0.1,0.1-0.1,0.1-0.2,0.1c-0.1,0.1-0.2,0.1-0.2,0.2c-0.1,0.1-0.1,0.1-0.2,0.1
			c-0.1,0.1-0.1,0.1-0.2,0.2c0,0,0,0-0.1,0.1l-0.1,0.1c-0.1,0.1-0.2,0.2-0.3,0.3l-0.1,0.1c0,0,0,0.1-0.1,0.1
			c-0.1,0.1-0.1,0.2-0.2,0.2c0,0.1-0.1,0.1-0.1,0.1v0.1c-0.1,0.1-0.1,0.1-0.1,0.2c0,0.1-0.1,0.1-0.1,0.1c0,0,0,0,0,0.1
			c0,0.1-0.1,0.1-0.1,0.2s0,0.1-0.1,0.1c0,0,0,0,0,0.1c0,0.1,0,0.1,0,0.2c0,0.1,0,0.1,0,0.1v0.1l-0.1,13.7l-19.2-11.1
			c-1.3-0.7-1.9-1.7-1.9-2.6v17.8c0,0.9,0.6,1.9,1.9,2.6L96,215.4c0.3,0.2,0.6,0.3,0.9,0.4h0.1c0,0,0,0,0.1,0
			c0.2,0.1,0.5,0.2,0.7,0.2h0.1c0.1,0,0.1,0,0.2,0.1c0.1,0.1,0.3,0.1,0.4,0.1c0.1,0,0.1,0,0.1,0c0.1,0,0.1,0,0.2,0
			c0.1,0,0.2,0.1,0.3,0.1c0.1,0,0.1,0,0.1,0c0.1,0,0.1,0,0.2,0c0.1,0,0.2,0,0.3,0.1c0.1,0,0.1,0,0.2,0c0.1,0,0.1,0,0.1,0
			c0.1,0,0.2,0,0.3,0c0.1,0,0.1,0,0.2,0c0.1,0,0.1,0,0.1,0c0.1,0,0.2,0,0.3,0c0.1,0,0.1,0,0.2,0c0.1,0,0.1,0,0.1,0
			c0.1,0,0.3,0,0.4,0c0.1,0,0.1,0,0.2,0h0.1c0.2,0,0.5-0.1,0.7-0.1c0,0,0,0,0.1,0c0.1,0,0.1-0.1,0.2-0.1c0.1,0,0.2-0.1,0.3-0.1
			c0.1,0,0.2-0.1,0.2-0.1c0.1-0.1,0.2-0.1,0.3-0.1h0.1c0.1,0,0.1-0.1,0.1-0.1c0.2-0.1,0.3-0.1,0.5-0.2c0.1,0,0.1-0.1,0.2-0.1
			c0.2-0.1,0.4-0.2,0.6-0.3l57.4-33.3l0.1-0.1c0.1-0.1,0.1-0.1,0.2-0.1c0.1-0.1,0.2-0.1,0.2-0.2c0.1-0.1,0.1-0.1,0.2-0.1
			c0.1-0.1,0.1-0.1,0.2-0.2c0,0,0,0,0.1-0.1l0.1-0.1c0.1-0.1,0.2-0.2,0.3-0.3l0.1-0.1c0,0,0-0.1,0.1-0.1c0.1-0.1,0.1-0.2,0.2-0.2
			c0-0.1,0.1-0.1,0.1-0.1v-0.1c0.1-0.1,0.1-0.1,0.1-0.2c0-0.1,0.1-0.1,0.1-0.1c0,0,0,0,0-0.1c0-0.1,0.1-0.1,0.1-0.2
			c0-0.1,0-0.1,0.1-0.1c0,0,0,0,0-0.1c0-0.1,0-0.1,0-0.2c0-0.1,0-0.1,0-0.1v-0.1l0.1-17.8C164.2,161.8,164.2,161.8,164.1,161.9z
			 M104.3,197.9c-0.1,0-0.1,0.1-0.2,0.1c-0.2,0.1-0.3,0.1-0.5,0.2c-0.1,0-0.1,0.1-0.2,0.1c-0.1,0.1-0.2,0.1-0.3,0.1
			c-0.1,0-0.2,0.1-0.2,0.1c-0.1,0-0.2,0.1-0.3,0.1c-0.1,0-0.2,0.1-0.2,0.1c-0.2,0.1-0.5,0.1-0.7,0.1c-0.1,0-0.2,0-0.2,0
			c-0.1,0-0.3,0-0.4,0c-0.1,0-0.2,0-0.3,0c-0.1,0-0.2,0-0.3,0c-0.1,0-0.2,0-0.3,0c-0.1,0-0.2,0-0.3,0c-0.1,0-0.2,0-0.3,0
			c-0.1,0-0.2,0-0.3-0.1c-0.1,0-0.2,0-0.3-0.1c-0.1,0-0.2-0.1-0.3-0.1c-0.1,0-0.2-0.1-0.3-0.1c-0.1-0.1-0.3-0.1-0.4-0.1
			c-0.1,0-0.2-0.1-0.2-0.1c-0.2-0.1-0.5-0.2-0.7-0.2c-0.1,0-0.1,0-0.1-0.1c-0.3-0.1-0.6-0.2-0.9-0.4l-36.2-20.9l36-20.9
			c0.2-0.1,0.4-0.2,0.6-0.3c0.1,0,0.1-0.1,0.2-0.1c0.2-0.1,0.3-0.1,0.5-0.2c0.1,0,0.1-0.1,0.2-0.1c0.1-0.1,0.2-0.1,0.3-0.1
			c0.1,0,0.2-0.1,0.2-0.1c0.1,0,0.2-0.1,0.3-0.1c0.1,0,0.2-0.1,0.2-0.1c0.2-0.1,0.5-0.1,0.7-0.1c0.1,0,0.2,0,0.2,0
			c0.1,0,0.3,0,0.4,0c0.1,0,0.2,0,0.3,0c0.1,0,0.2,0,0.3,0c0.1,0,0.2,0,0.3,0c0.1,0,0.2,0,0.3,0c0.1,0,0.2,0,0.3,0
			c0.1,0,0.2,0,0.3,0.1c0.1,0,0.2,0,0.3,0.1c0.1,0,0.2,0.1,0.3,0.1c0.1,0,0.2,0.1,0.3,0.1c0.1,0.1,0.3,0.1,0.4,0.1
			c0.1,0,0.2,0.1,0.2,0.1c0.2,0.1,0.5,0.2,0.7,0.2c0.1,0,0.1,0,0.1,0.1c0.3,0.1,0.6,0.2,0.9,0.4l36.4,21l-36,20.9
			C104.7,197.7,104.6,197.8,104.3,197.9z"/>
	</g>
	
		<radialGradient id="SVGID_8_" cx="-99.2004" cy="329.5874" r="1" gradientTransform="matrix(135.9824 6.2503 8.7021 -189.3231 10636.5605 63182.0625)" gradientUnits="userSpaceOnUse">
		<stop  offset="0" style="stop-color:#FF8789"/>
		<stop  offset="0.5276" style="stop-color:#84A2FC"/>
		<stop  offset="0.7178" style="stop-color:#205FE3"/>
		<stop  offset="1" style="stop-color:#030F28"/>
	</radialGradient>
	
		<linearGradient id="SVGID_9_" gradientUnits="userSpaceOnUse" x1="117.0838" y1="40.0346" x2="83.2044" y2="157.2682" gradientTransform="matrix(1 0 0 -1 0 260)">
		<stop  offset="0" style="stop-color:#EF8DFF"/>
		<stop  offset="1" style="stop-color:#FF8789"/>
	</linearGradient>
	<path class="st7" d="M104.8,197.3L104.8,197.3c-1.2,0.7-2.7,1-4.3,1c-1.6,0-3.1-0.4-4.3-1h0L38.3,164c0,0,0,0,0,0
		c-1.2-0.7-1.7-1.5-1.7-2.3c0-0.8,0.5-1.6,1.7-2.3l0,0l57.4-33.3l0,0c1.2-0.7,2.7-1,4.3-1s3.1,0.3,4.3,1l0,0l57.8,33.3c0,0,0,0,0,0
		c1.2,0.7,1.7,1.5,1.7,2.3c0,0.8-0.5,1.6-1.6,2.3c0,0,0,0,0,0L104.8,197.3z M105,185.7L105,185.7l36.4-21.1c1.3-0.7,2-1.8,2-2.9
		c0-1.1-0.7-2.1-2.1-2.8c0,0,0,0,0,0l-36.6-21.1c-1.3-0.8-3-1.1-4.6-1.1c-1.7,0-3.3,0.4-4.6,1.1l-36.3,21.1l0.2,0.3l-0.2-0.3
		c-1.3,0.7-2,1.8-2,2.9c0,1.1,0.7,2.1,2,2.9h0l36.6,21.1c1.3,0.8,3,1.2,4.6,1.2C102,186.8,103.7,186.4,105,185.7z"/>
</g>
<g id="lock">
	<g id="lock-2">
		<g>
			
				<linearGradient id="SVGID_10_" gradientUnits="userSpaceOnUse" x1="3.2906" y1="279.677" x2="156.7406" y2="310.847" gradientTransform="matrix(1 0 0 1 0 -137.77)">
				<stop  offset="0" style="stop-color:#FF8789"/>
				<stop  offset="0.44" style="stop-color:#84A2FC"/>
				<stop  offset="0.72" style="stop-color:#205FE3"/>
				<stop  offset="1" style="stop-color:#030F28"/>
			</linearGradient>
			<path class="st8" d="M174.9,156.9c4.5,2.6,4.5,6.8,0.1,9.4L108.8,205c-5.1,2.6-11.1,2.6-16.2,0l-66.5-38.6
				c-4.5-2.6-4.5-6.8-0.1-9.4l66.2-38.6c5.1-2.6,11.1-2.6,16.2,0L174.9,156.9z"/>
			
				<linearGradient id="SVGID_11_" gradientUnits="userSpaceOnUse" x1="100.5796" y1="362.38" x2="100.4796" y2="288.04" gradientTransform="matrix(1 0 0 1 0 -137.77)">
				<stop  offset="0" style="stop-color:#FF8789"/>
				<stop  offset="0.53" style="stop-color:#84A2FC"/>
				<stop  offset="0.72" style="stop-color:#205FE3"/>
				<stop  offset="1" style="stop-color:#030F28"/>
			</linearGradient>
			<path class="st9" d="M174.9,156.9c4.5,2.6,4.5,6.8,0.1,9.4L108.8,205c-5.1,2.6-11.1,2.6-16.2,0l-66.5-38.6
				c-4.5-2.6-4.5-6.8-0.1-9.4l66.2-38.6c5.1-2.6,11.1-2.6,16.2,0L174.9,156.9z"/>
		</g>
		<g>
			
				<linearGradient id="SVGID_12_" gradientUnits="userSpaceOnUse" x1="83.3202" y1="312.7131" x2="108.4202" y2="268.4531" gradientTransform="matrix(1 0 0 1 0 -137.77)">
				<stop  offset="0" style="stop-color:#FF8789"/>
				<stop  offset="0.53" style="stop-color:#84A2FC"/>
				<stop  offset="0.72" style="stop-color:#205FE3"/>
				<stop  offset="1" style="stop-color:#030F28"/>
			</linearGradient>
			<path class="st10" d="M123.6,134.4l-44-16.4v32.5c-0.1,1.2,0.6,2.4,1.7,2.9l29.8,17.2c2.6,1.5,7,1.3,10-0.4
				c1.6-0.9,2.4-2.1,2.5-3.2L123.6,134.4L123.6,134.4z"/>
			
				<linearGradient id="SVGID_13_" gradientUnits="userSpaceOnUse" x1="126.5879" y1="313.9911" x2="92.6479" y2="246.0911" gradientTransform="matrix(1 0 0 1 0 -137.77)">
				<stop  offset="0" style="stop-color:#FF8789"/>
				<stop  offset="0.53" style="stop-color:#84A2FC"/>
				<stop  offset="0.72" style="stop-color:#205FE3"/>
				<stop  offset="1" style="stop-color:#030F28"/>
			</linearGradient>
			
				<linearGradient id="SVGID_14_" gradientUnits="userSpaceOnUse" x1="122.0595" y1="307.5108" x2="87.4795" y2="233.9708" gradientTransform="matrix(1 0 0 1 0 -137.77)">
				<stop  offset="0" style="stop-color:#FF8789"/>
				<stop  offset="0.53" style="stop-color:#84A2FC"/>
				<stop  offset="0.72" style="stop-color:#205FE3"/>
				<stop  offset="1" style="stop-color:#030F28;stop-opacity:0"/>
			</linearGradient>
			<path class="st11" d="M111.2,137.6L111.2,137.6l-29.7-17.2l0,0C80.6,120,80,119,80,118c0.3-1.2,1.1-2.2,2.3-2.7
				c1.5-0.8,3.3-1.3,5-1.3c1.6-0.1,3.2,0.2,4.7,0.9l0,0l29.7,17.2l0,0c1,0.4,1.6,1.3,1.5,2.4c-0.3,1.2-1.1,2.2-2.3,2.7l0,0
				c-1.5,0.9-3.2,1.3-5,1.4C114.3,138.7,112.7,138.3,111.2,137.6z"/>
			
				<linearGradient id="SVGID_15_" gradientUnits="userSpaceOnUse" x1="89.9783" y1="193.5103" x2="103.1083" y2="262.0504" gradientTransform="matrix(1 0 0 1 0 -137.77)">
				<stop  offset="0" style="stop-color:#FF8789"/>
				<stop  offset="0.53" style="stop-color:#84A2FC"/>
				<stop  offset="0.72" style="stop-color:#205FE3"/>
				<stop  offset="1" style="stop-color:#030F28"/>
			</linearGradient>
			<path class="st12" d="M104.5,91.6c-6-3.4-13.6-1.4-17,4.6c-1.1,1.9-1.7,4.1-1.7,6.2v16.4c0,1.3,1.9,2.4,4.1,2.4s4.1-1.1,4.1-2.4
				v-0.1l0,0v-14.6c0-2.9,2.4-5.3,5.3-5.3c0.9,0,1.8,0.2,2.6,0.7c4.1,2.3,6.6,6.7,6.6,11.4v21.3h0.1c0.1,1.3,1.9,2.3,4.1,2.3
				s4.1-1.1,4.1-2.3v-19.4C116.8,104.1,112.1,96,104.5,91.6z"/>
			<path class="st13" d="M100.3,144.2c-0.1-2.4-1.4-4.5-3.3-5.8c-1.9-1.1-3.3-0.2-3.3,1.9c0.1,1.6,0.7,3.1,1.7,4.3v6.7l3.3,1.9v-6.7
				C99.6,146.5,100.3,145.7,100.3,144.2z"/>
			
				<linearGradient id="SVGID_16_" gradientUnits="userSpaceOnUse" x1="112.1838" y1="287.5162" x2="92.5938" y2="282.1762" gradientTransform="matrix(1 0 0 1 0 -137.77)">
				<stop  offset="0" style="stop-color:#FF8789"/>
				<stop  offset="0.53" style="stop-color:#84A2FC"/>
				<stop  offset="0.72" style="stop-color:#205FE3"/>
				<stop  offset="1" style="stop-color:#030F28"/>
			</linearGradient>
			<path class="st14" d="M96.9,150.6V144c-1-1.2-1.6-2.7-1.7-4.3c0-0.6,0.1-1.2,0.5-1.7c-1.2-0.1-2,0.8-2,2.3
				c0.1,1.6,0.7,3.1,1.7,4.3v6.7l3.3,1.9v-1.6L96.9,150.6z"/>
		</g>
	</g>
</g>
<g id="lights">
	<g id="lights-2">
		
			<linearGradient id="SVGID_17_" gradientUnits="userSpaceOnUse" x1="59.3604" y1="249.1051" x2="55.9404" y2="248.8551" gradientTransform="matrix(1 0 0 1 0 -137.77)">
			<stop  offset="0" style="stop-color:#EF8DFF"/>
			<stop  offset="1" style="stop-color:#FF8789;stop-opacity:0"/>
		</linearGradient>
		<path class="st15" d="M57.2,97.6v27.1"/>
		
			<linearGradient id="SVGID_18_" gradientUnits="userSpaceOnUse" x1="97.0499" y1="263.1233" x2="105.3499" y2="238.3433" gradientTransform="matrix(1 0 0 1 0 -137.77)">
			<stop  offset="0" style="stop-color:#00FFFF;stop-opacity:0.47"/>
			<stop  offset="1" style="stop-color:#00FFFF;stop-opacity:0"/>
		</linearGradient>
		<path class="st16" d="M101,92.2v42.7"/>
		
			<linearGradient id="SVGID_19_" gradientUnits="userSpaceOnUse" x1="70.9762" y1="238.6512" x2="73.7862" y2="223.7112" gradientTransform="matrix(1 0 0 1 0 -137.77)">
			<stop  offset="0" style="stop-color:#00FFFF;stop-opacity:0.47"/>
			<stop  offset="1" style="stop-color:#00FFFF;stop-opacity:0"/>
		</linearGradient>
		<path class="st17" d="M72.3,81.8v24"/>
		
			<linearGradient id="SVGID_20_" gradientUnits="userSpaceOnUse" x1="141.8507" y1="234.3009" x2="138.4307" y2="234.0509" gradientTransform="matrix(1 0 0 1 0 -137.77)">
			<stop  offset="0" style="stop-color:#EF8DFF"/>
			<stop  offset="1" style="stop-color:#FF8789;stop-opacity:0"/>
		</linearGradient>
		<path class="st18" d="M139.6,82.8v27.1"/>
		
			<linearGradient id="SVGID_21_" gradientUnits="userSpaceOnUse" x1="134.5407" y1="258.7809" x2="131.1207" y2="258.5309" gradientTransform="matrix(1 0 0 1 0 -137.77)">
			<stop  offset="0" style="stop-color:#EF8DFF"/>
			<stop  offset="1" style="stop-color:#FF8789;stop-opacity:0"/>
		</linearGradient>
		<path class="st19" d="M132.3,107.3v27.1"/>
	</g>
</g>
<g id="linesmid">
	<g id="linesmid-2">
		
			<linearGradient id="SVGID_22_" gradientUnits="userSpaceOnUse" x1="102.5916" y1="242.9694" x2="100.7316" y2="208.8594" gradientTransform="matrix(1 0 0 1 0 -137.77)">
			<stop  offset="0" style="stop-color:#FF8789"/>
			<stop  offset="0.53" style="stop-color:#84A2FC"/>
			<stop  offset="0.72" style="stop-color:#205FE3"/>
			<stop  offset="1" style="stop-color:#030F28"/>
		</linearGradient>
		<path class="st20" d="M133,74.8c1.9,1.1,1.9,2.9,0,4l-28.4,16.6c-2.2,1.1-4.8,1.1-6.9,0L69.1,78.8c-1.9-1.1-1.9-2.9,0-4l28.4-16.5
			c2.2-1.1,4.8-1.1,6.9,0L133,74.8z"/>
		
			<linearGradient id="SVGID_23_" gradientUnits="userSpaceOnUse" x1="101.2023" y1="312.5699" x2="101.1223" y2="223.24" gradientTransform="matrix(1 0 0 1 0 -137.77)">
			<stop  offset="0" style="stop-color:#FF8789"/>
			<stop  offset="0.53" style="stop-color:#84A2FC"/>
			<stop  offset="0.72" style="stop-color:#205FE3"/>
			<stop  offset="1" style="stop-color:#030F28;stop-opacity:0"/>
		</linearGradient>
		<path class="st21" d="M171,111.9c4.2,2.4,4.2,6.3,0.1,8.8L109,156.6c-4.8,2.5-10.4,2.5-15.2,0l-62.5-35.9
			c-4.2-2.4-4.3-6.3-0.1-8.8l62-35.9c4.8-2.4,10.4-2.4,15.2,0L171,111.9z"/>
	</g>
</g>
<g id="linesup">
	<g id="linesup-2">
		
			<linearGradient id="SVGID_24_" gradientUnits="userSpaceOnUse" x1="101.4995" y1="202.82" x2="99.3495" y2="158.1" gradientTransform="matrix(1 0 0 1 0 -137.77)">
			<stop  offset="0" style="stop-color:#FF8789"/>
			<stop  offset="0.53" style="stop-color:#84A2FC"/>
			<stop  offset="0.72" style="stop-color:#205FE3"/>
			<stop  offset="1" style="stop-color:#030F28"/>
		</linearGradient>
		<path class="st22" d="M141.4,36.5c2.5,1.5,2.5,3.8,0,5.2L104.9,63c-2.8,1.5-6.2,1.5-9,0L59.1,41.7c-2.5-1.5-2.5-3.8,0-5.2
			l36.6-21.3c2.8-1.5,6.2-1.5,9,0L141.4,36.5z"/>
		
			<linearGradient id="SVGID_25_" gradientUnits="userSpaceOnUse" x1="100.2919" y1="211.72" x2="100.2419" y2="173.31" gradientTransform="matrix(1 0 0 1 0 -137.77)">
			<stop  offset="0" style="stop-color:#FF8789"/>
			<stop  offset="0.53" style="stop-color:#84A2FC"/>
			<stop  offset="0.72" style="stop-color:#205FE3"/>
			<stop  offset="1" style="stop-color:#030F28;stop-opacity:0"/>
		</linearGradient>
		<path class="st23" d="M141.4,39.7c2.5,1.5,2.5,3.8,0,5.2l-36.6,21.3c-2.8,1.5-6.2,1.5-9,0L59.1,44.9c-2.5-1.5-2.5-3.8,0-5.2
			l36.6-21.3c2.8-1.5,6.2-1.5,9,0L141.4,39.7z"/>
	</g>
</g>
</svg>
