<svg xmlns="http://www.w3.org/2000/svg" xmlns:xlink="http://www.w3.org/1999/xlink" viewBox="0 0 178.51 278.71">
  <defs>
    <linearGradient id="Degradado_sin_nombre" data-name="Degradado sin nombre" x1="89.45" y1="-2.13" x2="89.34" y2="78.46" gradientTransform="matrix(1, 0, 0, -1, 0, 291.2)" gradientUnits="userSpaceOnUse">
      <stop offset="0" stop-color="#ff8789"/>
      <stop offset="0.53" stop-color="#84a2fc"/>
      <stop offset="0.72" stop-color="#205fe3"/>
      <stop offset="1" stop-color="#030f28"/>
    </linearGradient>
    <linearGradient id="Degradado_sin_nombre_2" data-name="Degradado sin nombre 2" x1="121.43" y1="-5.65" x2="85.99" y2="88.15" gradientTransform="matrix(1, 0, 0, -1, 0, 291.2)" gradientUnits="userSpaceOnUse">
      <stop offset="0" stop-color="#ff8789"/>
      <stop offset="1" stop-color="#ff8789" stop-opacity="0"/>
    </linearGradient>
    <linearGradient id="Degradado_sin_nombre_3" data-name="Degradado sin nombre 3" x1="89.45" y1="11.1" x2="89.34" y2="91.53" xlink:href="#Degradado_sin_nombre"/>
    <linearGradient id="Degradado_sin_nombre_4" data-name="Degradado sin nombre 4" x1="78.55" y1="3.43" x2="89.16" y2="106.69" xlink:href="#Degradado_sin_nombre"/>
    <linearGradient id="Degradado_sin_nombre_5" data-name="Degradado sin nombre 5" x1="35.6" y1="202.08" x2="105.97" y2="62.99" xlink:href="#Degradado_sin_nombre"/>
    <linearGradient id="Degradado_sin_nombre_6" data-name="Degradado sin nombre 6" x1="101.79" y1="59.32" x2="75.55" y2="149.97" gradientTransform="matrix(1, 0, 0, -1, 0, 291.2)" gradientUnits="userSpaceOnUse">
      <stop offset="0" stop-color="#ef8dff"/>
      <stop offset="1" stop-color="#ff8789"/>
    </linearGradient>
    <linearGradient id="Degradado_sin_nombre_7" data-name="Degradado sin nombre 7" x1="127.75" y1="31.97" x2="47.28" y2="182.23" gradientTransform="matrix(1, 0, 0, -1, 0, 291.2)" gradientUnits="userSpaceOnUse">
      <stop offset="0.04" stop-color="#ff8789"/>
      <stop offset="0.53" stop-color="#84a2fc"/>
      <stop offset="0.72" stop-color="#205fe3"/>
      <stop offset="1" stop-color="#030f28"/>
    </linearGradient>
    <linearGradient id="Degradado_sin_nombre_8" data-name="Degradado sin nombre 8" x1="14.14" y1="95.19" x2="95.93" y2="155.12" gradientTransform="matrix(1, 0, 0, -1, 0, 291.2)" gradientUnits="userSpaceOnUse">
      <stop offset="0.01" stop-color="#ff8789"/>
      <stop offset="0.34" stop-color="#84a2fc"/>
      <stop offset="0.59" stop-color="#205fe3"/>
      <stop offset="1" stop-color="#030f28"/>
    </linearGradient>
    <linearGradient id="Degradado_sin_nombre_9" data-name="Degradado sin nombre 9" x1="0.83" y1="191.38" x2="126.09" y2="176.48" xlink:href="#Degradado_sin_nombre"/>
    <linearGradient id="Degradado_sin_nombre_10" data-name="Degradado sin nombre 10" x1="159.32" y1="192.93" x2="-6.5" y2="164.05" gradientTransform="matrix(1, 0, 0, -1, 0, 291.2)" gradientUnits="userSpaceOnUse">
      <stop offset="0" stop-color="#ff8789"/>
      <stop offset="0.42" stop-color="#84a2fc"/>
      <stop offset="0.53" stop-color="#205fe3"/>
      <stop offset="1" stop-color="#030f28"/>
    </linearGradient>
    <linearGradient id="Degradado_sin_nombre_11" data-name="Degradado sin nombre 11" x1="49.12" y1="188.77" x2="112.33" y2="176.14" gradientTransform="matrix(1, 0, 0, -1, 0, 291.2)" gradientUnits="userSpaceOnUse">
      <stop offset="0" stop-color="#ff8789"/>
      <stop offset="0.44" stop-color="#84a2fc"/>
      <stop offset="0.72" stop-color="#205fe3"/>
      <stop offset="1" stop-color="#030f28"/>
    </linearGradient>
    <linearGradient id="Degradado_sin_nombre_12" data-name="Degradado sin nombre 12" x1="89.19" y1="154.43" x2="89.15" y2="185.53" xlink:href="#Degradado_sin_nombre"/>
    <clipPath id="clip-path">
      <rect x="88.71" y="52.54" width="22.09" height="64.06" fill="none"/>
    </clipPath>
    <linearGradient id="Degradado_sin_nombre_13" data-name="Degradado sin nombre 13" x1="91.65" y1="204.89" x2="89.85" y2="211.61" xlink:href="#Degradado_sin_nombre"/>
    <linearGradient id="Degradado_sin_nombre_14" data-name="Degradado sin nombre 14" x1="84.43" y1="181.49" x2="99.68" y2="183.1" xlink:href="#Degradado_sin_nombre"/>
    <linearGradient id="Degradado_sin_nombre_15" data-name="Degradado sin nombre 15" x1="101.17" y1="170.56" x2="104.79" y2="179.24" xlink:href="#Degradado_sin_nombre"/>
    <linearGradient id="Degradado_sin_nombre_16" data-name="Degradado sin nombre 16" x1="92.64" y1="220.05" x2="107.64" y2="217.11" xlink:href="#Degradado_sin_nombre"/>
    <linearGradient id="Degradado_sin_nombre_17" data-name="Degradado sin nombre 17" x1="99.73" y1="236" x2="103.63" y2="224.6" xlink:href="#Degradado_sin_nombre"/>
    <linearGradient id="Degradado_sin_nombre_18" data-name="Degradado sin nombre 18" x1="105.93" y1="199.03" x2="105.69" y2="207.53" xlink:href="#Degradado_sin_nombre"/>
    <clipPath id="clip-path-2">
      <rect x="65.09" y="43.35" width="24.67" height="64.19" fill="none"/>
    </clipPath>
    <linearGradient id="Degradado_sin_nombre_19" data-name="Degradado sin nombre 19" x1="68.14" y1="234.27" x2="75.32" y2="230.08" xlink:href="#Degradado_sin_nombre"/>
    <linearGradient id="Degradado_sin_nombre_20" data-name="Degradado sin nombre 20" x1="72.45" y1="203.8" x2="85.03" y2="206.97" xlink:href="#Degradado_sin_nombre"/>
    <linearGradient id="Degradado_sin_nombre_21" data-name="Degradado sin nombre 21" x1="80.05" y1="201.04" x2="91.23" y2="201.54" xlink:href="#Degradado_sin_nombre"/>
    <linearGradient id="Degradado_sin_nombre_22" data-name="Degradado sin nombre 22" x1="78.17" y1="240.81" x2="86.51" y2="241.63" xlink:href="#Degradado_sin_nombre"/>
    <linearGradient id="Degradado_sin_nombre_23" data-name="Degradado sin nombre 23" x1="57.55" y1="223.08" x2="81.86" y2="222.3" xlink:href="#Degradado_sin_nombre"/>
    <linearGradient id="Degradado_sin_nombre_24" data-name="Degradado sin nombre 24" x1="74.11" y1="227.86" x2="84.57" y2="227.7" xlink:href="#Degradado_sin_nombre"/>
    <linearGradient id="Degradado_sin_nombre_41" data-name="Degradado sin nombre 41" x1="75.12" y1="154.53" x2="94.4" y2="249.8" gradientTransform="matrix(1, 0, 0, -1, 0, 291.2)" gradientUnits="userSpaceOnUse">
      <stop offset="0" stop-color="#ff8789"/>
      <stop offset="0.53" stop-color="#84a2fc"/>
      <stop offset="0.72" stop-color="#205fe3"/>
      <stop offset="1" stop-color="#030f28" stop-opacity="0"/>
    </linearGradient>
    <linearGradient id="Degradado_sin_nombre_26" data-name="Degradado sin nombre 26" x1="-261" y1="349.63" x2="-202.8" y2="311.25" gradientTransform="matrix(-0.87, -0.5, 0, -1, -118.77, 285.45)" gradientUnits="userSpaceOnUse">
      <stop offset="0" stop-color="#ff8789"/>
      <stop offset="0.52" stop-color="#84a2fc"/>
      <stop offset="0.72" stop-color="#205fe3"/>
      <stop offset="1" stop-color="#030f28"/>
    </linearGradient>
    <linearGradient id="Degradado_sin_nombre_27" data-name="Degradado sin nombre 27" x1="-238.06" y1="311.19" x2="-201.98" y2="339.55" gradientTransform="matrix(-0.87, -0.5, 0, -1, -118.77, 285.45)" xlink:href="#Degradado_sin_nombre"/>
    <linearGradient id="Degradado_sin_nombre_28" data-name="Degradado sin nombre 28" x1="-261" y1="349.63" x2="-202.8" y2="311.25" gradientTransform="matrix(-0.87, -0.5, 0, -1, -120.21, 285.81)" xlink:href="#Degradado_sin_nombre_26"/>
    <linearGradient id="Degradado_sin_nombre_29" data-name="Degradado sin nombre 29" x1="-238.06" y1="311.19" x2="-201.98" y2="339.55" gradientTransform="matrix(-0.87, -0.5, 0, -1, -120.21, 285.81)" xlink:href="#Degradado_sin_nombre"/>
    <linearGradient id="Degradado_sin_nombre_30" data-name="Degradado sin nombre 30" x1="-224.62" y1="345.8" x2="-223.7" y2="337.55" gradientTransform="matrix(-0.87, -0.5, 0, -1, -122.37, 287.56)" xlink:href="#Degradado_sin_nombre_26"/>
    <linearGradient id="Degradado_sin_nombre_31" data-name="Degradado sin nombre 31" x1="-224.23" y1="338.1" x2="-223.77" y2="342.95" gradientTransform="matrix(-0.87, -0.5, 0, -1, -122.37, 287.56)" xlink:href="#Degradado_sin_nombre"/>
    <linearGradient id="Degradado_sin_nombre_32" data-name="Degradado sin nombre 32" x1="-248.36" y1="344.76" x2="-227.95" y2="330.68" gradientTransform="matrix(-0.87, -0.5, 0, -1, -141.13, 281.56)" xlink:href="#Degradado_sin_nombre_26"/>
    <linearGradient id="Degradado_sin_nombre_33" data-name="Degradado sin nombre 33" x1="-240.35" y1="330.9" x2="-227.8" y2="341.23" gradientTransform="matrix(-0.87, -0.5, 0, -1, -141.13, 281.56)" xlink:href="#Degradado_sin_nombre"/>
    <linearGradient id="Degradado_sin_nombre_34" data-name="Degradado sin nombre 34" x1="-253.81" y1="338.91" x2="-222.81" y2="325.25" gradientTransform="matrix(-0.87, -0.5, 0, -1, -123.09, 291.52)" xlink:href="#Degradado_sin_nombre_26"/>
    <linearGradient id="Degradado_sin_nombre_35" data-name="Degradado sin nombre 35" x1="-242.1" y1="325.13" x2="-221.83" y2="335.78" gradientTransform="matrix(-0.87, -0.5, 0, -1, -123.09, 291.52)" xlink:href="#Degradado_sin_nombre"/>
    <linearGradient id="Degradado_sin_nombre_36" data-name="Degradado sin nombre 36" x1="-236.92" y1="346.14" x2="-233.75" y2="336.88" gradientTransform="matrix(-0.87, -0.5, 0, -1, -141.13, 295.27)" xlink:href="#Degradado_sin_nombre_26"/>
    <linearGradient id="Degradado_sin_nombre_37" data-name="Degradado sin nombre 37" x1="-235.57" y1="337.55" x2="-233.96" y2="343.15" gradientTransform="matrix(-0.87, -0.5, 0, -1, -141.13, 295.27)" xlink:href="#Degradado_sin_nombre"/>
    <linearGradient id="Degradado_sin_nombre_38" data-name="Degradado sin nombre 38" x1="-236.92" y1="346.14" x2="-233.75" y2="336.88" gradientTransform="matrix(-0.87, -0.5, 0, -1, -141.13, 299.96)" xlink:href="#Degradado_sin_nombre_26"/>
    <linearGradient id="Degradado_sin_nombre_39" data-name="Degradado sin nombre 39" x1="-235.57" y1="337.55" x2="-233.96" y2="343.15" gradientTransform="matrix(-0.87, -0.5, 0, -1, -141.13, 299.96)" xlink:href="#Degradado_sin_nombre"/>
  </defs>
  <g id="base">
    <g>
      <path d="M170.21,220c4.85,2.85,4.85,7.39.08,10.24L98.41,272.07c-4.85,2.85-12.72,2.85-17.57,0L8.54,230.21c-4.85-2.85-4.94-7.39-.08-10.24l71.88-41.86c4.85-2.85,12.72-2.85,17.57,0Z" fill="none" stroke-miterlimit="10" stroke-width="0.42" stroke="url(#Degradado_sin_nombre)"/>
      <path d="M170.05,206.88c4.84,2.85,4.84,7.37.08,10.22L98.39,258.88c-4.84,2.85-12.69,2.85-17.53,0L8.7,217.1c-4.84-2.85-4.93-7.37-.08-10.22L80.36,165.1c4.84-2.84,12.69-2.84,17.53,0Z" stroke-miterlimit="10" stroke-width="0.42" fill="url(#Degradado_sin_nombre_2)" stroke="url(#Degradado_sin_nombre_3)"/>
      <g opacity="0.5">
        <path d="M151.33,182.86c3.74,2.19,3.8,5.66.07,7.85L95.94,222.88a14.88,14.88,0,0,1-13.59,0L26.51,190.71c-3.73-2.19-3.8-5.66-.06-7.85L81.9,150.7a14.88,14.88,0,0,1,13.59,0Z" fill="url(#Degradado_sin_nombre_4)"/>
      </g>
      <path d="M154.17,186.79V187a.57.57,0,0,1-.07.33c0,.06-.06.19-.06.25s-.07.2-.07.26-.06.13-.12.26-.07.19-.13.32-.07.13-.13.19a27.73,27.73,0,0,0-.52.65l-.06.06-.39.39a1.27,1.27,0,0,1-.32.25c-.07.07-.19.13-.26.2a.62.62,0,0,0-.32.25,1.47,1.47,0,0,0-.39.26L95.88,222.88a4.21,4.21,0,0,1-.9.45c-.07.06-.19.06-.26.13a3.29,3.29,0,0,1-.77.25c-.07,0-.2.07-.26.07s-.32.06-.51.13-.26.06-.39.13-.32.06-.52.13-.25.06-.38.06a6.87,6.87,0,0,1-1.1.13h-.32c-.19,0-.45.06-.64.06H88a1.17,1.17,0,0,1-.45-.06c-.13,0-.32-.07-.45-.07s-.26-.06-.45-.06-.33-.06-.52-.06-.26-.07-.39-.07-.38-.06-.58-.13-.19-.06-.32-.06c-.32-.13-.71-.2-1-.32l-.51-.2c-.07-.06-.2-.06-.26-.13-.26-.12-.45-.25-.71-.38L26.45,190.71c-1.87-1.09-2.83-2.51-2.83-4l.06,14.74c0,1.41,1,2.89,2.84,4l55.83,32.17c.26.13.46.26.71.39.07.06.2.06.26.13s.26.12.45.19h.07a5.57,5.57,0,0,0,1,.32h.06c.07,0,.19.06.26.06a1.74,1.74,0,0,0,.58.13c.06,0,.13,0,.13.07a.48.48,0,0,1,.25.06c.2,0,.33.07.52.07a.24.24,0,0,1,.19.06h.26c.13,0,.32.07.45.07h2.32a2,2,0,0,0,.64-.07h.33c.38-.06.7-.06,1.09-.13H92c.12,0,.19-.06.32-.06s.38-.07.51-.13a1,1,0,0,0,.39-.13c.19-.06.32-.06.51-.13h.13c.07,0,.13-.06.2-.06.25-.07.51-.2.77-.26.06-.06.19-.06.26-.13.32-.13.64-.32.9-.45l55.45-32.17c.07,0,.07-.06.13-.06l.26-.19a.64.64,0,0,0,.32-.26c.06-.06.19-.13.26-.19a1.22,1.22,0,0,0,.32-.26.06.06,0,0,0,.06-.07l.33-.32.06-.06.19-.19a.24.24,0,0,0,.07-.13.94.94,0,0,1,.26-.32c0-.07.06-.07.06-.13a.07.07,0,0,1,.07-.07c.06-.13.12-.19.12-.32s.07-.13.07-.19v-.07a.39.39,0,0,0,.06-.25c0-.07.07-.13.07-.2v-.06a.61.61,0,0,1,.06-.32v-.26Z" opacity="0.5" fill="url(#Degradado_sin_nombre_5)" style="isolation: isolate"/>
      <g opacity="0.5">
        <path d="M135.94,183.83c2.83,1.61,2.83,4.31.06,5.92L94.08,214.13a11.09,11.09,0,0,1-10.24,0L41.52,189.75c-2.83-1.68-2.83-4.31-.06-5.92l41.93-24.38a11.46,11.46,0,0,1,10.24,0Z" fill="none" stroke-miterlimit="10" stroke-width="0.42" stroke="url(#Degradado_sin_nombre_6)"/>
      </g>
      <g opacity="0.5">
        <path d="M151.14,182.8c3.74,2.19,3.74,5.66.06,7.85l-55.32,32.1a14.75,14.75,0,0,1-13.53,0l-55.64-32.1c-3.74-2.19-3.8-5.66-.07-7.85L82,150.7a14.73,14.73,0,0,1,13.52,0Z" fill="none" stroke-miterlimit="10" stroke-width="0.42" stroke="url(#Degradado_sin_nombre_7)"/>
      </g>
    </g>
  </g>
  <g id="cube">
    <g>
      <path d="M153.43,110.43v.29a.19.19,0,0,1-.06.17c0,.06-.06.12-.06.18s-.05.11-.05.17-.06.11-.12.17a.21.21,0,0,1-.06.12c-.05.06-.11.17-.17.23s-.06.11-.11.11-.18.18-.23.29l-.06.06a3.77,3.77,0,0,1-.46.4c-.06.06-.12.06-.17.12s-.06.05-.12.05-.06.06-.11.06l-19.34,11.24.06-13.83a1.79,1.79,0,0,0-.29-1c-.06,0-.06-.11-.11-.23a1.38,1.38,0,0,0-.23-.29,3.9,3.9,0,0,0-1.27-1L93.76,86.47l-.4-.23a3,3,0,0,0-.46-.17h-.12c-.06,0-.06,0-.11-.06l-.46-.17c-.06,0-.06,0-.12-.06H92a.21.21,0,0,1-.17-.06H91.8a.48.48,0,0,0-.28-.06h-.41c-.11,0-.17,0-.28,0H90.6a.42.42,0,0,1-.29-.06H88.12a.68.68,0,0,0-.34.06h-.06c-.12,0-.23,0-.35,0s-.11,0-.11.06H87.2c-.11,0-.23.06-.34.06l-.64.17h-.06s0,.06-.11.06l-.52.17a.43.43,0,0,0-.23.12c-.06,0-.11,0-.23.11l-.34.18L48.25,107.73c-.06,0-.12,0-.18.11a.05.05,0,0,0,0,.06c-.06.06-.12.06-.18.11s-.11.06-.11.12l-.06.06c-.06,0-.11,0-.17.11l-.12.12-.29.28c-.05,0-.05.06-.05.12v.06a.76.76,0,0,0-.18.23c0,.06,0,.06,0,.11v.06c-.06.06-.06.12-.12.17s-.06.06-.06.12-.05.11-.05.17v.12a.05.05,0,0,1-.06,0v.41L46.46,124l-3.05-1.79-16.28-9.33-.52-.35a1,1,0,0,0-.23-.17.43.43,0,0,1-.23-.23,2.74,2.74,0,0,1-.4-.46,2.18,2.18,0,0,1-.46-1.38l-.12,59.91A3.18,3.18,0,0,0,27,172.82L85,206.29a6.06,6.06,0,0,0,.86.4h.11a3.82,3.82,0,0,0,.7.23h.05a.22.22,0,0,1,.18.06c.11.05.28.05.4.11h.29c.11,0,.23.06.34.06h.29a.68.68,0,0,1,.34.06h2.25a3.86,3.86,0,0,0,.75-.12h0a.22.22,0,0,0,.18-.06c.11,0,.23-.05.34-.05s.17-.06.23-.06.23-.06.35-.12h0c.06,0,.06,0,.12-.05l.52-.18c.06,0,.11,0,.17,0,.23-.12.4-.18.58-.29l57.54-33.47a.05.05,0,0,0,0-.06c.06-.06.12-.06.18-.11s.17-.12.23-.18.11-.11.17-.11l.17-.17.06-.06.06-.06.28-.29.06-.05a.06.06,0,0,1,.06-.06c.06-.06.11-.17.17-.23a.21.21,0,0,0,.06-.12v-.06c.06,0,.06-.11.11-.17s.06-.06.06-.11v-.06c0-.06.06-.12.06-.17s.06-.06.06-.12v-.34l.06-59.91C153.43,110.38,153.43,110.43,153.43,110.43Zm-94.31,8.76,25.55-14.86a2,2,0,0,1,.63-.29c.06,0,.12-.06.17-.06l.52-.17c.06,0,.12-.06.17-.06s.24-.06.35-.11.17-.06.23-.06.23-.06.35-.06.17-.06.23-.06c.23,0,.46,0,.69-.11h2.18a.72.72,0,0,1,.35.06.61.61,0,0,1,.29,0c.11,0,.23.06.34.06s.17.06.29.06a1.2,1.2,0,0,1,.4.11c.06,0,.17.06.23.06a3.73,3.73,0,0,1,.69.23.19.19,0,0,1,.12.06,6,6,0,0,1,.86.4l25.84,15,10.58,6.11L94,146.44a2.27,2.27,0,0,0-.4.23,1.69,1.69,0,0,1-.23.11c-.06,0-.12.06-.18.06l-.51.17a3.59,3.59,0,0,1-.75.23.72.72,0,0,1-.35.06c-.11,0-.17.06-.28.06s-.35,0-.52,0H89.33a6,6,0,0,1-.92,0,.72.72,0,0,1-.35-.06l-.92-.17s-.17-.06-.23-.06H86.8c-.06,0-.12-.06-.23-.06h-.06l-.52-.17h-.06c-.05,0-.05,0-.11-.06-.29-.11-.58-.29-.86-.4l-36.37-21Z" fill-opacity="0.8" fill="url(#Degradado_sin_nombre_8)"/>
      <path d="M121,119.13,94.19,134.68a10.48,10.48,0,0,1-9.45,0L57.61,119.07,84.4,103.52a5.93,5.93,0,0,1,.63-.35.23.23,0,0,1,.17,0,2.17,2.17,0,0,0,.52-.23c.06,0,.12-.06.17-.06s.23-.06.35-.12a2.35,2.35,0,0,1,.29-.06.8.8,0,0,1,.34-.05c.06,0,.18-.06.23-.06.23-.06.52-.06.75-.12h2a.42.42,0,0,1,.29.06.68.68,0,0,1,.34.06.49.49,0,0,1,.29.06c.12,0,.23.05.35.05s.17.06.29.06.28.06.4.12.17.06.23.06c.23,0,.46.17.69.23.06,0,.06,0,.12,0,.34.12.63.29.92.41Z" fill="#84a2fc"/>
      <path d="M151.62,107.72l-19.7-11.34L93.61,74.26a9.87,9.87,0,0,0-9,0l-41.42,24L27,107.72a3.19,3.19,0,0,0-1.84,2.6,2.61,2.61,0,0,0,.46,1.38c.11.17.29.34.4.52l.23.23a1.24,1.24,0,0,0,.23.17L27,113l16.19,9.33,3,1.78,2.25,1.27L85,146.43a6.07,6.07,0,0,0,.86.41.21.21,0,0,1,.12.06l.52.17c.11.06.17.06.28.11h.12c.06,0,.17.06.23.06l.92.17a.72.72,0,0,1,.35.06H89.7a4.79,4.79,0,0,0,.92-.06h.17c.17,0,.35,0,.52,0s.17-.06.29-.06.23-.06.34-.06a2.75,2.75,0,0,0,.75-.23l.52-.17c.06,0,.11-.06.17-.06s.12-.06.23-.12a2.29,2.29,0,0,0,.41-.23l36.11-21,1.79-1,.34-.17L151.62,113c.06,0,.06,0,.12,0a.58.58,0,0,0,.28-.23,1.52,1.52,0,0,0,.46-.41l.06-.06c.12,0,.17-.17.23-.28l.12-.12a4.09,4.09,0,0,0,.4-.69,2.86,2.86,0,0,0,.12-.63v-.12C153.52,109.39,152.89,108.47,151.62,107.72Zm-19.7,3.86a4.81,4.81,0,0,1-1.44,1.33l-10.95,6.33L94,134.11a9.89,9.89,0,0,1-9,0L59.11,119.19l-10.89-6.28a3.06,3.06,0,0,1-1.84-2.59v-.12a.61.61,0,0,1,0-.29v0c0-.06.06-.12.06-.18s.06-.11.06-.17.06-.17.11-.29v-.06a1.36,1.36,0,0,1,.23-.34c0-.06.06-.06.06-.12s.18-.17.29-.28l.12-.12a2,2,0,0,1,.23-.17l.11-.12a1.23,1.23,0,0,1,.29-.17c.06-.06.11-.06.17-.12L84.68,86.53l.35-.18c.06-.06.11-.06.23-.11s.17-.06.23-.12L86,86c.06,0,.11-.06.17-.06s.4-.11.63-.17a.74.74,0,0,1,.35-.06h.06a.2.2,0,0,0,.17-.06c.12,0,.23,0,.35,0h.05c.12,0,.23-.06.35-.06h.06c.23,0,.46-.06.69-.06h1.38a.42.42,0,0,1,.29.06.52.52,0,0,1,.29.06.61.61,0,0,1,.29,0h0a.49.49,0,0,1,.29.06h.06c.11,0,.17.06.29.06h0c.06,0,.12.06.23.06s.06,0,.12,0a3.7,3.7,0,0,1,.46.18.21.21,0,0,1,.12,0c0,.06,0,0,0,.06.18.06.29.12.46.17a1.46,1.46,0,0,1,.41.24l36.75,21.19a4,4,0,0,1,1.27,1c.05.12.17.17.23.29a.32.32,0,0,1,.11.23,2.36,2.36,0,0,1,.29,1A2.58,2.58,0,0,1,131.92,111.58Z" fill="url(#Degradado_sin_nombre_9)"/>
      <path d="M151.74,107.84,132,96.49,93.68,74.38a9.92,9.92,0,0,0-9,0l-41.46,24L27,107.84a3.18,3.18,0,0,0-1.85,2.59,2.61,2.61,0,0,0,.46,1.38c.12.17.29.34.41.52l.23.23a.8.8,0,0,0,.23.17l.52.34,16.2,9.33,3.06,1.79,2.25,1.26,36.55,21.08a6.73,6.73,0,0,0,.87.4.17.17,0,0,1,.11.06l.52.17c.12.06.18.06.29.11H87c.06,0,.17.06.23.06l.92.18a.85.85,0,0,1,.35.05h1.27a5.74,5.74,0,0,0,.92-.05h.17c.17,0,.35-.06.52-.06s.17-.06.29-.06.23-.06.34-.06a2.75,2.75,0,0,0,.75-.23l.52-.17c.06,0,.12-.06.18-.06s.11-.06.23-.11.23-.12.4-.23l36.16-21,1.78-1,.35-.17,19.37-11.23c.06,0,.06-.06.12-.06a.55.55,0,0,0,.29-.23,1.6,1.6,0,0,0,.46-.4l.06-.06a.58.58,0,0,0,.23-.28L153,112a4.17,4.17,0,0,0,.41-.69,3.49,3.49,0,0,0,.11-.63v-.12C153.65,109.5,153,108.58,151.74,107.84Z" fill="none" stroke-miterlimit="10" stroke-width="0.42" stroke="url(#Degradado_sin_nombre_10)"/>
    </g>
  </g>
  <g id="people">
    <g>
      <g>
        <path d="M119.77,108.46c1.84,1.1,1.84,2.85,0,4L92.59,128.57a7.13,7.13,0,0,1-6.66,0L58.56,112.41c-1.84-1.1-1.87-2.85,0-4L85.74,92.3a7.13,7.13,0,0,1,6.66,0Z" fill="url(#Degradado_sin_nombre_11)"/>
        <path d="M119.77,108.46c1.84,1.1,1.84,2.85,0,4L92.59,128.57a7.13,7.13,0,0,1-6.66,0L58.56,112.41c-1.84-1.1-1.87-2.85,0-4L85.74,92.3a7.13,7.13,0,0,1,6.66,0Z" fill="none" stroke-miterlimit="10" stroke-width="0.42" stroke="url(#Degradado_sin_nombre_12)"/>
      </g>
      <g clip-path="url(#clip-path)">
        <g>
          <path d="M91.93,81.23A2.22,2.22,0,0,0,89.87,80,1.72,1.72,0,0,0,91.93,81.23Z" fill="#000272"/>
          <path d="M89,81.55a14.06,14.06,0,0,1,1.42-2.11s2.12.31,1.85.79a5.55,5.55,0,0,1-.7,1.1,13.71,13.71,0,0,1-.3,1.65c-.21.69-.64,1.11-.69,1a1.64,1.64,0,0,1,0-.5,7.21,7.21,0,0,0,0-1.14,1.56,1.56,0,0,0-.44,1.14c0,.06,0,.12,0,.18-.11,1.27-.43,2.22-.9,1.54-.89-1.2-.43-3-.29-3.51Z" fill-rule="evenodd" fill="url(#Degradado_sin_nombre_13)"/>
          <path d="M97.48,60.73s-2.37-.53-3.38,4.17-1,6.61-1.69,8.25S89.87,80,89.87,80a2.48,2.48,0,0,1,2.06,1.21s3.91-6.5,4.71-9.35S100,62.05,97.48,60.73Z" fill="#000272"/>
          <path d="M99.86,106.6s.64,1.48,0,1.85-.74.8-1.74.74-.85.27-1.22.64-4,2-4.6,1.16,1.22-1.64,1.91-2.11a8,8,0,0,0,2.32-2.75C96.58,105.65,99.86,106.6,99.86,106.6Z" fill="url(#Degradado_sin_nombre_14)"/>
          <path d="M106.25,111.41a4.38,4.38,0,0,1-.42,2.7c-.69,1-2.16,2.59-2.8,2.54s-.74-.37-.74-.37a6.52,6.52,0,0,1,.21-2.86,10.24,10.24,0,0,0,.53-2Z" fill="url(#Degradado_sin_nombre_15)"/>
          <path d="M98.49,82.93s-3-.32-4-2.54A77.32,77.32,0,0,0,94.79,91c.63,5.71,1.11,15.8,1.11,15.8a2.86,2.86,0,0,0,4,0s.58-6.65,0-10.3c0,0,.37-6.45-.26-9.67S98.49,82.93,98.49,82.93Z" fill="#000272"/>
          <path d="M96,106.81s-.53-10-1.11-15.8a68.89,68.89,0,0,1-.32-10.62A4.93,4.93,0,0,0,98,82.87c-.16,2.17-.32,8.62-.32,10.73s.43,10.47.59,14A3.14,3.14,0,0,1,96,106.81Z" fill="#1b1d76"/>
          <path d="M105.57,82.61s.31,3.33.37,8.56a40.8,40.8,0,0,0,.58,7.93,117.88,117.88,0,0,1,.32,12.05s-1.64,2.54-4.23,0c0,0-.42-8.93-.9-10.94S98.8,88.32,97.8,84.78c-.42-1.59-.53-2.17-.53-2.17S101.6,85.73,105.57,82.61Z" fill="#1b1d76"/>
          <path d="M102.61,111.15s-.42-8.93-.9-10.94S98.8,88.32,97.8,84.77A7.33,7.33,0,0,0,96.32,82s2.85,2,5.34,2c.1.73,1.16,8,1.42,11.2s2.38,14.27,1.8,17A3.46,3.46,0,0,1,102.61,111.15Z" fill="#1b1d76"/>
          <path d="M102.68,62.13s4.42,2.65,4.53,3,1.21,1.3-.79,5.16c0,0-2.58,4.16-1.74,8.59a23.71,23.71,0,0,0,1,3.91s-2.26,2.86-7.85.36a8.58,8.58,0,0,1-3.47-3.49,29,29,0,0,0,.36-8.07C94.3,67.23,94.3,61.55,96.83,61,96.88,61,97.57,60.3,102.68,62.13Z" fill="url(#Degradado_sin_nombre_16)"/>
          <path d="M94.15,80.55a25.21,25.21,0,0,0,.48-8.83c-.48-4.81-.27-10.41,2.32-11,0,0,.32-.32,1.91,0l.26.21s-3.75,3.54-2.75,10.15a37,37,0,0,1,.37,11.2C96.58,83.45,94.47,81.39,94.15,80.55Z" fill="#2e2d7b"/>
          <path d="M107.24,65c.11.37,1.21,1.32-.79,5.23a15.88,15.88,0,0,0-1.54,8.67,15.45,15.45,0,0,0,.85,3.7c.37,1-1.22,2.11-3,2.43-2.17.42-3.8-.26-4.07-1.58-1.11-5.45-.84-9,.48-11.79a82.55,82.55,0,0,0,3.75-9.3l-.48-.48c.06,0,.11,0,.16,0S107.13,64.61,107.24,65Z" fill="#2e2d7b"/>
          <path d="M104.19,66A16.63,16.63,0,0,1,103,68.07c-.16.27-1,1.48-1.11,1.75-4.33,6.66-3.12,6.5-3,14.16a22.12,22.12,0,0,1-1-8.3,10,10,0,0,1,1.11-4.12,59.07,59.07,0,0,0,4-9.19l0-.22a.62.62,0,0,1,.1-.15c.22.15.59.31,1,.58C104.62,63.16,105.15,64.22,104.19,66Z" fill="#1b1d76"/>
          <path d="M96.53,71.4A46.39,46.39,0,0,1,97,76.9a33.34,33.34,0,0,1-.32,5.34C97,74.36,95.11,73.41,95,68.07a9.91,9.91,0,0,1,.58-3.91c1-2.38,2.11-3.43,2.53-3.49h.16l.9.8A11.78,11.78,0,0,0,96.53,71.4Z" fill="#1b1d76"/>
          <path d="M101.23,60.36s-3.48,1.53-2.16,4.17l-1.64.74S96.21,60.73,101.23,60.36Z" fill="#fff"/>
          <path d="M102.74,60.24a8.62,8.62,0,0,0,1.4-2.68c1.06-3.17-1.32-4.44-1.32-4.44-1.56-.71-2.38-.2-3.48.5a13.07,13.07,0,0,1-1.33.77c-1.44.69-1.06,4.47-.88,6.28,0,.12,0,.22,0,.32.1,1,.6,1.38,1.3,1.41a2,2,0,0,1,0,1.45c-.16.37,1,.74,1,.74,2.48.31,4.12-1.48,3.54-2.33A2.29,2.29,0,0,1,102.74,60.24Z" fill-rule="evenodd" fill="url(#Degradado_sin_nombre_17)"/>
          <path d="M102.77,60.2a5.21,5.21,0,0,0,1.74-4.7,3.37,3.37,0,0,0-2.75-2.81,3.81,3.81,0,0,0-4.44,2.17c-.31.74-.47,2.27,2.59,1.74.43-.1,1.59-.15,2,.27a1.62,1.62,0,0,1,.16,1.64c-.21.47.21.58.31.47s.74-1.53,1.27-.9S102.82,60.09,102.77,60.2Z" fill="#2e2d7b"/>
          <path d="M102.77,60.2c0-.11,1.27-1.59.79-2.12s-1.16.8-1.27.9-.53,0-.31-.47a1.62,1.62,0,0,0-.16-1.64c-.32-.37-1.38-.27-2-.27.53-.26,1.53-.31,1.9-1.1a3,3,0,0,1,1.91-1.7,3.58,3.58,0,0,1,.79,1.7A5,5,0,0,1,102.77,60.2Z" fill="#2e2d7b"/>
          <path d="M102.66,61.57a4.44,4.44,0,0,1-3.59,3l.69,2.06S105,64.32,102.66,61.57Z" fill="#fff"/>
          <path d="M96,54.28a3.08,3.08,0,0,0,4,2.43,4,4,0,0,0,2.59-1.9,1.58,1.58,0,0,1,1.21-.9,3.68,3.68,0,0,0-3.22-1.37,6.08,6.08,0,0,0-2.69,1.16C97.59,53.86,96.85,54.54,96,54.28Z" fill="#2e2d7b"/>
          <path d="M101.66,99.68v-6l9.14-5.28v6a1,1,0,0,1-.37.85l-9.14,5.28A1,1,0,0,0,101.66,99.68Z" fill="#000484"/>
          <path d="M100.39,91.43c-.74-.42-1.32-.1-1.32.74v6a2.86,2.86,0,0,0,1.32,2.27c.74.42,1.32.11,1.32-.74v-6A3.06,3.06,0,0,0,100.39,91.43Z" fill="#2d2b98"/>
          <path d="M100.39,91.43c-.74-.42-1.32-.1-1.32.74v6a2.86,2.86,0,0,0,1.32,2.27c.74.42,1.32.11,1.32-.74v-6A3.06,3.06,0,0,0,100.39,91.43Z" fill="#2d2b98"/>
          <path d="M100.28,91.91a2.15,2.15,0,0,1,1,1.74v.48l-2-1.22v-.42C99.28,91.8,99.76,91.54,100.28,91.91Z" fill="#292cbe"/>
          <path d="M100.28,91.91a1.26,1.26,0,0,1,.32.26l-1.32.69v-.37C99.28,91.8,99.76,91.54,100.28,91.91Z" fill="#000484"/>
          <path d="M108.58,86h0a0,0,0,0,0,0-.05h.64s.1.05.16.11a3.82,3.82,0,0,1,.42.31l.05.06,0,0c.06,0,.06.1.11.1l.11.11s0,0,0,.11,0,0,0,.1,0,0,0,.11.06,0,.06.1.05.06.05.11,0,0,0,.1a.18.18,0,0,0,0,.11v.11a.17.17,0,0,0,.06.15.19.19,0,0,0,0,.16v4l-9,5.6V93.65a2.78,2.78,0,0,0-.11-.63,3.36,3.36,0,0,0-.26-.63,2,2,0,0,0-.43-.53,3.1,3.1,0,0,0-.47-.43c-.11-.05-.16-.1-.27-.1h-.05s-.16,0-.21,0h-.21c-.05,0-.16,0-.21,0Z" fill="#292cbe"/>
          <path d="M105.88,94.24l-.15-.11v1.43l.15.1Z" fill="#2e3192"/>
          <path d="M107.42,93.34l-.16-.11-1.53.9.15.11Z" fill="#84a2fc"/>
          <path d="M105.88,94.24v1.42l1.54-.9V93.34Z" fill="#84a2fc"/>
          <path d="M106.47,87.63l-.37-.21v.74l.37.26Z" fill="#000484"/>
          <path d="M103.77,88.74V90l-.37-.21V88.53Z" fill="#2e2d7b"/>
          <path d="M103.72,88.32,106.1,87l.37-.21.37.21-.37.22-2.33,1.37-.37.16-.37-.21Z" fill="#1b1d76"/>
          <path d="M103.77,88.74V90l.37-.21V89l2.33-1.37v.79l.37-.21V87l-.37.22-2.33,1.37Z" fill="#292cbe"/>
          <path d="M107.58,84.93s.37,3.28-1.06,4c-1.69.9-2.17,1-2.22.53s1.32-2.27.63-2.27c-.42,0-.42.74-.58,1.05s-.53.58-.37-.84a7.37,7.37,0,0,1,1.43-2.8C105.73,84,107.58,84.93,107.58,84.93Z" fill="url(#Degradado_sin_nombre_18)"/>
          <path d="M107.07,64.81s-2.85,1.48-2.64,3.75c0,0,1.32,7.13,1.11,8.14a56.79,56.79,0,0,0-.42,8.24s1.85,1.11,2.85-.21c0,0,1.48-8.61,1.21-11.41S108.5,65.86,107.07,64.81Z" fill="#1b1d76"/>
          <path d="M103.4,88.53l1.32-.74,0,.42-.9.53Z" fill="#1b1d76"/>
        </g>
      </g>
      <g clip-path="url(#clip-path-2)">
        <g>
          <path d="M66.7,66a2.53,2.53,0,0,0,2.12-1.08,1.58,1.58,0,0,1-1.4-.16.27.27,0,0,1,.31-.41,1.65,1.65,0,0,0,1-.16,1.91,1.91,0,0,1,1.3-.2,1.62,1.62,0,0,0,.83.05L76.16,63,76,57.06c-.1-1.76-.2-3.11.52-3.93.93-1,2.74-.83,3,1.13,0,0,.62,8.64-.36,10.24,0,.06-.26.42-.31.42-1.35,2-8,1.08-8,1.08h0a3.31,3.31,0,0,0-.67.37,3.7,3.7,0,0,1-2.48.57C66.59,66.42,66.39,66,66.7,66Z" fill="url(#Degradado_sin_nombre_19)"/>
          <path d="M79.11,52.56c.41.31.72,1.76.88,3.51a36.37,36.37,0,0,1-.42,7.87c-.15.67-.1,3-8.32,2.22-.16,0,.72-1.66-.42-2.53l5.28-.78s-.31-7.55-.26-8.33C76.11,52.25,77.92,51.73,79.11,52.56Z" fill="#2e2d7b"/>
          <path d="M82.47,73.56s.47-1.25-1.19,5.27c0,0-1.6,5-.78,8.12.63,2.23.78,3.67-1.44,10.92-.31,1,1.13,2.89-1.4,3.67-1.76.57-.78,3.26-3.31,2-.88-.41.83-2.43,1.55-3.72.52-1,.78-1.24.57-4.55-.1-1.19.26-7.35-.67-9.78S74.25,74,76.06,69.26C76.11,69.26,78.64,73,82.47,73.56Z" fill="url(#Degradado_sin_nombre_20)"/>
          <path d="M79.06,98s.82,1.24.31,2.12-1,1.09-1.45,2-.41,1.39-1.76,1.7-2.69.52-2.38-.36A9.76,9.76,0,0,1,75,101.33s0,1.45,1.71.73C77.82,101.54,79.32,99.26,79.06,98Z" fill="#2e2d7b"/>
          <path d="M79.37,100a14.45,14.45,0,0,0-.42,2.43l-.51.36a9.78,9.78,0,0,0,.1-1.81S79.32,100,79.37,100Z" fill="#2e2d7b"/>
          <path d="M78.69,100.87l-.51.67-.05,1,.36.31Z" fill="#2e2d7b"/>
          <path d="M84.8,72.94a15.19,15.19,0,0,1,.88,9s-.93,5.07.2,8c.83,2.12,1.56,3.62-.56,10.5-.26.78,1.86,1-.37,3.21-.88.83-1.29,4.35-3.25,3.1-.78-.51-.21-1.08.77-3.56A9.13,9.13,0,0,0,83,98.54c-.41-2.38-.57-7.19-1.71-9.52s-3.57-9.88-3-15.46C78.23,73.56,83.25,75.62,84.8,72.94Z" fill="url(#Degradado_sin_nombre_21)"/>
          <path d="M85.32,100.81s1,1.09.62,2.07A20.55,20.55,0,0,0,84.85,105c-.26.88-.15,1.45-1.45,2s-2.58.93-2.43,0a10.77,10.77,0,0,1,.83-2.28s.26,1.4,1.81.42C84.64,104.49,85.78,102,85.32,100.81Z" fill="#2e2d7b"/>
          <path d="M86,102.73a15,15,0,0,0,0,2.43l-.47.41a12.67,12.67,0,0,0-.15-1.81A8.88,8.88,0,0,1,86,102.73Z" fill="#2e2d7b"/>
          <path d="M85.42,103.66l-.36.77,0,.94.41.25Z" fill="#2e2d7b"/>
          <path d="M86.09,68.44s2.38,2.89,1,8.69A68.86,68.86,0,0,0,85.88,87s-6.46,2.12-10.39-1.81c0,0-1.86-11.27.88-16.55C76.37,68.54,81.13,72.73,86.09,68.44Z" fill="#2e2d7b"/>
          <path d="M88.52,56.8s-1.86-3.52-9.93-4.86c0,0-1.29-.57-1.34,3.56a4.33,4.33,0,0,1-1.14,2.13c-.47.51-1.71,2.58.67,5.12a21.34,21.34,0,0,1,0,6.72C76,72.16,80.45,73.14,85,72.83c.56,0,1.81-.36,1.44-2.33s-1.39-5.32-.31-8.84S89,58.61,88.52,56.8Z" fill="#eaeaea"/>
          <path d="M84.75,53.44s5.07,2.12,3.77,4.34-3.77,6-2.07,10.66c.93,2.58,1.09,4.34-1.65,5-4.09.88-6.73,1.24-5.07-7.65S82.42,54.26,84.75,53.44Z" fill="#84a2fc"/>
          <path d="M82,52.61s-5.74-.52-4.19,19.29c.06.67-2.43-.31-2.43-1.71,0-1,1.35-3,1.19-4.81a10,10,0,0,0-.67-3.82,4.67,4.67,0,0,1,.78-5.28c.72-.93.1-3.83,1.24-4.45S82,52.61,82,52.61Z" fill="#84a2fc"/>
          <path d="M84.9,53.13l2.23,1.65s-.83-.26-2.18,1.29c-.57.68-2.32,2.38-2.32,2.38-.26.47.31,1.66.05,2.18-1.45,2.89-3.11,6.62-3.42,10.08C79.21,70.76,79.37,55.56,84.9,53.13Z" fill="#2e2d7b"/>
          <path d="M80.4,52.45a33.73,33.73,0,0,0-2.79,17.43,54.52,54.52,0,0,1-1.24-11c0-1.24,1.14-.31,1.34-1.5s-.83-4.35.57-5.64A8.18,8.18,0,0,1,80.4,52.45Z" fill="#2e2d7b"/>
          <path d="M79.37,52.3A3.54,3.54,0,0,0,79,55.71l1.55-.41a7.65,7.65,0,0,1,0-3.73A3.45,3.45,0,0,0,79.37,52.3Z" fill="#84a2fc"/>
          <path d="M80.56,55.25,81,56.64s3.93-.46,4.24-3.51C85.21,53.13,82.37,55.61,80.56,55.25Z" fill="#84a2fc"/>
          <path d="M82.83,50.33s.52-1.24,1.19-.83c.21.16.47.42,0,1s-1.13,1.19-1.7,1.09Z" fill="#f1b287"/>
          <path d="M81.69,43.61a5.65,5.65,0,0,1,.78,4.29c-.67,2.12-1.4,2.28-1.55,3.42s.41.56-.36,1.6-1.66,1.5-2,2.79,0,1.45-.46,2.17a6.17,6.17,0,0,1-1.66,1.5c-.21.16-.36-1.5-.15-3.1s-.16-2.48.77-3.67,1-1,1-2.43-.36-1.66.16-2.74,1.19-1.66,1-2S81.69,43.61,81.69,43.61Z" fill="#2e3192"/>
          <path d="M80.19,45.42a7.28,7.28,0,0,1,3.32,5.74c0,.52-.83,3-1.82,2.59,0,0-4.7-5.49-2.84-8.38,1.09-1.71,3.52-3.11,6.31-.88Z" fill="#2e3192"/>
          <path d="M78.9,47.49c.21-2.33,1-2.54,1-2.54,3.37-1.5,5.33,2,4.25,4.55a4.23,4.23,0,0,1-.66,1.1A2.72,2.72,0,0,0,84,53.23c.83.93-2.27,2.27-2.27,2.27-2.9.57-2.38-1.29-2.18-1.75a2.78,2.78,0,0,0,.21-1.45,2.09,2.09,0,0,1-.46,0c-1.5-.37-1.19-3-1-3.57a2.22,2.22,0,0,1,.42-.8A.8.8,0,0,0,78.9,47.49Z" fill-rule="evenodd" fill="url(#Degradado_sin_nombre_22)"/>
          <path d="M80,45.88s3.51-1.29,3.26,5.44l0,.36a5.51,5.51,0,0,0,3-4.5s-.1-3.83-3.67-3.42C82.68,43.76,80.3,44.49,80,45.88Z" fill="#2e3192"/>
          <path d="M80,45.88s-.83-.36-1.5,1.71c0,0,.26-5.9,5.79-3.72C84.28,43.92,80.92,43.87,80,45.88Z" fill="#2e3192"/>
          <path d="M85.16,44.38a5.64,5.64,0,0,1,1.71,4c-.21,2.17-.83,2.53-.78,3.67s.83,1,.26,2.12-1.19,1.35-1.19,2.69a3.65,3.65,0,0,1-.36,2.17c-.36.83-.52,1.56-.78,1.61-.77,0-1.19-1.14-1.34-2.74s-.67-2.38-.05-3.73.77-1.14.41-2.58-.67-1.56-.41-2.69.1-1.76-.16-2.07S85.16,44.38,85.16,44.38Z" fill="#2e3192"/>
          <path d="M80.87,69.11l-7,4.08-8.74-5L72.18,64Z" fill="url(#Degradado_sin_nombre_23)"/>
          <path d="M77,70.35a2.65,2.65,0,0,0,2-1.29,1.52,1.52,0,0,1-1.4-.06c-.15-.1,0-.51.31-.46a2.15,2.15,0,0,0,1-.21A1.77,1.77,0,0,1,80.25,68a2.21,2.21,0,0,0,.82,0l5.18-1.6-.78-5.85c-.26-1.7-.46-3.1.16-4a1.7,1.7,0,0,1,3.1.88s1.4,8.59.57,10.19c0,0-.21.41-.31.47-1.14,2.06-7.81,1.75-7.81,1.75h0a3.39,3.39,0,0,0-.62.42,3.52,3.52,0,0,1-2.43.77C77,70.81,76.73,70.4,77,70.35Z" fill="url(#Degradado_sin_nombre_24)"/>
          <path d="M88.16,55.87c.47.26.88,1.7,1.19,3.46a37.66,37.66,0,0,1,.31,7.92c-.1.67.16,3-8.07,3-.15,0,.57-1.71-.62-2.54l5.17-1.24s-1-7.5-1-8.28C85.16,55.87,86.92,55.14,88.16,55.87Z" fill="#2e2d7b"/>
        </g>
      </g>
      <g opacity="0.2">
        <path d="M121.7,21.1s-64.45,0-64.45,0l0,89.14a2.55,2.55,0,0,0,1.4,2.06L86.2,128.9l.35.2s.09,0,.12.07l.23.1h0a3.33,3.33,0,0,0,.51.16h0s.09,0,.13,0a.94.94,0,0,0,.28.06s.06,0,.06,0a.24.24,0,0,1,.13,0c.1,0,.16,0,.26,0a.09.09,0,0,1,.09,0h.13l.22,0h1.15a1.19,1.19,0,0,0,.32,0h.15c.2,0,.35,0,.55-.07h0c.06,0,.09,0,.16,0s.19,0,.25-.07a.37.37,0,0,0,.19-.07l.26-.06h.06s.06,0,.1,0,.25-.1.38-.13.09,0,.12-.07a3.77,3.77,0,0,0,.45-.23l27.39-16.63s0,0,.06,0l.13-.1a.34.34,0,0,0,.16-.13s.1-.07.13-.1a.94.94,0,0,0,.16-.14,0,0,0,0,0,0,0l.16-.17,0,0,.09-.1s0,0,0-.06a.59.59,0,0,1,.12-.17s0,0,0-.07a0,0,0,0,1,0,0,.39.39,0,0,0,.06-.17s0-.06,0-.1v0a.21.21,0,0,0,0-.13s0-.07,0-.1v0a.3.3,0,0,1,0-.16V21.1Z" fill="url(#Degradado_sin_nombre_41)"/>
      </g>
      <g opacity="0.2">
        <path d="M87.63,63.29,59.24,46.9c-1.73-1-3.14-.19-3.14,1.81V76.38a6.94,6.94,0,0,0,3.14,5.43L87.63,98.2c1.73,1,3.13.19,3.13-1.81V68.72A6.93,6.93,0,0,0,87.63,63.29Z" fill-opacity="0.8" fill="url(#Degradado_sin_nombre_26)"/>
        <path d="M87.63,63.29,59.24,46.9c-1.73-1-3.14-.19-3.14,1.81V76.38a6.94,6.94,0,0,0,3.14,5.43L87.63,98.2c1.73,1,3.13.19,3.13-1.81V68.72A6.93,6.93,0,0,0,87.63,63.29Z" fill="none" stroke-width="0.38" stroke="url(#Degradado_sin_nombre_27)"/>
      </g>
      <g opacity="0.8">
        <path d="M86.18,63.65,57.8,47.26c-1.74-1-3.14-.19-3.14,1.81V76.74a6.91,6.91,0,0,0,3.14,5.43L86.18,98.56c1.73,1,3.14.19,3.14-1.81V69.08A6.94,6.94,0,0,0,86.18,63.65Z" fill-opacity="0.8" fill="url(#Degradado_sin_nombre_28)"/>
        <path d="M86.18,63.65,57.8,47.26c-1.74-1-3.14-.19-3.14,1.81V76.74a6.91,6.91,0,0,0,3.14,5.43L86.18,98.56c1.73,1,3.14.19,3.14-1.81V69.08A6.94,6.94,0,0,0,86.18,63.65Z" fill="none" stroke-width="0.38" stroke="url(#Degradado_sin_nombre_29)"/>
      </g>
      <g opacity="0.8">
        <path d="M86.59,66.87,56.67,49.6c-.31-.18-.57,0-.57.33v.64a1.26,1.26,0,0,0,.57,1L86.59,68.82c.31.18.56,0,.56-.33v-.63A1.29,1.29,0,0,0,86.59,66.87Z" fill-opacity="0.8" fill="url(#Degradado_sin_nombre_30)"/>
        <path d="M86.59,66.87,56.67,49.6c-.31-.18-.57,0-.57.33v.64a1.26,1.26,0,0,0,.57,1L86.59,68.82c.31.18.56,0,.56-.33v-.63A1.29,1.29,0,0,0,86.59,66.87Z" fill="none" stroke-width="0.38" stroke="url(#Degradado_sin_nombre_31)"/>
      </g>
      <g opacity="0.8">
        <path d="M67.83,60.88,56.67,54.44c-.31-.19-.57,0-.57.32V65.23a1.26,1.26,0,0,0,.57,1l11.16,6.44c.31.18.57,0,.57-.33V61.86A1.26,1.26,0,0,0,67.83,60.88Z" fill-opacity="0.8" fill="url(#Degradado_sin_nombre_32)"/>
        <path d="M67.83,60.88,56.67,54.44c-.31-.19-.57,0-.57.32V65.23a1.26,1.26,0,0,0,.57,1l11.16,6.44c.31.18.57,0,.57-.33V61.86A1.26,1.26,0,0,0,67.83,60.88Z" fill="none" stroke-width="0.38" stroke="url(#Degradado_sin_nombre_33)"/>
      </g>
      <g opacity="0.8">
        <path d="M85.86,70.84l-14-8.11c-.31-.18-.57,0-.57.33v21.7a1.26,1.26,0,0,0,.57,1l14,8.11c.32.18.57,0,.57-.33V71.82A1.24,1.24,0,0,0,85.86,70.84Z" fill-opacity="0.8" fill="url(#Degradado_sin_nombre_34)"/>
        <path d="M85.86,70.84l-14-8.11c-.31-.18-.57,0-.57.33v21.7a1.26,1.26,0,0,0,.57,1l14,8.11c.32.18.57,0,.57-.33V71.82A1.24,1.24,0,0,0,85.86,70.84Z" fill="none" stroke-width="0.38" stroke="url(#Degradado_sin_nombre_35)"/>
      </g>
      <g opacity="0.8">
        <path d="M67.83,74.58,56.67,68.14c-.31-.18-.57,0-.57.33v1.19a1.26,1.26,0,0,0,.57,1l11.16,6.44c.31.19.57,0,.57-.32V75.57A1.3,1.3,0,0,0,67.83,74.58Z" fill-opacity="0.8" fill="url(#Degradado_sin_nombre_36)"/>
        <path d="M67.83,74.58,56.67,68.14c-.31-.18-.57,0-.57.33v1.19a1.26,1.26,0,0,0,.57,1l11.16,6.44c.31.19.57,0,.57-.32V75.57A1.3,1.3,0,0,0,67.83,74.58Z" fill="none" stroke-width="0.38" stroke="url(#Degradado_sin_nombre_37)"/>
      </g>
      <g opacity="0.8">
        <path d="M67.83,79.27,56.67,72.83c-.31-.18-.57,0-.57.33v1.19a1.26,1.26,0,0,0,.57,1l11.16,6.44c.31.19.57,0,.57-.32V80.26A1.28,1.28,0,0,0,67.83,79.27Z" fill-opacity="0.8" fill="url(#Degradado_sin_nombre_38)"/>
        <path d="M67.83,79.27,56.67,72.83c-.31-.18-.57,0-.57.33v1.19a1.26,1.26,0,0,0,.57,1l11.16,6.44c.31.19.57,0,.57-.32V80.26A1.28,1.28,0,0,0,67.83,79.27Z" fill="none" stroke-width="0.38" stroke="url(#Degradado_sin_nombre_39)"/>
      </g>
    </g>
  </g>
</svg>
