<?xml version="1.0" encoding="utf-8"?>
<!-- Generator: Adobe Illustrator 25.2.1, SVG Export Plug-In . SVG Version: 6.00 Build 0)  -->
<svg version="1.1" id="Layer_1" xmlns="http://www.w3.org/2000/svg" xmlns:xlink="http://www.w3.org/1999/xlink" x="0px" y="0px"
	 viewBox="0 0 229 297" style="enable-background:new 0 0 229 297;" xml:space="preserve">
<style type="text/css">
	.st0{fill:none;stroke:url(#SVGID_1_);stroke-width:0.72;stroke-miterlimit:10;}
	.st1{fill:url(#SVGID_2_);}
	.st2{fill:url(#SVGID_3_);}
	.st3{opacity:0.5;}
	.st4{fill:none;stroke:url(#SVGID_4_);stroke-width:0.68;stroke-miterlimit:10;}
	.st5{fill:none;stroke:url(#SVGID_5_);stroke-width:0.68;stroke-miterlimit:10;}
	.st6{opacity:0.4;}
	.st7{fill:url(#SVGID_6_);}
	.st8{opacity:0.6;}
	.st9{fill:url(#SVGID_7_);}
	.st10{fill:url(#SVGID_8_);}
	.st11{fill:none;stroke:url(#SVGID_9_);stroke-width:0.63;stroke-miterlimit:10;}
	.st12{fill:url(#SVGID_10_);}
	.st13{fill:none;stroke:url(#SVGID_11_);stroke-width:0.63;stroke-miterlimit:10;}
	.st14{fill:url(#SVGID_12_);}
	.st15{fill:url(#SVGID_13_);}
	.st16{fill:url(#SVGID_14_);}
	.st17{fill:url(#SVGID_15_);}
	.st18{fill:url(#SVGID_16_);}
	.st19{fill:none;stroke:url(#SVGID_17_);stroke-width:0.472;stroke-miterlimit:10;}
	.st20{fill:url(#SVGID_18_);}
	.st21{fill:url(#SVGID_19_);}
	.st22{fill:url(#SVGID_20_);}
	.st23{fill:url(#SVGID_21_);}
	.st24{fill:url(#SVGID_22_);}
	.st25{fill:none;stroke:url(#SVGID_23_);stroke-width:0.472;stroke-miterlimit:10;}
	.st26{fill:url(#SVGID_24_);}
	.st27{fill:url(#SVGID_25_);}
	.st28{fill:url(#SVGID_26_);}
	.st29{fill:url(#SVGID_27_);}
	.st30{fill:url(#SVGID_28_);}
	.st31{fill:none;stroke:url(#SVGID_29_);stroke-width:0.472;stroke-miterlimit:10;}
	.st32{fill:none;stroke:url(#SVGID_30_);stroke-width:0.63;stroke-miterlimit:10;}
	.st33{fill:url(#SVGID_31_);}
	.st34{fill:none;stroke:url(#SVGID_32_);stroke-width:0.63;stroke-miterlimit:10;}
	.st35{fill:none;stroke:url(#SVGID_33_);stroke-width:0.63;stroke-miterlimit:10;}
	.st36{fill:url(#SVGID_34_);}
	.st37{fill:none;stroke:url(#SVGID_35_);stroke-width:0.63;stroke-miterlimit:10;}
	.st38{fill:url(#SVGID_36_);}
	.st39{fill:none;stroke:url(#SVGID_37_);stroke-width:0.63;stroke-miterlimit:10;}
	.st40{fill:url(#SVGID_38_);}
	.st41{fill:none;stroke:url(#SVGID_39_);stroke-width:0.63;stroke-miterlimit:10;}
	.st42{fill:url(#SVGID_40_);}
	.st43{fill:none;stroke:url(#SVGID_41_);stroke-width:0.63;stroke-miterlimit:10;}
	.st44{fill:url(#SVGID_42_);}
	.st45{fill:none;stroke:url(#SVGID_43_);stroke-width:0.63;stroke-miterlimit:10;}
</style>
<g id="platform">
	<g>
		
			<linearGradient id="SVGID_1_" gradientUnits="userSpaceOnUse" x1="84.5151" y1="1022.1286" x2="132.8451" y2="916.1486" gradientTransform="matrix(1 0 0 1 0 -724)">
			<stop  offset="0" style="stop-color:#FF8789"/>
			<stop  offset="0.53" style="stop-color:#84A2FC"/>
			<stop  offset="0.72" style="stop-color:#205FE3"/>
			<stop  offset="1" style="stop-color:#030F28"/>
		</linearGradient>
		<path class="st0" d="M209,222.4c5.6,3.3,5.6,8.5,0.1,11.7l-82.3,48c-5.6,3.3-14.6,3.3-20.1,0l-82.8-48c-5.6-3.3-5.7-8.5-0.1-11.7
			l82.4-48c5.6-3.3,14.6-3.3,20.1,0L209,222.4z"/>
		
			<linearGradient id="SVGID_2_" gradientUnits="userSpaceOnUse" x1="105.0474" y1="1049.2197" x2="117.0774" y2="932.1597" gradientTransform="matrix(1 0 0 1 0 -724)">
			<stop  offset="0" style="stop-color:#FF8789"/>
			<stop  offset="0.53" style="stop-color:#84A2FC"/>
			<stop  offset="0.72" style="stop-color:#205FE3"/>
			<stop  offset="1" style="stop-color:#030F28"/>
		</linearGradient>
		<path class="st1" d="M187.6,206.3c4.2,2.5,4.3,6.4,0.1,8.9l-62.9,36.5c-4.2,2.5-11.1,2.5-15.4,0l-63.3-36.5
			c-4.2-2.5-4.3-6.4-0.1-8.9l62.9-36.5c4.2-2.5,11.1-2.5,15.4,0L187.6,206.3z"/>
		
			<linearGradient id="SVGID_3_" gradientUnits="userSpaceOnUse" x1="56.3656" y1="824.0072" x2="136.1456" y2="981.6972" gradientTransform="matrix(1 0 0 1 0 -724)">
			<stop  offset="0" style="stop-color:#FF8789"/>
			<stop  offset="0.53" style="stop-color:#84A2FC"/>
			<stop  offset="0.72" style="stop-color:#205FE3"/>
			<stop  offset="1" style="stop-color:#030F28"/>
		</linearGradient>
		<path class="st2" d="M190.8,210.7v0.3c0,0.1,0,0.3-0.1,0.4c0,0.1-0.1,0.2-0.1,0.3s-0.1,0.2-0.1,0.3s-0.1,0.1-0.1,0.3
			s-0.1,0.2-0.1,0.4s-0.1,0.1-0.1,0.2c-0.1,0.1-0.2,0.3-0.3,0.4c-0.1,0.1-0.2,0.3-0.3,0.4l-0.1,0.1l-0.4,0.4
			c-0.1,0.1-0.2,0.2-0.4,0.3c-0.1,0.1-0.2,0.1-0.3,0.2c-0.2,0.1-0.3,0.2-0.4,0.3c-0.2,0.1-0.3,0.2-0.4,0.3l-62.9,36.5
			c-0.3,0.2-0.6,0.4-1,0.5c-0.1,0.1-0.2,0.1-0.3,0.1c-0.3,0.1-0.6,0.2-0.9,0.3c-0.1,0-0.2,0.1-0.3,0.1s-0.4,0.1-0.6,0.1
			s-0.3,0.1-0.4,0.1s-0.4,0.1-0.6,0.1s-0.3,0.1-0.4,0.1c-0.4,0.1-0.8,0.1-1.2,0.1h-0.4c-0.2,0-0.5,0.1-0.7,0.1h-2.1
			c-0.2,0-0.3,0-0.5-0.1c-0.2,0-0.4-0.1-0.5-0.1s-0.3-0.1-0.5-0.1s-0.4-0.1-0.6-0.1s-0.3-0.1-0.4-0.1s-0.4-0.1-0.7-0.1
			s-0.2-0.1-0.4-0.1c-0.4-0.1-0.8-0.2-1.2-0.4c-0.2-0.1-0.4-0.1-0.6-0.2s-0.2-0.1-0.3-0.1c-0.3-0.1-0.5-0.3-0.8-0.4L46,215.2
			c-2.1-1.2-3.2-2.8-3.2-4.5l0.1,16.7c0,1.6,1.1,3.3,3.2,4.5l63.3,36.5c0.3,0.1,0.5,0.3,0.8,0.4c0.1,0.1,0.2,0.1,0.3,0.1
			c0.2,0.1,0.3,0.2,0.5,0.2h0c0.4,0.2,0.8,0.3,1.2,0.4h0.1c0.1,0,0.2,0.1,0.3,0.1c0.2,0.1,0.4,0.1,0.7,0.1c0.1,0,0.2,0,0.2,0.1
			c0.1,0,0.2,0,0.3,0.1c0.2,0,0.4,0.1,0.6,0.1c0.1,0,0.2,0,0.2,0.1h0.3c0.1,0,0.4,0.1,0.5,0.1h2.6c0.2,0,0.5,0,0.7-0.1h0.4
			c0.4-0.1,0.8-0.1,1.2-0.1h0.1c0.1,0,0.2-0.1,0.4-0.1c0.2,0,0.4-0.1,0.6-0.1c0.2,0,0.3-0.1,0.4-0.1c0.2-0.1,0.4-0.1,0.6-0.1h0.1
			c0.1,0,0.2-0.1,0.2-0.1c0.3-0.1,0.6-0.2,0.9-0.3c0.1-0.1,0.2-0.1,0.3-0.1c0.3-0.2,0.7-0.3,1-0.5l62.9-36.5c0.1,0,0.1-0.1,0.1-0.1
			s0.2-0.1,0.3-0.2c0.2,0,0.3-0.2,0.4-0.3c0.1-0.1,0.2-0.1,0.3-0.2c0.1-0.1,0.3-0.2,0.4-0.3c0,0,0.1,0,0.1-0.1l0.4-0.4l0.1-0.1
			l0.2-0.2c0,0,0.1-0.1,0.1-0.1c0.1-0.1,0.2-0.3,0.3-0.4c0-0.1,0.1-0.1,0.1-0.1c0,0,0-0.1,0.1-0.1h0c0.1-0.1,0.1-0.2,0.1-0.4
			s0.1-0.1,0.1-0.2v-0.1c0.1-0.1,0.1-0.2,0.1-0.3c0-0.1,0.1-0.1,0.1-0.2v-0.1c0-0.1,0-0.2,0.1-0.4v-0.3L190.8,210.7z"/>
		<g class="st3">
			
				<linearGradient id="SVGID_4_" gradientUnits="userSpaceOnUse" x1="131.3863" y1="985.864" x2="101.6363" y2="883.0939" gradientTransform="matrix(1 0 0 1 0 -724)">
				<stop  offset="0" style="stop-color:#EF8DFF"/>
				<stop  offset="1" style="stop-color:#FF8789"/>
			</linearGradient>
			<path class="st4" d="M170.1,207.4c3.2,1.8,3.2,4.9,0.1,6.7l-47.5,27.6c-3.6,1.9-8,1.9-11.6,0l-48-27.6c-3.2-1.9-3.2-4.9-0.1-6.7
				l47.5-27.6c3.7-1.8,8-1.8,11.6,0L170.1,207.4z"/>
		</g>
		<g class="st3">
			
				<linearGradient id="SVGID_5_" gradientUnits="userSpaceOnUse" x1="160.8311" y1="1016.8594" x2="69.5911" y2="846.5094" gradientTransform="matrix(1 0 0 1 0 -724)">
				<stop  offset="4.000000e-02" style="stop-color:#FF8789"/>
				<stop  offset="0.53" style="stop-color:#84A2FC"/>
				<stop  offset="0.72" style="stop-color:#205FE3"/>
				<stop  offset="1" style="stop-color:#030F28"/>
			</linearGradient>
			<path class="st5" d="M187.4,206.2c4.2,2.5,4.2,6.4,0.1,8.9l-62.7,36.4c-4.8,2.5-10.5,2.5-15.3,0l-63.1-36.4
				c-4.2-2.5-4.3-6.4-0.1-8.9l62.7-36.4c4.8-2.5,10.5-2.5,15.3,0L187.4,206.2z"/>
		</g>
		<g class="st6">
			
				<linearGradient id="SVGID_6_" gradientUnits="userSpaceOnUse" x1="124.2692" y1="1016.2895" x2="115.7392" y2="858.8995" gradientTransform="matrix(1 0 0 1 0 -724)">
				<stop  offset="0" style="stop-color:#FF8789"/>
				<stop  offset="0.53" style="stop-color:#84A2FC"/>
				<stop  offset="0.72" style="stop-color:#205FE3"/>
				<stop  offset="1" style="stop-color:#030F28;stop-opacity:0"/>
			</linearGradient>
			<path class="st7" d="M173.1,95H60.4l0,115.4c0.1,1.5,1.1,2.8,2.4,3.4l48.2,27.7l0.6,0.3c0.1,0.1,0.2,0.1,0.2,0.1
				c0.1,0.1,0.2,0.1,0.4,0.2h0.1c0.3,0.1,0.6,0.2,0.9,0.3h0.1c0,0,0.2,0,0.2,0c0.2,0.1,0.3,0.1,0.5,0.1c0,0,0.1,0,0.1,0.1
				c0.1,0,0.1,0,0.2,0c0.2,0,0.3,0.1,0.4,0.1c0.1,0,0.1,0,0.2,0.1h0.2c0.1,0,0.3,0.1,0.4,0.1h2c0.2,0,0.4,0,0.6-0.1h0.3
				c0.3-0.1,0.6-0.1,1-0.1h0.1c0.1,0,0.2,0,0.3,0s0.3-0.1,0.4-0.1c0.1,0,0.2-0.1,0.3-0.1c0.2-0.1,0.3-0.1,0.4-0.1h0.1
				c0.1,0,0.1-0.1,0.2-0.1c0.2-0.1,0.4-0.2,0.7-0.2c0.1-0.1,0.2-0.1,0.2-0.1c0.3-0.1,0.6-0.3,0.8-0.4l47.9-27.7
				c0.1,0,0.1-0.1,0.1-0.1s0.2-0.1,0.2-0.2c0.1,0,0.2-0.1,0.3-0.2c0.1-0.1,0.1-0.1,0.2-0.2c0.1-0.1,0.2-0.1,0.3-0.2c0,0,0,0,0-0.1
				l0.3-0.3l0.1-0.1l0.2-0.2c0,0,0.1-0.1,0.1-0.1c0.1-0.1,0.1-0.2,0.2-0.3c0-0.1,0.1-0.1,0.1-0.1s0-0.1,0.1-0.1s0.1-0.2,0.1-0.3
				s0.1-0.1,0.1-0.2v-0.1c0-0.1,0.1-0.1,0.1-0.2c0-0.1,0.1-0.1,0.1-0.2v0c0-0.1,0-0.2,0.1-0.3L173.1,95L173.1,95z"/>
		</g>
		<g class="st8">
			
				<linearGradient id="SVGID_7_" gradientUnits="userSpaceOnUse" x1="129.8437" y1="950.398" x2="115.0937" y2="848.248" gradientTransform="matrix(1 0 0 1 0 -724)">
				<stop  offset="0" style="stop-color:#FF8789"/>
				<stop  offset="0.53" style="stop-color:#84A2FC"/>
				<stop  offset="0.72" style="stop-color:#205FE3"/>
				<stop  offset="1" style="stop-color:#030F28;stop-opacity:0"/>
			</linearGradient>
			<path class="st9" d="M148.5,84c0,0-63,0.7-63,0v107.3c0.1,0.8,0.6,1.6,1.4,1.9l27,15.4l0.3,0.2c0,0,0.1,0,0.1,0.1l0.2,0.1l0,0
				c0.2,0.1,0.3,0.1,0.5,0.1l0,0h0.1c0.1,0,0.2,0.1,0.3,0.1h0.1c0,0,0.1,0,0.1,0c0.1,0,0.2,0,0.2,0c0,0,0.1,0,0.1,0h0.1h0.2h1.1
				c0.1,0,0.2,0,0.3,0h0.2l0.5-0.1l0,0c0.1,0,0.1,0,0.2,0s0.2,0,0.2-0.1c0.1,0,0.1,0,0.2-0.1l0.2-0.1h0.1c0,0,0.1,0,0.1,0
				s0.2-0.1,0.4-0.1s0.1,0,0.1-0.1s0.3-0.1,0.4-0.2l26.8-15.4c0,0,0,0,0.1,0l0.1-0.1c0.1,0,0.1-0.1,0.1-0.1l0.1-0.1
				c0.1,0,0.1-0.1,0.1-0.1l0,0l0.2-0.2l0,0l0.1-0.1c0,0,0,0,0-0.1c0-0.1,0.1-0.1,0.1-0.2c0,0,0,0,0-0.1l0,0c0-0.1,0.1-0.1,0.1-0.1
				s0-0.1,0-0.1l0,0c0,0,0-0.1,0-0.1c0,0,0-0.1,0-0.1l0,0c0-0.1,0-0.1,0-0.2V84H148.5z"/>
		</g>
		<g>
			
				<linearGradient id="SVGID_8_" gradientUnits="userSpaceOnUse" x1="60.4207" y1="903.2665" x2="148.7807" y2="920.9465" gradientTransform="matrix(1 0 0 1 0 -724)">
				<stop  offset="0" style="stop-color:#FF8789"/>
				<stop  offset="0.44" style="stop-color:#84A2FC"/>
				<stop  offset="0.72" style="stop-color:#205FE3"/>
				<stop  offset="1" style="stop-color:#030F28"/>
			</linearGradient>
			<path class="st10" d="M159.2,187.7c2.6,1.5,2.6,4,0,5.5l-38.1,22.6c-2.9,1.5-6.4,1.5-9.3,0l-38.2-22.6c-2.6-1.5-2.6-4,0-5.5
				l38.1-22.6c2.9-1.5,6.4-1.5,9.3,0L159.2,187.7z"/>
			
				<linearGradient id="SVGID_9_" gradientUnits="userSpaceOnUse" x1="116.4361" y1="951.23" x2="116.3861" y2="907.82" gradientTransform="matrix(1 0 0 1 0 -724)">
				<stop  offset="0" style="stop-color:#FF8789"/>
				<stop  offset="0.53" style="stop-color:#84A2FC"/>
				<stop  offset="0.72" style="stop-color:#205FE3"/>
				<stop  offset="1" style="stop-color:#030F28"/>
			</linearGradient>
			<path class="st11" d="M159.2,187.7c2.6,1.5,2.6,4,0,5.5l-38.1,22.6c-2.9,1.5-6.4,1.5-9.3,0l-38.2-22.6c-2.6-1.5-2.6-4,0-5.5
				l38.1-22.6c2.9-1.5,6.4-1.5,9.3,0L159.2,187.7z"/>
		</g>
		<g>
			
				<linearGradient id="SVGID_10_" gradientUnits="userSpaceOnUse" x1="60.4186" y1="911.4672" x2="148.7786" y2="929.1472" gradientTransform="matrix(1 0 0 1 0 -724)">
				<stop  offset="0" style="stop-color:#FF8789"/>
				<stop  offset="0.44" style="stop-color:#84A2FC"/>
				<stop  offset="0.72" style="stop-color:#205FE3"/>
				<stop  offset="1" style="stop-color:#030F28"/>
			</linearGradient>
			<path class="st12" d="M159.2,195.9c2.6,1.5,2.6,4,0,5.5l-38,22.6c-2.9,1.5-6.4,1.5-9.3,0l-38.3-22.6c-2.6-1.5-2.6-4,0-5.5
				l38.1-22.6c2.9-1.5,6.4-1.5,9.3,0L159.2,195.9z"/>
			
				<linearGradient id="SVGID_11_" gradientUnits="userSpaceOnUse" x1="116.4361" y1="959.42" x2="116.3861" y2="916.01" gradientTransform="matrix(1 0 0 1 0 -724)">
				<stop  offset="0" style="stop-color:#FF8789"/>
				<stop  offset="0.53" style="stop-color:#84A2FC"/>
				<stop  offset="0.72" style="stop-color:#205FE3"/>
				<stop  offset="1" style="stop-color:#030F28"/>
			</linearGradient>
			<path class="st13" d="M159.2,195.9c2.6,1.5,2.6,4,0,5.5l-38,22.6c-2.9,1.5-6.4,1.5-9.3,0l-38.3-22.6c-2.6-1.5-2.6-4,0-5.5
				l38.1-22.6c2.9-1.5,6.4-1.5,9.3,0L159.2,195.9z"/>
		</g>
	</g>
</g>
<g id="cog">
	<g>
		
			<linearGradient id="SVGID_12_" gradientUnits="userSpaceOnUse" x1="128.7312" y1="117.1995" x2="131.4282" y2="117.1995" gradientTransform="matrix(1 0 0 -1 0 298)">
			<stop  offset="0.1723" style="stop-color:#2E3192"/>
			<stop  offset="0.6042" style="stop-color:#000547"/>
		</linearGradient>
		<path class="st14" d="M131.3,182.8C131.3,182.8,131.3,182.7,131.3,182.8C131.3,182.7,131.3,182.7,131.3,182.8
			C131.3,182.7,131.3,182.7,131.3,182.8C131.4,182.7,131.4,182.7,131.3,182.8c0.1-0.1,0.1-0.1,0.1-0.1c0,0,0,0,0,0v0c0,0,0,0,0,0
			l0-5.8c0,0,0,0,0,0.1c0,0,0,0,0,0c0,0,0,0,0,0.1c0,0,0,0,0,0c0,0,0,0,0,0c0,0,0,0,0,0c0,0,0,0-0.1,0.1l-2.5,2l0,5.8L131.3,182.8
			C131.3,182.8,131.3,182.8,131.3,182.8z"/>
		
			<linearGradient id="SVGID_13_" gradientUnits="userSpaceOnUse" x1="102.4409" y1="117.252" x2="105.1426" y2="117.252" gradientTransform="matrix(1 0 0 -1 0 298)">
			<stop  offset="0.1723" style="stop-color:#2E3192"/>
			<stop  offset="0.6042" style="stop-color:#000547"/>
		</linearGradient>
		<path class="st15" d="M102.6,182.8l2.5,2l0-5.8l-2.5-2c-0.1-0.1-0.1-0.2-0.1-0.3l0,5.8C102.4,182.6,102.5,182.7,102.6,182.8z"/>
		
			<linearGradient id="SVGID_14_" gradientUnits="userSpaceOnUse" x1="111.0766" y1="114.269" x2="122.8217" y2="114.269" gradientTransform="matrix(1 0 0 -1 0 298)">
			<stop  offset="0.1723" style="stop-color:#2E3192"/>
			<stop  offset="0.6042" style="stop-color:#000547"/>
		</linearGradient>
		<path class="st16" d="M111.1,188.1C111.1,188.1,111.1,188.1,111.1,188.1c0-0.1,0-0.1,0-0.2c0,0,0-0.1,0-0.1c0,0,0-0.1,0-0.1
			s0-0.1,0-0.1s0-0.1,0-0.1s0-0.1,0-0.1c0,0,0-0.1,0-0.1c0,0,0-0.1,0-0.1c0,0,0,0,0-0.1c0,0,0,0,0-0.1c0,0,0-0.1,0.1-0.1s0,0,0-0.1
			c0,0,0-0.1,0.1-0.1c0,0,0,0,0-0.1c0-0.1,0.1-0.1,0.1-0.2c0-0.1,0.1-0.1,0.2-0.2c0,0,0,0,0.1-0.1c0,0,0.1-0.1,0.1-0.1
			c0,0,0,0,0.1-0.1c0,0,0.1,0,0.1-0.1c0,0,0.1,0,0.1-0.1c0,0,0.1,0,0.1-0.1c0,0,0.1,0,0.1-0.1c0,0,0.1,0,0.1-0.1
			c0,0,0.1-0.1,0.1-0.1c0.1-0.1,0.3-0.1,0.4-0.2c0,0,0.1,0,0.1-0.1c0.1,0,0.2-0.1,0.3-0.1c0,0,0.1,0,0.1,0c0.1-0.1,0.3-0.1,0.4-0.1
			c0.1,0,0.2,0,0.2-0.1c0.1,0,0.2,0,0.3-0.1c0.1,0,0.2,0,0.3-0.1c0.1,0,0.2,0,0.3-0.1c0,0,0.1,0,0.1,0c0.1,0,0.3,0,0.4-0.1
			c0,0,0.1,0,0.1,0c0.1,0,0.1,0,0.2,0c0.1,0,0.3,0,0.4,0c0.2,0,0.3,0,0.5,0c0.1,0,0.3,0,0.4,0c0.1,0,0.2,0,0.3,0c0.1,0,0.2,0,0.3,0
			s0.2,0,0.3,0c0.1,0,0.2,0,0.3,0c0.1,0,0.2,0,0.3,0c0.1,0,0.2,0,0.3,0c0.1,0,0.2,0,0.3,0.1c0.1,0,0.2,0,0.3,0.1c0,0,0.1,0,0.1,0
			c0.1,0,0.3,0.1,0.4,0.1c0.1,0,0.2,0.1,0.3,0.1c0.1,0,0.1,0,0.2,0.1c0.1,0.1,0.3,0.1,0.4,0.2c1.2,0.7,1.7,1.5,1.7,2.4l0-5.8
			c0-0.9-0.6-1.7-1.7-2.4c-0.1-0.1-0.3-0.2-0.4-0.2c-0.1,0-0.1,0-0.2-0.1c-0.1,0-0.2-0.1-0.3-0.1c0,0,0,0,0,0
			c-0.1-0.1-0.3-0.1-0.4-0.1c0,0-0.1,0-0.1,0c0,0-0.1,0-0.1,0c0,0-0.1,0-0.1,0c-0.1,0-0.2-0.1-0.3-0.1c0,0-0.1,0-0.1,0
			c0,0-0.1,0-0.1,0c-0.1,0-0.2,0-0.3,0c0,0-0.1,0-0.1,0c0,0-0.1,0-0.1,0c-0.1,0-0.2,0-0.3,0c0,0-0.1,0-0.1,0c0,0-0.1,0-0.1,0
			c-0.1,0-0.2,0-0.3,0c0,0-0.1,0-0.1,0c-0.1,0-0.2,0-0.3,0c-0.1,0-0.3,0-0.4,0c0,0-0.1,0-0.1,0c-0.1,0-0.3,0-0.4,0
			c-0.1,0-0.1,0-0.2,0c0,0,0,0-0.1,0c0,0-0.1,0-0.1,0c-0.1,0-0.3,0-0.4,0.1c0,0-0.1,0-0.1,0c0,0,0,0,0,0c-0.1,0-0.2,0-0.3,0
			c-0.1,0-0.2,0-0.3,0.1c-0.1,0-0.2,0-0.3,0.1c-0.1,0-0.2,0-0.2,0.1h0c-0.1,0-0.3,0.1-0.4,0.1c0,0-0.1,0-0.1,0
			c-0.1,0-0.2,0.1-0.3,0.1c0,0-0.1,0-0.1,0.1c-0.1,0.1-0.3,0.1-0.4,0.2c0,0-0.1,0-0.1,0.1c0,0,0,0-0.1,0c0,0-0.1,0-0.1,0.1
			s-0.1,0-0.1,0.1c0,0-0.1,0-0.1,0.1c0,0-0.1,0-0.1,0.1c0,0-0.1,0-0.1,0.1c0,0-0.1,0-0.1,0.1c0,0-0.1,0.1-0.1,0.1c0,0,0,0,0,0l0,0
			c-0.1,0.1-0.1,0.1-0.2,0.2c0,0.1-0.1,0.1-0.1,0.2c0,0,0,0,0,0c0,0,0,0,0,0c0,0,0,0.1-0.1,0.1c0,0,0,0,0,0.1c0,0,0,0.1-0.1,0.1l0,0
			c0,0,0,0,0,0c0,0,0,0,0,0.1c0.1,0.1,0.1,0.1,0.1,0.1c0,0,0,0.1,0,0.1c0,0,0,0,0,0c0,0,0,0,0,0c0,0,0,0.1,0,0.1s0,0.1,0,0.1
			c0,0,0,0.1,0,0.1c0,0,0,0,0,0s0,0,0,0c0,0,0,0.1,0,0.1c0,0,0,0.1,0,0.1c0,0,0,0.1,0,0.1c0,0,0,0,0,0s0,0.1,0,0.1l0,5.8
			C111.1,188.3,111.1,188.3,111.1,188.1C111.1,188.2,111.1,188.2,111.1,188.1z"/>
		
			<linearGradient id="SVGID_15_" gradientUnits="userSpaceOnUse" x1="94.306" y1="150.8082" x2="124.6405" y2="98.4161" gradientTransform="matrix(1 0 0 -1 0 298)">
			<stop  offset="0" style="stop-color:#FF8789"/>
			<stop  offset="0.5276" style="stop-color:#84A2FC"/>
			<stop  offset="0.5923" style="stop-color:#205FE3"/>
			<stop  offset="1" style="stop-color:#030F28"/>
		</linearGradient>
		<path class="st17" d="M134.5,182.7c0,0.1,0,0.2,0,0.3c0,0,0,0,0,0.1c0,0.1,0,0.1,0,0.2c0,0,0,0,0,0.1c0,0.1,0,0.1,0,0.2v0
			c0,0.1,0,0.1,0,0.2c0,0,0,0,0,0c0,0,0,0.1,0,0.1c0,0,0,0,0,0c0,0.1,0,0.1,0,0.2c0,0,0,0,0,0.1c0,0,0,0,0,0.1l0,0c0,0,0,0-0.1,0
			c0,0,0,0,0,0c0,0-0.1,0-0.1,0.1c0,0-0.1,0-0.2,0.1c0,0,0,0,0,0c0,0-0.1,0-0.1,0c0,0,0,0,0,0s0,0,0,0c0,0-0.1,0-0.1,0
			c-0.4,0-1,0.1-1.9,0.1c-0.5,0-1,0.1-1.4,0.1c-0.2,0-0.4,0-0.6,0.1c0,0.1-0.1,0.1-0.1,0.2c-0.1,0.1-0.1,0.2-0.2,0.3
			c0,0-0.1,0.1-0.1,0.1c-0.1,0.1-0.1,0.2-0.2,0.3c0,0,0,0.1-0.1,0.1c-0.1,0.1-0.2,0.2-0.3,0.3l0,4l-1.2,0.7c0,0-0.1,0-0.2,0.1
			c0,0,0,0,0,0c0,0-0.1,0-0.1,0h0c0,0,0,0,0,0c0,0-0.1,0-0.1,0s-0.1,0-0.1,0h0c0,0-0.1,0-0.1,0c0,0,0,0,0,0c0,0-0.1,0-0.1,0h0
			c0,0-0.1,0-0.1,0l-3.5-1.5c-0.2,0.1-0.4,0.1-0.6,0.1c-0.1,0-0.1,0-0.2,0c-0.1,0-0.2,0.1-0.4,0.1c-0.1,0-0.1,0-0.2,0
			c-0.1,0-0.2,0-0.3,0.1c-0.1,0-0.1,0-0.2,0c-0.1,0-0.2,0-0.3,0.1c0,0.1,0,0.1-0.1,0.2c0,0,0,0.1,0,0.1c0,0.1,0,0.1,0,0.2
			c0,0,0,0.1,0,0.1c0,0.1,0,0.1,0,0.2c0,0,0,0.1,0,0.1c0,0.1,0,0.2,0,0.2c0,0,0,0,0,0.1v0c0,0,0,0,0,0.1c0,0.1,0,0.1,0,0.2
			c0,0,0,0.1,0,0.1c0,0.1,0,0.1,0,0.2c0,0,0,0.1,0,0.1c0,0.1,0,0.2-0.1,0.3c0,0,0,0.1,0,0.1c0,0,0,0,0,0c0,0,0,0,0,0.1c0,0,0,0,0,0
			c0,0,0,0-0.1,0.1c0,0,0,0-0.1,0c0,0,0,0,0,0c0,0-0.1,0-0.1,0.1c0,0,0,0,0,0c0,0,0,0-0.1,0c0,0,0,0-0.1,0c0,0,0,0,0,0
			c0,0-0.1,0-0.1,0c-0.1,0-0.2,0-0.3,0c0,0-0.1,0-0.1,0c-0.1,0-0.1,0-0.2,0c0,0-0.1,0-0.1,0c-0.1,0-0.1,0-0.2,0c0,0-0.1,0-0.1,0
			c-0.1,0-0.2,0-0.3,0c0,0,0,0-0.1,0c-0.1,0-0.3,0-0.4,0h0c-0.1,0-0.3,0-0.4,0c0,0-0.1,0-0.1,0c-0.1,0-0.3,0-0.5,0c0,0-0.1,0-0.1,0
			c-0.2,0-0.3,0-0.5,0c-0.1,0-0.3,0-0.4,0c0,0-0.1,0-0.1,0c-0.1,0-0.2,0-0.4,0c0,0,0,0-0.1,0c-0.1,0-0.1,0-0.2,0c0,0-0.1,0-0.1,0
			c-0.1,0-0.1,0-0.2,0c0,0-0.1,0-0.1,0c-0.1,0-0.1,0-0.2,0c0,0,0,0-0.1,0c-0.1,0-0.1,0-0.2,0c0,0,0,0,0,0c-0.1,0-0.1,0-0.1,0
			c0,0,0,0-0.1,0c0,0-0.1,0-0.1,0c0,0,0,0,0,0c-0.1,0-0.1,0-0.2,0c0,0,0,0,0,0c0,0-0.1,0-0.1,0h0c0,0,0,0-0.1,0h0c0,0,0,0-0.1,0
			c-0.1-0.1-0.2-0.2-0.3-0.3l-0.5-2.3c-0.2,0-0.4-0.1-0.5-0.1c-0.2,0-0.4-0.1-0.6-0.1c-0.1,0-0.1,0-0.2,0c-0.1,0-0.3-0.1-0.4-0.1
			c-0.1,0-0.2-0.1-0.3-0.1c-1.6,0.8-2.8,1.2-3.5,1.5c0,0,0,0-0.1,0c0,0-0.1,0-0.1,0c0,0,0,0-0.1,0c0,0,0,0,0,0c0,0-0.1,0-0.1,0
			s-0.1,0-0.1,0s-0.1,0-0.1,0c0,0,0,0,0,0c0,0-0.1,0-0.1,0c0,0,0,0,0,0c0,0,0,0-0.1,0c0,0-0.1,0-0.1-0.1l-1.2-0.7l0-4
			c-0.4-0.4-0.6-0.8-0.9-1.2l-4-0.2c0,0-0.1,0-0.1,0c0,0-0.1,0-0.1,0c0,0,0,0,0,0c0,0-0.1,0-0.1,0c0,0-0.1,0-0.1-0.1
			c-0.1-0.1-0.2-0.2-0.2-0.3c-0.1-0.7-0.1-1.3-0.1-1.8v5.8c0,0.5,0,1.1,0.1,1.8c0,0.1,0.1,0.3,0.2,0.3c0,0,0.1,0,0.1,0.1
			c0,0,0.1,0,0.1,0c0,0,0,0,0,0c0,0,0,0,0.1,0c0,0,0,0,0.1,0c0,0,0,0,0.1,0c0,0,0,0,0.1,0l2.2,0.2v3.6c0,0,0,0,0,0
			c0,0.1,0.1,0.2,0.3,0.3l3.6,2.1c0,0,0.1,0,0.1,0.1h0c0,0,0,0,0,0c0,0,0,0,0,0c0,0,0,0,0,0c0,0,0.1,0,0.1,0c0,0,0,0,0,0
			c0,0,0,0,0,0c0,0,0,0,0,0c0,0,0,0,0.1,0c0,0,0,0,0,0c0,0,0,0,0.1,0c0,0,0,0,0.1,0c0,0,0,0,0,0c0,0,0,0,0,0h0h0c0,0,0.1,0,0.1,0h0
			c0,0,0,0,0,0c0.7-0.2,1.8-0.7,3.5-1.5c0.1,0,0.1,0,0.2,0.1c0,0,0.1,0,0.1,0c0.1,0,0.3,0.1,0.4,0.1c0.1,0,0.1,0,0.2,0
			c0.2,0,0.4,0.1,0.6,0.1c0,0,0,0,0,0c0.2,0,0.3,0.1,0.5,0.1c0,0,0,0,0,0l0.5,2.3c0.1,0.1,0.1,0.3,0.3,0.3c0,0,0,0,0.1,0h0
			c0,0,0,0,0.1,0h0c0,0,0,0,0.1,0h0h0c0,0,0.1,0,0.2,0h0c0,0,0.1,0,0.1,0c0,0,0,0,0.1,0c0,0,0.1,0,0.1,0h0c0.1,0,0.1,0,0.2,0
			c0,0,0,0,0.1,0c0,0,0.1,0,0.2,0c0,0,0.1,0,0.1,0c0,0,0.1,0,0.2,0c0,0,0.1,0,0.1,0c0.1,0,0.1,0,0.2,0c0,0,0,0,0.1,0h0
			c0.1,0,0.2,0,0.4,0c0,0,0.1,0,0.1,0c0.1,0,0.3,0,0.4,0c0.2,0,0.3,0,0.5,0c0,0,0.1,0,0.1,0c0.1,0,0.3,0,0.5,0c0,0,0.1,0,0.1,0
			c0.1,0,0.3,0,0.4,0c0.1,0,0.3,0,0.4,0c0,0,0,0,0.1,0c0.1,0,0.2,0,0.3,0c0,0,0,0,0,0c0,0,0.1,0,0.1,0c0.1,0,0.2,0,0.2,0
			c0,0,0.1,0,0.1,0c0.1,0,0.1,0,0.2,0c0,0,0.1,0,0.1,0c0.1,0,0.2,0,0.3,0c0,0,0.1,0,0.1,0h0c0,0,0,0,0,0c0,0,0,0,0,0c0,0,0,0,0,0
			c0,0,0,0,0.1,0h0h0c0.1,0,0.1,0,0.1-0.1c0,0,0,0,0,0c0,0,0,0,0,0c0,0,0,0,0.1,0c0,0,0,0,0-0.1c0,0,0,0,0,0s0,0,0,0c0,0,0,0,0,0
			c0,0,0,0,0,0c0,0,0,0,0-0.1v0c0-0.1,0-0.2,0.1-0.3c0,0,0-0.1,0-0.1c0-0.1,0-0.1,0-0.2c0,0,0-0.1,0-0.1c0-0.1,0-0.1,0-0.2
			c0,0,0,0,0-0.1c0,0,0-0.1,0-0.1c0-0.1,0-0.2,0-0.2c0,0,0-0.1,0-0.1c0-0.1,0-0.1,0-0.2c0,0,0-0.1,0-0.1c0-0.1,0-0.1,0-0.2
			c0,0,0-0.1,0-0.1c0-0.1,0-0.2,0.1-0.2c0,0,0.1,0,0.1,0c0.1,0,0.1,0,0.2,0c0.1,0,0.1,0,0.2,0c0.1,0,0.2,0,0.3-0.1
			c0.1,0,0.1,0,0.2,0c0.1,0,0.2-0.1,0.4-0.1c0.1,0,0.1,0,0.2,0c0.2,0,0.4-0.1,0.6-0.1l3.5,1.5c0,0,0.1,0,0.1,0h0h0h0c0,0,0,0,0.1,0
			h0c0,0,0,0,0,0c0,0,0,0,0,0c0,0,0,0,0.1,0c0,0,0,0,0,0h0c0,0,0,0,0,0c0,0,0.1,0,0.1,0h0c0,0,0.1,0,0.1,0c0,0,0,0,0,0c0,0,0,0,0,0
			c0,0,0.1,0,0.1,0h0h0c0.1,0,0.1,0,0.2-0.1l3.6-2.1c0,0,0,0,0,0c0,0,0,0,0,0c0,0,0.1,0,0.1-0.1c0,0,0,0,0,0c0,0,0,0,0,0l0,0
			c0,0,0,0,0,0c0,0,0,0,0,0c0,0,0,0,0,0c0,0,0,0,0,0c0,0,0,0,0,0v-3.7c0.1,0,0.2,0,0.3,0c0.9-0.1,1.5-0.1,1.9-0.1c0,0,0,0,0,0
			c0,0,0.1,0,0.1,0c0,0,0,0,0,0s0,0,0,0c0,0,0.1,0,0.1,0h0h0c0.1,0,0.1,0,0.2-0.1c0,0,0,0,0,0c0,0,0.1,0,0.1,0c0,0,0,0,0,0
			c0,0,0,0,0,0l0,0l0,0c0,0,0,0,0,0c0,0,0,0,0,0v0c0,0,0,0,0,0v0c0,0,0-0.1,0-0.2v0v0c0,0,0-0.1,0-0.1c0,0,0,0,0,0
			c0-0.1,0-0.1,0-0.2v0c0-0.1,0-0.1,0-0.2c0,0,0,0,0-0.1c0-0.1,0-0.1,0-0.2c0,0,0,0,0,0v0c0-0.1,0-0.2,0-0.3L134.5,182.7z"/>
		
			<linearGradient id="SVGID_16_" gradientUnits="userSpaceOnUse" x1="111.2695" y1="89.0697" x2="118.6342" y2="123.0517" gradientTransform="matrix(1 0 0 -1 0 298)">
			<stop  offset="0" style="stop-color:#FF8789"/>
			<stop  offset="0.5276" style="stop-color:#84A2FC"/>
			<stop  offset="0.7178" style="stop-color:#205FE3"/>
			<stop  offset="1" style="stop-color:#030F28"/>
		</linearGradient>
		<path class="st18" d="M131.5,188.4c0,0.1-0.1,0.2-0.3,0.3l-3.6,2.1c-0.1,0.1-0.3,0.1-0.5,0.1c-0.2,0-0.4,0-0.5-0.1l-3.5-1.5
			c-0.8,0.2-1.5,0.4-2.1,0.5c-0.2,0.5-0.3,1.3-0.5,2.3c0,0.1-0.1,0.3-0.3,0.3c-0.1,0.1-0.3,0.1-0.5,0.1c-0.7,0.1-1.8,0.1-3.4,0.1
			c-1.5,0-2.4-0.1-2.7-0.2c-0.1-0.1-0.2-0.2-0.3-0.3l-0.5-2.3c-0.7-0.1-1.4-0.3-2.1-0.5c-1.6,0.8-2.8,1.2-3.5,1.5
			c-0.4,0.1-0.7,0.1-1-0.1l-3.6-2.1c-0.1-0.1-0.2-0.2-0.3-0.3c0-0.1,0-0.2,0.2-0.3l2.5-2c-0.4-0.4-0.6-0.8-0.9-1.2l-4-0.3
			c-0.2,0-0.4-0.1-0.5-0.1s-0.2-0.2-0.2-0.3c-0.1-1.5-0.1-2.5,0-3.1c0-0.1,0.1-0.2,0.3-0.3c0.1-0.1,0.3-0.1,0.5-0.1
			c0.4,0,1-0.1,1.9-0.1c0.9-0.1,1.5-0.1,2-0.1c0.3-0.5,0.6-0.9,0.9-1.3l-2.5-2c-0.1-0.1-0.2-0.2-0.1-0.3c0-0.1,0.1-0.2,0.3-0.3
			l3.6-2.1c0.1-0.1,0.3-0.1,0.5-0.1c0.2,0,0.4,0,0.5,0.1l3.5,1.5c0.6-0.2,1.4-0.4,2.1-0.5c0.2-0.6,0.3-1.4,0.5-2.3
			c0-0.1,0.1-0.3,0.2-0.3c0.1-0.1,0.3-0.1,0.5-0.1c0.7-0.1,1.8-0.1,3.3-0.1c1.5,0,2.5,0.1,2.7,0.2c0.1,0.1,0.2,0.2,0.3,0.3l0.5,2.3
			c0.7,0.1,1.4,0.3,2.1,0.5c1.6-0.8,2.8-1.2,3.5-1.5c0.4-0.1,0.7-0.1,1,0.1l3.6,2.1c0.1,0.1,0.2,0.2,0.3,0.3c0,0.1,0,0.2-0.2,0.3
			l-2.5,2c0.4,0.4,0.6,0.8,0.9,1.2l4,0.3c0.2,0,0.4,0,0.5,0.1c0.1,0.1,0.2,0.2,0.3,0.3c0.1,1.6,0.1,2.6-0.1,3.1
			c0,0.1-0.1,0.2-0.3,0.3c-0.1,0.1-0.3,0.1-0.5,0.1c-0.4,0-1,0.1-1.9,0.1c-0.9,0.1-1.5,0.1-2,0.1c-0.3,0.5-0.6,0.9-0.9,1.3l2.5,2
			C131.4,188.2,131.5,188.3,131.5,188.4z M117,185.9c1.6,0,3-0.3,4.1-1c1.1-0.7,1.7-1.5,1.7-2.4c0-0.9-0.6-1.7-1.7-2.4
			c-1.2-0.6-2.5-1-4.1-1s-3,0.3-4.1,1c-1.1,0.7-1.7,1.5-1.7,2.4c0,0.9,0.6,1.7,1.7,2.4C114,185.6,115.3,185.9,117,185.9z"/>
		
			<linearGradient id="SVGID_17_" gradientUnits="userSpaceOnUse" x1="114.4298" y1="93.9657" x2="118.4653" y2="127.9497" gradientTransform="matrix(1 0 0 -1 0 298)">
			<stop  offset="0" style="stop-color:#FF8789"/>
			<stop  offset="0.5276" style="stop-color:#84A2FC"/>
			<stop  offset="0.7178" style="stop-color:#205FE3"/>
			<stop  offset="1" style="stop-color:#030F28"/>
		</linearGradient>
		<path class="st19" d="M131.5,188.4c0,0.1-0.1,0.2-0.3,0.3l-3.6,2.1c-0.1,0.1-0.3,0.1-0.5,0.1c-0.2,0-0.4,0-0.5-0.1l-3.5-1.5
			c-0.8,0.2-1.5,0.4-2.1,0.5c-0.2,0.5-0.3,1.3-0.5,2.3c0,0.1-0.1,0.3-0.3,0.3c-0.1,0.1-0.3,0.1-0.5,0.1c-0.7,0.1-1.8,0.1-3.4,0.1
			c-1.5,0-2.4-0.1-2.7-0.2c-0.1-0.1-0.2-0.2-0.3-0.3l-0.5-2.3c-0.7-0.1-1.4-0.3-2.1-0.5c-1.6,0.8-2.8,1.2-3.5,1.5
			c-0.4,0.1-0.7,0.1-1-0.1l-3.6-2.1c-0.1-0.1-0.2-0.2-0.3-0.3c0-0.1,0-0.2,0.2-0.3l2.5-2c-0.4-0.4-0.6-0.8-0.9-1.2l-4-0.3
			c-0.2,0-0.4-0.1-0.5-0.1s-0.2-0.2-0.2-0.3c-0.1-1.5-0.1-2.5,0-3.1c0-0.1,0.1-0.2,0.3-0.3c0.1-0.1,0.3-0.1,0.5-0.1
			c0.4,0,1-0.1,1.9-0.1c0.9-0.1,1.5-0.1,2-0.1c0.3-0.5,0.6-0.9,0.9-1.3l-2.5-2c-0.1-0.1-0.2-0.2-0.1-0.3c0-0.1,0.1-0.2,0.3-0.3
			l3.6-2.1c0.1-0.1,0.3-0.1,0.5-0.1c0.2,0,0.4,0,0.5,0.1l3.5,1.5c0.6-0.2,1.4-0.4,2.1-0.5c0.2-0.6,0.3-1.4,0.5-2.3
			c0-0.1,0.1-0.3,0.2-0.3c0.1-0.1,0.3-0.1,0.5-0.1c0.7-0.1,1.8-0.1,3.3-0.1c1.5,0,2.5,0.1,2.7,0.2c0.1,0.1,0.2,0.2,0.3,0.3l0.5,2.3
			c0.7,0.1,1.4,0.3,2.1,0.5c1.6-0.8,2.8-1.2,3.5-1.5c0.4-0.1,0.7-0.1,1,0.1l3.6,2.1c0.1,0.1,0.2,0.2,0.3,0.3c0,0.1,0,0.2-0.2,0.3
			l-2.5,2c0.4,0.4,0.6,0.8,0.9,1.2l4,0.3c0.2,0,0.4,0,0.5,0.1c0.1,0.1,0.2,0.2,0.3,0.3c0.1,1.6,0.1,2.6-0.1,3.1
			c0,0.1-0.1,0.2-0.3,0.3c-0.1,0.1-0.3,0.1-0.5,0.1c-0.4,0-1,0.1-1.9,0.1c-0.9,0.1-1.5,0.1-2,0.1c-0.3,0.5-0.6,0.9-0.9,1.3l2.5,2
			C131.4,188.2,131.5,188.3,131.5,188.4z M117,185.9c1.6,0,3-0.3,4.1-1c1.1-0.7,1.7-1.5,1.7-2.4c0-0.9-0.6-1.7-1.7-2.4
			c-1.2-0.6-2.5-1-4.1-1s-3,0.3-4.1,1c-1.1,0.7-1.7,1.5-1.7,2.4c0,0.9,0.6,1.7,1.7,2.4C114,185.6,115.3,185.9,117,185.9z"/>
	</g>
	<g>
		
			<linearGradient id="SVGID_18_" gradientUnits="userSpaceOnUse" x1="131.1762" y1="138.601" x2="134.4332" y2="138.601" gradientTransform="matrix(1 0 0 -1 0 298)">
			<stop  offset="0.1723" style="stop-color:#2E3192"/>
			<stop  offset="0.6042" style="stop-color:#000547"/>
		</linearGradient>
		<path class="st20" d="M134.3,161.8C134.3,161.8,134.3,161.7,134.3,161.8C134.3,161.7,134.3,161.7,134.3,161.8
			C134.3,161.7,134.3,161.7,134.3,161.8c0.1-0.1,0.1-0.1,0.1-0.1c0,0,0,0,0-0.1c0,0,0,0,0,0v0c0,0,0,0,0-0.1l0-7c0,0,0,0.1,0,0.1
			c0,0,0,0,0,0c0,0,0,0.1,0,0.1c0,0,0,0,0,0c0,0,0,0-0.1,0.1c0,0,0,0,0,0c0,0-0.1,0.1-0.1,0.1l-3,2.4l0,7l3-2.4
			C134.2,161.8,134.3,161.8,134.3,161.8z"/>
		
			<linearGradient id="SVGID_19_" gradientUnits="userSpaceOnUse" x1="99.4247" y1="138.664" x2="102.6875" y2="138.664" gradientTransform="matrix(1 0 0 -1 0 298)">
			<stop  offset="0.1723" style="stop-color:#2E3192"/>
			<stop  offset="0.6042" style="stop-color:#000547"/>
		</linearGradient>
		<path class="st21" d="M99.6,161.8l3.1,2.4l0-7l-3.1-2.4c-0.1-0.1-0.2-0.2-0.2-0.3l0,7C99.4,161.6,99.5,161.7,99.6,161.8z"/>
		
			<linearGradient id="SVGID_20_" gradientUnits="userSpaceOnUse" x1="109.8544" y1="135.061" x2="124.0387" y2="135.061" gradientTransform="matrix(1 0 0 -1 0 298)">
			<stop  offset="0.1723" style="stop-color:#2E3192"/>
			<stop  offset="0.6042" style="stop-color:#000547"/>
		</linearGradient>
		<path class="st22" d="M109.9,168.3c0,0,0-0.1,0-0.1c0-0.1,0-0.1,0-0.1c0,0,0-0.1,0-0.1c0,0,0-0.1,0-0.1c0,0,0-0.1,0-0.1
			c0,0,0-0.1,0-0.1c0,0,0-0.1,0-0.1c0,0,0-0.1,0.1-0.1c0,0,0-0.1,0.1-0.1s0,0,0.1-0.1c0,0,0-0.1,0.1-0.1c0,0,0.1-0.1,0.1-0.1
			c0,0,0-0.1,0.1-0.1s0.1-0.1,0.1-0.1c0,0,0.1-0.1,0.1-0.1c0.1-0.1,0.1-0.1,0.2-0.2c0.1-0.1,0.1-0.1,0.2-0.2c0,0,0.1-0.1,0.1-0.1
			c0,0,0.1-0.1,0.1-0.1c0,0,0.1,0,0.1-0.1c0.1,0,0.1-0.1,0.1-0.1c0,0,0.1,0,0.1-0.1c0.1,0,0.1-0.1,0.1-0.1c0,0,0.1,0,0.1-0.1
			c0.1,0,0.1-0.1,0.1-0.1c0.1,0,0.1-0.1,0.2-0.1c0.2-0.1,0.3-0.2,0.5-0.3c0.1,0,0.1-0.1,0.2-0.1c0.1-0.1,0.3-0.1,0.4-0.2
			c0.1,0,0.1,0,0.1-0.1c0.2-0.1,0.3-0.1,0.5-0.2c0.1,0,0.2-0.1,0.3-0.1c0.1,0,0.2-0.1,0.3-0.1c0.1,0,0.2-0.1,0.3-0.1
			c0.1,0,0.2-0.1,0.3-0.1c0,0,0.1,0,0.1,0c0.2,0,0.3-0.1,0.5-0.1c0.1,0,0.1,0,0.1,0c0.1,0,0.2,0,0.3,0c0.2,0,0.3,0,0.5,0
			c0.2,0,0.4,0,0.6,0c0.2,0,0.4,0,0.5,0c0.1,0,0.3,0,0.4,0c0.1,0,0.2,0,0.3,0c0.1,0,0.2,0,0.3,0c0.1,0,0.2,0,0.3,0
			c0.1,0,0.2,0,0.3,0.1c0.1,0,0.2,0.1,0.3,0.1c0.1,0,0.3,0.1,0.4,0.1c0.1,0,0.2,0,0.3,0.1c0.1,0,0.1,0,0.2,0.1
			c0.2,0.1,0.4,0.1,0.5,0.2c0.1,0.1,0.3,0.1,0.4,0.2c0.1,0,0.1,0.1,0.2,0.1c0.2,0.1,0.4,0.2,0.5,0.3c1.4,0.8,2.1,1.8,2.1,2.9l0-7
			c0-1.1-0.7-2.1-2.1-2.9c-0.2-0.1-0.4-0.2-0.5-0.3c-0.1,0-0.1-0.1-0.2-0.1c-0.1-0.1-0.2-0.1-0.4-0.2c0,0,0,0,0,0
			c-0.2-0.1-0.3-0.1-0.5-0.2c-0.1,0-0.1,0-0.2-0.1c-0.1,0-0.1,0-0.2-0.1c-0.1,0-0.1,0-0.2,0c-0.1,0-0.3-0.1-0.4-0.1
			c-0.1,0-0.1,0-0.1,0c0,0-0.1,0-0.2,0c-0.1,0-0.2-0.1-0.3-0.1c-0.1,0-0.1,0-0.2,0c-0.1,0-0.1,0-0.2,0c-0.1,0-0.2,0-0.3,0
			c-0.1,0-0.1,0-0.2,0c-0.1,0-0.1,0-0.2,0c-0.1,0-0.3,0-0.4,0c-0.1,0-0.1,0-0.2,0c-0.1,0-0.2,0-0.4,0c-0.2,0-0.3,0-0.5,0
			c0,0-0.1,0-0.1,0c-0.2,0-0.3,0-0.5,0c-0.1,0-0.1,0-0.2,0c0,0-0.1,0-0.1,0c-0.1,0-0.1,0-0.1,0c-0.2,0-0.4,0.1-0.5,0.1
			c0,0-0.1,0-0.1,0c0,0,0,0-0.1,0c-0.1,0-0.2,0-0.3,0c-0.1,0-0.2,0.1-0.3,0.1c-0.1,0-0.2,0.1-0.3,0.1c-0.1,0-0.2,0.1-0.3,0.1h0
			c-0.2,0.1-0.3,0.1-0.5,0.2c-0.1,0-0.1,0-0.1,0.1c-0.1,0.1-0.3,0.1-0.4,0.2c-0.1,0-0.1,0.1-0.2,0.1c-0.2,0.1-0.3,0.2-0.5,0.3
			c0,0-0.1,0.1-0.1,0.1c0,0-0.1,0-0.1,0.1c-0.1,0-0.1,0-0.1,0.1c0,0-0.1,0.1-0.1,0.1c-0.1,0-0.1,0.1-0.1,0.1c0,0-0.1,0.1-0.1,0.1
			c-0.1,0-0.1,0.1-0.1,0.1c0,0-0.1,0.1-0.1,0.1c0,0-0.1,0.1-0.1,0.1c0,0-0.1,0-0.1,0.1l0,0c-0.1,0.1-0.1,0.1-0.2,0.2
			c-0.1,0.1-0.1,0.1-0.2,0.2c0,0,0,0,0,0c0,0,0,0.1-0.1,0.1c0,0-0.1,0.1-0.1,0.1c0,0,0,0-0.1,0.1c0,0-0.1,0.1-0.1,0.1l0,0
			c0,0,0,0,0,0.1c0,0,0,0.1-0.1,0.1c0.1,0.1,0.1,0.2,0.1,0.2c0,0,0,0.1-0.1,0.1c0,0,0,0,0,0.1c0,0,0,0.1,0,0.1c0,0,0,0.1,0,0.1
			c0,0,0,0.1,0,0.1c0,0,0,0.1,0,0.1c0,0,0,0,0,0.1s0,0,0,0.1c0,0,0,0.1,0,0.1c0,0,0,0.1,0,0.1c0,0.1,0,0.1,0,0.1c0,0,0,0,0,0.1
			c0,0,0,0.1,0,0.1l-0.1,7c0-0.1,0-0.1,0-0.2C109.9,168.3,109.9,168.3,109.9,168.3z"/>
		
			<linearGradient id="SVGID_21_" gradientUnits="userSpaceOnUse" x1="89.5998" y1="179.1904" x2="126.2352" y2="115.9162" gradientTransform="matrix(1 0 0 -1 0 298)">
			<stop  offset="0" style="stop-color:#FF8789"/>
			<stop  offset="0.5276" style="stop-color:#84A2FC"/>
			<stop  offset="0.5923" style="stop-color:#205FE3"/>
			<stop  offset="1" style="stop-color:#030F28"/>
		</linearGradient>
		<path class="st23" d="M138.1,161.7c0,0.1,0,0.2,0,0.3c0,0,0,0,0,0.1c0,0.1,0,0.2,0,0.2c0,0,0,0.1,0,0.1c0,0.1,0,0.2,0,0.2v0
			c0,0.1,0,0.2,0,0.2c0,0,0,0.1,0,0.1c0,0.1,0,0.1,0,0.2c0,0,0,0.1,0,0.1c0,0.1,0,0.1-0.1,0.2c0,0,0,0,0,0.1c0,0,0,0.1-0.1,0.1l0,0
			c0,0,0,0.1-0.1,0.1c0,0,0,0,0,0c0,0-0.1,0.1-0.1,0.1c-0.1,0-0.1,0.1-0.2,0.1c0,0,0,0-0.1,0c-0.1,0-0.1,0-0.2,0.1c0,0,0,0,0,0
			s-0.1,0-0.1,0c-0.1,0-0.1,0-0.1,0c-0.5,0.1-1.2,0.1-2.3,0.2c-0.7,0.1-1.2,0.1-1.7,0.1c-0.3,0-0.5,0.1-0.7,0.1
			c-0.1,0.1-0.1,0.2-0.1,0.2c-0.1,0.1-0.1,0.2-0.2,0.3c0,0.1-0.1,0.1-0.1,0.2c-0.1,0.1-0.2,0.2-0.3,0.4c0,0-0.1,0.1-0.1,0.1
			c-0.1,0.1-0.2,0.3-0.3,0.4l0,4.8l-1.4,0.8c-0.1,0-0.1,0.1-0.2,0.1c0,0,0,0-0.1,0c-0.1,0-0.1,0-0.2,0.1h0c0,0,0,0-0.1,0
			c-0.1,0-0.1,0-0.1,0c-0.1,0-0.1,0-0.2,0h0c-0.1,0-0.1,0-0.2,0c0,0,0,0,0,0c-0.1,0-0.1,0-0.1,0h0c-0.1,0-0.1,0-0.1-0.1l-4.2-1.8
			c-0.2,0.1-0.5,0.1-0.7,0.2c-0.1,0-0.2,0-0.2,0.1c-0.2,0-0.3,0.1-0.4,0.1c-0.1,0-0.2,0-0.3,0.1c-0.1,0-0.3,0-0.4,0.1
			c-0.1,0-0.2,0-0.3,0.1c-0.1,0-0.3,0.1-0.4,0.1c0,0.1-0.1,0.2-0.1,0.3c0,0,0,0.1,0,0.1c0,0.1,0,0.2-0.1,0.2c0,0.1,0,0.1,0,0.1
			c0,0.1,0,0.2,0,0.2c0,0.1,0,0.1,0,0.1c0,0.1-0.1,0.2-0.1,0.3c0,0,0,0.1,0,0.1v0c0,0,0,0.1,0,0.1c0,0.1,0,0.2-0.1,0.3
			c0,0.1,0,0.1,0,0.1c0,0.1,0,0.2,0,0.3c0,0.1,0,0.1,0,0.1c0,0.1-0.1,0.3-0.1,0.4c0,0,0,0.1,0,0.1c0,0,0,0,0,0c0,0,0,0.1,0,0.1
			c0,0,0,0,0,0c0,0-0.1,0.1-0.1,0.1c0,0-0.1,0-0.1,0.1c0,0,0,0-0.1,0c0,0-0.1,0.1-0.2,0.1c0,0,0,0,0,0c0,0-0.1,0-0.1,0
			c0,0,0,0-0.1,0c0,0,0,0-0.1,0c-0.1,0-0.1,0-0.2,0c-0.1,0-0.2,0-0.3,0c0,0-0.1,0-0.1,0c-0.1,0-0.2,0-0.3,0c-0.1,0-0.1,0-0.1,0
			c-0.1,0-0.2,0-0.3,0c-0.1,0-0.1,0-0.1,0c-0.1,0-0.3,0-0.4,0c0,0-0.1,0-0.1,0c-0.2,0-0.3,0-0.5,0h0c-0.2,0-0.3,0-0.5,0
			c0,0-0.1,0-0.1,0c-0.2,0-0.4,0-0.6,0c0,0-0.1,0-0.1,0c-0.2,0-0.4,0-0.6,0c-0.2,0-0.3,0-0.5,0c0,0-0.1,0-0.1,0c-0.2,0-0.3,0-0.4,0
			c0,0-0.1,0-0.1,0c-0.1,0-0.2,0-0.2,0c0,0-0.1,0-0.1,0c-0.1,0-0.1,0-0.2,0c0,0-0.1,0-0.1,0c-0.1,0-0.1,0-0.2,0c0,0-0.1,0-0.1,0
			c-0.1,0-0.2,0-0.2,0c0,0,0,0-0.1,0c-0.1,0-0.1,0-0.2,0c0,0-0.1,0-0.1,0c-0.1,0-0.1,0-0.2,0c0,0,0,0-0.1,0c-0.1,0-0.2,0-0.2,0
			c0,0,0,0-0.1,0c0,0-0.1,0-0.1,0h0c0,0-0.1,0-0.1,0h0c0,0-0.1,0-0.1,0c-0.2-0.1-0.3-0.2-0.3-0.4l-0.6-2.8c-0.2-0.1-0.4-0.1-0.6-0.1
			c-0.3-0.1-0.5-0.1-0.8-0.2c-0.1,0-0.1,0-0.2-0.1c-0.2-0.1-0.4-0.1-0.5-0.2c-0.1,0-0.3-0.1-0.4-0.1c-2,0.9-3.4,1.5-4.2,1.8
			c0,0-0.1,0-0.1,0c-0.1,0-0.1,0-0.2,0.1c0,0-0.1,0-0.1,0c0,0,0,0-0.1,0c-0.1,0-0.1,0-0.1,0c-0.1,0-0.1,0-0.2,0c-0.1,0-0.1,0-0.2,0
			c0,0,0,0,0,0c-0.1,0-0.1,0-0.1,0c0,0,0,0-0.1,0c0,0-0.1,0-0.1,0c-0.1,0-0.1-0.1-0.2-0.1l-1.4-0.8l0-4.8c-0.4-0.5-0.8-1-1-1.4
			l-4.8-0.3c-0.1,0-0.1,0-0.2,0c-0.1,0-0.1,0-0.2,0c0,0,0,0,0,0c-0.1,0-0.1,0-0.2-0.1c-0.1,0-0.1-0.1-0.2-0.1
			c-0.2-0.1-0.3-0.3-0.3-0.4c-0.1-0.9-0.1-1.6-0.1-2.2v7c0,0.6,0,1.3,0.1,2.2c0,0.2,0.1,0.3,0.3,0.4c0.1,0,0.1,0.1,0.2,0.1
			c0.1,0,0.1,0,0.1,0.1c0,0,0,0,0,0c0,0,0.1,0,0.1,0s0.1,0,0.1,0c0,0,0.1,0,0.1,0c0,0,0.1,0,0.1,0l2.7,0.2v4.3c0,0,0,0.1,0,0.1
			c0,0.2,0.1,0.3,0.3,0.4l4.4,2.5c0.1,0,0.1,0.1,0.2,0.1h0c0,0,0.1,0,0.1,0c0,0,0,0,0.1,0c0,0,0,0,0,0c0,0,0.1,0,0.1,0c0,0,0,0,0,0
			c0,0,0,0,0,0s0,0,0.1,0c0,0,0.1,0,0.1,0s0.1,0,0.1,0c0,0,0.1,0,0.1,0c0,0,0.1,0,0.1,0s0,0,0.1,0s0,0,0.1,0h0h0
			c0.1,0,0.1,0,0.2-0.1h0c0,0,0,0,0.1,0c0.8-0.3,2.2-0.9,4.2-1.8c0.1,0,0.2,0.1,0.3,0.1c0.1,0,0.1,0,0.1,0c0.2,0.1,0.4,0.1,0.5,0.2
			c0.1,0,0.1,0,0.2,0.1c0.3,0.1,0.5,0.1,0.8,0.2c0,0,0,0,0,0c0.2,0.1,0.4,0.1,0.6,0.1c0,0,0,0,0,0l0.6,2.8c0.1,0.2,0.2,0.3,0.3,0.4
			c0,0,0.1,0,0.1,0h0c0,0,0.1,0,0.1,0h0c0,0,0.1,0,0.1,0h0h0c0.1,0,0.1,0,0.2,0h0c0.1,0,0.1,0,0.2,0c0,0,0.1,0,0.1,0
			c0.1,0,0.1,0,0.2,0h0c0.1,0,0.2,0,0.2,0c0,0,0.1,0,0.1,0c0.1,0,0.1,0,0.2,0c0,0,0.1,0,0.1,0c0.1,0,0.1,0,0.2,0c0,0,0.1,0,0.1,0
			c0.1,0,0.2,0,0.2,0c0,0,0.1,0,0.1,0h0c0.1,0,0.3,0,0.4,0c0,0,0.1,0,0.1,0c0.2,0,0.3,0,0.5,0c0.2,0,0.4,0,0.6,0c0,0,0.1,0,0.1,0
			c0.2,0,0.4,0,0.6,0c0,0,0.1,0,0.1,0c0.2,0,0.4,0,0.5,0c0.2,0,0.3,0,0.5,0c0,0,0.1,0,0.1,0c0.1,0,0.3,0,0.4,0c0,0,0,0,0.1,0
			c0.1,0,0.1,0,0.1,0c0.1,0,0.2,0,0.3,0c0.1,0,0.1,0,0.1,0c0.1,0,0.2,0,0.3,0c0,0,0.1,0,0.1,0c0.1,0,0.2,0,0.3,0c0.1,0,0.1,0,0.1,0
			h0c0,0,0,0,0.1,0s0,0,0.1,0c0,0,0,0,0,0c0,0,0.1,0,0.1,0h0h0c0.1,0,0.1-0.1,0.2-0.1c0,0,0,0,0,0c0,0,0,0,0,0c0,0,0,0,0.1-0.1
			c0,0,0.1-0.1,0.1-0.1c0,0,0,0,0,0c0,0,0,0,0-0.1c0,0,0,0,0-0.1c0,0,0,0,0,0c0,0,0-0.1,0-0.1v0c0-0.1,0.1-0.3,0.1-0.4
			c0-0.1,0-0.1,0-0.1c0-0.1,0-0.2,0.1-0.3c0-0.1,0-0.1,0-0.1c0-0.1,0-0.2,0.1-0.3c0,0,0-0.1,0-0.1c0-0.1,0-0.1,0-0.1
			c0-0.1,0.1-0.2,0.1-0.3c0-0.1,0-0.1,0-0.1c0-0.1,0-0.2,0.1-0.2c0-0.1,0-0.1,0-0.1c0-0.1,0-0.2,0.1-0.2c0,0,0-0.1,0-0.1
			c0-0.1,0-0.2,0.1-0.3c0.1,0,0.1,0,0.1,0c0.1,0,0.2,0,0.3-0.1c0.1,0,0.2,0,0.3-0.1c0.1,0,0.2-0.1,0.4-0.1c0.1,0,0.2,0,0.3-0.1
			c0.1,0,0.3-0.1,0.4-0.1c0.1,0,0.2,0,0.2-0.1c0.2-0.1,0.5-0.1,0.7-0.2l4.2,1.8c0,0,0.1,0,0.1,0h0h0h0c0,0,0.1,0,0.1,0h0
			c0,0,0,0,0,0c0,0,0,0,0.1,0s0.1,0,0.1,0c0,0,0,0,0,0h0c0,0,0,0,0.1,0c0,0,0.1,0,0.1,0h0c0.1,0,0.1,0,0.1,0c0,0,0,0,0,0
			c0,0,0,0,0,0c0.1,0,0.1,0,0.2-0.1h0h0c0.1,0,0.1-0.1,0.2-0.1l4.3-2.5c0,0,0,0,0,0c0,0,0,0,0,0c0,0,0.1-0.1,0.1-0.1c0,0,0,0,0,0
			c0,0,0,0,0,0l0,0c0,0,0-0.1,0.1-0.1c0,0,0,0,0,0c0,0,0,0,0,0c0,0,0,0,0-0.1c0,0,0-0.1,0-0.1v-4.4c0.1,0,0.2,0,0.3,0
			c1.1-0.1,1.8-0.1,2.3-0.2c0,0,0,0,0,0c0,0,0.1,0,0.1,0c0,0,0.1,0,0.1,0s0,0,0,0c0.1,0,0.1,0,0.2-0.1h0h0c0.1,0,0.2-0.1,0.2-0.1
			c0,0,0,0,0,0c0,0,0.1-0.1,0.1-0.1c0,0,0,0,0,0c0,0,0,0,0.1,0l0,0l0,0c0,0,0,0,0,0c0,0,0,0,0-0.1v0c0,0,0,0,0-0.1v0
			c0-0.1,0-0.1,0.1-0.2v0v0c0-0.1,0-0.1,0-0.2c0,0,0-0.1,0-0.1c0-0.1,0-0.2,0-0.2v0c0-0.1,0-0.2,0-0.2c0,0,0-0.1,0-0.1
			c0-0.1,0-0.1,0-0.2c0,0,0,0,0-0.1v0c0-0.1,0-0.2,0-0.3L138.1,161.7z"/>
		
			<linearGradient id="SVGID_22_" gradientUnits="userSpaceOnUse" x1="110.0874" y1="104.6288" x2="118.9819" y2="145.6688" gradientTransform="matrix(1 0 0 -1 0 298)">
			<stop  offset="0" style="stop-color:#FF8789"/>
			<stop  offset="0.5276" style="stop-color:#84A2FC"/>
			<stop  offset="0.7178" style="stop-color:#205FE3"/>
			<stop  offset="1" style="stop-color:#030F28"/>
		</linearGradient>
		<path class="st24" d="M134.5,168.6c0,0.2-0.1,0.3-0.3,0.4l-4.3,2.5c-0.2,0.1-0.4,0.2-0.6,0.2c-0.3,0-0.5,0-0.7-0.1l-4.2-1.8
			c-1,0.3-1.8,0.5-2.5,0.6c-0.2,0.6-0.4,1.6-0.6,2.8c0,0.2-0.1,0.3-0.3,0.4c-0.2,0.1-0.4,0.2-0.6,0.2c-0.8,0.1-2.2,0.1-4,0.1
			c-1.9,0-2.9-0.1-3.2-0.3c-0.2-0.1-0.3-0.2-0.3-0.4l-0.6-2.8c-0.9-0.2-1.7-0.4-2.5-0.6c-2,0.9-3.4,1.5-4.2,1.8
			c-0.5,0.2-0.9,0.1-1.3-0.1l-4.4-2.5c-0.2-0.1-0.3-0.2-0.3-0.4c0-0.2,0.1-0.3,0.2-0.4l3-2.4c-0.4-0.5-0.8-1-1-1.4l-4.9-0.4
			c-0.3,0-0.5-0.1-0.7-0.2c-0.2-0.1-0.3-0.3-0.3-0.4c-0.2-1.8-0.2-3.1,0.1-3.8c0.1-0.1,0.2-0.3,0.3-0.3c0.2-0.1,0.4-0.2,0.6-0.2
			c0.5-0.1,1.2-0.1,2.3-0.2c1.1-0.1,1.9-0.1,2.4-0.2c0.3-0.6,0.7-1.1,1.1-1.6l-3.1-2.4c-0.2-0.1-0.2-0.2-0.2-0.4
			c0-0.2,0.1-0.3,0.3-0.4l4.3-2.5c0.2-0.1,0.4-0.2,0.6-0.2c0.3,0,0.5,0,0.6,0.1l4.2,1.8c0.8-0.3,1.6-0.5,2.6-0.6
			c0.2-0.7,0.4-1.7,0.6-2.8c0-0.2,0.1-0.3,0.3-0.4c0.1-0.1,0.3-0.1,0.6-0.2c0.8-0.1,2.1-0.1,4-0.1c1.9,0,3,0.1,3.2,0.3
			c0.2,0.1,0.3,0.2,0.3,0.4l0.6,2.8c0.9,0.2,1.7,0.4,2.5,0.6c2-0.9,3.4-1.5,4.2-1.8c0.5-0.2,0.9-0.1,1.3,0.1l4.3,2.5
			c0.2,0.1,0.3,0.2,0.3,0.4c0,0.2,0,0.3-0.2,0.4l-3,2.4c0.4,0.5,0.8,1,1,1.4l4.9,0.4c0.2,0,0.5,0.1,0.7,0.2c0.2,0.1,0.3,0.2,0.3,0.4
			c0.2,1.9,0.1,3.1-0.1,3.8c0,0.1-0.1,0.2-0.3,0.3c-0.2,0.1-0.4,0.2-0.6,0.2c-0.5,0.1-1.2,0.1-2.3,0.2c-1.1,0.1-1.9,0.1-2.4,0.2
			c-0.3,0.6-0.7,1.1-1.1,1.6l3,2.4C134.4,168.4,134.5,168.5,134.5,168.6z M117,165.6c1.9,0,3.6-0.4,5-1.2c1.4-0.8,2.1-1.8,2-2.9
			c0-1.1-0.7-2.1-2.1-2.9c-1.4-0.8-3.1-1.2-5-1.2s-3.6,0.4-5,1.2c-1.4,0.8-2.1,1.8-2,2.9c0,1.1,0.7,2.1,2.1,2.9
			C113.3,165.2,115,165.6,117,165.6z"/>
		
			<linearGradient id="SVGID_23_" gradientUnits="userSpaceOnUse" x1="113.9046" y1="110.5408" x2="118.7778" y2="151.5838" gradientTransform="matrix(1 0 0 -1 0 298)">
			<stop  offset="0" style="stop-color:#FF8789"/>
			<stop  offset="0.5276" style="stop-color:#84A2FC"/>
			<stop  offset="0.7178" style="stop-color:#205FE3"/>
			<stop  offset="1" style="stop-color:#030F28"/>
		</linearGradient>
		<path class="st25" d="M134.5,168.6c0,0.2-0.1,0.3-0.3,0.4l-4.3,2.5c-0.2,0.1-0.4,0.2-0.6,0.2c-0.3,0-0.5,0-0.7-0.1l-4.2-1.8
			c-1,0.3-1.8,0.5-2.5,0.6c-0.2,0.6-0.4,1.6-0.6,2.8c0,0.2-0.1,0.3-0.3,0.4c-0.2,0.1-0.4,0.2-0.6,0.2c-0.8,0.1-2.2,0.1-4,0.1
			c-1.9,0-2.9-0.1-3.2-0.3c-0.2-0.1-0.3-0.2-0.3-0.4l-0.6-2.8c-0.9-0.2-1.7-0.4-2.5-0.6c-2,0.9-3.4,1.5-4.2,1.8
			c-0.5,0.2-0.9,0.1-1.3-0.1l-4.4-2.5c-0.2-0.1-0.3-0.2-0.3-0.4c0-0.2,0.1-0.3,0.2-0.4l3-2.4c-0.4-0.5-0.8-1-1-1.4l-4.9-0.4
			c-0.3,0-0.5-0.1-0.7-0.2c-0.2-0.1-0.3-0.3-0.3-0.4c-0.2-1.8-0.2-3.1,0.1-3.8c0.1-0.1,0.2-0.3,0.3-0.3c0.2-0.1,0.4-0.2,0.6-0.2
			c0.5-0.1,1.2-0.1,2.3-0.2c1.1-0.1,1.9-0.1,2.4-0.2c0.3-0.6,0.7-1.1,1.1-1.6l-3.1-2.4c-0.2-0.1-0.2-0.2-0.2-0.4
			c0-0.2,0.1-0.3,0.3-0.4l4.3-2.5c0.2-0.1,0.4-0.2,0.6-0.2c0.3,0,0.5,0,0.6,0.1l4.2,1.8c0.8-0.3,1.6-0.5,2.6-0.6
			c0.2-0.7,0.4-1.7,0.6-2.8c0-0.2,0.1-0.3,0.3-0.4c0.1-0.1,0.3-0.1,0.6-0.2c0.8-0.1,2.1-0.1,4-0.1c1.9,0,3,0.1,3.2,0.3
			c0.2,0.1,0.3,0.2,0.3,0.4l0.6,2.8c0.9,0.2,1.7,0.4,2.5,0.6c2-0.9,3.4-1.5,4.2-1.8c0.5-0.2,0.9-0.1,1.3,0.1l4.3,2.5
			c0.2,0.1,0.3,0.2,0.3,0.4c0,0.2,0,0.3-0.2,0.4l-3,2.4c0.4,0.5,0.8,1,1,1.4l4.9,0.4c0.2,0,0.5,0.1,0.7,0.2c0.2,0.1,0.3,0.2,0.3,0.4
			c0.2,1.9,0.1,3.1-0.1,3.8c0,0.1-0.1,0.2-0.3,0.3c-0.2,0.1-0.4,0.2-0.6,0.2c-0.5,0.1-1.2,0.1-2.3,0.2c-1.1,0.1-1.9,0.1-2.4,0.2
			c-0.3,0.6-0.7,1.1-1.1,1.6l3,2.4C134.4,168.4,134.5,168.5,134.5,168.6z M117,165.6c1.9,0,3.6-0.4,5-1.2c1.4-0.8,2.1-1.8,2-2.9
			c0-1.1-0.7-2.1-2.1-2.9c-1.4-0.8-3.1-1.2-5-1.2s-3.6,0.4-5,1.2c-1.4,0.8-2.1,1.8-2,2.9c0,1.1,0.7,2.1,2.1,2.9
			C113.3,165.2,115,165.6,117,165.6z"/>
	</g>
	<g>
		
			<linearGradient id="SVGID_24_" gradientUnits="userSpaceOnUse" x1="138.0232" y1="164.1471" x2="142.8482" y2="164.1471" gradientTransform="matrix(1 0 0 -1 0 298)">
			<stop  offset="0.1723" style="stop-color:#2E3192"/>
			<stop  offset="0.6042" style="stop-color:#000547"/>
		</linearGradient>
		<path class="st26" d="M142.6,137.4C142.7,137.4,142.7,137.3,142.6,137.4C142.7,137.3,142.7,137.3,142.6,137.4
			c0.1-0.1,0.1-0.1,0.1-0.1c0,0,0,0,0,0c0,0,0,0,0-0.1c0,0,0,0,0,0v0c0,0,0,0,0-0.1l0-10.4c0,0,0,0.1,0,0.1c0,0,0,0,0,0
			c0,0,0,0.1,0,0.1c0,0,0,0,0,0c0,0,0,0-0.1,0.1c0,0,0,0,0,0c0,0-0.1,0.1-0.1,0.1l-4.5,3.6l0,10.4l4.5-3.6
			C142.6,137.4,142.6,137.4,142.6,137.4z"/>
		
			<linearGradient id="SVGID_25_" gradientUnits="userSpaceOnUse" x1="90.9795" y1="164.2408" x2="95.8137" y2="164.2408" gradientTransform="matrix(1 0 0 -1 0 298)">
			<stop  offset="0.1723" style="stop-color:#2E3192"/>
			<stop  offset="0.6042" style="stop-color:#000547"/>
		</linearGradient>
		<path class="st27" d="M91.3,137.4l4.5,3.5l0-10.4l-4.5-3.5c-0.2-0.1-0.3-0.3-0.3-0.4l0,10.4C91,137.1,91.1,137.3,91.3,137.4z"/>
		
			<linearGradient id="SVGID_26_" gradientUnits="userSpaceOnUse" x1="106.432" y1="158.9027" x2="127.448" y2="158.9027" gradientTransform="matrix(1 0 0 -1 0 298)">
			<stop  offset="0.1723" style="stop-color:#2E3192"/>
			<stop  offset="0.6042" style="stop-color:#000547"/>
		</linearGradient>
		<path class="st28" d="M106.4,147c0,0,0-0.1,0-0.1c0-0.1,0-0.1,0-0.2c0,0,0-0.1,0-0.1c0,0,0-0.1,0-0.1c0,0,0-0.1,0-0.2
			c0,0,0-0.1,0-0.2c0,0,0-0.1,0-0.1c0,0,0-0.1,0.1-0.1c0,0,0-0.1,0.1-0.2c0,0,0-0.1,0.1-0.2c0,0,0-0.1,0.1-0.1c0,0,0.1-0.1,0.1-0.1
			c0,0,0-0.1,0.1-0.1c0,0,0.1-0.1,0.1-0.1c0,0,0.1-0.1,0.1-0.1c0.1-0.1,0.1-0.2,0.3-0.3c0.1-0.1,0.2-0.2,0.3-0.3
			c0,0,0.1-0.1,0.1-0.1c0,0,0.1-0.1,0.1-0.1c0,0,0.1-0.1,0.1-0.1c0.1,0,0.1-0.1,0.2-0.2c0,0,0.1-0.1,0.1-0.1c0.1,0,0.1-0.1,0.2-0.1
			c0,0,0.1-0.1,0.1-0.1c0.1,0,0.1-0.1,0.2-0.1c0.1,0,0.2-0.1,0.3-0.2c0.2-0.1,0.4-0.3,0.7-0.4c0.1,0,0.1-0.1,0.2-0.1
			c0.2-0.1,0.4-0.2,0.6-0.3c0.1,0,0.1,0,0.2-0.1c0.3-0.1,0.5-0.2,0.7-0.3c0.1,0,0.3-0.1,0.4-0.1c0.1,0,0.3-0.1,0.5-0.1
			c0.1,0,0.3-0.1,0.4-0.1c0.1,0,0.3-0.1,0.5-0.1c0,0,0.1,0,0.1,0c0.3,0,0.5-0.1,0.7-0.1c0.1,0,0.1,0,0.2,0c0.1,0,0.3,0,0.4,0
			c0.3,0,0.5,0,0.7,0c0.3,0,0.6,0,0.9,0c0.3,0,0.5,0,0.8,0c0.2,0,0.4,0,0.6,0c0.2,0,0.3,0,0.5,0c0.1,0,0.3,0,0.5,0
			c0.2,0,0.3,0,0.5,0.1c0.2,0,0.3,0,0.5,0.1c0.2,0,0.3,0.1,0.5,0.1c0.2,0,0.4,0.1,0.6,0.2c0.2,0,0.3,0.1,0.5,0.1
			c0.1,0,0.2,0,0.2,0.1c0.3,0.1,0.5,0.2,0.7,0.3c0.2,0.1,0.4,0.2,0.5,0.2c0.1,0,0.2,0.1,0.3,0.1c0.3,0.1,0.5,0.3,0.8,0.4
			c2.1,1.2,3.1,2.6,3.1,4.3l0-10.4c0-1.7-1.1-3.1-3.1-4.3c-0.3-0.1-0.5-0.3-0.8-0.4c-0.1,0-0.2-0.1-0.3-0.1
			c-0.2-0.1-0.3-0.1-0.5-0.2c0,0,0,0,0,0c-0.3-0.1-0.5-0.2-0.7-0.3c-0.1,0-0.1,0-0.2-0.1c-0.1,0-0.2,0-0.2-0.1c-0.1,0-0.2,0-0.3-0.1
			c-0.2,0-0.4-0.1-0.6-0.1c-0.1,0-0.2,0-0.2,0c-0.1,0-0.2,0-0.3,0c-0.1,0-0.3-0.1-0.5-0.1c-0.1,0-0.2,0-0.2,0s-0.2,0-0.3,0
			c-0.2,0-0.3,0-0.5,0c-0.1,0-0.1,0-0.3,0c-0.1,0-0.2,0-0.3,0c-0.2,0-0.4,0-0.6,0c-0.1,0-0.2,0-0.3,0c-0.1,0-0.3,0-0.5,0
			c-0.2,0-0.4,0-0.7,0c0,0-0.1,0-0.1,0c-0.3,0-0.5,0-0.7,0c-0.1,0-0.2,0-0.3,0c0,0-0.1,0-0.1,0c-0.1,0-0.1,0-0.2,0
			c-0.3,0-0.5,0.1-0.7,0.1c0,0-0.1,0-0.1,0c0,0,0,0-0.1,0c-0.1,0-0.3,0.1-0.4,0.1c-0.1,0-0.3,0.1-0.4,0.1c-0.1,0-0.3,0.1-0.5,0.1
			c-0.1,0-0.3,0.1-0.4,0.1h0c-0.3,0.1-0.5,0.1-0.7,0.3c-0.1,0-0.1,0-0.2,0.1c-0.2,0.1-0.4,0.1-0.6,0.3c-0.1,0-0.1,0.1-0.2,0.1
			c-0.2,0.1-0.5,0.2-0.7,0.4c0,0-0.1,0.1-0.1,0.1c0,0-0.1,0-0.1,0.1c-0.1,0-0.1,0.1-0.2,0.1c0,0-0.1,0.1-0.1,0.1
			c-0.1,0-0.1,0.1-0.2,0.1c0,0-0.1,0.1-0.1,0.1c-0.1,0-0.1,0.1-0.2,0.1c0,0-0.1,0.1-0.1,0.1c0,0-0.1,0.1-0.1,0.1c0,0-0.1,0-0.1,0.1
			l0,0c-0.1,0.1-0.2,0.2-0.3,0.3c-0.1,0.1-0.2,0.2-0.3,0.3c0,0,0,0,0,0c0,0,0,0.1-0.1,0.1c0,0-0.1,0.1-0.1,0.1c0,0,0,0.1-0.1,0.1
			c0,0-0.1,0.1-0.1,0.1l0,0c0,0,0,0,0,0.1c0,0,0,0.1-0.1,0.1c0.1,0.1,0.1,0.2,0.1,0.3c0,0,0,0.1-0.1,0.1c0,0,0,0,0,0.1
			c0,0,0,0.1,0,0.1c0,0,0,0.1,0,0.1c0,0,0,0.1,0,0.1c0,0,0,0.1,0,0.1c0,0,0,0,0,0.1c0,0,0,0,0,0.1c0,0.1,0,0.1,0,0.2
			c0,0,0,0.1,0,0.1c0,0.1,0,0.1,0,0.2c0,0,0,0,0,0.1c0,0,0,0.1,0,0.1l-0.1,10.3c0-0.1,0-0.1,0-0.2C106.4,147.1,106.4,147,106.4,147z
			"/>
		
			<linearGradient id="SVGID_27_" gradientUnits="userSpaceOnUse" x1="76.423" y1="224.2839" x2="130.7021" y2="130.5371" gradientTransform="matrix(1 0 0 -1 0 298)">
			<stop  offset="0" style="stop-color:#FF8789"/>
			<stop  offset="0.5276" style="stop-color:#84A2FC"/>
			<stop  offset="0.5923" style="stop-color:#205FE3"/>
			<stop  offset="1" style="stop-color:#030F28"/>
		</linearGradient>
		<path class="st29" d="M148.3,137.3c0,0.2,0,0.3,0,0.5c0,0,0,0.1,0,0.1c0,0.1,0,0.2,0,0.3c0,0,0,0.1,0,0.1c0,0.1,0,0.2,0,0.3v0
			c0,0.1,0,0.2,0,0.3c0,0,0,0.1,0,0.1c0,0.1,0,0.1,0,0.2c0,0,0,0.1,0,0.1c0,0.1,0,0.2-0.1,0.3c0,0,0,0.1,0,0.1c0,0,0,0.1-0.1,0.1
			l0,0c0,0-0.1,0.1-0.1,0.1c0,0,0,0,0,0c0,0-0.1,0.1-0.1,0.1c-0.1,0-0.2,0.1-0.3,0.1c0,0,0,0-0.1,0c-0.1,0-0.1,0-0.3,0.1
			c0,0,0,0,0,0c0,0-0.1,0-0.1,0c-0.1,0-0.1,0-0.2,0c-0.7,0.1-1.8,0.1-3.4,0.3c-1,0.1-1.8,0.1-2.5,0.2c-0.4,0-0.8,0.1-1.1,0.1
			c-0.1,0.1-0.2,0.2-0.2,0.3c-0.1,0.2-0.2,0.3-0.3,0.5c0,0.1-0.1,0.1-0.2,0.2c-0.1,0.2-0.3,0.3-0.4,0.5c0,0-0.1,0.1-0.1,0.1
			c-0.1,0.2-0.3,0.4-0.5,0.6l0,7.2l-2.1,1.2c-0.1,0-0.2,0.1-0.3,0.1c0,0,0,0-0.1,0c-0.1,0-0.1,0-0.2,0.1h0c0,0,0,0-0.1,0
			c-0.1,0-0.1,0-0.2,0c-0.1,0-0.1,0-0.2,0h0c-0.1,0-0.1,0-0.2,0c0,0,0,0,0,0c-0.1,0-0.2,0-0.2,0h0c-0.1,0-0.1,0-0.2-0.1l-6.2-2.6
			c-0.3,0.1-0.7,0.2-1,0.3c-0.1,0-0.2,0-0.3,0.1c-0.2,0-0.4,0.1-0.6,0.1c-0.1,0-0.2,0-0.4,0.1c-0.2,0-0.4,0.1-0.5,0.1
			c-0.1,0-0.2,0-0.4,0.1c-0.2,0-0.4,0.1-0.6,0.1c0,0.2-0.1,0.3-0.1,0.4c0,0,0,0.1,0,0.1c0,0.1,0,0.2-0.1,0.3c0,0.1,0,0.1,0,0.2
			c0,0.1,0,0.2-0.1,0.3c0,0.1,0,0.1,0,0.2c0,0.1-0.1,0.3-0.1,0.4c0,0,0,0.1,0,0.1v0c0,0,0,0.1,0,0.2c0,0.1,0,0.3-0.1,0.4
			c0,0.1,0,0.1,0,0.2c0,0.1,0,0.3-0.1,0.4c0,0.1,0,0.1,0,0.2c0,0.2-0.1,0.4-0.1,0.6c0,0.1,0,0.1,0,0.1c0,0,0,0,0,0
			c0,0,0,0.1-0.1,0.1c0,0,0,0,0,0c0,0-0.1,0.1-0.1,0.1c0,0-0.1,0-0.1,0.1c0,0,0,0-0.1,0c-0.1,0-0.2,0.1-0.3,0.1c0,0-0.1,0-0.1,0
			c0,0-0.1,0-0.1,0c0,0-0.1,0-0.1,0c0,0,0,0-0.1,0c-0.1,0-0.2,0-0.2,0c-0.2,0-0.3,0-0.4,0c0,0-0.1,0-0.2,0c-0.1,0-0.2,0-0.4,0
			c-0.1,0-0.1,0-0.2,0c-0.1,0-0.3,0-0.4,0c-0.1,0-0.1,0-0.2,0c-0.2,0-0.4,0-0.6,0c0,0-0.1,0-0.1,0c-0.2,0-0.4,0-0.7,0h0
			c-0.2,0-0.5,0-0.7,0c0,0-0.1,0-0.1,0c-0.3,0-0.5,0-0.8,0c0,0-0.1,0-0.1,0c-0.3,0-0.6,0-0.9,0c-0.3,0-0.5,0-0.7,0c0,0-0.1,0-0.1,0
			c-0.2,0-0.4,0-0.6,0c0,0-0.1,0-0.1,0c-0.1,0-0.2,0-0.3,0c0,0-0.1,0-0.1,0c-0.1,0-0.2,0-0.3,0c0,0-0.1,0-0.1,0c-0.1,0-0.2,0-0.3,0
			c0,0-0.1,0-0.1,0c-0.1,0-0.2,0-0.3,0c0,0,0,0-0.1,0c-0.1,0-0.2,0-0.3,0c0,0-0.1,0-0.1,0c-0.1,0-0.1,0-0.2,0c0,0,0,0-0.1,0
			c-0.1,0-0.2,0-0.3,0c0,0,0,0-0.1,0c0,0-0.1,0-0.1,0h0c0,0-0.1,0-0.1,0h0c0,0-0.1,0-0.1,0c-0.2-0.2-0.4-0.3-0.5-0.6l-0.9-4.1
			c-0.3-0.1-0.6-0.1-0.9-0.2c-0.4-0.1-0.7-0.1-1.1-0.3c-0.1,0-0.2,0-0.3-0.1c-0.3-0.1-0.5-0.2-0.8-0.2c-0.2,0-0.4-0.1-0.6-0.2
			c-2.9,1.3-5,2.2-6.2,2.6c0,0-0.1,0-0.1,0c-0.1,0-0.1,0-0.2,0.1c0,0-0.1,0-0.1,0c0,0,0,0-0.1,0c-0.1,0-0.1,0-0.2,0
			c-0.1,0-0.1,0-0.2,0c-0.1,0-0.1,0-0.2,0c0,0,0,0,0,0c-0.1,0-0.1,0-0.2,0c0,0,0,0-0.1,0c0,0-0.1,0-0.1,0c-0.1,0-0.2-0.1-0.3-0.1
			l-2.1-1.2l0-7.2c-0.6-0.7-1.2-1.4-1.5-2.1l-7.1-0.4c-0.1,0-0.2,0-0.3,0c-0.1,0-0.1,0-0.2,0c0,0,0,0,0,0c-0.1,0-0.1,0-0.2-0.1
			c-0.1,0-0.1-0.1-0.3-0.1c-0.3-0.1-0.4-0.4-0.4-0.6c-0.1-1.3-0.2-2.4-0.2-3.3v10.4c0,0.9,0,2,0.2,3.3c0,0.2,0.1,0.4,0.4,0.6
			c0.1,0,0.1,0.1,0.3,0.1c0.1,0,0.1,0,0.2,0.1c0,0,0,0,0,0c0,0,0.1,0,0.1,0c0,0,0.1,0,0.1,0c0,0,0.1,0,0.1,0c0,0,0.1,0,0.1,0l4,0.3
			v6.4c0,0,0,0.1,0,0.1c0,0.2,0.2,0.4,0.4,0.6l6.4,3.7c0.1,0,0.2,0.1,0.3,0.1h0c0,0,0.1,0,0.1,0c0,0,0,0,0.1,0c0,0,0,0,0,0
			c0,0,0.1,0,0.1,0c0,0,0,0,0,0c0,0,0,0,0,0c0,0,0,0,0.1,0s0.1,0,0.1,0c0,0,0.1,0,0.1,0c0,0,0.1,0,0.1,0s0.1,0,0.1,0s0,0,0.1,0
			c0,0,0,0,0.1,0h0h0c0.1,0,0.1,0,0.2-0.1h0c0,0,0,0,0.1,0c1.2-0.4,3.3-1.3,6.2-2.6c0.1,0,0.3,0.1,0.4,0.1c0.1,0,0.1,0,0.2,0
			c0.3,0.1,0.5,0.2,0.8,0.2c0.1,0,0.2,0,0.3,0.1c0.4,0.1,0.7,0.2,1.1,0.3c0,0,0,0,0,0c0.3,0.1,0.6,0.1,0.9,0.2c0,0,0,0,0,0l0.9,4.1
			c0.1,0.3,0.3,0.4,0.5,0.6c0,0,0.1,0,0.1,0h0c0,0,0.1,0,0.1,0h0c0,0,0.1,0,0.1,0h0h0c0.1,0,0.2,0,0.3,0h0c0.1,0,0.1,0,0.2,0
			c0,0,0.1,0,0.1,0c0.1,0,0.2,0,0.3,0h0c0.1,0,0.2,0,0.3,0c0,0,0.1,0,0.1,0c0.1,0,0.2,0,0.3,0c0,0,0.1,0,0.1,0c0.1,0,0.2,0,0.3,0
			c0,0,0.1,0,0.1,0c0.1,0,0.2,0,0.3,0c0,0,0.1,0,0.1,0h0c0.2,0,0.4,0,0.6,0c0,0,0.1,0,0.1,0c0.2,0,0.4,0,0.7,0c0.3,0,0.6,0,0.9,0
			c0,0,0.1,0,0.1,0c0.3,0,0.6,0,0.8,0c0,0,0.1,0,0.1,0c0.3,0,0.5,0,0.7,0c0.3,0,0.5,0,0.7,0c0,0,0.1,0,0.1,0c0.2,0,0.4,0,0.5,0
			c0,0,0,0,0.1,0c0.1,0,0.1,0,0.2,0c0.2,0,0.3,0,0.4,0c0.1,0,0.1,0,0.2,0c0.1,0,0.3,0,0.4,0c0,0,0.1,0,0.2,0c0.2,0,0.3,0,0.4,0
			c0.1,0,0.1,0,0.2,0h0c0,0,0,0,0.1,0c0,0,0,0,0.1,0c0,0,0,0,0.1,0c0,0,0.1,0,0.2,0h0h0c0.1,0,0.2-0.1,0.3-0.1c0,0,0,0,0,0
			c0,0,0,0,0,0c0,0,0.1,0,0.1-0.1c0,0,0.1-0.1,0.1-0.1c0,0,0,0,0,0c0,0,0,0,0-0.1c0,0,0,0,0-0.1c0,0,0,0,0,0c0,0,0-0.1,0-0.1v0
			c0-0.2,0.1-0.4,0.1-0.6c0-0.1,0-0.1,0-0.2c0-0.1,0-0.3,0.1-0.4c0-0.1,0-0.1,0-0.2c0-0.2,0-0.3,0.1-0.4c0,0,0-0.1,0-0.1
			c0-0.1,0-0.1,0-0.2c0-0.1,0.1-0.3,0.1-0.4c0-0.1,0-0.2,0-0.2c0-0.1,0-0.2,0.1-0.3c0-0.1,0-0.1,0-0.2c0-0.1,0-0.2,0.1-0.3
			c0,0,0-0.1,0-0.1c0-0.2,0.1-0.3,0.1-0.4c0.1,0,0.1,0,0.2,0c0.1,0,0.3,0,0.4-0.1c0.1,0,0.2,0,0.4-0.1c0.2,0,0.3-0.1,0.5-0.1
			c0.1,0,0.2,0,0.4-0.1c0.2,0,0.4-0.1,0.6-0.1c0.1,0,0.2,0,0.3-0.1c0.3-0.1,0.7-0.2,1-0.3l6.2,2.6c0,0,0.1,0,0.1,0h0h0h0
			c0,0,0.1,0,0.1,0h0c0,0,0,0,0,0c0,0,0,0,0.1,0c0,0,0.1,0,0.1,0c0,0,0,0,0,0h0c0,0,0,0,0.1,0c0,0,0.1,0,0.1,0h0c0.1,0,0.1,0,0.2,0
			c0,0,0,0,0.1,0c0,0,0,0,0,0c0.1,0,0.1,0,0.2-0.1h0h0c0.1,0,0.2-0.1,0.3-0.1l6.4-3.7c0,0,0,0,0,0c0,0,0,0,0,0c0,0,0.1-0.1,0.1-0.1
			c0,0,0,0,0,0c0,0,0,0,0,0l0,0c0,0,0-0.1,0.1-0.1c0,0,0,0,0,0c0,0,0,0,0,0c0,0,0,0,0-0.1c0,0,0-0.1,0-0.1v-6.6c0.1,0,0.3,0,0.4,0
			c1.6-0.1,2.7-0.2,3.4-0.3c0,0,0,0,0,0c0,0,0.1,0,0.1,0c0,0,0.1,0,0.1,0s0,0,0,0c0.1,0,0.1,0,0.3-0.1h0h0c0.1,0,0.2-0.1,0.3-0.1
			c0,0,0,0,0,0c0,0,0.1-0.1,0.1-0.1c0,0,0,0,0,0c0,0,0,0,0.1,0l0,0l0,0c0,0,0,0,0,0c0,0,0,0,0-0.1v0c0,0,0,0,0-0.1v0
			c0-0.1,0-0.2,0.1-0.3v0v0c0-0.1,0-0.1,0-0.2c0,0,0-0.1,0-0.1c0-0.1,0-0.2,0-0.3v0c0-0.1,0-0.2,0-0.3c0,0,0-0.1,0-0.1
			c0-0.1,0-0.2,0-0.3c0,0,0,0,0-0.1v0c0-0.1,0-0.3,0-0.5L148.3,137.3z"/>
		
			<linearGradient id="SVGID_28_" gradientUnits="userSpaceOnUse" x1="106.7779" y1="113.8133" x2="119.9559" y2="174.6186" gradientTransform="matrix(1 0 0 -1 0 298)">
			<stop  offset="0" style="stop-color:#FF8789"/>
			<stop  offset="0.5276" style="stop-color:#84A2FC"/>
			<stop  offset="0.7178" style="stop-color:#205FE3"/>
			<stop  offset="1" style="stop-color:#030F28"/>
		</linearGradient>
		<path class="st30" d="M142.9,147.5c0,0.2-0.2,0.4-0.4,0.5l-6.4,3.7c-0.2,0.2-0.5,0.2-0.9,0.3c-0.4,0-0.7,0-1-0.1l-6.2-2.6
			c-1.4,0.4-2.7,0.7-3.7,0.9c-0.3,0.9-0.6,2.3-0.9,4.1c0,0.3-0.2,0.4-0.4,0.6c-0.3,0.2-0.6,0.2-0.9,0.2c-1.2,0.1-3.2,0.1-6,0.1
			c-2.8,0-4.3-0.1-4.8-0.4c-0.2-0.1-0.4-0.3-0.5-0.6l-0.9-4.1c-1.3-0.2-2.5-0.5-3.7-0.9c-2.9,1.3-5,2.2-6.2,2.6
			c-0.7,0.2-1.3,0.2-1.9-0.2l-6.4-3.7c-0.3-0.1-0.4-0.3-0.4-0.6s0.1-0.4,0.3-0.6l4.5-3.6c-0.6-0.7-1.2-1.4-1.5-2.1l-7.2-0.6
			c-0.4,0-0.7-0.1-1-0.3c-0.3-0.1-0.4-0.4-0.4-0.6c-0.3-2.7-0.2-4.5,0.1-5.6c0.1-0.2,0.2-0.4,0.4-0.5c0.2-0.1,0.5-0.2,0.9-0.3
			c0.7-0.1,1.8-0.1,3.4-0.3c1.6-0.1,2.8-0.2,3.6-0.3c0.4-0.9,1-1.6,1.7-2.4l-4.5-3.5c-0.2-0.1-0.3-0.3-0.3-0.6
			c0-0.2,0.2-0.4,0.4-0.5l6.4-3.7c0.2-0.1,0.5-0.2,0.9-0.3c0.4,0,0.7,0,0.9,0.1l6.2,2.7c1.2-0.4,2.4-0.7,3.8-0.9
			c0.3-1.1,0.6-2.5,0.9-4.1c0-0.3,0.2-0.4,0.4-0.6c0.2-0.1,0.5-0.2,0.9-0.2c1.2-0.1,3.2-0.1,6-0.1c2.8,0,4.4,0.1,4.8,0.4
			c0.3,0.1,0.4,0.3,0.5,0.6l0.9,4.1c1.3,0.2,2.5,0.5,3.7,0.9c2.9-1.3,5-2.2,6.2-2.6c0.7-0.2,1.3-0.2,1.9,0.1l6.4,3.7
			c0.3,0.1,0.4,0.3,0.5,0.6c0,0.2,0,0.4-0.3,0.6l-4.5,3.6c0.6,0.7,1.2,1.4,1.5,2.1l7.2,0.6c0.3,0,0.7,0.1,1,0.3
			c0.3,0.1,0.4,0.3,0.5,0.6c0.2,2.8,0.2,4.6-0.1,5.6c0,0.1-0.1,0.3-0.5,0.5c-0.2,0.1-0.5,0.2-0.9,0.3c-0.7,0.1-1.8,0.1-3.4,0.3
			c-1.6,0.1-2.8,0.2-3.6,0.3c-0.4,0.9-1,1.6-1.6,2.3l4.5,3.6C142.9,147.2,142.9,147.3,142.9,147.5z M117,143.1
			c2.9,0,5.4-0.6,7.4-1.8c2-1.2,3.1-2.6,3-4.3c0-1.7-1-3.1-3.1-4.3c-2.1-1.2-4.5-1.8-7.4-1.8c-2.9,0-5.4,0.6-7.4,1.8
			c-2,1.2-3.1,2.6-3,4.3c0,1.7,1,3.1,3.1,4.3C111.6,142.5,114.1,143.1,117,143.1z"/>
		
			<linearGradient id="SVGID_29_" gradientUnits="userSpaceOnUse" x1="112.4335" y1="122.5733" x2="119.6531" y2="183.3817" gradientTransform="matrix(1 0 0 -1 0 298)">
			<stop  offset="0" style="stop-color:#FF8789"/>
			<stop  offset="0.5276" style="stop-color:#84A2FC"/>
			<stop  offset="0.7178" style="stop-color:#205FE3"/>
			<stop  offset="1" style="stop-color:#030F28"/>
		</linearGradient>
		<path class="st31" d="M142.9,147.5c0,0.2-0.2,0.4-0.4,0.5l-6.4,3.7c-0.2,0.2-0.5,0.2-0.9,0.3c-0.4,0-0.7,0-1-0.1l-6.2-2.6
			c-1.4,0.4-2.7,0.7-3.7,0.9c-0.3,0.9-0.6,2.3-0.9,4.1c0,0.3-0.2,0.4-0.4,0.6c-0.3,0.2-0.6,0.2-0.9,0.2c-1.2,0.1-3.2,0.1-6,0.1
			c-2.8,0-4.3-0.1-4.8-0.4c-0.2-0.1-0.4-0.3-0.5-0.6l-0.9-4.1c-1.3-0.2-2.5-0.5-3.7-0.9c-2.9,1.3-5,2.2-6.2,2.6
			c-0.7,0.2-1.3,0.2-1.9-0.2l-6.4-3.7c-0.3-0.1-0.4-0.3-0.4-0.6s0.1-0.4,0.3-0.6l4.5-3.6c-0.6-0.7-1.2-1.4-1.5-2.1l-7.2-0.6
			c-0.4,0-0.7-0.1-1-0.3c-0.3-0.1-0.4-0.4-0.4-0.6c-0.3-2.7-0.2-4.5,0.1-5.6c0.1-0.2,0.2-0.4,0.4-0.5c0.2-0.1,0.5-0.2,0.9-0.3
			c0.7-0.1,1.8-0.1,3.4-0.3c1.6-0.1,2.8-0.2,3.6-0.3c0.4-0.9,1-1.6,1.7-2.4l-4.5-3.5c-0.2-0.1-0.3-0.3-0.3-0.6
			c0-0.2,0.2-0.4,0.4-0.5l6.4-3.7c0.2-0.1,0.5-0.2,0.9-0.3c0.4,0,0.7,0,0.9,0.1l6.2,2.7c1.2-0.4,2.4-0.7,3.8-0.9
			c0.3-1.1,0.6-2.5,0.9-4.1c0-0.3,0.2-0.4,0.4-0.6c0.2-0.1,0.5-0.2,0.9-0.2c1.2-0.1,3.2-0.1,6-0.1c2.8,0,4.4,0.1,4.8,0.4
			c0.3,0.1,0.4,0.3,0.5,0.6l0.9,4.1c1.3,0.2,2.5,0.5,3.7,0.9c2.9-1.3,5-2.2,6.2-2.6c0.7-0.2,1.3-0.2,1.9,0.1l6.4,3.7
			c0.3,0.1,0.4,0.3,0.5,0.6c0,0.2,0,0.4-0.3,0.6l-4.5,3.6c0.6,0.7,1.2,1.4,1.5,2.1l7.2,0.6c0.3,0,0.7,0.1,1,0.3
			c0.3,0.1,0.4,0.3,0.5,0.6c0.2,2.8,0.2,4.6-0.1,5.6c0,0.1-0.1,0.3-0.5,0.5c-0.2,0.1-0.5,0.2-0.9,0.3c-0.7,0.1-1.8,0.1-3.4,0.3
			c-1.6,0.1-2.8,0.2-3.6,0.3c-0.4,0.9-1,1.6-1.6,2.3l4.5,3.6C142.9,147.2,142.9,147.3,142.9,147.5z M117,143.1
			c2.9,0,5.4-0.6,7.4-1.8c2-1.2,3.1-2.6,3-4.3c0-1.7-1-3.1-3.1-4.3c-2.1-1.2-4.5-1.8-7.4-1.8c-2.9,0-5.4,0.6-7.4,1.8
			c-2,1.2-3.1,2.6-3,4.3c0,1.7,1,3.1,3.1,4.3C111.6,142.5,114.1,143.1,117,143.1z"/>
	</g>
</g>
<g id="line1">
	
		<linearGradient id="SVGID_30_" gradientUnits="userSpaceOnUse" x1="117.2596" y1="898.98" x2="116.9496" y2="815.23" gradientTransform="matrix(1 0 0 1 0 -724)">
		<stop  offset="0" style="stop-color:#FF8789"/>
		<stop  offset="0.53" style="stop-color:#84A2FC"/>
		<stop  offset="0.72" style="stop-color:#205FE3"/>
		<stop  offset="1" style="stop-color:#030F28;stop-opacity:0"/>
	</linearGradient>
	<path class="st32" d="M191.2,106.3c4.4,2.7,4.4,6.9,0.1,9.6l-65.9,39.2c-5,2.7-11.1,2.7-16.1,0l-66.3-39.2
		c-4.5-2.7-4.5-6.9-0.1-9.6l65.9-39.2c5-2.7,11.1-2.7,16.1,0L191.2,106.3z"/>
</g>
<g id="layout">
	<g>
		<g class="st8">
			
				<linearGradient id="SVGID_31_" gradientUnits="userSpaceOnUse" x1="100.953" y1="987.8712" x2="120.533" y2="772.3912" gradientTransform="matrix(1 0 0 1 0 -724)">
				<stop  offset="0" style="stop-color:#FF8789"/>
				<stop  offset="0.44" style="stop-color:#84A2FC"/>
				<stop  offset="0.72" style="stop-color:#205FE3"/>
				<stop  offset="1" style="stop-color:#030F28;stop-opacity:0"/>
			</linearGradient>
			<path class="st33" d="M182.2,87.5c3.9,2.3,3.9,6.1,0.1,8.4l-58.4,34.5c-4.5,2.4-9.8,2.4-14.3,0L51,96c-4-2.3-4-6.1-0.1-8.4
				L109.2,53c4.5-2.4,9.8-2.4,14.3,0L182.2,87.5z"/>
			
				<linearGradient id="SVGID_32_" gradientUnits="userSpaceOnUse" x1="116.6602" y1="872.01" x2="116.5802" y2="805.55" gradientTransform="matrix(1 0 0 1 0 -724)">
				<stop  offset="0" style="stop-color:#FF8789"/>
				<stop  offset="0.53" style="stop-color:#84A2FC"/>
				<stop  offset="0.72" style="stop-color:#205FE3"/>
				<stop  offset="1" style="stop-color:#030F28"/>
			</linearGradient>
			<path class="st34" d="M182.2,87.5c3.9,2.3,3.9,6.1,0.1,8.4l-58.4,34.5c-4.5,2.4-9.8,2.4-14.3,0L51,96c-4-2.3-4-6.1-0.1-8.4
				L109.2,53c4.5-2.4,9.8-2.4,14.3,0L182.2,87.5z"/>
		</g>
		
			<linearGradient id="SVGID_33_" gradientUnits="userSpaceOnUse" x1="116.951" y1="869.2299" x2="116.681" y2="794.8099" gradientTransform="matrix(1 0 0 1 0 -724)">
			<stop  offset="0" style="stop-color:#FF8789"/>
			<stop  offset="0.53" style="stop-color:#84A2FC"/>
			<stop  offset="0.72" style="stop-color:#205FE3"/>
			<stop  offset="1" style="stop-color:#030F28;stop-opacity:0"/>
		</linearGradient>
		<path class="st35" d="M182.7,84.2c4,2.4,4,6.1,0.1,8.5l-58.7,34.8c-4.5,2.4-9.9,2.4-14.3,0l-59-34.8c-4-2.4-4-6.1-0.1-8.5
			l58.7-34.8c4.5-2.4,9.9-2.4,14.3,0L182.7,84.2z"/>
		<g>
			
				<linearGradient id="SVGID_34_" gradientUnits="userSpaceOnUse" x1="-1554.1104" y1="1812.7423" x2="-1480.7203" y2="1779.0023" gradientTransform="matrix(0.87 -0.5 0.87 0.5 -90.65 -1579.95)">
				<stop  offset="0" style="stop-color:#FF8789"/>
				<stop  offset="0.44" style="stop-color:#84A2FC"/>
				<stop  offset="0.72" style="stop-color:#205FE3"/>
				<stop  offset="1" style="stop-color:#030F28;stop-opacity:0"/>
			</linearGradient>
			<path class="st36" d="M130,42.8l1.9-1.1c0.8-0.4,1.7-0.4,2.5,0l59.9,34.6c0.4,0.1,0.6,0.6,0.5,1c-0.1,0.2-0.3,0.4-0.5,0.5
				l-1.9,1.1c-0.8,0.4-1.7,0.4-2.5,0L130,44.3c-0.4-0.1-0.6-0.6-0.5-1C129.6,43.1,129.8,42.9,130,42.8z"/>
			
				<linearGradient id="SVGID_35_" gradientUnits="userSpaceOnUse" x1="-1493.4507" y1="1834.3568" x2="-1495.2706" y2="1775.2668" gradientTransform="matrix(0.87 -0.5 0.87 0.5 -90.65 -1579.95)">
				<stop  offset="0" style="stop-color:#FF8789"/>
				<stop  offset="0.53" style="stop-color:#84A2FC"/>
				<stop  offset="0.72" style="stop-color:#205FE3"/>
				<stop  offset="1" style="stop-color:#030F28"/>
			</linearGradient>
			<path class="st37" d="M130,42.8l1.9-1.1c0.8-0.4,1.7-0.4,2.5,0l59.9,34.6c0.4,0.1,0.6,0.6,0.5,1c-0.1,0.2-0.3,0.4-0.5,0.5
				l-1.9,1.1c-0.8,0.4-1.7,0.4-2.5,0L130,44.3c-0.4-0.1-0.6-0.6-0.5-1C129.6,43.1,129.8,42.9,130,42.8z"/>
		</g>
		<g>
			
				<linearGradient id="SVGID_36_" gradientUnits="userSpaceOnUse" x1="-1495.9071" y1="1829.3436" x2="-1481.0671" y2="1747.8737" gradientTransform="matrix(0.87 -0.5 0.87 0.5 -151.23 -1559.75)">
				<stop  offset="0" style="stop-color:#FF8789"/>
				<stop  offset="0.44" style="stop-color:#84A2FC"/>
				<stop  offset="0.72" style="stop-color:#205FE3"/>
				<stop  offset="1" style="stop-color:#030F28;stop-opacity:0"/>
			</linearGradient>
			<path class="st38" d="M70.7,62.3L88.6,52c1.6-0.8,3.5-0.8,5.1,0l22.1,12.8c1.4,0.8,1.4,2.1,0,2.9L97.9,78c-1.6,0.8-3.5,0.8-5.1,0
				L70.7,65.2C69.3,64.4,69.3,63.1,70.7,62.3z"/>
			
				<linearGradient id="SVGID_37_" gradientUnits="userSpaceOnUse" x1="-1484.1826" y1="1785.809" x2="-1484.2527" y2="1760.059" gradientTransform="matrix(0.87 -0.5 0.87 0.5 -151.23 -1559.75)">
				<stop  offset="0" style="stop-color:#FF8789"/>
				<stop  offset="0.53" style="stop-color:#84A2FC"/>
				<stop  offset="0.72" style="stop-color:#205FE3"/>
				<stop  offset="1" style="stop-color:#030F28"/>
			</linearGradient>
			<path class="st39" d="M70.7,62.3L88.6,52c1.6-0.8,3.5-0.8,5.1,0l22.1,12.8c1.4,0.8,1.4,2.1,0,2.9L97.9,78c-1.6,0.8-3.5,0.8-5.1,0
				L70.7,65.2C69.3,64.4,69.3,63.1,70.7,62.3z"/>
		</g>
		<g>
			
				<linearGradient id="SVGID_38_" gradientUnits="userSpaceOnUse" x1="-1473.6251" y1="1839.4552" x2="-1465.4951" y2="1747.2052" gradientTransform="matrix(0.87 -0.5 0.87 0.5 -116.93 -1528.13)">
				<stop  offset="0" style="stop-color:#FF8789"/>
				<stop  offset="0.44" style="stop-color:#84A2FC"/>
				<stop  offset="0.72" style="stop-color:#205FE3"/>
				<stop  offset="1" style="stop-color:#030F28;stop-opacity:0"/>
			</linearGradient>
			<path class="st40" d="M105,93.9l47.4-27.4c1.6-0.8,3.5-0.8,5.1,0l25,14.4c1.4,0.8,1.4,2.1,0,2.9L135,111.2
				c-1.6,0.8-3.5,0.8-5.1,0L105,96.8C103.6,96,103.6,94.7,105,93.9z"/>
			
				<linearGradient id="SVGID_39_" gradientUnits="userSpaceOnUse" x1="-1467.2112" y1="1789.7206" x2="-1467.2511" y2="1761.2905" gradientTransform="matrix(0.87 -0.5 0.87 0.5 -116.93 -1528.13)">
				<stop  offset="0" style="stop-color:#FF8789"/>
				<stop  offset="0.53" style="stop-color:#84A2FC"/>
				<stop  offset="0.72" style="stop-color:#205FE3"/>
				<stop  offset="1" style="stop-color:#030F28"/>
			</linearGradient>
			<path class="st41" d="M105,93.9l47.4-27.4c1.6-0.8,3.5-0.8,5.1,0l25,14.4c1.4,0.8,1.4,2.1,0,2.9L135,111.2
				c-1.6,0.8-3.5,0.8-5.1,0L105,96.8C103.6,96,103.6,94.7,105,93.9z"/>
		</g>
		<g>
			
				<linearGradient id="SVGID_40_" gradientUnits="userSpaceOnUse" x1="-1522.5582" y1="1814.759" x2="-1485.7183" y2="1752.3091" gradientTransform="matrix(0.87 -0.5 0.87 0.5 -162.91 -1552.86)">
				<stop  offset="0" style="stop-color:#FF8789"/>
				<stop  offset="0.44" style="stop-color:#84A2FC"/>
				<stop  offset="0.72" style="stop-color:#205FE3"/>
				<stop  offset="1" style="stop-color:#030F28;stop-opacity:0"/>
			</linearGradient>
			<path class="st42" d="M57.8,69.9l4.6-2.6c0.8-0.4,1.7-0.4,2.5,0l24.7,14.2c0.7,0.4,0.7,1.1,0,1.5L85,85.6c-0.8,0.4-1.7,0.4-2.5,0
				L57.8,71.4C57.1,71,57.1,70.3,57.8,69.9z"/>
			
				<linearGradient id="SVGID_41_" gradientUnits="userSpaceOnUse" x1="-1493.1749" y1="1785.802" x2="-1493.3849" y2="1760.052" gradientTransform="matrix(0.87 -0.5 0.87 0.5 -162.91 -1552.86)">
				<stop  offset="0" style="stop-color:#FF8789"/>
				<stop  offset="0.53" style="stop-color:#84A2FC"/>
				<stop  offset="0.72" style="stop-color:#205FE3"/>
				<stop  offset="1" style="stop-color:#030F28"/>
			</linearGradient>
			<path class="st43" d="M57.8,69.9l4.6-2.6c0.8-0.4,1.7-0.4,2.5,0l24.7,14.2c0.7,0.4,0.7,1.1,0,1.5L85,85.6c-0.8,0.4-1.7,0.4-2.5,0
				L57.8,71.4C57.1,71,57.1,70.3,57.8,69.9z"/>
		</g>
		<g>
			
				<linearGradient id="SVGID_42_" gradientUnits="userSpaceOnUse" x1="-1522.5563" y1="1814.7603" x2="-1485.7163" y2="1752.3103" gradientTransform="matrix(0.87 -0.5 0.87 0.5 -174.59 -1545.5601)">
				<stop  offset="0" style="stop-color:#FF8789"/>
				<stop  offset="0.44" style="stop-color:#84A2FC"/>
				<stop  offset="0.72" style="stop-color:#205FE3"/>
				<stop  offset="1" style="stop-color:#030F28;stop-opacity:0"/>
			</linearGradient>
			<path class="st44" d="M46.1,77.2l4.6-2.6c0.8-0.4,1.7-0.4,2.5,0l24.7,14.2c0.7,0.4,0.7,1.1,0,1.5l-4.6,2.6
				c-0.8,0.4-1.7,0.4-2.5,0L46.1,78.7C45.4,78.3,45.4,77.6,46.1,77.2z"/>
			
				<linearGradient id="SVGID_43_" gradientUnits="userSpaceOnUse" x1="-1493.1863" y1="1785.8021" x2="-1493.3964" y2="1760.0521" gradientTransform="matrix(0.87 -0.5 0.87 0.5 -174.59 -1545.5601)">
				<stop  offset="0" style="stop-color:#FF8789"/>
				<stop  offset="0.53" style="stop-color:#84A2FC"/>
				<stop  offset="0.72" style="stop-color:#205FE3"/>
				<stop  offset="1" style="stop-color:#030F28"/>
			</linearGradient>
			<path class="st45" d="M46.1,77.2l4.6-2.6c0.8-0.4,1.7-0.4,2.5,0l24.7,14.2c0.7,0.4,0.7,1.1,0,1.5l-4.6,2.6
				c-0.8,0.4-1.7,0.4-2.5,0L46.1,78.7C45.4,78.3,45.4,77.6,46.1,77.2z"/>
		</g>
	</g>
</g>
</svg>
