<?xml version="1.0" encoding="utf-8"?>
<!-- Generator: Adobe Illustrator 25.2.1, SVG Export Plug-In . SVG Version: 6.00 Build 0)  -->
<svg version="1.1" id="Layer_1" xmlns="http://www.w3.org/2000/svg" xmlns:xlink="http://www.w3.org/1999/xlink" x="0px" y="0px"
	 viewBox="0 0 200 250" style="enable-background:new 0 0 200 250;" xml:space="preserve">
<style type="text/css">
	.st0{fill-rule:evenodd;clip-rule:evenodd;fill:url(#SVGID_1_);}
	.st1{fill-rule:evenodd;clip-rule:evenodd;fill:url(#SVGID_2_);}
	.st2{fill-rule:evenodd;clip-rule:evenodd;fill:url(#SVGID_3_);}
	.st3{fill:url(#SVGID_4_);}
	.st4{fill:url(#SVGID_5_);stroke:url(#SVGID_6_);stroke-width:0.91;stroke-miterlimit:10;}
	.st5{fill:url(#SVGID_7_);}
	.st6{fill:none;stroke:url(#SVGID_8_);stroke-width:0.76;stroke-miterlimit:10;}
	.st7{opacity:0.7;}
	.st8{fill-rule:evenodd;clip-rule:evenodd;fill:url(#SVGID_9_);}
	.st9{fill:url(#SVGID_10_);}
	.st10{fill:none;stroke:url(#SVGID_11_);stroke-width:0.76;stroke-miterlimit:10;}
	.st11{fill:url(#SVGID_12_);}
	.st12{fill:url(#SVGID_13_);stroke:url(#SVGID_14_);stroke-width:0.45;}
	.st13{fill:url(#SVGID_15_);}
	.st14{fill:url(#SVGID_16_);stroke:url(#SVGID_17_);stroke-width:0.45;}
	.st15{fill:url(#SVGID_18_);}
	.st16{fill:url(#SVGID_19_);}
	.st17{fill:url(#SVGID_20_);}
	.st18{fill:url(#SVGID_21_);}
	.st19{fill:url(#SVGID_22_);}
	.st20{fill:none;stroke:url(#SVGID_23_);stroke-width:0.29;stroke-miterlimit:10;}
	.st21{fill:url(#SVGID_24_);fill-opacity:0.3;}
	.st22{fill:url(#SVGID_25_);fill-opacity:0.3;}
	.st23{fill:none;stroke:url(#line2-2_1_);stroke-width:0.91;stroke-miterlimit:10;}
	.st24{fill:none;stroke:url(#line1-2_1_);stroke-width:0.91;stroke-miterlimit:10;}
</style>
<g id="brain_1_">
	<g id="brain">
		<g id="brain-2">
			<g id="Capa_1">
				<g>
					
						<linearGradient id="SVGID_1_" gradientUnits="userSpaceOnUse" x1="150.9506" y1="230.6474" x2="113.4807" y2="221.4674" gradientTransform="matrix(1 0 0 -1 0 304)">
						<stop  offset="0" style="stop-color:#FF7D85"/>
						<stop  offset="0.53" style="stop-color:#7AA2FF"/>
						<stop  offset="0.72" style="stop-color:#005FEA"/>
						<stop  offset="1" style="stop-color:#000F2A;stop-opacity:0"/>
					</linearGradient>
					<path class="st0" d="M124.8,110.5c3-0.7,5.6-2.4,7.3-4.9c3.4-1,3.7-3.2,3.5-4.5c1.5-1.4,1.4-2.4,0.3-4.7c0.7-4,0.9-8.5-4-15.1
						c0.3-1.3,0.1-2.7-2.5-4.4c0.6-0.8,0.4-1.8-2.3-3.3c-0.1-2-0.5-3.9-4.4-5.5c-0.4-0.3-0.8-0.5-1.2-0.6c-1.6-3.2-5-5.5-10.1-6.8
						c-1.1-1.4-2.3-2-5.4-2.1l-0.1-0.1c-2.7-1.6-4.2-2.6-8.4-1.3c-2.8-0.7-5.7-0.4-8.3,0.8c-1.1,0.5-2.1,1.3-2.8,2.4l-0.5,0.8
						c-6.4,5-9.2,13.6-6.7,20.7c0.5,1.4,1.1,2.8,1.9,4.2c5.1,9.4,15.3,16.3,25.6,20.7l0.2,0.1l1.1,0.4 M107.8,107.2
						c2.6,1,5.2,1.9,7.8,2.7l0,0c1.9,0.7,4,1,6,1c1.1,0,2.2-0.1,3.3-0.4"/>
					
						<linearGradient id="SVGID_2_" gradientUnits="userSpaceOnUse" x1="132.3253" y1="141.7281" x2="85.4953" y2="229.6581" gradientTransform="matrix(1 0 0 -1 0 304)">
						<stop  offset="0" style="stop-color:#FF7D85"/>
						<stop  offset="0.53" style="stop-color:#7AA2FF"/>
						<stop  offset="0.63" style="stop-color:#005FEA"/>
						<stop  offset="1" style="stop-color:#000F2A;stop-opacity:0"/>
					</linearGradient>
					<path class="st1" d="M70.9,94.9c-2.8-1.3-3.5-4.4-3.4-6.3c-1.4-1.9-1.2-11,1.3-13.3c-0.1-0.6,0-1.3,0.3-1.9
						c0.3-0.6,0.8-1.2,1.4-1.6c0-0.5,0.1-0.9,0.3-1.3c0.3-0.7,0.9-1.2,1.6-1.5c0-0.4,0.1-0.7,0.3-1c0.3-0.7,0.8-1.2,1.5-1.4
						c0.1-0.3,0.2-0.7,0.4-1c0.4-1,1.4-1.7,2.5-1.8c1.1-1.9,3.1-3.1,5.3-3.3c2-1.5,5.2-1.2,7.6-0.4c0.8,0.3,1.7,0.6,2.5,1
						c2.5,0.5,5.1,1.1,6.3,3.5c2.4,0.4,2.8,1.2,2.8,2.1c3,1,3.4,1.9,3.3,2.8c1.7,0.5,2.4,1.2,2.1,2.1c1.2,0.1,2.2,1.1,2.2,2.4
						c4.5,3.8,7.9,8.7,9.9,14.3c1.8,1.6,2.4,3.1,2.1,4.6c1.5,2.3,2.3,4.1,1.9,5.4c0.2,1.3,0.4,2.6,0.8,3.9c1.1,2.1,0.9,4.7-0.4,6.6
						c0,3.3-4.5,6.3-9.2,6.3c-2.4,1.2-5.2,0.9-7.7-0.8c-1.7,0.4-3.5-0.1-4.7-1.4c-1.1,0.4-2.3,0-2.9-1c-2.5,0.4-5.1-0.5-6.8-2.5
						c-0.7,0.4-1.3,0.3-1.8-0.7c-2.1,0.3-7-1.3-8.3-4.1c-0.9,0.6-1.9-0.3-2.1-1.3C76.8,103.2,71.8,99.3,70.9,94.9z"/>
					
						<linearGradient id="SVGID_3_" gradientUnits="userSpaceOnUse" x1="67.0538" y1="253.4736" x2="117.2638" y2="201.1736" gradientTransform="matrix(1 0 0 -1 0 304)">
						<stop  offset="0" style="stop-color:#FF7D85"/>
						<stop  offset="0.39" style="stop-color:#7AA2FF"/>
						<stop  offset="0.76" style="stop-color:#005FEA"/>
						<stop  offset="1" style="stop-color:#000F2A"/>
					</linearGradient>
					<path class="st2" d="M105.9,57.8L105.9,57.8c1.2,0,2.4,0.2,3.5,0.6c0.7,0.3,1.3,0.7,1.8,1.3h0.1c0.1,0,0.2,0.1,0.2,0.2
						c5,1.2,8.4,3.5,10.1,6.7h0.1c0.1,0.1,0.2,0.1,0.2,0.2c1.7,0.5,3.2,1.5,4.4,2.8c0.6,0.9,1,1.9,1,3l0.1,0.1l0,0
						c0.9,0.4,1.7,1.1,2.3,1.9c0.2,0.3,0.3,0.6,0.2,1c0,0.1-0.1,0.3-0.1,0.4v0.1c0.9,0.5,1.6,1.3,2.1,2.3c0.3,0.6,0.4,1.3,0.3,2
						c0,0,0.1,0.1,0.1,0.1c0,0.1,0,0.1,0,0.2c1.9,2.5,3.2,5.3,3.9,8.4c0.4,2.2,0.4,4.4-0.1,6.6c0.5,0.8,0.8,1.8,0.9,2.8
						c-0.1,0.8-0.5,1.6-1.1,2.2c0.1,0.8-0.1,1.7-0.5,2.4c-0.7,1.1-1.9,2-3.2,2.3c-1.8,2.5-4.4,4.3-7.5,5c-0.5,0.2-0.9,0.4-1.3,0.7
						l0,0l-0.2,0.2c-0.4,0.3-0.9,0.5-1.4,0.7c-2,1.9-4.7,3-7.6,3c-2.4,1.1-5.2,0.9-7.4-0.6c0,0.1-0.1,0.1-0.2,0.1
						c-0.1,0-0.2,0-0.3-0.1l-0.2-0.2c-1.5,0.3-3-0.2-4.1-1.2c-0.1,0-0.2,0-0.2,0c-0.1,0-0.2-0.1-0.2-0.2c-1,0.3-2,0-2.6-0.8l0,0
						c-0.1,0-0.1,0-0.2,0c-2.5,0.3-5-0.6-6.6-2.5c-0.7,0.4-1.3,0.3-1.8-0.7c-3,0.1-5.8-1.1-7.8-3.3c-0.2-0.2-0.3-0.5-0.4-0.7h-0.1
						c-0.1,0.1-0.2,0.1-0.4,0.2c-0.8,0.2-1.5-0.6-1.7-1.5c-3.2-0.1-8.3-4-9.2-8.4c-2.8-1.3-3.5-4.4-3.4-6.3
						c-1.4-1.9-1.2-11,1.3-13.3c-0.1-0.6,0-1.3,0.3-1.9c0.3-0.6,0.8-1.2,1.4-1.5c0-0.5,0.1-0.9,0.3-1.3c0.3-0.6,0.8-1.1,1.3-1.4
						c0-0.1,0.1-0.2,0.2-0.2c0.1-0.3,0.2-0.6,0.3-0.8c0.3-0.6,0.8-1.2,1.5-1.4c0.1-0.3,0.2-0.7,0.4-1c0.4-0.9,1.1-1.5,2-1.7
						c0-0.2,0.2-0.3,0.3-0.4h0.3c1.1-1.6,2.8-2.7,4.8-3c0.1-0.2,0.2-0.3,0.4-0.3h0.3c1-0.5,2.1-0.8,3.2-0.8c1.2-1.6,3-2.8,5.1-3.2
						c2-0.5,4.1-0.5,6.2,0c1.6-0.6,3.3-0.7,4.9-0.5C103.5,56.4,104.7,57,105.9,57.8L105.9,57.8z M83.1,61.2L83,61.3l-0.2,0.2h-0.3
						c-0.9,0.1-1.7,0.3-2.5,0.8c-0.6,0.3-1.1,0.7-1.5,1.2c1,0,2,0.1,3.1,0.2l0.6,0.1c0.2,0,0.4,0,0.6,0.1c0-0.1,0-0.2,0.1-0.3
						c0.8-0.8,1.2-1.6,1-2C83.7,61.5,83.4,61.3,83.1,61.2z M77.9,64.3l-0.2,0.4h-0.5c-0.7,0-1.4,0.4-1.7,1.1c1-0.2,2.1-0.2,3.1,0.1
						h0.2l0.3,0.1c0.7,0.2,1.4,0.6,1.8,1.2c1-0.5,2.2-0.5,3.2-0.1c2.1-2.9,5.7-4.4,9.2-4c0.2,0,0.3,0.2,0.3,0.4
						c0,0.2-0.2,0.3-0.3,0.3c-3.5-0.4-6.9,1.2-8.9,4c-0.1,0.1,0,0.4,0.2,0.7c0,0.1,0,0.1,0.1,0.2c1.2-0.3,2.5,0,3.5,0.8
						c3.6-2.5,8-3.6,12.3-3.3l0,0c-0.5-0.4-1.2-0.6-1.8-0.7l-0.4-0.1L98,65.1h-0.1c-3.5-0.1-6.9,0.8-9.8,2.7h-0.2
						c-0.1,0-0.3-0.1-0.4-0.2c-0.1-0.2-0.1-0.4,0.1-0.5c2.9-1.8,6.2-2.8,9.7-2.8c-1.1-1.2-2.9-1.6-5-2.1h-0.2l-0.4-0.3
						c-1.9,0.3-3.7,0.9-5.4,1.9c-0.6,0.4-1.3,0.7-2.1,0.9c-0.3,0.1-0.7,0.2-1.1,0.2c-0.6,0-1.2-0.1-1.8-0.2
						C80.2,64.4,79.1,64.3,77.9,64.3z M90.2,61.2c-1.5,0.4-3,1-4.3,1.8c-0.6,0.4-1.2,0.7-1.9,0.9C83.9,64,83.7,64,83.5,64
						c0.8-1,1.2-1.8,0.9-2.5c-0.1-0.3-0.3-0.5-0.5-0.7c0.7-0.3,1.4-0.4,2.2-0.4c1.2,0,2.4,0.2,3.6,0.5L90.2,61.2z M93,61.3
						c1.6,0.3,3.1,0.8,4.4,1.7c1.5-2.3,4-3.7,6.8-3.9h0.4c0.1,0,0.3-0.1,0.4-0.1l0,0c1-0.1,2-0.1,3-0.1c-0.7-0.1-1.5-0.2-2.2-0.2
						h-0.2l-0.1-0.1l-0.1-0.1l-0.9-0.6c-1.5-0.5-2.5,0-4,0.7l-1,0.4l-0.3,0.1c-0.2,0.1-0.4,0.2-0.6,0.2h-0.2l-0.6-0.1
						c-2.4-0.3-2.7-0.1-4.2,1.5l-0.3,0.4c0,0-0.1-0.3-0.2-0.3S93,61,93,61.1l0,0L93,61.3L93,61.3z M92.7,60.9h-0.1l-0.7,0.1
						c-0.7-0.3-1.3-0.5-2-0.7c-0.3-0.1-0.6-0.2-0.9-0.3c2.9-1.6,6.7-3.1,7.7-2.5c0.2,0.1,0.3,0.2,0.3,0.3c0,0.2,0.2,0.4,0.4,0.4
						c0,0,0,0,0,0c0.2,0,0.4-0.2,0.4-0.4c0,0,0,0,0,0c-0.1-0.2-0.1-0.3-0.2-0.5c1.4-0.5,2.9-0.6,4.3-0.3c0.3,0.1,0.6,0.1,0.8,0.2
						c-0.9,0.2-1.7,0.5-2.6,0.9l-0.9,0.4c-0.3,0.2-0.5,0.3-0.8,0.3L98,58.7c-2.8-0.5-3.1-0.5-5.2,1.7C92.7,60.5,92.7,60.7,92.7,60.9
						z M94.4,56.9c-1,0-2.1,0.1-3.1,0.3c-1.6,0.3-3,1.1-4.2,2.3c0.4,0,0.8,0.1,1.3,0.2c-0.1-0.2,0-0.4,0.2-0.4
						C90.4,58.2,92.3,57.4,94.4,56.9L94.4,56.9z M110.7,60.4c-1.8-0.6-3.7-0.8-5.6-0.5l0,0c-0.1,0-0.3,0-0.4,0h-0.4
						c-2.5,0.2-4.8,1.5-6.2,3.6c0.2,0.2,0.4,0.4,0.5,0.7c0.1,0.1,0.2,0.2,0.2,0.3v0.1c2.4,0.4,2.8,1.2,2.8,2.1
						c2.8,0.9,3.3,1.8,3.3,2.6c0.4,0.2,0.7,0.4,1,0.6c0.8,0.4,1.2,0.9,1.2,1.4v0.2l0.7,0.2c0.1,0,0.1,0.1,0.2,0.2
						c0.8,0.4,1.3,1.2,1.3,2.1c0.8,0.7,1.5,1.3,2.3,2.1c2.2-2.5,5.8-3.5,8.8-3.7c0.3-0.6,0.3-1.2,0-1.8c-0.4-0.8-1.8-1-2.5-1.1h-0.3
						c-1.2,1.2-2.8,1.9-4.5,2l0.5,0.3c0.2,0.1,0.2,0.3,0.1,0.5s-0.3,0.2-0.5,0.1l0,0l-1.5-0.9c-0.2-0.1-0.2-0.3-0.2-0.4
						s0.2-0.3,0.4-0.3c2.4-0.2,4.1-0.8,5.1-1.8c-1.2-2.1-2.8-2.7-8.6-1.3c-0.2,0-0.4-0.1-0.4-0.3c-0.1-0.1-0.1-0.3,0.1-0.4
						c0,0,0,0,0,0h0.1c1.8-0.5,3.8-0.8,5.7-0.7c0.1-0.3,0.2-0.8,0.3-1.2c0-0.2,0-0.3,0.1-0.5c0.1-0.3,0.1-0.6,0.2-0.9
						c-0.3-0.7-0.8-1.4-1.5-1.7c-1-0.2-2.1,0-3,0.5l-0.2,0.1c-0.1,0-0.2,0.1-0.4,0.1l-0.3,0.1l-0.7,0.3c-2,0.9-3.6,1.5-4.4,0.3
						c-0.1-0.1-0.2-0.2-0.2-0.3c-0.5-0.4-0.7-1-0.6-1.6c0.3-0.5,1.2-1,3-1.3c0.2,0,0.4,0.1,0.4,0.3c0,0.2-0.1,0.4-0.3,0.4
						c-2,0.4-2.3,0.8-2.4,1s0.1,0.4,0.3,0.6l0.2,0.2l0.3,0.3c0.4,0.6,1.6,0.2,3.6-0.6l0.7-0.3c0.2-0.1,0.5-0.2,0.7-0.3l0,0
						c1.1-0.6,2.3-0.9,3.5-0.7c-0.6-0.2-1.2-0.3-1.8-0.5H111l-0.1-0.1L110.7,60.4z M113.2,61.4L113.2,61.4c1,0.4,1.7,1.2,2.1,2.2
						v0.3c0,0.1,0,0.2-0.1,0.4c-0.1,0.3-0.2,0.7-0.3,1c0,0.1-0.1,0.2-0.1,0.3c0,0.2-0.1,0.3-0.1,0.4c1.8-0.8,3.8-0.8,5.6,0.1
						C118.4,63.8,115.9,62.1,113.2,61.4L113.2,61.4z M120.9,67.2c-2.2-1.1-4-1.5-5.8-0.6c1.1,0.4,2,1.2,2.5,2.3h0.3
						c1,0,2,0.4,2.7,1.1c0.6-0.3,1.2-0.4,1.8-0.3c1.4,0.1,2.7,0.6,3.7,1.5c-0.1-0.3-0.3-0.5-0.4-0.8c-0.7-0.9-1.9-1.8-4.3-2.7
						l-0.2-0.1l-0.1-0.2C121,67.4,120.9,67.3,120.9,67.2L120.9,67.2z M126.5,72.8c-0.8-1.3-2.2-2.2-3.7-2.4c-0.6-0.1-1.2,0-1.7,0.2
						c0.2,0.6,0.2,1.2,0,1.8c1.7,0.3,3.3,1.2,4.5,2.5c1.2-0.3,2.5,0,3.5,0.7c0-0.1-0.1-0.2-0.1-0.3c-0.6-0.7-1.4-1.3-2.2-1.7
						l-0.2-0.1v-0.3C126.5,73.2,126.5,73,126.5,72.8L126.5,72.8z M128.8,76.4c-0.8-0.6-1.8-0.8-2.8-0.7c0.1,0.1,0.1,0.2,0.1,0.3
						c0.5,0.9,0.9,1.8,1.2,2.8c1.4-0.2,2.8,0.1,4,0.9c0-0.2-0.1-0.4-0.2-0.7c-0.5-0.9-1.3-1.6-2.2-2.1l-0.4-0.3L128.8,76.4z
						 M131.3,80.8c-1-1-2.4-1.4-3.8-1.2c0.4,1.9,0.2,3.3-0.9,4.3c1.3,1.4,2.1,3.2,2.3,5.2c0,1.5,1.1,2.7,2.5,3c0.5-0.2,1-0.5,1.3-1
						c0.5-1,0.7-2.2,0.4-3.3c-0.5-1.1-1.3-2.1-2.3-2.7l-0.2-0.2l-0.4-0.3c-0.4-0.3-0.8-0.6-1.1-1c-0.1-0.1-0.1-0.4,0-0.5
						s0.4-0.1,0.5,0c0.5,0.4,0.9,0.8,1.4,1.2c1.3,0.8,2.3,2,2.9,3.3c0.4,1.3,0.3,2.7-0.4,3.9c-0.3,0.5-0.7,1-1.2,1.2
						c0.4,0.7,0.6,1.6,0.4,2.5c0,0.1-0.1,0.2-0.1,0.4c0,0.1-0.1,0.2-0.1,0.3c0,0.1,0,0.1,0.1,0.2c0.1,0.5,0.3,1.2,0.9,1.3
						c0.8,0.1,1.5-0.3,2-0.9l0,0l-0.1-0.1v-0.2c0.4-2.1,0.5-4.3,0.1-6.4c-0.7-3-2.1-5.9-4-8.3l-0.1-0.2v-0.2
						C131.3,80.9,131.3,80.8,131.3,80.8L131.3,80.8z M135.7,97c-0.5,0.7-1.3,1.1-2.1,1.1c-0.2,0-0.3,0-0.4-0.1
						c-0.7-0.2-1.2-0.7-1.3-1.4c-0.2,0.2-0.5,0.3-0.7,0.2c-2-0.2-3.2-2-4.3-3.6c-0.1-0.2-0.3-0.4-0.4-0.6l-0.2-0.3
						c-0.8-1.3-1.5-2.7-2-4.1c-0.3-0.7-0.6-1.4-0.9-2.1c-0.1-0.2-0.1-0.4,0.1-0.6c0.2-0.1,0.4-0.1,0.6,0.1c0,0,0,0,0,0
						c0,0,0,0.1,0.1,0.1c0.3,0.7,0.6,1.4,0.9,2.1l0,0c0.5,1.4,1.1,2.8,2,4c0,0.1,0.1,0.1,0.1,0.2c0.2,0.2,0.3,0.5,0.5,0.8
						c1,1.5,2.1,3.2,3.7,3.3c0.3,0,0.6-0.4,0.7-1.1c0.2-1,0-1.9-0.4-2.1c-1.7-0.4-3-1.9-3.1-3.7c-0.3-2.9-2.1-5.3-4.7-6.6
						c0,0-2.6,2.9-5.4,3.8c0.3,0.7,0.6,1.3,0.8,2c1.8,1.6,2.4,3.1,2.1,4.6c1.5,2.3,2.3,4.1,1.9,5.4c0.2,1.3,0.4,2.6,0.8,3.9
						c1.1,2.1,1,4.7-0.4,6.6c0,0.6-0.2,1.2-0.4,1.8c0.5-0.3,1-0.6,1.6-0.8l0,0c2.7-0.6,5.2-2.2,6.8-4.5c-0.2-0.2-0.3-0.3-0.4-0.6
						c0-0.1-0.1-0.1-0.1-0.2l0,0c-0.5-0.8-1.2-1.7-4.4-1c-0.2,0.1-0.4,0-0.4-0.2c0,0,0,0,0-0.1c-0.1-0.2,0-0.4,0.2-0.4c0,0,0,0,0,0
						h0.1c3.9-1,4.7,0.3,5.3,1.3l0,0l0.1,0.2c0.1,0.1,0.2,0.3,0.3,0.4c1.1-0.3,2-0.9,2.6-1.9c0.3-0.6,0.4-1.2,0.3-1.9
						c-0.2,0.1-0.3,0.2-0.5,0.2c-0.2,0.2-0.5,0.3-0.8,0.2c-1.2-0.1-2.4-0.4-3.5-1.1c-1.4-0.9-3.1-1.3-4.8-1.1
						c-0.2,0-0.4-0.1-0.4-0.3c0,0,0,0,0,0c0-0.2,0.1-0.3,0.2-0.4c1.8-0.3,3.6,0.1,5.1,1l0.2,0.1c1.4,0.7,2.7,1.4,4.4,0.8l0.2-0.2
						c0.6-0.4,0.9-1,1-1.7C136.1,98.1,135.9,97.5,135.7,97z M131.7,104.9L131.7,104.9c-0.1-0.2-0.1,0-0.1,0.2l0,0L131.7,104.9
						L131.7,104.9z M117.9,85.4c2.3-0.4,5.2-3.5,5.2-3.5c0.5-1.8-0.3-3.7-1.9-4.8c-0.6-0.5-1.4-0.8-2.2-0.8
						c-0.4,0.1-0.8,0.3-1.1,0.7c0.9,2.3,2.1,3.3,3.9,3.2c0.2,0,0.4,0.2,0.4,0.3c0,0.2-0.2,0.4-0.4,0.4c-2.2,0.2-3.7-1.1-4.7-3.8
						c0-0.1,0-0.3,0.1-0.3c0.4-0.6,1-1,1.7-1.2c1,0,2,0.3,2.8,1c1.7,1.1,2.6,3.2,2.2,5.2c0.9,0.4,1.6,0.9,2.3,1.5
						c1.1-0.9,1.1-2.3,0.6-3.7c-0.2,0-0.3-0.2-0.3-0.3c0-0.1,0-0.2,0.1-0.3c-0.3-0.7-0.6-1.4-0.8-2l-0.3-0.7c0-0.1-0.1-0.2-0.1-0.2
						c-0.1-0.1-0.1-0.1-0.1-0.2c-0.2,0-0.3-0.1-0.4-0.3v-0.2c-1.1-1.3-2.7-2.1-4.3-2.3c-3.2,0.2-6.7,1.2-8.5,3.5
						C114.5,79.3,116.5,82.2,117.9,85.4z M106.2,71.4c-1.2-0.4-2.6-0.2-3.6,0.5c-0.7,0.5-1.1,1.3-1.1,2.2l-1.1,1.4
						c-0.1,0.2-0.1,0.4,0.1,0.5c0.1,0.1,0.2,0.1,0.3,0.1c0.1,0,0.2-0.1,0.4-0.3l0.8-1c0.5,0.4,1.2,0.6,1.8,0.7h0.3l0.3,0.1
						c0.1,0,0.2,0.1,0.3,0.1c0.2,0.1,0.4-0.1,0.4-0.3s-0.1-0.4-0.3-0.4c-0.1,0-0.2-0.1-0.4-0.1l-0.3-0.1l-0.3-0.1
						c-0.7-0.2-1.4-0.3-1.5-0.7c-0.1-0.7,0.2-1.3,0.8-1.7c0.8-0.6,1.9-0.8,2.9-0.4l-0.1,0.4l1,0.2c0.3,0,0.7,0.2,0.9,0.4
						c0.2,0.2,0.3,0.3,0.4,0.6l-1.6,0.2h-0.1c0,0,0,0.1-0.1,0.1l-0.1,0.1c0,0-0.1,0.1-0.1,0.1c0,0,0,0.1,0,0.1v0.2
						c0.3,0.8,0.3,1.8,0,2.6v0.1c-0.1,0.3-0.2,0.7-0.2,1.1l-1.9,0.3l-0.5,0.1c-1.2,0.3-2.5,0.2-3.7-0.2c-1.2-0.4-1.9-2-2-3.3
						c0-1.8,0.5-3.5,1.4-5c0.3-0.5,1.1-0.7,1.7-0.7c1,0.1,1.9,0.3,2.8,0.7v0.4l0.7,0.2c0.5,0.1,1,0.4,1.4,0.7
						C106.1,71.2,106.1,71.2,106.2,71.4L106.2,71.4z M103.9,69l-0.1-0.1c-0.7-0.6-1.5-1-2.4-1.2l-0.6-0.2v-0.4
						c-4.2-0.4-8.5,0.6-12,3c0.8,0.7,1.3,1.7,1.5,2.8v0.2h1c1,0.1,2-0.1,2.9-0.5c0.5-0.3,0.6-0.9,0.7-1.6c0-0.1,0-0.2,0.1-0.3
						c0-0.2,0.1-0.3,0.1-0.5c0-0.2,0-0.4,0.1-0.5c-1.2,0.2-2.5,0.6-3.6,1.1c-0.2,0.1-0.4,0-0.4-0.2s0-0.4,0.2-0.4
						c3.5-1.3,6-1.6,7.9-0.9c0.6-0.5,1.3-0.8,2.1-0.8C102.2,68.5,103.1,68.7,103.9,69z M108.4,74.3l-1.2,0.3
						c0.2,0.9,0.1,1.7-0.1,2.6c0,0,0,0.1,0,0.2c-0.2,0.7-0.2,1,0.1,1.1c2,1.4,3.8,3,2.8,6.1c-0.4,1.2,1.3,2.6,2,3.1
						c1.2,0.9,2.3,1.9,3.3,3c0.1,0.1,0.2,0.3,0.3,0.4l0,0c0.5,0.6,1,1.1,1.5,1.6c1.1-0.2,2.2-0.2,3.4-0.1c0.1-1-0.3-2.2-1.9-3.5
						l-0.2-0.2l-0.1-0.2l0,0c-2.2-0.6-4.3-1.7-5-4.6c-0.7-3-2.4-5.7-4.7-7.8c-0.1-0.1-0.2-0.3-0.1-0.4c0,0,0,0,0,0
						c0,0,0-0.1,0.1-0.1c0.1-0.1,0.3-0.1,0.5,0l0,0c2.4,2.2,4,5.1,4.7,8.2c0.7,2.5,1.8,2.9,3.4,3.5l0.5,0.2c-1.9-5-5.1-9.3-9.2-12.7
						l-0.3-0.2L108.4,74.3z M120.4,93.2h-0.1c-1.2-0.1-2.9-0.2-3.3,0.3c-0.1,0.1-0.2,0.2-0.1,0.3c0.2,1.3-0.2,2.6-1.2,3.4l-0.1,0.1
						l-0.3,0.3c-0.3,0.3-0.6,0.7-0.7,1.1c-0.2,0.6,0.3,1.4,0.8,2.1l0.2,0.3c0.4,0.4,0.7,0.9,0.8,1.5l1.8,0.3c0.2,0,0.3,0.2,0.3,0.4
						c0,0,0,0,0,0l0,0c0,0.2-0.2,0.3-0.4,0.3H118l-1.9-0.3c-0.7,0.9-1.9,1.1-3.2,1.3l-0.4,0.1l-0.6,0.1c-0.8,0.1-1.5,0.3-2.2,0.6
						c-1.8,1-3.4,2.1-4.8,3.5c-0.2,0.2-0.4,0.6-0.4,0.9c0.1,1.4,0.8,2.6,1.8,3.5l0.4-0.1l0.4,0.2c2.4,1.5,4.8,1.8,6.8,0.8l0.2-0.1
						h0.3c3.5-1.5,5.6-3.1,5.9-4.7c0.2-1.2-0.3-2.5-1.2-3.3c-3.1,0.4-6.7,1-9,2.9l0,0c-0.1,0.1-0.2,0.2-0.1,0.6
						c0.3,0.9,0.9,1.7,1.8,2.1c0.6,0.1,1.2,0,1.7-0.3c1.2-0.5,2.5-0.8,3.8-0.7c0.2,0,0.3,0.2,0.3,0.4c0,0.2-0.1,0.3-0.3,0.3
						c-1.2-0.1-2.4,0.1-3.6,0.6c-0.7,0.4-1.5,0.5-2.2,0.3c-1.1-0.5-2-1.5-2.3-2.6c-0.2-0.5,0-1,0.4-1.3c2.6-2.1,6.2-2.6,9.4-3.1h0.2
						c0.3,0,0.4-0.2,0.6-0.4c0.4-0.7,0.5-1.4,0.4-2.2c-0.1-0.4-0.5-0.8-1.1-1.1c-0.9-0.5-1.5-1.4-1.6-2.5v-0.3c0-1.5,0-3,1.6-3.5
						c1-0.3,2.3,0.7,2.9,1.3c0-0.1,0-0.1-0.1-0.2c-0.4-1-0.9-2-1.6-2.9L120.4,93.2z M122.2,98.1c-1.2-1.3-2.1-2.4-2.7-2.2
						c-1.1,0.4-1.1,1.2-1.1,2.8v0.3c0,0.8,0.6,1.3,1.3,1.8c0.5,0.3,0.9,0.8,1.2,1.3h0.4c0.5,0.1,1,0.1,1.5-0.1
						c-0.3-1.2-0.6-2.5-0.8-3.8C122.2,98.4,122.2,98.1,122.2,98.1z M123.2,102.8c-0.5,0.2-1.1,0.3-1.7,0.2h-0.3
						c0.1,0.8-0.2,1.6-0.6,2.3c-0.1,0.2-0.3,0.4-0.5,0.5c0.9,1,1.3,2.4,1.1,3.7c-0.4,1.6-1.9,3.2-4.7,4.5c1.3-0.3,2.5-0.8,3.7-1.5
						c0.5-0.3,0.9-0.7,1.3-1.1l0,0c0.7-0.7,1.1-1.6,1.1-2.5v-0.3l0.2-0.2C123.9,106.7,124.1,104.6,123.2,102.8L123.2,102.8z
						 M105.5,113.6c-0.9-1-1.5-2.3-1.6-3.7c0-0.3,0-0.5,0.1-0.8c-0.9,0-1.8-0.3-2.6-0.8c0.7,1.2,1,2.5,1.1,3.9l0,0
						C103.3,113,104.3,113.5,105.5,113.6z M101.8,112c-0.2-1.7-0.9-3.4-1.9-4.8c-0.8-0.8-1.5-1.6-2.1-2.6h-1.8
						c-0.5,0.4-0.9,1.1-1.1,1.8v0.3c0.2,0.5,0.9,0.9,2.1,1.1h0.1c1.2,0.6,2,1.8,2.1,3.1h0.1l0.3,0.5c0.4,0.6,1.2,0.9,1.9,0.6
						L101.8,112z M98.6,111.1c-0.1-1.1-0.7-2-1.6-2.6c-1.3-0.3-2.2-0.7-2.5-1.3l-1.4,2C94.5,110.6,96.5,111.3,98.6,111.1L98.6,111.1
						z M92.6,108.6l1.8-2.4c0.1-0.6,0.4-1.2,0.9-1.7c-1-0.1-1.9-0.4-2.8-0.8c-1.2,1.1-1.7,2.6-1.4,4.2l0.2,0.5
						c0.1,0.2,0.2,0.3,0.3,0.4c0.1,0,0.1,0,0.2-0.1l0.7-0.4L92.6,108.6z M90.2,107.9c-0.1-1.1,0-2.2,0.4-3.1c-2.2,0.7-4.3-0.3-5.9-1
						l-0.2-0.1l-0.2-0.1c-0.5-0.3-1-0.4-1.6-0.5c0,0-0.1,0.1-0.1,0.4l0.3,0.8c0.7,1.3,1.9,2.3,3.3,2.8
						C87.5,107.6,88.9,107.9,90.2,107.9L90.2,107.9z M81.9,103.7c0-0.6,0.1-0.9,0.4-1.1c0.5-0.4,1.2-0.1,2.2,0.4l0.3,0.1h0.1
						c1.8,0.8,4.2,1.9,6.4,0.7c0.1-0.2,0.3-0.3,0.4-0.4c-1.3-0.8-2.3-2.1-2.7-3.6h-0.1c0,0-0.1,0-0.1,0c-0.2,0.1-0.3,0.2-0.5,0.2
						c0,0.1,0,0.2-0.1,0.3c-1.4,1.5-3.3,1.9-4.7,1.2s-2.1-2.4-1.7-4.6c-2.7-2.1-5.2-4.5-7.3-7.3c0.2,3.5,2,6.1,3.6,8.3v0.1
						c1.2,1.6,2.2,3.1,2.4,4.6h0.2l0.2,0.7c0.1,0.3,0.2,0.6,0.5,0.8c0,0,0.1,0.1,0.2,0.1h0.1L81.9,103.7z M79.8,102.4
						c-0.4-1.5-1.2-2.9-2.2-4l-0.1-0.2L77.3,98c-1.4-1.9-3-4-3.4-6.9c-1.2,0.7-2.1,1.9-2.3,3.3l0.1,0.4c0.6,2.1,1.7,3.9,3.4,5.2
						C76.5,101.2,78.1,102.1,79.8,102.4L79.8,102.4z M71,94c0.3-1.6,1.3-3,2.8-3.7h0.1c-0.1-0.5-0.1-1-0.1-1.5c0-0.1,0-0.2,0.1-0.3
						c0,0,0-0.1,0-0.1c0,0,0-0.1,0-0.1c-0.2-0.2-0.3-0.5-0.4-0.7c0-0.1-0.1-0.2-0.2-0.3c-0.2,0.2-0.4,0.4-0.6,0.5
						c-0.5,0.4-1.2,0.5-1.9,0.3c-1.6-0.5-2.7-1.4-2.8-2.6c-0.2-0.8,0.1-2.1,2-3.7c-0.6-0.4-0.9-1.1-1.1-1.8c-0.1-1,0.5-2.2,2-3.5
						c0,0-0.1,0-0.1,0h-0.1l-0.4-0.2L69.6,76l-0.1,0.1c-0.6,0.7-1,1.5-1.2,2.3c-0.3,1.2-0.5,2.5-0.6,3.8c-0.1,1.2-0.1,2.4,0,3.7
						c0.1,0.5,0.1,0.9,0.3,1.4c0.1,0.3,0.2,0.5,0.3,0.7l0.2,0.3v0.3C68.3,90.7,69.2,92.8,71,94z M69.7,75.1c0.3,0.2,0.6,0.3,0.8,0.5
						l0.4,0.2c0.8,0.5,1.7,1.1,2,0.9c0.1-0.1,0.2-0.2,0.3-0.3c1.4-3.5,3.9-6.6,7.1-8.6c-0.4-0.5-0.9-0.8-1.4-1h-0.2
						c-1.1-0.4-2.4-0.4-3.5,0c0,0.1,0,0.2-0.1,0.2l-0.1,0.4l-0.4,0.2c-0.4,0.2-0.8,0.6-1,1l0,0c-0.1,0.1-0.1,0.2-0.1,0.3l0,0
						c0.9-0.1,1.9-0.2,2.3,1.1c0.1,0.3,0,1-2,2.9c-0.4,0.4-0.7,0.5-1,0.5c-0.3,0-0.6-0.2-0.9-0.4h-0.1l-0.1-0.1l-0.4-0.2L71,72.7
						c-0.4,0.3-0.8,0.6-1,1.1l0,0C69.7,74.2,69.6,74.6,69.7,75.1z M71.4,71.8c0.2,0.1,0.4,0.2,0.7,0.4l0.1,0.1h0.1
						c0.5,0.3,0.6,0.4,0.9,0c1.8-1.7,1.8-2.2,1.8-2.2c-0.2-0.7-0.5-0.7-1.5-0.6h-0.2v0.1l-0.4,0.2c-0.5,0.2-0.9,0.7-1.1,1.2l0,0
						C71.5,71.1,71.4,71.5,71.4,71.8L71.4,71.8z M98.3,104c-0.1-0.1-0.2-0.2-0.3-0.2c-0.3,0-0.7,0.1-1,0.1l-1,0.1h-0.1
						c-1.2-0.1-2.4-0.4-3.5-0.9c0,0,0-0.1-0.1-0.1c-1.6-0.9-2.7-2.5-2.8-4.3l0,0c0.1-0.3,0.2-0.7,0.2-1.1v-0.2
						c0-0.4,0.1-0.8,0.3-1.1c0.7,0.1,1.4,0.4,2,0.6c1.6,0.7,3.3,0.9,5,0.7c-0.5,0.8-0.9,1.7-1.2,2.6c-0.1,0.1-0.1,0.3-0.1,0.4
						c-1.3,0-2.6-0.4-3.7-1.1c-0.2-0.1-0.4,0-0.5,0.2c-0.1,0.2,0,0.4,0.2,0.5c1.2,0.8,2.6,1.2,4.1,1.2c0.1,0.2,0.2,0.4,0.4,0.5
						c0.8,0.8,2.5,0.6,3.2,0.4l0.1-0.1c0.1,0.4,0.3,0.8,0.5,1.1c0.8,0.8,1.8,1.3,2.8,1.5l-0.3,1.3c-0.1,0.2,0,0.4,0.2,0.4l0,0
						c0.2,0.1,0.4,0,0.4-0.2c0,0,0,0,0,0l0,0l0.3-1.3h0.3c0.8,0,1.6-0.3,2.2-0.9l0.2-0.1c0.5-0.4,1-0.7,1.6-0.9
						c1.1-0.5,2.4-0.5,3.6-0.1c0.2,0.1,0.4,0,0.4-0.2c0,0,0,0,0,0l0,0c0.1-0.2,0-0.3-0.2-0.4l0,0c-1.3-0.4-2.8-0.4-4.1,0.1
						c-0.7,0.2-1.3,0.6-1.8,1.1l-0.2,0.1c-0.5,0.4-1.1,0.7-1.7,0.7c-1.2-0.1-2.3-0.6-3.2-1.5c-0.2-0.3-0.4-0.7-0.3-1.1
						c0.3-3.2,2.8-5.2,7-5.8c0.2-0.1,0.3-0.2,0.3-0.4c0-0.2-0.2-0.4-0.4-0.4c-4.6,0.6-7.2,2.7-7.6,6.3c-0.1-0.1-0.2-0.1-0.4-0.1
						c-0.8,0.3-1.7,0.3-2.5-0.1c-0.1-0.1-0.2-0.3-0.2-0.4c0-0.2,0-0.4,0.1-0.5c0.3-1.1,0.8-2.2,1.5-3.2c0.2-0.1,0.3-0.2,0.3-0.3
						c0.3-0.4,0.6-0.8,1-1.2c0.2-0.2,0.3-0.4,0.5-0.6l0.8-0.9c0.5-0.6,1.1-1.2,1.5-1.9c0.1,0,0.1-0.1,0.1-0.2
						c1.1,0.5,2.3,0.6,3.5,0.2c1.7-0.6,3.5-0.2,4.7,1.2l0.1,0.1c0.1,0.5,0.1,1.1-0.1,1.6c-0.2,0.6-0.3,1.2-0.2,1.8
						c-2.7,0.5-5,2-6.7,4.1c-0.1,0.2-0.1,0.4,0.1,0.5s0.4,0.1,0.5-0.1c1.6-2.1,3.9-3.5,6.4-3.9c0.7,0.6,1.5,1,2.4,1.1
						c0.2,0,0.4,0,0.6,0.1c0.1,0.9,0.4,1.8,1,2.5l0.1,0.2c0.1,0.2,0.2,0.3,0.3,0.4c0.2,0.3,0.5,0.7,0.4,0.8c-0.4,0.8-1.8,1-3.1,1.2
						c-1,0.1-2,0.3-2.9,0.7c-1.8,0.9-3.5,2.1-5,3.5C102.4,108.6,100.3,107.2,98.3,104z M83.8,100.8c-1.2-0.8-1.7-2.2-1.4-3.5
						c0.6,0.4,1.2,1,1.9,1.5l0,0c0.9,0.7,1.9,1.2,3,1.3C86.4,101,85,101.3,83.8,100.8z M84.7,98.1c-0.8-0.5-1.6-1.1-2.4-1.8
						c-3.1-2.3-5.8-5.2-8-8.4c-1.6-2.4,0.8-4.8,1.7-5.4c0.5,3,2.2,4.7,3.5,5.2c0.1,1.3,1.2,2.7,2.3,4L82,92c0.5,0.5,0.9,1.1,1.3,1.7
						c0.1,0.2,0.4,0.2,0.5,0.1s0.2-0.3,0.1-0.5c-0.4-0.6-0.8-1.2-1.3-1.8c-1.3-1.5-2.8-3.4-2.4-4.7l0.1-0.3c0.4-1.3,1.2-3.2,2.5-3.4
						c1.1-0.3,2.5,0.4,4.2,2.1c2,1.6,4.5,2.4,7.1,2.4c-1,1.1-1.5,2.5-1.7,4c-1.2-0.8-2.7-1.1-4.2-0.9c-0.1,0-0.2,0-0.3,0.1l-0.1,0.1
						c-1.2-2.1-2.9-4.2-5.6-5c-0.2-0.1-0.4,0.1-0.4,0.3s0.1,0.3,0.3,0.4c2.5,0.7,4,2.8,5.2,4.8c-0.4,0.5-0.6,1-0.8,1.6
						c-0.3,0.8-0.5,1.6-1.1,1.8c-0.9,0.5-2.3-0.5-2.8-1c-1.5-1.3-2.9-2.7-4.2-4.2l-0.6-0.7l-2.3-2.6l0,0c-0.1-0.1-0.3-0.2-0.5-0.1
						c0,0,0,0,0,0c0,0,0,0-0.1,0.1c-0.1,0.1-0.2,0.3-0.1,0.4c0,0,0,0,0,0c0,0,0,0.1,0.1,0.1c0.8,0.8,1.6,1.7,2.3,2.6
						c1.5,1.8,3.1,3.5,4.9,5c0.7,0.6,2.1,1.6,3.3,1.2l0.7,1.8c0.1,0.2,0.3,0.3,0.5,0.2c0.2-0.1,0.3-0.3,0.2-0.5L86,95.2
						c0.6-0.6,1-1.2,1.2-2l0.2-0.4c0.1-0.4,0.3-0.8,0.6-1.2c0.2-0.2,0.3-0.3,0.4-0.3c1.1-0.2,2.3,0,3.2,0.6l0.4,0.2
						c1.1,0.6,2.4,1,3.7,1c0.8-0.1,1.2-0.9,1.4-1.6v-0.1c0.1-0.2,0.2-0.5,0.3-0.7c0.1-0.2,0.1-0.4-0.1-0.5s-0.4-0.1-0.5,0.1
						c-0.2,0.3-0.4,0.6-0.4,1v0.1c-0.2,0.6-0.4,1-0.8,1c-0.9,0-1.8-0.2-2.6-0.6c0.1-1.7,0.8-3.3,2-4.5c0.9-0.2,1.8-0.6,2.5-1.3
						c1.4-0.3,2.4,0,3,0.9c-0.2,0.6-0.2,1.3-0.1,1.9c0.1,1,0.6,2,1.2,2.8c-0.1,0-0.2,0.1-0.3,0.2c-0.7,1-1.5,1.9-2.3,2.7
						c-0.6,0.6-1.2,1.3-1.7,1.9c-2,0.8-3.6,0.2-5.3-0.4c-0.7-0.3-1.4-0.5-2.1-0.6c-0.2,0-0.4,0.1-0.6,0.2c-0.4,0.5-0.7,1.2-0.6,1.8
						c0,0.6-0.1,1.2-0.4,1.7C87.2,99.8,85.2,98.5,84.7,98.1z M113.2,98.1c-0.8-0.1-1.5-0.4-2-1c-0.2-0.5-0.2-1.1,0-1.7
						c0-0.1,0-0.3,0.1-0.4c0.1-0.4,0.1-0.8,0.1-1.2l1.7-0.1c0.2-0.1,0.4-0.3,0.4-0.4c-0.1-0.2-0.3-0.3-0.4-0.3l-2,0.2
						c0,0-0.1,0-0.1-0.1c-2-2.1-3.8-1.7-5.3-1.3h-0.1c-1.4,0.7-3.2,0.2-3.9-1.2c0,0,0,0,0,0c-0.2-0.5-0.4-1-0.3-1.5
						c-0.1-0.6-0.1-1.2,0.1-1.8c0.1-0.2,0.2-0.4,0.4-0.6c1.4-1.5,3.3-1.6,5.2-1.7h0.3c0.6,0,1.2,0,1.9-0.1c0.2,1.1,0.7,2.1,1.6,2.7
						c-2.2-0.3-4.4,0.3-6.2,1.5c-0.2,0.1-0.2,0.3-0.1,0.5s0.4,0.2,0.5,0.1c1.9-1.2,4.2-1.7,6.5-1.2h0.1c0,0,0.1,0,0.1,0
						c1.2,0.9,2.3,2,3.3,3.2c0.2,0.2,0.4,0.4,0.6,0.7s0.5,0.5,0.8,0.8c-0.3,0.2-0.4,0.6-0.3,1c0.2,1.1-0.2,2.2-1.1,2.9
						c-0.4,0.4-0.7,0.8-1,1.3l-0.2-0.1C113.6,98.2,113.4,98.1,113.2,98.1L113.2,98.1z M68.5,85.5c-0.2-0.9,0.4-2,1.9-3.2
						c0.2,1.5,1.2,2.7,2.7,3.1c-0.1,0.2-0.1,0.3-0.1,0.5c-0.1,0.5-0.4,1-0.9,1.2c-0.4,0.2-0.8,0.3-1.2,0.3
						C69.7,87.3,68.8,86.5,68.5,85.5z M87.4,84.6c-1.7-1.6-3-2.4-4.3-2.4c-0.2,0-0.4,0-0.5,0.4c-1.7,0.4-2.5,2.4-3,3.9l-0.1,0.3
						c0,0,0,0.1,0,0.1s0,0.1,0,0.1c-1.9-1-4.3-4.5-2.2-10.9c0.9-2.8,4.2-4.5,7-5.9l0.2-0.1l0.2-0.1c1.1-0.3,2.4-0.1,3.3,0.7
						c0.8,0.7,1.4,1.6,1.6,2.6c0,0.1-0.1,0.3-0.2,0.4c-1.9,1.2-3.2,2.1-3.5,4c-0.1,0.6-0.5,0.8-1.8,1.2c-1.7,0.5-3.4,1.3-4.8,2.5
						c-1.8-1.4-0.5-4.1,0.8-6.2c1.1-1.3,2.5-2.2,4.2-2.6c0.3,0,0.5,0,0.7,0.2h0.1v0.1c-0.1,0.5-1,1.5-1.9,2.3l-0.3,0.3
						c-0.8,0.6-1.5,1.4-2,2.3c-0.1,0.2,0,0.3,0.1,0.4l0,0c0.2,0.1,0.4,0,0.4-0.2l0,0c0.4-0.6,0.8-1.1,1.4-1.6
						c0.2-0.2,0.3-0.3,0.5-0.5l0.3-0.3c1-1.1,2-2,2-2.8c0-0.3-0.1-0.5-0.3-0.7c-0.3-0.3-0.8-0.4-1.2-0.3c-1.9,0.4-3.6,1.5-4.8,3
						c-2.7,4-2,6.1-0.7,7.1c-0.2,0.4-0.4,0.9-0.4,1.4v0.4c-0.1,0.2-0.1,0.3-0.1,0.5c0,0.2,0.1,0.4,0.4,0.4c0.2,0,0.4-0.2,0.4-0.4
						c0.1-0.2,0.1-0.4,0.1-0.6v-0.2c0-0.5,0.2-1,0.4-1.5c1.4-1.1,3-1.9,4.7-2.5h0.1l0.4-0.2c0.4-0.1,0.7-0.3,1.1-0.5
						c2.2,3.5,4.5,5.4,6.9,5.5s5-1.7,7.5-5.1c1.3,0.3,2.6,0.3,3.8,0.1l0.4-0.1c0.7-0.2,1.4-0.3,2.1-0.3c0,0,0.1,0.1,0.1,0.1l0.1,0.1
						c2.2,1.6,3.2,2.8,2.6,5c-0.7,0.1-1.3,0.1-2,0.1H107c-2,0.1-4.1,0.2-5.7,1.8c0,0.1-0.1,0.1-0.1,0.2l-0.1,0.2
						c-0.7-0.7-1.7-1.1-2.8-1c0.1-0.1,0.2-0.2,0.2-0.3l0.2-0.3c1-1.8,2-3.4,7.7-4c0.2-0.1,0.3-0.2,0.3-0.4c-0.1-0.2-0.3-0.4-0.4-0.4
						c-6.2,0.5-7.3,2.4-8.3,4.3l0,0c-0.1,0.2-0.2,0.3-0.4,0.5c-0.1,0.2-0.2,0.4-0.4,0.5c0,0-0.1,0-0.1,0.1l-0.1,0.1
						c-0.7,0.7-1.7,1.1-2.7,1.1C92,86.9,89.4,86.2,87.4,84.6z M73,78.6c-0.1-0.2-0.2-0.3-0.4-0.3h-0.2c-1.4,0.4-2.3,1.7-2.2,3.2
						c-0.5-0.3-0.9-0.9-0.9-1.5c-0.1-0.9,0.5-1.8,1.9-3.1c0.5,0.4,1.2,0.6,1.9,0.5c0.3-0.1,0.6-0.4,0.7-0.7c1.3-3.4,3.7-6.4,6.8-8.4
						l0.1-0.2c0-0.1,0.1-0.1,0.1-0.2c1.2-0.4,2.1-0.5,2.7-0.2c0,0.4,0.1,0.8,0.3,1.1c0.1,0,0.1,0.1,0.1,0.2l-0.4,0.2
						c-2.8,1.4-6.1,3.2-7,6.2c-0.6,1.9-0.9,4-0.7,6h-0.1c0,0-0.1,0-0.1,0c-1,0.8-1.8,1.9-2.3,3.1c-1.2-0.3-2-1.3-2.1-2.5
						c-0.3-1.3,0.4-2.7,1.7-3.2C73,79,73.1,78.7,73,78.6z M92.7,83.4c-2.1,0-4.3-1.8-6.4-5.2c0.1-0.1,0.1-0.2,0.2-0.3
						c0-0.1,0-0.1,0.1-0.1c0.2-1.6,1.2-2.3,3.1-3.5c0.5-0.1,1-0.1,1.5-0.1c1.2,0.1,2.4-0.1,3.4-0.7c0.6-0.5,1-1.3,1-2.1l0.1-0.3
						c0.1-0.4,0.2-0.8,0.3-1.2v-0.2c0.9-0.1,1.9,0,2.8,0.2c-0.9,1.4-1.4,3.1-1.3,4.8c-0.7,0.2-1.3,0.3-2,0.4l0,0
						c-1.7,0.2-3.4,0.3-4.4,1.6c-0.4,0.1-0.7,0.1-1.1,0.2S89,77,88.6,77.1c-0.2,0.1-0.3,0.3-0.3,0.4c0.1,0.2,0.3,0.3,0.4,0.3
						c0.3,0,0.5-0.1,0.8-0.1c0.3,0,0.8-0.2,1.1-0.2c0,0.2,0,0.3,0.1,0.3c0.4,1,2.7,1.7,3.7,1.8c0.8,0.1,1.2-0.5,1.6-1.1l0.1-0.1l0,0
						c0.2-0.2,0.3-0.5,0.5-0.7c0.1-0.1,0.1-0.4,0-0.5c-0.1-0.1-0.4-0.1-0.5,0c0,0,0,0,0,0c-0.2,0.2-0.4,0.4-0.5,0.6l-0.1,0.2
						c-0.4,0.5-0.6,0.9-1,0.9c-1.1,0-2.8-0.7-3.1-1.3c-0.1-0.1-0.1-0.2,0-0.2l0,0c0.9-1.2,2.5-1.3,4.1-1.5c0.7-0.1,1.3-0.2,2-0.3
						c0.2,1.4,0.9,2.6,2,3.3C97,81.9,94.8,83.5,92.7,83.4L92.7,83.4z M108.1,70.7c0.1,0.1,0.2,0.1,0.3,0.1c0.1,0,0.2,0,0.3-0.1
						c1.4-1.2,3.2-2,5-2.1c0.2-0.1,0.3-0.3,0.3-0.4c-0.1-0.2-0.3-0.3-0.4-0.3c-2,0.2-3.8,1-5.3,2.3C108,70.4,107.9,70.5,108.1,70.7
						L108.1,70.7z M104.3,66.6c0,0,0.1,0,0.1,0c0.1,0,0.2,0,0.3-0.1c1-0.8,2.2-1,4.2-1.4h0.2l1.4-0.3c0.2-0.1,0.3-0.3,0.2-0.5
						c0,0,0,0,0,0c-0.1-0.1-0.2-0.2-0.4-0.2c-0.5,0.1-1,0.2-1.4,0.3h-0.3c-2.1,0.3-3.3,0.5-4.5,1.5c-0.1,0.2-0.2,0.3,0,0.5
						C104.2,66.6,104.3,66.6,104.3,66.6L104.3,66.6z"/>
				</g>
			</g>
		</g>
	</g>
</g>
<g id="platform_1_">
	<g id="platform">
		<g id="platform-2">
			
				<linearGradient id="SVGID_4_" gradientUnits="userSpaceOnUse" x1="75.5865" y1="950.2816" x2="129.0965" y2="1069.0815" gradientTransform="matrix(1 0 0 1 0 -828)">
				<stop  offset="0" style="stop-color:#FF8789"/>
				<stop  offset="0.53" style="stop-color:#84A2FC"/>
				<stop  offset="0.72" style="stop-color:#205FE3"/>
				<stop  offset="1" style="stop-color:#030F28"/>
			</linearGradient>
			<path class="st3" d="M174.3,177.6v0.3c0,0.1,0,0.2-0.1,0.4c0,0.1-0.1,0.2-0.1,0.3s-0.1,0.2-0.1,0.3s-0.1,0.1-0.1,0.3
				s-0.1,0.2-0.1,0.4s-0.1,0.1-0.1,0.2c-0.1,0.1-0.2,0.3-0.3,0.4c-0.1,0.1-0.2,0.3-0.3,0.4l-0.1,0.1l-0.4,0.4
				c-0.1,0.1-0.2,0.2-0.4,0.3c-0.1,0.1-0.2,0.1-0.3,0.2c-0.1,0.1-0.3,0.2-0.4,0.3c-0.2,0.1-0.3,0.2-0.4,0.3l-61.2,35.6
				c-0.3,0.2-0.6,0.4-1,0.5c-0.1,0.1-0.2,0.1-0.3,0.1c-0.3,0.1-0.6,0.2-0.8,0.3c-0.1,0-0.2,0.1-0.3,0.1s-0.3,0.1-0.6,0.1
				s-0.3,0.1-0.4,0.1s-0.4,0.1-0.6,0.1s-0.3,0.1-0.4,0.1c-0.4,0.1-0.8,0.1-1.2,0.1H104c-0.2,0-0.5,0.1-0.7,0.1h-2.1
				c-0.2,0-0.3,0-0.5-0.1c-0.1,0-0.4-0.1-0.5-0.1s-0.3-0.1-0.5-0.1s-0.3-0.1-0.6-0.1s-0.3-0.1-0.4-0.1s-0.4-0.1-0.6-0.1
				s-0.2-0.1-0.4-0.1c-0.3-0.1-0.8-0.2-1.1-0.4s-0.4-0.1-0.6-0.2s-0.2-0.1-0.3-0.1c-0.3-0.1-0.5-0.3-0.8-0.4l-61.7-35.6
				c-2.1-1.2-3.1-2.8-3.1-4.4l0.1,7c0,1.6,1.1,3.2,3.1,4.4L95,224.5c0.3,0.1,0.5,0.3,0.8,0.4c0.1,0.1,0.2,0.1,0.3,0.1
				c0.2,0.1,0.3,0.2,0.5,0.2h0.1c0.4,0.2,0.7,0.3,1.1,0.4h0.1c0.1,0,0.2,0.1,0.3,0.1c0.2,0.1,0.4,0.1,0.6,0.1c0.1,0,0.1,0,0.1,0.1
				c0.1,0,0.2,0,0.3,0.1c0.2,0,0.3,0.1,0.6,0.1c0.1,0,0.2,0,0.2,0.1h0.3c0.1,0,0.4,0.1,0.5,0.1h2.6c0.2,0,0.5,0,0.7-0.1h0.4
				c0.4-0.1,0.8-0.1,1.2-0.1h0.1c0.1,0,0.2-0.1,0.3-0.1s0.4-0.1,0.6-0.1c0.2,0,0.3-0.1,0.4-0.1c0.2-0.1,0.3-0.1,0.6-0.1h0.1
				c0.1,0,0.1-0.1,0.2-0.1c0.3-0.1,0.6-0.2,0.8-0.3c0.1-0.1,0.2-0.1,0.3-0.1c0.3-0.1,0.7-0.4,1-0.5l61.2-35.6c0.1,0,0.1-0.1,0.1-0.1
				s0.2-0.1,0.3-0.2c0.1,0,0.3-0.1,0.4-0.3c0.1-0.1,0.2-0.1,0.3-0.2c0.1-0.1,0.3-0.2,0.4-0.3c0,0,0.1,0,0.1-0.1v0l0.4-0.4l0.1-0.1
				l0.2-0.2c0,0,0.1-0.1,0.1-0.1c0.1-0.1,0.2-0.3,0.3-0.4c0-0.1,0.1-0.1,0.1-0.1c0,0,0-0.1,0.1-0.1h0c0.1-0.1,0.1-0.2,0.1-0.4
				s0.1-0.1,0.1-0.2v-0.1c0.1-0.1,0.1-0.2,0.1-0.3c0-0.1,0.1-0.1,0.1-0.2v-0.1c0-0.1,0-0.2,0.1-0.4v-0.3L174.3,177.6z"/>
			
				<linearGradient id="SVGID_5_" gradientUnits="userSpaceOnUse" x1="121.5317" y1="1109.4297" x2="94.7717" y2="963.5397" gradientTransform="matrix(1 0 0 1 0 -828)">
				<stop  offset="0" style="stop-color:#FF8789"/>
				<stop  offset="0.53" style="stop-color:#84A2FC"/>
				<stop  offset="0.72" style="stop-color:#205FE3"/>
				<stop  offset="1" style="stop-color:#030F28"/>
			</linearGradient>
			
				<linearGradient id="SVGID_6_" gradientUnits="userSpaceOnUse" x1="97.653" y1="1103.1001" x2="104.533" y2="963.7802" gradientTransform="matrix(1 0 0 1 0 -828)">
				<stop  offset="0" style="stop-color:#FF8789"/>
				<stop  offset="0.53" style="stop-color:#84A2FC"/>
				<stop  offset="0.72" style="stop-color:#205FE3"/>
				<stop  offset="1" style="stop-color:#030F28"/>
			</linearGradient>
			<path class="st4" d="M171.2,173.2c4.1,2.4,4.1,6.3,0.1,8.7l-61.1,35.7c-4.7,2.4-10.3,2.4-14.9,0l-61.5-35.7
				c-4.1-2.4-4.2-6.3-0.1-8.7l61.1-35.7c4.7-2.4,10.3-2.4,14.9,0L171.2,173.2z"/>
			<g>
				
					<linearGradient id="SVGID_7_" gradientUnits="userSpaceOnUse" x1="12.5895" y1="983.8425" x2="154.8395" y2="1012.6925" gradientTransform="matrix(1 0 0 1 0 -828)">
					<stop  offset="0" style="stop-color:#FF8789"/>
					<stop  offset="0.44" style="stop-color:#84A2FC"/>
					<stop  offset="0.72" style="stop-color:#205FE3"/>
					<stop  offset="1" style="stop-color:#030F28"/>
				</linearGradient>
				<path class="st5" d="M171.7,169.7c4.1,2.4,4.1,6.3,0.1,8.8l-61.3,35.9c-4.7,2.4-10.3,2.4-15,0l-61.7-35.9
					c-4.1-2.4-4.2-6.3-0.1-8.8L95,133.9c4.7-2.4,10.3-2.4,15,0L171.7,169.7z"/>
				
					<linearGradient id="SVGID_8_" gradientUnits="userSpaceOnUse" x1="102.7737" y1="1060.5699" x2="102.6837" y2="991.55" gradientTransform="matrix(1 0 0 1 0 -828)">
					<stop  offset="0" style="stop-color:#FF8789"/>
					<stop  offset="0.53" style="stop-color:#84A2FC"/>
					<stop  offset="0.72" style="stop-color:#205FE3"/>
					<stop  offset="1" style="stop-color:#030F28"/>
				</linearGradient>
				<path class="st6" d="M171.7,169.7c4.1,2.4,4.1,6.3,0.1,8.8l-61.3,35.9c-4.7,2.4-10.3,2.4-15,0l-61.7-35.9
					c-4.1-2.4-4.2-6.3-0.1-8.8L95,133.9c4.7-2.4,10.3-2.4,15,0L171.7,169.7z"/>
			</g>
			<g class="st7">
				
					<linearGradient id="SVGID_9_" gradientUnits="userSpaceOnUse" x1="110.6908" y1="1039.8586" x2="87.9208" y2="977.9687" gradientTransform="matrix(1 0 0 1 0 -828)">
					<stop  offset="0" style="stop-color:#FF8789"/>
					<stop  offset="0.53" style="stop-color:#84A2FC"/>
					<stop  offset="0.72" style="stop-color:#205FE3"/>
					<stop  offset="1" style="stop-color:#030F28;stop-opacity:0.24"/>
				</linearGradient>
				<path class="st8" d="M96.5,146.2c-0.2-0.1-0.4-0.4-0.4-0.6c0-0.1,0-0.1,0-0.2c0,0,0-0.1,0-0.1l-7.4-4.1l7-4.2l14.2,7.8l-5.9,3.6
					c0,0.1,0,0.2,0,0.3c0,0.3-0.2,0.5-0.4,0.6c-0.5,0.3-1.2,0.3-1.7,0c-0.3-0.1-0.5-0.5-0.4-0.9c0.1-0.2,0.2-0.3,0.4-0.4
					c0.5-0.3,1.2-0.3,1.7,0h0.1l5.3-3.2l-13.2-7.3l-5.9,3.5l6.8,3.8c0.3-0.1,0.6-0.2,0.8-0.2c0.3,0,0.6,0.1,0.8,0.2
					c0.4,0.1,0.5,0.5,0.4,0.9c-0.1,0.2-0.2,0.3-0.4,0.4C97.6,146.4,97,146.4,96.5,146.2L96.5,146.2z M96.7,145.3l-0.1,0.2
					c0,0.1,0,0.2,0.2,0.2c0.4,0.2,0.8,0.2,1.2,0c0.1,0,0.2-0.2,0.1-0.3c0-0.1-0.1-0.1-0.1-0.1c-0.2-0.1-0.4-0.2-0.6-0.2
					C97.2,145.1,97,145.2,96.7,145.3C96.8,145.3,96.7,145.3,96.7,145.3z M102.1,149c0.4,0.2,0.8,0.2,1.2,0c0.1-0.1,0.2-0.2,0.2-0.2
					c0-0.1-0.1-0.2-0.2-0.2c-0.2-0.1-0.4-0.2-0.6-0.2c-0.2,0-0.4,0-0.6,0.2c-0.1,0-0.2,0.2-0.1,0.3C102,148.9,102.1,149,102.1,149
					L102.1,149z M62.8,179.9c0.5,0.3,1.2,0.3,1.7,0c0.3-0.1,0.5-0.5,0.4-0.8c0-0.1-0.1-0.2-0.2-0.3l5.6-3.6l8.1,4.8l8-4.5
					c0.2,0.1,0.4,0.1,0.6,0.1c0.3,0,0.6-0.1,0.8-0.2c0.2-0.1,0.4-0.4,0.4-0.6c0-0.3-0.2-0.5-0.4-0.6c-0.5-0.3-1.2-0.3-1.7,0
					c-0.3,0.1-0.4,0.4-0.4,0.6c0,0.2,0.1,0.4,0.2,0.5l-7.4,4.2l-8.1-4.8l-6.2,4c-0.2-0.1-0.3-0.1-0.5-0.1c-0.3,0-0.6,0.1-0.8,0.2
					c-0.4,0.1-0.5,0.5-0.4,0.9C62.5,179.8,62.6,179.9,62.8,179.9L62.8,179.9z M86.4,174.5c0.2-0.1,0.4-0.2,0.6-0.2
					c0.2,0,0.4,0.1,0.6,0.2c0.1,0,0.2,0.2,0.1,0.3c0,0.1-0.1,0.1-0.1,0.1c-0.2,0.1-0.4,0.2-0.6,0.2c-0.2,0-0.4,0-0.6-0.2
					c-0.1,0-0.2-0.2-0.1-0.3C86.3,174.6,86.4,174.5,86.4,174.5z M63,179.1c0.2-0.1,0.4-0.2,0.6-0.2c0.2,0,0.4,0.1,0.6,0.2
					c0.1,0,0.1,0.1,0.2,0.2c0,0.1-0.1,0.2-0.2,0.2c-0.4,0.2-0.8,0.2-1.2,0c-0.1,0-0.1-0.1-0.2-0.2C62.9,179.2,62.9,179.1,63,179.1z
					 M129.1,179.1c-0.3-0.2-0.6-0.2-0.9-0.2c-0.3,0-0.6,0.1-0.8,0.2c-0.3,0.1-0.4,0.4-0.4,0.6c0,0.3,0.2,0.5,0.4,0.6
					c0.3,0.2,0.6,0.2,0.8,0.2c0.3,0,0.6-0.1,0.9-0.2c0.2-0.1,0.4-0.4,0.4-0.6c0-0.1,0-0.2,0-0.3l7.6-4.3l6.5,3.6l-10.5,6
					c-0.3-0.1-0.6-0.2-0.9-0.2c-0.3,0-0.6,0.1-0.9,0.2c-0.4,0.1-0.5,0.5-0.4,0.9c0.1,0.2,0.2,0.3,0.4,0.4c0.5,0.3,1.2,0.3,1.7,0
					c0.2-0.1,0.4-0.4,0.4-0.6c0-0.1,0-0.1,0-0.2c0-0.1,0-0.1,0-0.2l11.1-6.4l-7.6-4.2L129.1,179.1z M128.9,179.9
					c-0.4,0.2-0.8,0.2-1.2,0c-0.1,0-0.1-0.1-0.2-0.2c0-0.1,0.1-0.2,0.2-0.2c0.2-0.1,0.4-0.2,0.6-0.1c0.2,0,0.4,0,0.6,0.1
					c0.1,0,0.1,0.1,0.2,0.2C129.1,179.8,129,179.9,128.9,179.9L128.9,179.9z M133,185.6c-0.4,0.2-0.8,0.2-1.2,0
					c-0.1,0-0.1-0.1-0.2-0.2c0-0.1,0.1-0.2,0.2-0.2c0.2-0.1,0.4-0.2,0.6-0.2c0.2,0,0.4,0,0.6,0.2c0,0,0,0,0.1,0l0,0l0.1,0.1v0.1
					C133.2,185.6,133.1,185.6,133,185.6L133,185.6z M89.9,186.2l-5.6-3.2c-0.2,0.1-0.4,0.2-0.6,0.2c-0.3,0-0.6-0.1-0.8-0.2
					c-0.4-0.1-0.5-0.6-0.4-0.9c0.1-0.2,0.2-0.3,0.4-0.4c0.5-0.3,1.2-0.3,1.7,0c0.2,0.1,0.4,0.4,0.4,0.6c0,0.2-0.1,0.3-0.2,0.4l5.2,3
					l2.7-1.5l-6.2-3.5c-0.1-0.1-0.1-0.1-0.1-0.2c0-0.1,0-0.2,0.1-0.2l4.2-2.4c-0.1-0.1-0.2-0.3-0.2-0.4c0-0.3,0.2-0.5,0.4-0.6
					c0.5-0.3,1.2-0.3,1.7,0c0.4,0.1,0.5,0.5,0.4,0.9c-0.1,0.2-0.2,0.3-0.4,0.4c-0.3,0.2-0.6,0.2-0.8,0.2c-0.2,0-0.4,0-0.6-0.1l0,0
					l-4,2.3l6.1,3.6c0.1,0.1,0.1,0.2,0.1,0.4c0,0,0,0-0.1,0.1l-3.1,1.9c0,0.1,0,0.1-0.1,0.1C90,186.3,89.9,186.2,89.9,186.2
					L89.9,186.2z M91.8,177c-0.2,0-0.4,0-0.6,0.2l-0.1,0.1c-0.1,0.1-0.1,0.1-0.1,0.1c0,0.1,0.1,0.2,0.2,0.2c0.2,0.1,0.4,0.2,0.6,0.2
					c0.2,0,0.4,0,0.6-0.2c0.1,0,0.2-0.2,0.1-0.3c0-0.1-0.1-0.1-0.1-0.1C92.2,177,92,177,91.8,177z M82.9,182.2
					c0,0.1,0.1,0.2,0.2,0.2c0.4,0.2,0.8,0.2,1.2,0c0.1,0,0.1-0.1,0.2-0.2c0-0.1-0.1-0.2-0.2-0.2c-0.2-0.1-0.4-0.2-0.6-0.2
					c-0.2,0-0.4,0.1-0.6,0.2C82.9,182,82.9,182.1,82.9,182.2L82.9,182.2z M88.1,190.5l8.9,5.4c0.1,0.1,0.1,0.2,0.2,0.3
					c0,0.1,0,0.2-0.1,0.2l-8.2,4.4c0,0.1-0.1,0.1-0.1,0.1s-0.1-0.1-0.1-0.1l-3.7-2.2c-0.2,0.1-0.4,0.1-0.6,0.1c-0.4,0-0.7-0.1-1-0.3
					c-0.4-0.1-0.6-0.6-0.4-0.9c0.1-0.2,0.2-0.4,0.4-0.4c0.6-0.3,1.4-0.3,2,0c0.3,0.1,0.5,0.4,0.5,0.7c0,0.3-0.2,0.5-0.4,0.6l3.2,1.9
					l7.7-4.2l-8.9-5.3c-0.1-0.1-0.1-0.3,0-0.4c0,0,0,0,0,0l10.2-5.6l-6.7-3.9c-0.1,0-0.1-0.1-0.1-0.2c0-0.1,0-0.2,0.1-0.2l2-1.2
					c-0.1-0.1-0.2-0.3-0.2-0.5c0-0.3,0.2-0.5,0.4-0.6c0.5-0.3,1.2-0.3,1.7,0c0.4,0.1,0.5,0.5,0.4,0.9c-0.1,0.2-0.2,0.3-0.4,0.4
					c-0.3,0.2-0.6,0.2-0.8,0.2c-0.2,0-0.4,0-0.5-0.1l-1.9,1.1l6.7,3.9c0.1,0.1,0.1,0.1,0.1,0.2c0,0.1,0,0.2-0.1,0.2L88.1,190.5z
					 M94.1,178.4c-0.2,0-0.4,0-0.6,0.2c-0.1,0-0.1,0.1-0.2,0.2c0,0.1,0.1,0.2,0.2,0.2c0.4,0.2,0.8,0.2,1.2,0c0.1,0,0.1-0.1,0.2-0.2
					c0-0.1-0.1-0.2-0.2-0.2C94.5,178.4,94.3,178.4,94.1,178.4L94.1,178.4z M83.3,197.7c0,0.1,0.1,0.2,0.3,0.3c0.5,0.3,1,0.3,1.5,0
					c0.2-0.1,0.3-0.2,0.3-0.3s-0.1-0.2-0.3-0.3c-0.5-0.2-1-0.2-1.5,0C83.4,197.5,83.3,197.6,83.3,197.7L83.3,197.7z M117.5,185.6
					l-11.2-6.5c0.2-0.3,0.2-0.7-0.1-0.9c-0.1,0-0.1-0.1-0.2-0.1c-0.5-0.3-1.2-0.3-1.7,0c-0.4,0.1-0.5,0.5-0.4,0.9
					c0.1,0.2,0.2,0.3,0.4,0.4c0.3,0.2,0.6,0.2,0.8,0.2c0.3,0,0.5,0,0.8-0.2l11,6.4l-12.4,6.7c-0.1,0.1-0.1,0.2-0.1,0.4
					c0,0,0,0,0.1,0.1l4.4,2.8l-9.2,5.2c-0.1,0.1-0.1,0.2-0.1,0.4c0,0,0,0,0.1,0.1l4.2,2.3c0,0,0,0,0.1,0l0,0c0,0,0.1,0,0.1-0.1
					l9.3-5.3c0.2,0.1,0.5,0.1,0.7,0.1c0.3,0,0.7-0.1,1-0.3c0.4-0.1,0.6-0.6,0.4-1c-0.1-0.2-0.2-0.3-0.4-0.4c-0.6-0.3-1.4-0.3-2,0
					c-0.3,0.1-0.5,0.4-0.5,0.7c0,0.2,0.1,0.4,0.3,0.6l-8.9,5.2l-3.7-2l9.2-5.2c0.1-0.1,0.1-0.3,0.1-0.4c0,0,0,0-0.1-0.1l-4.5-2.8
					l12.5-6.8c0.1-0.1,0.1-0.1,0.1-0.2C117.6,185.7,117.6,185.6,117.5,185.6z M105.7,179c-0.4,0.2-0.8,0.2-1.2,0
					c-0.1,0-0.1-0.1-0.2-0.2c0-0.1,0.1-0.2,0.2-0.2c0.2-0.1,0.4-0.2,0.6-0.2c0.2,0,0.4,0.1,0.6,0.2c0.1,0,0.1,0.1,0.2,0.2
					C105.8,178.9,105.8,179,105.7,179z M113.3,197.2c0.5-0.2,1-0.2,1.5,0c0.2,0.1,0.3,0.2,0.3,0.3s-0.1,0.2-0.3,0.3
					c-0.5,0.2-1,0.2-1.5,0c-0.2-0.1-0.3-0.2-0.3-0.3C113.1,197.4,113.2,197.3,113.3,197.2L113.3,197.2z M107.4,176.6
					c0.3,0,0.6,0.1,0.8,0.2c0.3,0.2,0.4,0.4,0.4,0.5c0,0.1,0,0.3-0.1,0.4l3.8,2.3c0.3-0.1,0.5-0.2,0.8-0.2c0.3,0,0.6,0.1,0.8,0.2
					c0.4,0.1,0.5,0.6,0.4,0.9c-0.1,0.2-0.2,0.3-0.4,0.4c-0.5,0.3-1.2,0.3-1.7,0c-0.2-0.1-0.4-0.4-0.4-0.6c0-0.1,0-0.2,0.1-0.3
					l-3.8-2.3l0.1-0.1c-0.2,0.2-0.5,0.2-0.8,0.2c-0.3,0-0.6-0.1-0.8-0.2c-0.4-0.1-0.5-0.5-0.4-0.9c0.1-0.2,0.2-0.3,0.4-0.4
					C106.8,176.6,107.1,176.5,107.4,176.6L107.4,176.6z M106.8,177.6c0.4,0.2,0.8,0.2,1.2,0c0.1-0.1,0.2-0.2,0.2-0.2
					c0-0.1-0.1-0.2-0.2-0.2c-0.2-0.1-0.4-0.2-0.6-0.2c-0.2,0-0.4,0-0.6,0.2c-0.1,0-0.2,0.2-0.1,0.3
					C106.7,177.5,106.7,177.6,106.8,177.6L106.8,177.6z M113.2,180.4c-0.2,0-0.4,0-0.6,0.2c-0.1,0-0.2,0.2-0.1,0.3
					c0,0.1,0.1,0.1,0.1,0.1c0.4,0.2,0.8,0.2,1.2,0c0.1,0,0.2-0.2,0.1-0.3c0-0.1-0.1-0.1-0.1-0.1
					C113.6,180.4,113.4,180.4,113.2,180.4L113.2,180.4z M100.6,181.3l4.4,2.7c0.1,0,0.1,0.1,0.1,0.1v0.1c0,0.1,0,0.2-0.1,0.2
					l-11.3,6.4l7.8,4.5c0.2-0.1,0.5-0.2,0.7-0.2c0.3,0,0.6,0.1,0.8,0.2c0.4,0.1,0.5,0.6,0.4,0.9c-0.1,0.2-0.2,0.3-0.4,0.4
					c-0.5,0.3-1.2,0.3-1.7,0c-0.3-0.1-0.4-0.4-0.4-0.6c0-0.1,0.1-0.3,0.2-0.4l-8-4.6c-0.1,0-0.1-0.1-0.1-0.2c0-0.1,0-0.2,0.1-0.2
					l11.3-6.4l-4.3-2.5c-0.2,0.1-0.5,0.2-0.7,0.2c-0.3,0-0.6-0.1-0.8-0.2c-0.4-0.1-0.5-0.5-0.4-0.9c0.1-0.2,0.2-0.3,0.4-0.4
					c0.5-0.3,1.2-0.3,1.7,0c0.2,0.1,0.4,0.4,0.4,0.6C100.7,181.1,100.7,181.2,100.6,181.3L100.6,181.3z M98.8,181.2
					c0.4,0.2,0.8,0.2,1.2,0c0.1-0.1,0.2-0.1,0.2-0.2c0-0.1-0.1-0.2-0.2-0.2c-0.2-0.1-0.4-0.2-0.6-0.2c-0.2,0-0.4,0.1-0.6,0.2
					c-0.1,0-0.1,0.1-0.2,0.2C98.7,181,98.7,181.1,98.8,181.2L98.8,181.2z M102.3,195.5c-0.2,0-0.4,0.1-0.6,0.2l-0.1,0.1
					c-0.1,0.1-0.1,0.1-0.1,0.1c0,0.1,0.1,0.2,0.2,0.2c0.4,0.2,0.8,0.2,1.2,0c0.1,0,0.1-0.1,0.2-0.2c0-0.1-0.1-0.2-0.2-0.2
					C102.7,195.6,102.5,195.5,102.3,195.5L102.3,195.5z M113.6,151.1c-0.4,0.1-0.5,0.5-0.4,0.9c0.1,0.2,0.2,0.3,0.4,0.4
					c0.3,0.2,0.6,0.2,0.8,0.2c0.2,0,0.5,0,0.7-0.2l3.7,2.2l6.8-4.1c0.5,0.3,1.2,0.3,1.7,0c0.2-0.1,0.4-0.4,0.4-0.6
					c0-0.3-0.2-0.5-0.4-0.6c-0.5-0.3-1.2-0.3-1.7,0c-0.3,0.1-0.4,0.4-0.4,0.6c0,0.1,0,0.2,0.1,0.3l-6.4,3.9l-3.3-2
					c0.1-0.1,0.2-0.2,0.2-0.4c0-0.3-0.2-0.5-0.4-0.6c-0.3-0.2-0.6-0.2-0.8-0.2C114.1,150.9,113.8,151,113.6,151.1L113.6,151.1z
					 M125.9,149.7c0.2-0.1,0.4-0.2,0.6-0.2c0.2,0,0.4,0.1,0.6,0.2c0.1,0,0.1,0.1,0.2,0.2c0,0.1-0.1,0.2-0.2,0.2
					c-0.4,0.1-0.8,0.1-1.2,0c-0.1,0-0.1-0.1-0.2-0.2C125.8,149.9,125.8,149.8,125.9,149.7L125.9,149.7z M115.2,151.7
					c0,0,0,0.1-0.1,0.1c0,0-0.1,0-0.1,0.1c-0.4,0.2-0.8,0.2-1.2,0c-0.1,0-0.2-0.2-0.1-0.3c0-0.1,0.1-0.1,0.1-0.1
					c0.2-0.1,0.4-0.2,0.6-0.2c0.2,0,0.4,0,0.6,0.2l0.1,0.1C115.2,151.7,115.2,151.7,115.2,151.7L115.2,151.7z M111.1,176
					c0,0.2-0.1,0.3-0.2,0.4l25.5,14.3l-2.5,1.5c0.1,0.1,0.2,0.3,0.2,0.5c0,0.3-0.2,0.5-0.4,0.6c-0.5,0.3-1.2,0.3-1.7,0
					c-0.4-0.1-0.5-0.5-0.4-0.9c0.1-0.2,0.2-0.3,0.4-0.4c0.3-0.2,0.6-0.2,0.9-0.2c0.2,0,0.4,0,0.6,0.1l2-1.2l-25-14.1l0,0
					c-0.2,0.1-0.5,0.2-0.7,0.2c-0.3,0-0.6-0.1-0.8-0.2c-0.4-0.1-0.5-0.5-0.4-0.9c0.1-0.2,0.2-0.3,0.4-0.4c0.5-0.3,1.2-0.3,1.7,0
					C110.8,175.5,111,175.7,111.1,176z M109.2,176.2c0.4,0.2,0.8,0.2,1.2,0c0.1,0,0.2-0.1,0.2-0.2c0-0.1-0.1-0.2-0.2-0.2
					c-0.2-0.1-0.4-0.2-0.6-0.2c-0.2,0-0.4,0.1-0.6,0.2c-0.1,0-0.1,0.1-0.2,0.2C109,176.1,109.1,176.2,109.2,176.2L109.2,176.2z
					 M132.2,193c0.4,0.2,0.8,0.2,1.2,0l0.2-0.2c0-0.1-0.1-0.2-0.2-0.2l0,0h-0.1c-0.2-0.1-0.4-0.1-0.6-0.1c-0.2,0-0.4,0.1-0.6,0.2
					c-0.1,0-0.1,0.1-0.2,0.2C132.1,193,132.2,193,132.2,193L132.2,193z M68.4,170.7l10.7,6.2l5-2.9c0.2,0.1,0.4,0.1,0.6,0.1
					c0.3,0,0.6-0.1,0.8-0.2c0.4-0.1,0.5-0.6,0.4-0.9c-0.1-0.2-0.2-0.3-0.4-0.4c-0.5-0.3-1.2-0.3-1.7,0c-0.2,0.1-0.4,0.4-0.4,0.6
					c0,0.2,0.1,0.3,0.2,0.4l-4.5,2.6l-10.4-6L68.4,170.7z M84.1,173.1c0.2-0.1,0.4-0.2,0.6-0.2c0.2,0,0.4,0.1,0.6,0.2
					c0.1,0,0.1,0.1,0.2,0.2c0,0.1-0.1,0.2-0.2,0.2c-0.2,0.1-0.4,0.2-0.6,0.2c-0.2,0-0.4-0.1-0.6-0.2c-0.1,0-0.1-0.1-0.2-0.2
					C83.9,173.3,83.9,173.2,84.1,173.1z M69.1,180.8l-4.7,3h-0.2l-10.3-6l0,0.1c-0.5,0.3-1.2,0.3-1.7,0c-0.3-0.1-0.5-0.5-0.4-0.9
					c0.1-0.2,0.2-0.3,0.4-0.4c0.5-0.3,1.2-0.3,1.7,0c0.3,0.1,0.4,0.4,0.4,0.6c0,0,0,0.1,0,0.1c0,0,0,0.1,0,0.1l10.1,5.8l4.3-2.8
					c-0.1-0.1-0.1-0.2-0.1-0.4c0-0.3,0.2-0.5,0.4-0.6c0.3-0.2,0.6-0.2,0.8-0.2c0.3,0,0.6,0.1,0.9,0.2c0.2,0.1,0.4,0.4,0.4,0.6
					c0,0.3-0.2,0.5-0.4,0.6c-0.3,0.2-0.6,0.2-0.9,0.2C69.6,181,69.4,181,69.1,180.8L69.1,180.8z M69.8,179.8c-0.2,0-0.4,0-0.6,0.2
					c-0.2,0.1-0.2,0.1-0.2,0.2c0,0.1,0.1,0.2,0.2,0.2c0.4,0.2,0.8,0.2,1.2,0c0.1,0,0.2-0.2,0.1-0.3c0-0.1-0.1-0.1-0.1-0.1
					C70.3,179.8,70.1,179.8,69.8,179.8L69.8,179.8z M52.4,177.4c0.4,0.2,0.8,0.2,1.2,0c0.1-0.1,0.2-0.2,0.2-0.2
					c0-0.1-0.1-0.2-0.2-0.2c-0.2-0.1-0.4-0.2-0.6-0.2c-0.2,0-0.4,0.1-0.6,0.2c-0.1,0-0.2,0.2-0.1,0.3
					C52.3,177.4,52.4,177.4,52.4,177.4L52.4,177.4z M89,176.8L89,176.8c0.1,0,0.2,0,0.3,0c0.3,0,0.6-0.1,0.8-0.2
					c0.4-0.1,0.5-0.5,0.4-0.9c-0.1-0.2-0.2-0.3-0.4-0.4c-0.5-0.3-1.2-0.3-1.7,0c-0.2,0.1-0.4,0.4-0.4,0.6c0,0.2,0.1,0.4,0.3,0.5
					l-22.7,13c-0.5-0.3-1.2-0.3-1.7,0c-0.4,0.1-0.5,0.5-0.4,0.9c0.1,0.2,0.2,0.3,0.4,0.4c0.5,0.3,1.2,0.3,1.7,0
					c0.3-0.1,0.4-0.4,0.4-0.6c0-0.1,0-0.2-0.1-0.3l22.8-13H89z M88.8,175.8c0.2-0.1,0.4-0.2,0.6-0.1c0.2,0,0.4,0,0.6,0.1
					c0.1,0,0.1,0.1,0.2,0.2c0,0.1-0.1,0.2-0.2,0.2c-0.2,0.1-0.4,0.2-0.6,0.2c-0.2,0-0.4-0.1-0.6-0.2c-0.1,0-0.1-0.1-0.2-0.2
					C88.6,176,88.7,175.9,88.8,175.8L88.8,175.8z M65.4,190.3c-0.4,0.2-0.8,0.2-1.2,0c-0.1,0-0.1-0.1-0.2-0.2c0-0.1,0.1-0.2,0.2-0.2
					c0.2-0.1,0.4-0.2,0.6-0.2c0.2,0,0.4,0.1,0.6,0.2c0.1,0,0.1,0.1,0.2,0.2C65.6,190.1,65.6,190.2,65.4,190.3L65.4,190.3L65.4,190.3
					z M115.6,173.8l7.2,4.2l11-6.4l0.3,0.4l-11.2,6.6l-7.7-4.6c-0.2,0.1-0.4,0.1-0.6,0.1c-0.3,0-0.6-0.1-0.9-0.2
					c-0.4-0.1-0.5-0.6-0.4-0.9c0.1-0.2,0.2-0.3,0.4-0.4c0.5-0.3,1.2-0.3,1.7,0c0.2,0.1,0.4,0.4,0.4,0.6
					C115.8,173.5,115.7,173.7,115.6,173.8L115.6,173.8z M113.9,173.5c0.4,0.2,0.8,0.2,1.2,0c0.1,0,0.1-0.1,0.2-0.2
					c0-0.1-0.1-0.2-0.2-0.2c-0.2-0.1-0.4-0.2-0.6-0.2c-0.2,0-0.4,0.1-0.6,0.2c-0.1,0-0.1,0.1-0.2,0.2
					C113.7,173.4,113.8,173.5,113.9,173.5L113.9,173.5z M128.8,184.3l4.9-3.1c0.2,0.1,0.5,0.2,0.8,0.2c0.3,0,0.6-0.1,0.9-0.2
					c0.4-0.1,0.5-0.6,0.4-0.9c-0.1-0.2-0.2-0.3-0.4-0.4c-0.5-0.3-1.2-0.3-1.7,0c-0.2,0.1-0.4,0.4-0.4,0.6c0,0.1,0,0.3,0.1,0.4
					l-4.5,2.8l-15.5-8.7c0.1-0.1,0.2-0.2,0.2-0.4c0-0.3-0.2-0.5-0.4-0.6c-0.5-0.3-1.2-0.3-1.7,0c-0.3,0.1-0.4,0.4-0.4,0.6
					c0,0.3,0.2,0.5,0.4,0.6c0.3,0.2,0.6,0.2,0.8,0.2c0.3,0,0.5-0.1,0.8-0.2v0.1L128.8,184.3z M133.8,180.3c0.2-0.1,0.4-0.2,0.6-0.2
					c0.2,0,0.4,0.1,0.6,0.2c0.1,0,0.1,0.1,0.2,0.2c0,0.1-0.1,0.2-0.2,0.2c-0.2,0.1-0.4,0.2-0.6,0.2c-0.2,0-0.4,0-0.6-0.2
					c-0.1,0-0.1-0.1-0.2-0.2C133.7,180.5,133.7,180.4,133.8,180.3L133.8,180.3z M112.8,174.9c-0.4,0.2-0.8,0.2-1.2,0
					c-0.1,0-0.2-0.2-0.1-0.3c0-0.1,0.1-0.1,0.1-0.1c0.2-0.1,0.4-0.2,0.6-0.2c0.2,0,0.4,0,0.6,0.2c0.1,0,0.2,0.2,0.1,0.3
					C112.9,174.8,112.8,174.9,112.8,174.9z M119.5,173.4l7-4.2l-7.2-4.1l6.9-4.1c-0.1-0.1-0.2-0.3-0.2-0.4c0-0.3,0.2-0.5,0.4-0.6
					c0.5-0.3,1.2-0.3,1.7,0c0.4,0.1,0.5,0.5,0.4,0.9c-0.1,0.2-0.2,0.3-0.4,0.4c-0.3,0.2-0.6,0.2-0.8,0.2c-0.2,0-0.5,0-0.7-0.1
					l-6.4,3.8l7.3,4.2l-8,4.8l-2.1-1.2c-0.1,0-0.2,0-0.2,0c-0.1,0-0.2,0-0.3,0c-0.3,0-0.6-0.1-0.8-0.2c-0.3-0.1-0.5-0.5-0.4-0.9
					c0.1-0.2,0.2-0.3,0.4-0.4c0.5-0.3,1.2-0.3,1.7,0c0.2,0.1,0.4,0.4,0.4,0.6c0,0.2-0.1,0.4-0.2,0.5L119.5,173.4z M116.2,172.1
					c0.4,0.2,0.8,0.2,1.2,0c0.1,0,0.2-0.1,0.2-0.2c0-0.1-0.1-0.2-0.2-0.2c-0.2-0.1-0.4-0.2-0.6-0.2c-0.2,0-0.4,0-0.6,0.2
					c-0.1,0-0.2,0.2-0.1,0.3C116.1,172.1,116.2,172.1,116.2,172.1L116.2,172.1z M127.3,160.2c-0.2,0-0.4,0-0.6,0.1
					c-0.1,0.1-0.2,0.1-0.2,0.2c0,0.1,0.1,0.2,0.2,0.2c0.4,0.2,0.8,0.2,1.2,0c0.1,0,0.1-0.1,0.2-0.2c0-0.1-0.1-0.2-0.2-0.2
					C127.8,160.2,127.6,160.2,127.3,160.2L127.3,160.2z M114.8,156.4l-7.2,4.1l0.3,0.4l7.9-4.6l-7.2-4l6.6-4.1l-0.3-0.4l-7.3,4.6
					L114.8,156.4z M109.3,155.5l-7.9,4.6l-0.3-0.4l7.1-4.1L96.2,149l7-4.3l-4.7-2.5c-0.5,0.3-1.2,0.3-1.7,0
					c-0.4-0.1-0.5-0.6-0.4-0.9c0.1-0.2,0.2-0.3,0.4-0.4c0.3-0.2,0.6-0.2,0.8-0.2c0.3,0,0.6,0.1,0.8,0.2c0.3,0.1,0.4,0.4,0.4,0.6
					c0,0.1,0,0.2,0,0.3l5.4,2.9l-7,4.3L109.3,155.5z M97,141.8c0.4,0.2,0.8,0.2,1.2,0c0.1-0.1,0.2-0.1,0.2-0.2
					c0-0.1-0.1-0.2-0.2-0.2c-0.2-0.1-0.4-0.2-0.6-0.2c-0.2,0-0.4,0-0.6,0.1c-0.1,0-0.1,0.1-0.2,0.2C96.9,141.7,96.9,141.8,97,141.8z
					 M79.2,152.4c0.3,0.2,0.6,0.2,0.9,0.2c0.3,0,0.5,0,0.7-0.2l5.2,3l-6.1,3.6l12.9,7.5l0.3-0.4l-12.2-7l6.1-3.6l-5.8-3.3
					c0.1-0.1,0.1-0.2,0.1-0.4c0-0.3-0.2-0.5-0.4-0.6c-0.5-0.3-1.2-0.3-1.7,0c-0.2,0.1-0.4,0.4-0.4,0.6
					C78.8,152.1,78.9,152.3,79.2,152.4z M79.4,151.6c0.2-0.1,0.4-0.2,0.6-0.2c0.2,0,0.4,0.1,0.6,0.2c0.1,0,0.1,0.1,0.2,0.2
					c0,0.1-0.1,0.2-0.2,0.2c-0.2,0.1-0.4,0.2-0.6,0.2c-0.2,0-0.4-0.1-0.6-0.2c-0.1,0-0.1-0.1-0.2-0.2
					C79.3,151.7,79.4,151.6,79.4,151.6L79.4,151.6z M66.8,148.8c-0.3,0-0.6-0.1-0.8-0.2c-0.3-0.2-0.4-0.4-0.4-0.6
					c0-0.3,0.2-0.5,0.4-0.6c0.5-0.3,1.2-0.3,1.7,0c0.2,0.1,0.4,0.4,0.4,0.6c0,0.1,0,0.2-0.1,0.3l11.1,6.8c0,0,0,0,0-0.1
					c0.5-0.3,1.2-0.3,1.7,0c0.4,0.1,0.5,0.5,0.4,0.9c-0.1,0.2-0.2,0.3-0.4,0.4c-0.5,0.3-1.2,0.3-1.7,0c-0.2-0.1-0.4-0.4-0.4-0.6
					c0-0.1,0-0.2,0.1-0.2l-11.2-6.8C67.4,148.8,67.1,148.8,66.8,148.8L66.8,148.8z M80.1,155.3c-0.2,0-0.4,0-0.6,0.2
					c-0.1,0.1-0.2,0.1-0.2,0.2c0,0.1,0.1,0.2,0.2,0.2c0.4,0.2,0.8,0.2,1.2,0c0.1,0,0.2-0.2,0.1-0.3c0-0.1-0.1-0.1-0.1-0.1
					C80.6,155.4,80.3,155.3,80.1,155.3L80.1,155.3z M66.9,147.6c-0.2,0-0.4,0-0.6,0.1c-0.1,0-0.1,0.1-0.2,0.2c0,0.1,0.1,0.2,0.2,0.2
					c0.2,0.1,0.4,0.2,0.6,0.2c0.2,0,0.4,0,0.6-0.2c0.1,0,0.1-0.1,0.2-0.2c0-0.1-0.1-0.2-0.2-0.2C67.3,147.7,67.1,147.6,66.9,147.6
					L66.9,147.6z M79.9,173.6l1.7-0.9c0.2,0.1,0.5,0.2,0.7,0.2c0.3,0,0.6-0.1,0.9-0.2c0.4-0.1,0.5-0.6,0.4-0.9
					c-0.1-0.2-0.2-0.3-0.4-0.4c-0.5-0.3-1.2-0.3-1.7,0c-0.2,0.1-0.4,0.4-0.4,0.6c0,0.1,0,0.3,0.1,0.4l-1.3,0.7l-6.8-4l6.8-4
					l-3.9-2.3c0.1-0.1,0.2-0.3,0.2-0.4c0-0.3-0.2-0.5-0.4-0.6c-0.5-0.3-1.2-0.3-1.7,0c-0.4,0.1-0.5,0.6-0.4,0.9
					c0.1,0.2,0.2,0.3,0.4,0.4c0.3,0.2,0.6,0.2,0.8,0.2c0.2,0,0.5,0,0.7-0.1l3.4,2l-6.8,4L79.9,173.6z M81.8,171.8
					c0.2-0.1,0.4-0.2,0.6-0.2c0.2,0,0.4,0.1,0.6,0.2c0.1,0,0.1,0.1,0.2,0.2c0,0.1-0.1,0.2-0.2,0.2c-0.2,0.1-0.4,0.2-0.6,0.2
					c-0.2,0-0.4,0-0.6-0.2c-0.1,0-0.1-0.1-0.2-0.2C81.5,171.9,81.6,171.8,81.8,171.8L81.8,171.8z M75.4,162.6
					c-0.4,0.2-0.8,0.2-1.2,0c-0.1,0-0.2-0.2-0.1-0.3c0-0.1,0.1-0.1,0.1-0.1c0.2-0.1,0.4-0.2,0.6-0.2c0.2,0,0.4,0,0.6,0.2
					c0.1,0,0.1,0.1,0.2,0.2C75.6,162.5,75.5,162.6,75.4,162.6L75.4,162.6z M99.5,190.3c0.3,0,0.5,0,0.8,0.2l9.4-5.2l0,0
					c-0.1-0.1-0.1-0.2-0.1-0.3c0-0.3,0.2-0.5,0.4-0.6c0.5-0.3,1.2-0.3,1.7,0c0.4,0.1,0.5,0.6,0.4,0.9c-0.1,0.2-0.2,0.3-0.4,0.4
					c-0.3,0.2-0.6,0.2-0.8,0.2c-0.3,0-0.6-0.1-0.8-0.2l-9.4,5.2c0.1,0.1,0.1,0.2,0.1,0.4c0,0.3-0.2,0.5-0.4,0.6
					c-0.5,0.3-1.2,0.3-1.7,0c-0.4-0.1-0.5-0.5-0.4-0.9c0.1-0.2,0.2-0.3,0.4-0.4C98.9,190.4,99.2,190.3,99.5,190.3L99.5,190.3z
					 M98.9,191.3c0.4,0.2,0.8,0.2,1.2,0c0.1,0,0.1-0.1,0.2-0.2c0-0.1-0.1-0.2-0.2-0.2c-0.2-0.1-0.4-0.2-0.6-0.2
					c-0.2,0-0.4,0-0.6,0.2c-0.1,0-0.1,0.1-0.2,0.2C98.8,191.2,98.8,191.3,98.9,191.3L98.9,191.3z M110.9,184.5c-0.2,0-0.4,0-0.6,0.2
					l-0.1,0.1c-0.1,0.1-0.1,0.1-0.1,0.1c0,0.1,0.1,0.2,0.2,0.2c0.4,0.2,0.8,0.2,1.2,0c0.1,0,0.2-0.2,0.1-0.3c0-0.1-0.1-0.1-0.1-0.1
					C111.4,184.6,111.1,184.5,110.9,184.5L110.9,184.5z M119.7,169.1c0,0.1-0.1,0.2-0.1,0.3c0,0.3,0.2,0.5,0.4,0.6
					c0.5,0.3,1.2,0.3,1.7,0c0.4-0.1,0.5-0.5,0.4-0.9c-0.1-0.2-0.2-0.3-0.4-0.4c-0.3-0.2-0.6-0.2-0.8-0.2c-0.3,0-0.6,0.1-0.8,0.2
					l-9.7-5.3l7.1-4.2c0.3,0.1,0.5,0.2,0.8,0.2c0.3,0,0.6-0.1,0.8-0.2c0.4-0.1,0.5-0.6,0.4-0.9c-0.1-0.2-0.2-0.3-0.4-0.4
					c-0.5-0.3-1.2-0.3-1.7,0c-0.3,0.1-0.4,0.4-0.4,0.6c0,0.1,0,0.2,0.1,0.3l-7.7,4.6L119.7,169.1z M120.1,169.3l0.1-0.2h0.1
					c0.2-0.1,0.4-0.2,0.6-0.2c0.2,0,0.4,0,0.6,0.2c0.1,0,0.1,0.1,0.2,0.2c0,0.1-0.1,0.2-0.2,0.2c-0.4,0.2-0.8,0.2-1.2,0
					C120.2,169.5,120.1,169.5,120.1,169.3L120.1,169.3z M117.6,158.3c0.2-0.1,0.4-0.2,0.6-0.2c0.2,0,0.4,0,0.6,0.2
					c0.1,0,0.2,0.2,0.1,0.3c0,0.1-0.1,0.1-0.1,0.1c-0.4,0.2-0.8,0.2-1.2,0c-0.1,0-0.1-0.1-0.2-0.2
					C117.4,158.5,117.4,158.5,117.6,158.3L117.6,158.3z M124.7,157.6l-2.7-1.5l9.3-5.6c0-0.1-0.1-0.1-0.1-0.2c0-0.3,0.2-0.5,0.4-0.6
					c0.5-0.3,1.2-0.3,1.7,0c0.4,0.1,0.5,0.6,0.4,0.9c-0.1,0.2-0.2,0.3-0.4,0.4c-0.5,0.3-1.2,0.3-1.7,0c0,0-0.1,0-0.1-0.1l-8.6,5.2
					l2.8,1.5l-10.9,6.4l-0.3-0.4L124.7,157.6z M132.5,149.9c-0.2,0-0.4,0-0.6,0.2c-0.1,0.1-0.2,0.1-0.2,0.2c0,0.1,0.1,0.2,0.2,0.2
					c0.4,0.2,0.8,0.2,1.2,0c0.1,0,0.1-0.1,0.1-0.2c0-0.1-0.1-0.2-0.1-0.2C132.9,150,132.7,150,132.5,149.9L132.5,149.9z M86.8,165.8
					l-10.6-5.9l2.3-1.3l-6.4-4c0-0.1,0-0.2,0-0.3c0-0.3-0.2-0.5-0.4-0.6c-0.5-0.3-1.2-0.3-1.7,0c-0.4,0.1-0.5,0.5-0.4,0.9
					c0.1,0.2,0.2,0.3,0.4,0.4c0.5,0.3,1.2,0.3,1.7,0l5.8,3.6l-2.3,1.3l11.4,6.3L86.8,165.8z M71.4,154.6c-0.2,0.1-0.4,0.2-0.6,0.1
					c-0.2,0-0.4,0-0.6-0.1c-0.1,0-0.1-0.1-0.2-0.2c0-0.1,0.1-0.2,0.2-0.2c0.2-0.1,0.4-0.2,0.6-0.2c0.2,0,0.4,0.1,0.6,0.2
					c0.1,0,0.1,0.1,0.2,0.2C71.6,154.4,71.5,154.5,71.4,154.6z M82.2,148.2c-0.4,0-0.7-0.1-1-0.3c-0.3-0.1-0.5-0.4-0.4-0.7
					c0-0.3,0.2-0.6,0.5-0.7c0.6-0.3,1.4-0.3,2,0c0.3,0.1,0.5,0.4,0.5,0.7c0,0.1-0.1,0.3-0.1,0.4l6.4,3.5l2.7-1.7l5.4,3l-8.8,4.9
					l14.1,8.4l-0.3,0.4l-14.9-8.7l8.8-4.9l-4.4-2.4l-2.6,1.7l-6.8-3.8C82.9,148.2,82.6,148.3,82.2,148.2z M82.2,146.8
					c-0.3,0-0.5,0.1-0.8,0.2c-0.2,0.1-0.3,0.2-0.3,0.3s0.1,0.2,0.3,0.3c0.5,0.2,1,0.2,1.5,0c0.2-0.1,0.3-0.2,0.3-0.3
					s-0.1-0.2-0.3-0.3C82.7,146.9,82.5,146.8,82.2,146.8z"/>
			</g>
			<g>
				
					<linearGradient id="SVGID_10_" gradientUnits="userSpaceOnUse" x1="48.1086" y1="984.7171" x2="132.4886" y2="1001.7871" gradientTransform="matrix(1 0 0 1 0 -828)">
					<stop  offset="0" style="stop-color:#FF8789"/>
					<stop  offset="0.44" style="stop-color:#84A2FC"/>
					<stop  offset="0.72" style="stop-color:#205FE3"/>
					<stop  offset="1" style="stop-color:#030F28"/>
				</linearGradient>
				<path class="st9" d="M142.5,164.9c2.4,1.4,2.4,3.8,0,5.2l-36.4,21.3c-2.8,1.5-6.1,1.5-8.9,0l-36.5-21.3c-2.5-1.4-2.5-3.8,0-5.2
					L97,143.6c2.8-1.4,6.1-1.4,8.9,0L142.5,164.9z"/>
				
					<linearGradient id="SVGID_11_" gradientUnits="userSpaceOnUse" x1="101.6096" y1="1030.28" x2="101.5496" y2="989.24" gradientTransform="matrix(1 0 0 1 0 -828)">
					<stop  offset="0" style="stop-color:#FF8789"/>
					<stop  offset="0.53" style="stop-color:#84A2FC"/>
					<stop  offset="0.72" style="stop-color:#205FE3"/>
					<stop  offset="1" style="stop-color:#030F28"/>
				</linearGradient>
				<path class="st10" d="M142.5,164.9c2.4,1.4,2.4,3.8,0,5.2l-36.4,21.3c-2.8,1.5-6.1,1.5-8.9,0l-36.5-21.3c-2.5-1.4-2.5-3.8,0-5.2
					L97,143.6c2.8-1.4,6.1-1.4,8.9,0L142.5,164.9z"/>
			</g>
			<g>
				
					<linearGradient id="SVGID_12_" gradientUnits="userSpaceOnUse" x1="43.9671" y1="1007.9872" x2="122.5871" y2="975.3972" gradientTransform="matrix(1 0 0 1 0 -828)">
					<stop  offset="0" style="stop-color:#FF8789"/>
					<stop  offset="0.53" style="stop-color:#84A2FC"/>
					<stop  offset="0.72" style="stop-color:#205FE3"/>
					<stop  offset="1" style="stop-color:#030F28"/>
				</linearGradient>
				<path class="st11" d="M125.6,135.8L125.6,135.8c-0.1,0.2-0.2,0.3-0.3,0.5c0,0.1,0,0.1-0.1,0.1c0,0,0,0,0,0
					c-0.1,0.2-0.2,0.3-0.4,0.5c-0.1,0.1-0.2,0.2-0.4,0.3c-0.1,0.1-0.2,0.2-0.3,0.2l-19.9,11.7c-0.3,0.2-0.6,0.3-0.9,0.4
					c-0.1,0-0.3,0.1-0.4,0.1s-0.3,0.1-0.5,0.1s-0.4,0.1-0.6,0.1h-2c-0.3,0-0.6-0.1-0.7-0.1h-0.1c-0.3-0.1-0.5-0.1-0.7-0.2h-0.1
					c-0.3-0.1-0.5-0.2-0.7-0.4l-20.2-11.7c-0.8-0.4-1.3-1.1-1.4-1.9l0,37.4c0.1,0.8,0.6,1.6,1.4,1.9l20.2,11.7
					c0.2,0.1,0.5,0.3,0.6,0.4h0.1c0.2,0.1,0.3,0.1,0.5,0.2c0.1,0,0.2,0,0.3,0.1h0.2c0.2,0,0.3,0.1,0.5,0.1h2.2c0.1,0,0.3,0,0.4-0.1
					h0.2c0.2,0,0.3-0.1,0.5-0.1c0.1,0,0.2,0,0.3-0.1c0,0,0.1,0,0.1-0.1c0.3-0.1,0.6-0.2,0.9-0.4l20-11.7h0.1
					c0.1-0.1,0.2-0.1,0.3-0.2s0.3-0.2,0.4-0.3l0.3-0.3c0,0,0-0.1,0.1-0.1c0,0,0-0.1,0.1-0.1c0,0,0,0,0,0l0.1-0.1
					c0.1-0.1,0.1-0.2,0.1-0.3v-0.1c0-0.1,0-0.1,0.1-0.2v-0.3l0.1-37.5C125.7,135.5,125.7,135.6,125.6,135.8z"/>
				
					<linearGradient id="SVGID_13_" gradientUnits="userSpaceOnUse" x1="97.3729" y1="1012.1795" x2="101.8129" y2="949.8095" gradientTransform="matrix(1 0 0 1 0 -828)">
					<stop  offset="0" style="stop-color:#FF8789"/>
					<stop  offset="0.53" style="stop-color:#84A2FC"/>
					<stop  offset="0.72" style="stop-color:#205FE3"/>
					<stop  offset="1" style="stop-color:#030F28;stop-opacity:0.21"/>
				</linearGradient>
				
					<linearGradient id="SVGID_14_" gradientUnits="userSpaceOnUse" x1="95.3306" y1="993.3583" x2="102.7106" y2="953.1583" gradientTransform="matrix(1 0 0 1 0 -828)">
					<stop  offset="0" style="stop-color:#FF8789"/>
					<stop  offset="0.53" style="stop-color:#84A2FC"/>
					<stop  offset="0.72" style="stop-color:#205FE3"/>
					<stop  offset="1" style="stop-color:#030F28;stop-opacity:0"/>
				</linearGradient>
				<path class="st12" d="M124.2,137L124.2,137l-20,11.7l0,0c-2,1.1-4.4,1.1-6.5,0l0,0L77.5,137c-0.7-0.3-1.2-1-1.3-1.8
					c0.1-0.8,0.6-1.4,1.3-1.7l0,0l20-11.7l0,0c2-1.1,4.4-1.1,6.5,0l0,0l20.2,11.7l0,0c0.7,0.3,1.2,1,1.3,1.8
					C125.4,136.1,124.9,136.7,124.2,137z"/>
			</g>
			<g>
				
					<linearGradient id="SVGID_15_" gradientUnits="userSpaceOnUse" x1="43.9627" y1="1000.9365" x2="122.5827" y2="968.3465" gradientTransform="matrix(1 0 0 1 0 -828)">
					<stop  offset="0" style="stop-color:#FF8789"/>
					<stop  offset="0.53" style="stop-color:#84A2FC"/>
					<stop  offset="0.72" style="stop-color:#205FE3"/>
					<stop  offset="1" style="stop-color:#030F28"/>
				</linearGradient>
				<path class="st13" d="M125.6,128.7L125.6,128.7c-0.1,0.2-0.2,0.3-0.3,0.5c0,0,0,0.1-0.1,0.1c0,0,0,0,0,0
					c-0.1,0.2-0.2,0.3-0.4,0.5c-0.1,0.1-0.2,0.2-0.4,0.3c-0.1,0.1-0.2,0.2-0.3,0.2l-19.9,11.7c-0.3,0.2-0.6,0.3-0.9,0.4
					c-0.1,0-0.3,0.1-0.4,0.1s-0.3,0.1-0.5,0.1s-0.4,0.1-0.6,0.1h-2c-0.3,0-0.6-0.1-0.7-0.1h-0.1c-0.3-0.1-0.5-0.1-0.7-0.2h-0.1
					c-0.3-0.1-0.5-0.2-0.7-0.4l-20.2-11.7c-0.8-0.4-1.3-1.1-1.4-1.9l0,37.4c0.1,0.8,0.6,1.6,1.4,1.9l20.2,11.7
					c0.2,0.1,0.5,0.3,0.6,0.4h0.1c0.2,0.1,0.3,0.1,0.5,0.2c0.1,0,0.2,0,0.3,0.1h0.2c0.2,0,0.3,0.1,0.5,0.1h2.2c0.1,0,0.3,0,0.4-0.1
					h0.2c0.2,0,0.3-0.1,0.5-0.1c0.1,0,0.2,0,0.3-0.1c0,0,0.1,0,0.1-0.1c0.3-0.1,0.6-0.2,0.9-0.4l20-11.7h0.1
					c0.1-0.1,0.2-0.1,0.3-0.2s0.3-0.2,0.4-0.3l0.3-0.3c0,0,0-0.1,0.1-0.1c0-0.1,0-0.1,0.1-0.1c0,0,0,0,0,0l0.1-0.1
					c0.1-0.1,0.1-0.2,0.1-0.3v-0.1c0-0.1,0-0.1,0.1-0.2v-0.3l0.1-37.5C125.7,128.4,125.7,128.6,125.6,128.7z"/>
				
					<linearGradient id="SVGID_16_" gradientUnits="userSpaceOnUse" x1="97.3759" y1="1005.1297" x2="101.8159" y2="942.7697" gradientTransform="matrix(1 0 0 1 0 -828)">
					<stop  offset="0" style="stop-color:#FF8789"/>
					<stop  offset="0.53" style="stop-color:#84A2FC"/>
					<stop  offset="0.72" style="stop-color:#205FE3"/>
					<stop  offset="1" style="stop-color:#030F28;stop-opacity:0.21"/>
				</linearGradient>
				
					<linearGradient id="SVGID_17_" gradientUnits="userSpaceOnUse" x1="95.3406" y1="986.3201" x2="102.7206" y2="946.1101" gradientTransform="matrix(1 0 0 1 0 -828)">
					<stop  offset="0" style="stop-color:#FF8789"/>
					<stop  offset="0.53" style="stop-color:#84A2FC"/>
					<stop  offset="0.72" style="stop-color:#205FE3"/>
					<stop  offset="1" style="stop-color:#030F28;stop-opacity:0"/>
				</linearGradient>
				<path class="st14" d="M124.2,130L124.2,130l-20,11.7l0,0c-2,1.1-4.4,1.1-6.5,0l0,0L77.5,130c-0.7-0.3-1.2-1-1.3-1.8
					c0.1-0.8,0.6-1.4,1.3-1.7l0,0l20-11.7l0,0c2-1.1,4.4-1.1,6.5,0l0,0l20.2,11.7l0,0c0.7,0.3,1.2,1,1.3,1.8
					C125.4,129.1,124.9,129.7,124.2,130z"/>
			</g>
			<g>
				
					<linearGradient id="SVGID_18_" gradientUnits="userSpaceOnUse" x1="112.28" y1="955.94" x2="114.86" y2="955.94" gradientTransform="matrix(1 0 0 1 0 -828)">
					<stop  offset="0.17" style="stop-color:#2E3192"/>
					<stop  offset="0.6" style="stop-color:#000547"/>
				</linearGradient>
				<path class="st15" d="M114.7,129.7L114.7,129.7L114.7,129.7L114.7,129.7L114.7,129.7L114.7,129.7L114.7,129.7v-5.6v0.1
					c0,0,0,0,0,0.1l0,0l0,0l0,0l-0.1,0.1l-2.4,1.9v5.5l2.4-1.9C114.7,129.8,114.7,129.8,114.7,129.7z"/>
				
					<linearGradient id="SVGID_19_" gradientUnits="userSpaceOnUse" x1="87.19" y1="955.81" x2="89.77" y2="955.81" gradientTransform="matrix(1 0 0 1 0 -828)">
					<stop  offset="0.17" style="stop-color:#2E3192"/>
					<stop  offset="0.6" style="stop-color:#000547"/>
				</linearGradient>
				<path class="st16" d="M87.3,129.8l2.4,1.9v-5.5l-2.4-1.9c-0.1-0.1-0.1-0.1-0.1-0.2v5.5C87.2,129.6,87.3,129.7,87.3,129.8z"/>
				
					<linearGradient id="SVGID_20_" gradientUnits="userSpaceOnUse" x1="95.4229" y1="958.7213" x2="106.6329" y2="958.7213" gradientTransform="matrix(1 0 0 1 0 -828)">
					<stop  offset="0.17" style="stop-color:#2E3192"/>
					<stop  offset="0.6" style="stop-color:#000547"/>
				</linearGradient>
				<path class="st17" d="M95.4,134.9L95.4,134.9c0-0.1,0-0.1,0-0.2c0,0,0-0.1,0-0.1c0,0,0-0.1,0-0.1s0-0.1,0-0.1s0-0.1,0-0.1
					s0-0.1,0-0.1s0-0.1,0-0.1s0-0.1,0-0.1s0,0,0-0.1s0,0,0-0.1l0.1-0.1c0,0,0,0,0-0.1l0.1-0.1c0,0,0,0,0-0.1c0-0.1,0.1-0.1,0.1-0.2
					c0-0.1,0.1-0.1,0.2-0.2l0.1-0.1l0.1-0.1l0.1-0.1c0,0,0.1,0,0.1-0.1l0.1-0.1c0,0,0.1,0,0.1-0.1l0.1-0.1l0.1-0.1l0.1-0.1
					c0.1-0.1,0.2-0.1,0.4-0.2l0.1-0.1l0.3-0.1h0.1c0.1-0.1,0.3-0.1,0.4-0.1l0.2-0.1l0.3-0.1l0.2-0.1L99,132c0,0,0.1,0,0.1,0h0.4
					c0,0,0.1,0,0.1,0h0.2c0.1,0,0.3,0,0.4,0h0.5c0.1,0,0.3,0,0.4,0c0.1,0,0.2,0,0.3,0h0.3h0.3c0.1,0,0.2,0,0.3,0h0.3
					c0.1,0,0.2,0,0.2,0c0.1,0,0.2,0,0.3,0.1l0.3,0.1h0.1l0.4,0.1l0.3,0.1l0.2,0.1c0.1,0.1,0.3,0.1,0.4,0.2c0.9,0.4,1.6,1.3,1.7,2.3
					v-5.5c-0.1-1-0.7-1.9-1.7-2.3c-0.1-0.1-0.3-0.2-0.4-0.2l-0.2-0.1l-0.3-0.1l0,0c-0.1-0.1-0.3-0.1-0.4-0.1h-0.1h-0.1h-0.1
					l-0.3-0.1h-0.1h-0.1c-0.1,0-0.2,0-0.3,0H102c0,0-0.1,0-0.1,0c-0.1,0-0.2,0-0.3,0h-0.1h-0.1H101h-0.9h-0.4c-0.1,0-0.1,0-0.2,0
					h-0.1c0,0-0.1,0-0.1,0l-0.4,0.1c0,0-0.1,0-0.1,0l0,0c-0.1,0-0.2,0-0.2,0l-0.2,0.1l-0.3,0.1l-0.2,0.1l0,0c-0.1,0-0.3,0.1-0.4,0.1
					h-0.1c-0.1,0-0.2,0.1-0.3,0.1l-0.1,0.1c-0.1,0.1-0.3,0.1-0.4,0.2l-0.1,0.1h-0.1l-0.1,0.1l-0.1,0.1c0,0-0.1,0-0.1,0.1l-0.1,0.1
					c0,0-0.1,0-0.1,0.1l-0.1,0.1l-0.1,0.1l0,0l0,0L96,128c0,0.1-0.1,0.1-0.1,0.2l0,0l0,0l-0.1,0.1v0.1l-0.1,0.1l0,0l0,0
					c0,0,0,0,0,0.1s0.1,0.1,0.1,0.1s0,0.1,0,0.1s0,0,0,0l0,0c0,0,0,0.1,0,0.1s0,0.1,0,0.1s0,0.1,0,0.1v0.1c0,0,0,0.1,0,0.1v0.3v5.5
					v-0.2L95.4,134.9z"/>
				
					<linearGradient id="SVGID_21_" gradientUnits="userSpaceOnUse" x1="79.4263" y1="923.7764" x2="108.3863" y2="973.7864" gradientTransform="matrix(1 0 0 1 0 -828)">
					<stop  offset="0" style="stop-color:#FF8789"/>
					<stop  offset="0.53" style="stop-color:#84A2FC"/>
					<stop  offset="0.59" style="stop-color:#205FE3"/>
					<stop  offset="1" style="stop-color:#030F28"/>
				</linearGradient>
				<path class="st18" d="M117.8,129.7v0.6c0,0.1,0,0.1,0,0.2l0,0c0,0.1,0,0.1,0,0.2l0,0c0,0,0,0.1,0,0.1l0,0c0,0.1,0,0.1,0,0.2
					c0,0,0,0,0,0.1c0,0,0,0,0,0.1l0,0c0,0,0,0-0.1,0l0,0l-0.1,0.1l-0.2,0.1l0,0h-0.1H117c0,0-0.1,0-0.1,0c-0.4,0-1,0.1-1.8,0.1
					c-0.5,0-1,0.1-1.3,0.1l-0.6,0.1c0,0.1-0.1,0.1-0.1,0.2c0,0.1-0.1,0.2-0.2,0.3l-0.1,0.1c-0.1,0.1-0.1,0.2-0.2,0.3l-0.1,0.1
					c-0.1,0.1-0.2,0.2-0.3,0.3v3.8l-1.1,0.6l-0.2,0.1l0,0h-0.1h-0.1h-0.1h-0.3h-0.1l0,0c0,0-0.1,0-0.1,0l-3.3-1.4
					c-0.2,0.1-0.4,0.1-0.5,0.1h-0.2l-0.3,0.1h-0.2l-0.3,0.1h-0.2l-0.3,0.1l-0.1,0.2c0,0,0,0.1,0,0.1s0,0.1,0,0.2s0,0.1,0,0.1
					s0,0.1,0,0.2c0,0,0,0.1,0,0.1c0,0.1,0,0.1,0,0.2c0,0,0,0,0,0.1l0,0c0,0,0,0.1,0,0.1c0,0.1,0,0.1,0,0.2s0,0.1,0,0.1s0,0.1,0,0.2
					s0,0.1,0,0.1s0,0.2-0.1,0.3s0,0.1,0,0.1l0,0c0,0,0,0,0,0.1l0,0l-0.1,0.1h-0.1l0,0l-0.1,0.1l0,0h-0.1c0,0,0,0-0.1,0h-0.2H104
					h-0.1c-0.1,0-0.1,0-0.2,0h-4.3c-0.1,0-0.1,0-0.2,0l0,0c0,0-0.1,0-0.1,0h-0.1c0,0-0.1,0-0.1,0l0,0h-0.2l0,0h-0.1l0,0L98,139l0,0
					h-0.1c-0.1-0.1-0.2-0.2-0.3-0.3l-0.5-2.2l-0.5-0.1c-0.2,0-0.4-0.1-0.6-0.1h-0.2l-0.4-0.1l-0.3-0.1c-1.6,0.7-2.7,1.2-3.3,1.4
					h-0.1h-0.1c0,0,0,0-0.1,0h-0.3c0,0-0.1,0-0.1,0l0,0h-0.1l0,0h-0.1l-0.1-0.1l-1.1-0.7v-3.8c-0.3-0.3-0.6-0.7-0.8-1.1l-3.8-0.2
					c0,0-0.1,0-0.1,0h-0.1l0,0h-0.1l-0.1-0.1c-0.1-0.1-0.2-0.2-0.2-0.3c-0.1-0.7-0.1-1.3-0.1-1.7v5.5c0,0.6,0,1.2,0.1,1.7
					c0,0.1,0.1,0.3,0.2,0.3l0.1,0.1h0.1l0,0H85c0,0,0,0,0.1,0h0.1l2.1,0.2v3.5c0,0.1,0.1,0.2,0.2,0.3l3.4,2l0,0l0,0l0,0l0,0l0,0h0.1
					h0.4c0,0,0.1,0,0.1,0l0,0l0,0c0.6-0.2,1.8-0.7,3.3-1.4l0.2,0.1h0.1l0.4,0.1h0.2l0.6,0.1l0,0l0.5,0.1l0,0l0.5,2.2
					c0.1,0.1,0.1,0.2,0.3,0.3h0.1l0,0h0.1l0,0h0.1l0,0H98l0,0c0,0,0.1,0,0.1,0h0.1c0,0,0.1,0,0.1,0l0,0c0.1,0,0.1,0,0.2,0h4.3
					c0.1,0,0.1,0,0.2,0h0.1h0.2h0.2h0.1l0,0l0.1-0.1l0,0l0,0h0.1c0,0,0,0,0-0.1l0,0l0,0l0,0l0,0c0,0,0,0,0-0.1l0,0l0.1-0.3
					c0,0,0-0.1,0-0.1s0-0.1,0-0.2s0-0.1,0-0.1s0-0.1,0-0.2c0,0,0,0,0-0.1c0,0,0-0.1,0-0.1c0-0.1,0-0.1,0-0.2c0,0,0-0.1,0-0.1
					c0-0.1,0-0.1,0-0.2s0-0.1,0-0.1s0-0.1,0-0.2s0-0.1,0-0.1s0-0.2,0.1-0.2h0.1h0.2h0.2l0.3-0.1h0.2l0.3-0.1c0.1,0,0.1,0,0.2,0
					l0.5-0.1l3.3,1.4c0,0,0.1,0,0.1,0h0.1c0,0,0,0,0.1,0h0.3c0,0,0.1,0,0.1,0h0.1c0,0,0.1,0,0.1,0l0,0l0.2-0.1l3.4-2l0,0l0,0
					l0.1-0.1l0,0l0,0l0,0l0,0l0,0l0,0l0,0v-3.6h0.2c0.8-0.1,1.4-0.1,1.8-0.1l0,0c0,0,0.1,0,0.1,0h1.2c0,0,0.1,0,0.1,0l0,0l0.2-0.1
					l0,0h0.1l0,0l0,0l0,0l0,0l0,0l0,0v-0.1c0,0,0-0.1,0-0.2l0,0c0,0,0-0.1,0-0.1l0,0c0-0.1,0-0.1,0-0.2l0,0c0-0.1,0-0.1,0-0.2v-0.6
					L117.8,129.7z"/>
				
					<linearGradient id="SVGID_22_" gradientUnits="userSpaceOnUse" x1="95.5967" y1="982.705" x2="102.6267" y2="950.265" gradientTransform="matrix(1 0 0 1 0 -828)">
					<stop  offset="0" style="stop-color:#FF8789"/>
					<stop  offset="0.53" style="stop-color:#84A2FC"/>
					<stop  offset="0.72" style="stop-color:#205FE3"/>
					<stop  offset="1" style="stop-color:#030F28"/>
				</linearGradient>
				<path class="st19" d="M114.9,135.1c0,0.1-0.1,0.2-0.2,0.3l-3.4,2c-0.1,0.1-0.3,0.1-0.5,0.1c-0.2,0-0.4,0-0.5-0.1l-3.3-1.4
					c-0.8,0.2-1.4,0.4-2,0.5c-0.2,0.7-0.4,1.5-0.5,2.2c0,0.1-0.1,0.3-0.2,0.3c-0.2,0.1-0.3,0.1-0.5,0.1c-0.7,0.1-1.7,0.1-3.2,0.1
					c-0.9,0.1-1.7,0-2.6-0.2c-0.1-0.1-0.2-0.2-0.3-0.3l-0.5-2.2c-0.7-0.1-1.3-0.3-2-0.5c-1.6,0.7-2.7,1.2-3.3,1.4
					c-0.3,0.1-0.7,0.1-1-0.1l-3.4-2c-0.1-0.1-0.2-0.2-0.2-0.3c0-0.1,0-0.2,0.2-0.3l2.4-1.9c-0.3-0.3-0.6-0.7-0.8-1.1l-3.8-0.3
					c-0.2,0-0.4,0-0.5-0.1c-0.1-0.1-0.2-0.2-0.2-0.3c-0.2-1-0.2-2,0-3c0-0.1,0.1-0.2,0.2-0.3c0.1-0.1,0.3-0.1,0.5-0.1
					c0.4,0,1-0.1,1.8-0.1l1.9-0.1c0.2-0.5,0.5-0.9,0.9-1.3l-2.4-1.9c-0.1-0.1-0.2-0.2-0.1-0.3c0-0.1,0.1-0.2,0.2-0.3l3.4-2
					c0.1-0.1,0.3-0.1,0.5-0.1c0.2,0,0.3,0,0.5,0.1l3.3,1.4c0.7-0.2,1.3-0.4,2-0.5c0.2-0.7,0.4-1.5,0.5-2.2c0-0.1,0.1-0.2,0.2-0.3
					c0.2-0.1,0.3-0.1,0.5-0.1c0.6-0.1,1.7-0.1,3.2-0.1c0.9-0.1,1.7,0,2.6,0.2c0.1,0.1,0.2,0.2,0.2,0.3l0.5,2.2
					c0.7,0.1,1.3,0.3,2,0.5c1.6-0.7,2.7-1.2,3.3-1.4c0.3-0.1,0.7-0.1,1,0.1l3.4,2c0.1,0.1,0.2,0.2,0.2,0.3c0,0.1,0,0.3-0.2,0.3
					l-2.4,1.9c0.3,0.3,0.6,0.7,0.8,1.1l3.9,0.3c0.2,0,0.4,0,0.5,0.1c0.1,0.1,0.2,0.2,0.2,0.3c0.1,1,0.1,2-0.1,3
					c0,0.1-0.1,0.2-0.2,0.3c-0.1,0.1-0.3,0.1-0.5,0.1c-0.4,0-1,0.1-1.8,0.1l-1.9,0.1c-0.2,0.4-0.5,0.9-0.9,1.2l2.4,1.9
					C114.8,134.9,114.9,135,114.9,135.1C114.9,135.1,114.9,135.1,114.9,135.1z M101.1,132.8c1.4,0,2.8-0.3,4-0.9
					c0.9-0.4,1.6-1.3,1.6-2.3c-0.1-1-0.7-1.9-1.7-2.3c-2.5-1.3-5.4-1.3-7.9,0c-0.9,0.4-1.6,1.3-1.6,2.3c0.1,1,0.7,1.9,1.7,2.3
					C98.4,132.5,99.7,132.8,101.1,132.8L101.1,132.8z"/>
				
					<linearGradient id="SVGID_23_" gradientUnits="userSpaceOnUse" x1="98.6155" y1="978.0383" x2="102.4655" y2="945.5983" gradientTransform="matrix(1 0 0 1 0 -828)">
					<stop  offset="0" style="stop-color:#FF8789"/>
					<stop  offset="0.53" style="stop-color:#84A2FC"/>
					<stop  offset="0.72" style="stop-color:#205FE3"/>
					<stop  offset="1" style="stop-color:#030F28"/>
				</linearGradient>
				<path class="st20" d="M114.9,135.1c0,0.1-0.1,0.2-0.2,0.3l-3.4,2c-0.1,0.1-0.3,0.1-0.5,0.1c-0.2,0-0.4,0-0.5-0.1l-3.3-1.4
					c-0.8,0.2-1.4,0.4-2,0.5c-0.2,0.7-0.4,1.5-0.5,2.2c0,0.1-0.1,0.3-0.2,0.3c-0.2,0.1-0.3,0.1-0.5,0.1c-0.7,0.1-1.7,0.1-3.2,0.1
					c-0.9,0.1-1.7,0-2.6-0.2c-0.1-0.1-0.2-0.2-0.3-0.3l-0.5-2.2c-0.7-0.1-1.3-0.3-2-0.5c-1.6,0.7-2.7,1.2-3.3,1.4
					c-0.3,0.1-0.7,0.1-1-0.1l-3.4-2c-0.1-0.1-0.2-0.2-0.2-0.3c0-0.1,0-0.2,0.2-0.3l2.4-1.9c-0.3-0.3-0.6-0.7-0.8-1.1l-3.8-0.3
					c-0.2,0-0.4,0-0.5-0.1c-0.1-0.1-0.2-0.2-0.2-0.3c-0.2-1-0.2-2,0-3c0-0.1,0.1-0.2,0.2-0.3c0.1-0.1,0.3-0.1,0.5-0.1
					c0.4,0,1-0.1,1.8-0.1l1.9-0.1c0.2-0.5,0.5-0.9,0.9-1.3l-2.4-1.9c-0.1-0.1-0.2-0.2-0.1-0.3c0-0.1,0.1-0.2,0.2-0.3l3.4-2
					c0.1-0.1,0.3-0.1,0.5-0.1c0.2,0,0.3,0,0.5,0.1l3.3,1.4c0.7-0.2,1.3-0.4,2-0.5c0.2-0.7,0.4-1.5,0.5-2.2c0-0.1,0.1-0.2,0.2-0.3
					c0.2-0.1,0.3-0.1,0.5-0.1c0.6-0.1,1.7-0.1,3.2-0.1c0.9-0.1,1.7,0,2.6,0.2c0.1,0.1,0.2,0.2,0.2,0.3l0.5,2.2
					c0.7,0.1,1.3,0.3,2,0.5c1.6-0.7,2.7-1.2,3.3-1.4c0.3-0.1,0.7-0.1,1,0.1l3.4,2c0.1,0.1,0.2,0.2,0.2,0.3c0,0.1,0,0.3-0.2,0.3
					l-2.4,1.9c0.3,0.3,0.6,0.7,0.8,1.1l3.9,0.3c0.2,0,0.4,0,0.5,0.1c0.1,0.1,0.2,0.2,0.2,0.3c0.1,1,0.1,2-0.1,3
					c0,0.1-0.1,0.2-0.2,0.3c-0.1,0.1-0.3,0.1-0.5,0.1c-0.4,0-1,0.1-1.8,0.1l-1.9,0.1c-0.2,0.4-0.5,0.9-0.9,1.2l2.4,1.9
					C114.8,134.9,114.9,135,114.9,135.1C114.9,135.1,114.9,135.1,114.9,135.1z M101.1,132.8c1.4,0,2.8-0.3,4-0.9
					c0.9-0.4,1.6-1.3,1.6-2.3c-0.1-1-0.7-1.9-1.7-2.3c-2.5-1.3-5.4-1.3-7.9,0c-0.9,0.4-1.6,1.3-1.6,2.3c0.1,1,0.7,1.9,1.7,2.3
					C98.4,132.5,99.7,132.8,101.1,132.8L101.1,132.8z"/>
			</g>
			<g>
				
					<linearGradient id="SVGID_24_" gradientUnits="userSpaceOnUse" x1="118.6866" y1="1043.4962" x2="98.9966" y2="905.9762" gradientTransform="matrix(1 0 0 1 0 -828)">
					<stop  offset="0" style="stop-color:#FF8789"/>
					<stop  offset="0.53" style="stop-color:#84A2FC"/>
					<stop  offset="0.72" style="stop-color:#205FE3"/>
					<stop  offset="1" style="stop-color:#030F28;stop-opacity:0"/>
				</linearGradient>
				<path class="st21" d="M144.3,23.8c0,0-85.5,0.9-85.5,0v144.4c0.1,1.1,0.8,2.1,1.8,2.6l36.6,20.8l0.5,0.2c0,0.1,0.1,0.1,0.2,0.1
					c0.1,0,0.2,0.1,0.3,0.1l0,0c0.2,0.1,0.4,0.2,0.7,0.2l0,0c0,0,0.1,0,0.2,0c0.1,0,0.3,0.1,0.4,0.1h0.1c0.1,0,0.1,0,0.2,0
					c0.1,0,0.2,0,0.3,0c0,0,0.1,0,0.1,0h0.2c0.1,0,0.2,0,0.3,0h1.5c0.1,0,0.3,0,0.4,0h0.2c0.2,0,0.5,0,0.7-0.1l0,0
					c0.1,0,0.1,0,0.2,0s0.2,0,0.3-0.1c0.1,0,0.2,0,0.3-0.1c0.1,0,0.2,0,0.3-0.1h0.1c0,0,0.1,0,0.1,0s0.3-0.1,0.5-0.2s0.1,0,0.2-0.1
					c0.2-0.1,0.4-0.2,0.6-0.3l36.3-20.8c0,0,0,0,0.1,0s0.1-0.1,0.2-0.1c0.1,0,0.2-0.1,0.2-0.2l0.2-0.1c0.1,0,0.2-0.1,0.2-0.2l0,0
					l0.2-0.2l0,0l0.1-0.1c0,0,0-0.1,0-0.1c0-0.1,0.1-0.1,0.2-0.2c0-0.1,0-0.1,0-0.1l0,0c0-0.1,0.1-0.1,0.1-0.2s0-0.1,0-0.1l0,0
					c0-0.1,0-0.1,0-0.2c0,0,0-0.1,0-0.1l0,0c0-0.1,0-0.1,0-0.2V23.8H144.3z"/>
			</g>
			<g>
				
					<linearGradient id="SVGID_25_" gradientUnits="userSpaceOnUse" x1="89.1889" y1="1132.5507" x2="103.7189" y2="949.4307" gradientTransform="matrix(1 0 0 1 0 -828)">
					<stop  offset="0" style="stop-color:#FF8789"/>
					<stop  offset="0.53" style="stop-color:#84A2FC"/>
					<stop  offset="0.72" style="stop-color:#205FE3"/>
					<stop  offset="1" style="stop-color:#030F28;stop-opacity:0"/>
				</linearGradient>
				<path class="st22" d="M174.3,100.7c-27.7-0.1-93.2-0.1-143.6-0.1l-0.1,71.5c0,1.5,1.1,3.1,3.1,4.3l61.5,34.9
					c0.3,0.1,0.5,0.3,0.8,0.4c0.1,0.1,0.2,0.1,0.3,0.1c0.2,0.1,0.3,0.2,0.5,0.2h0.1c0.4,0.1,0.7,0.3,1.1,0.4h0.1
					c0.1,0,0.2,0.1,0.3,0.1c0.2,0.1,0.4,0.1,0.6,0.1c0.1,0,0.1,0,0.1,0.1c0.1,0,0.2,0,0.3,0.1c0.2,0,0.4,0.1,0.6,0.1
					c0.1,0,0.2,0,0.2,0.1h0.3c0.1,0,0.3,0.1,0.5,0.1h2.6c0.2,0,0.5,0,0.7-0.1h0.4c0.4-0.1,0.8-0.1,1.2-0.1h0.1
					c0.1,0,0.2-0.1,0.3-0.1s0.4-0.1,0.6-0.1c0.1,0,0.3-0.1,0.4-0.1c0.2-0.1,0.4-0.1,0.6-0.1h0.1c0.1,0,0.1-0.1,0.2-0.1
					c0.3-0.1,0.6-0.2,0.8-0.3c0.1-0.1,0.2-0.1,0.3-0.1c0.3-0.1,0.7-0.4,1-0.5l61.1-34.9c0.1,0,0.1-0.1,0.1-0.1s0.2-0.1,0.3-0.2
					c0.1-0.1,0.3-0.2,0.4-0.3c0.1-0.1,0.2-0.1,0.3-0.2c0.1-0.1,0.3-0.2,0.4-0.3c0,0,0.1,0,0.1-0.1v0l0.4-0.3l0.1-0.1l0.2-0.2
					c0,0,0.1-0.1,0.1-0.1c0.1-0.1,0.2-0.3,0.3-0.4c0-0.1,0.1-0.1,0.1-0.1c0,0,0-0.1,0.1-0.1h0c0.1-0.1,0.1-0.2,0.1-0.4
					s0.1-0.1,0.1-0.2v-0.1c0.1-0.1,0.1-0.2,0.1-0.3c0-0.1,0.1-0.1,0.1-0.2v-0.1c0-0.1,0-0.2,0.1-0.3L174.3,100.7L174.3,100.7z"/>
			</g>
		</g>
	</g>
</g>
<g id="line2_1_">
	<g id="line2">
		
			<linearGradient id="line2-2_1_" gradientUnits="userSpaceOnUse" x1="101.8405" y1="1006.92" x2="101.7605" y2="918.66" gradientTransform="matrix(1 0 0 1 0 -828)">
			<stop  offset="0" style="stop-color:#FF8789"/>
			<stop  offset="0.53" style="stop-color:#84A2FC"/>
			<stop  offset="0.72" style="stop-color:#205FE3"/>
			<stop  offset="1" style="stop-color:#030F28;stop-opacity:0"/>
		</linearGradient>
		<path id="line2-2" class="st23" d="M170.6,116.8c4.1,2.4,4.1,6.3,0.1,8.7l-61.1,35.5c-4.7,2.4-10.3,2.4-14.9,0l-61.5-35.5
			c-4.1-2.4-4.2-6.2-0.1-8.7l61.1-35.5c4.7-2.4,10.3-2.4,14.9,0L170.6,116.8z"/>
	</g>
</g>
<g id="line1_1_">
	<g id="line1">
		
			<linearGradient id="line1-2_1_" gradientUnits="userSpaceOnUse" x1="101.8398" y1="982.48" x2="101.7598" y2="895.19" gradientTransform="matrix(1 0 0 1 0 -828)">
			<stop  offset="0" style="stop-color:#FF8789"/>
			<stop  offset="0.53" style="stop-color:#84A2FC"/>
			<stop  offset="0.72" style="stop-color:#205FE3"/>
			<stop  offset="1" style="stop-color:#030F28;stop-opacity:0"/>
		</linearGradient>
		<path id="line1-2" class="st24" d="M169.9,93c4.1,2.4,4.1,6.2,0.1,8.6l-60.6,35.1c-4.6,2.4-10.2,2.4-14.8,0l-60.9-35.1
			c-4.1-2.4-4.2-6.2-0.1-8.6l60.6-35.1c4.6-2.4,10.2-2.4,14.8,0L169.9,93z"/>
	</g>
</g>
</svg>
